<svg width="93" height="70" viewBox="0 0 93 70" fill="none" xmlns="http://www.w3.org/2000/svg">
<g clip-path="url(#clip0_99_10658)">
<path d="M65.2167 0C66.9255 0.643427 68.1114 1.92877 68.9201 3.53056C69.7453 5.16449 70.4229 6.87326 71.1648 8.54939C71.2848 8.82012 71.3782 9.10692 71.5299 9.35907C71.6957 9.63382 71.6098 9.75437 71.337 9.81113C71.0372 9.87341 70.7333 9.9166 70.4344 9.98291C69.8689 10.1085 68.6985 9.96633 68.143 9.68656C67.8015 10.4867 67.481 11.2959 67.1143 12.083C66.3343 13.7591 65.5683 15.4437 64.728 17.0897C63.3859 19.7197 61.8599 22.2407 60.0668 24.5929C58.6257 26.483 57.029 28.2264 55.2072 29.7579C53.3753 31.2979 51.3587 32.532 49.1315 33.4175C47.806 33.9444 46.4368 34.3151 45.0319 34.5441C44.3739 34.6511 43.7054 34.7089 43.0388 34.743C42.1387 34.7897 41.2351 34.8319 40.3355 34.8013C39.6434 34.7777 38.9492 34.6702 38.2671 34.5416C37.4188 34.3824 36.5538 34.2417 35.7472 33.9514C34.5864 33.534 33.4467 33.0383 32.3422 32.4868C30.5691 31.6012 28.9819 30.4254 27.4941 29.121C26.7035 28.4278 25.9134 27.7306 25.1731 26.9852C24.2961 26.1027 23.4598 25.178 22.6295 24.2508C21.6023 23.1041 20.6033 21.9323 19.5842 20.778C18.7765 19.8628 17.9552 18.9597 17.1441 18.0476C17.0054 17.8914 16.8527 17.8246 16.6398 17.8346C16.252 17.8522 15.8632 17.8351 15.475 17.8457C14.607 17.8683 14.5442 17.6362 14.4438 16.9908C14.1514 15.1052 14.5648 13.3693 15.6648 11.8082C15.8235 11.5827 16.04 11.3938 16.251 11.2125C16.3218 11.1512 16.467 11.1276 16.5624 11.1507C17.4494 11.3657 18.0959 11.8986 18.4656 12.7244C18.7855 13.4386 19.0166 14.1931 19.3416 14.9048C19.7419 15.7803 20.1693 16.6462 20.639 17.486C21.4004 18.8482 22.3663 20.0713 23.3839 21.2476C24.4262 22.4526 25.6096 23.514 26.8537 24.509C28.5705 25.8817 30.441 27.0063 32.4386 27.9099C33.624 28.4459 34.8441 28.91 36.1209 29.1903C37.142 29.4143 38.1606 29.6755 39.1949 29.8086C40.1683 29.9337 41.1613 29.9663 42.1438 29.9457C44.1604 29.903 46.148 29.6463 48.0551 28.9291C49.9568 28.2133 51.7193 27.256 53.3563 26.0485C54.6115 25.1228 55.7868 24.1112 56.8502 22.9745C58.7342 20.9588 60.4535 18.8151 61.8333 16.4142C62.7726 14.7797 63.5521 13.072 64.061 11.2567C64.3523 10.2185 64.5698 9.15464 64.7431 8.08929C64.8907 7.18167 64.9334 6.25696 65.0098 5.33828C65.0469 4.89125 65.0901 4.4407 65.07 3.99467C65.0304 3.11316 64.9605 2.23266 64.8787 1.35416C64.8335 0.868952 64.838 0.409362 65.2162 0.000502285L65.2167 0Z" fill="#FF2B77"/>
<path d="M51.0903 44.8043V49.459C51.3188 49.2726 51.4916 49.1269 51.6689 48.9883C53.2195 47.7758 56.1875 48.1731 56.4366 51.0537C56.6099 53.0593 56.4698 55.0926 56.4698 57.1459H53.878C53.8694 56.9802 53.8539 56.8129 53.8539 56.6456C53.8519 55.2267 53.8619 53.8082 53.8458 52.3898C53.8418 52.0512 53.7941 51.7022 53.6977 51.3787C53.5103 50.7498 52.9111 50.467 52.122 50.5861C51.6152 50.6624 51.1119 51.3134 51.1084 51.9427C51.0988 53.5013 51.1054 55.0604 51.1049 56.619C51.1049 56.7888 51.1049 56.9581 51.1049 57.1524H48.4031V44.8038C48.4307 44.7681 48.4578 44.732 48.4855 44.6963C49.3263 44.6963 50.1671 44.6963 51.0079 44.6963C51.0356 44.7325 51.0627 44.7686 51.0903 44.8048V44.8043Z" fill="white"/>
<path d="M46.8109 56.8918C46.2463 57.0289 45.6782 57.2695 45.1031 57.2866C43.7243 57.3267 42.334 57.4418 40.9954 56.8903C39.2425 56.168 38.154 54.9047 37.7311 53.0714C37.3539 51.4354 37.4322 49.8171 38.2369 48.3243C39.3233 46.3096 41.0482 45.2393 43.3562 45.2342C44.3356 45.2322 45.3161 45.3488 46.294 45.4326C46.5075 45.4512 46.7129 45.5612 46.935 45.6336C46.7586 46.3644 46.5959 47.04 46.4181 47.7758C46.1785 47.7075 45.96 47.6342 45.7365 47.5824C44.3266 47.2569 42.9518 47.1781 41.7082 48.1229C40.8779 48.7537 40.5208 49.6559 40.4208 50.6222C40.3515 51.2933 40.4545 52.0086 40.6142 52.6716C40.9507 54.0694 42.224 55.0795 43.758 55.0876C44.5034 55.0916 45.2523 54.9278 45.9947 54.8113C46.2935 54.7641 46.4472 54.8028 46.4944 55.1383C46.5728 55.6948 46.6923 56.2453 46.8114 56.8913L46.8109 56.8918Z" fill="white"/>
<path d="M35.9746 56.0108C35.938 54.4406 35.9681 52.866 35.8556 51.3008C35.7662 50.0547 35.176 49.0742 33.8922 48.6493C32.2537 48.1068 30.6655 48.3811 29.0948 48.928C28.9823 48.9682 28.8256 49.1616 28.8447 49.251C28.9572 49.7905 29.1159 50.3194 29.2716 50.899C30.1928 50.3364 31.1226 50.2089 32.0955 50.2616C32.8298 50.3018 33.2462 50.779 33.0644 51.4229C31.9001 51.3968 30.779 51.5806 29.7252 52.1201C28.809 52.5882 27.916 53.7008 28.2158 55.2262C28.4484 56.4096 29.5253 57.3298 30.7388 57.3288C31.7705 57.3277 32.6676 57.0867 33.4481 56.3518C33.5124 56.6401 33.5662 56.8767 33.6249 57.1404H36.0399C36.0158 56.7376 35.9832 56.3749 35.9746 56.0108ZM33.2452 54.3407C33.199 54.9233 32.755 55.2011 32.2808 55.3713C31.879 55.5155 31.4551 55.4753 31.1145 55.1443C30.7654 54.8038 30.7232 54.3713 30.9513 54.0031C31.1261 53.7193 31.4445 53.4617 31.7559 53.3406C32.1954 53.1703 32.6877 53.1377 33.2517 53.0272C33.2517 53.5445 33.2769 53.9444 33.2452 54.3407Z" fill="white"/>
<path d="M17.0661 56.3764C17.0535 54.8882 17.0827 53.3989 17.0284 51.9126C16.9686 50.3013 16.391 49.1169 15.0635 48.6679C13.3899 48.0998 11.7348 48.3178 10.1235 48.9717C10.0311 49.0094 9.90903 49.1737 9.92661 49.2515C10.0446 49.79 10.1958 50.3204 10.3505 50.903C11.2677 50.3435 12.1954 50.2038 13.1694 50.2616C13.9087 50.3058 14.2905 50.7307 14.1749 51.344C13.4752 51.444 12.7846 51.4942 12.1176 51.6479C10.5233 52.0121 9.09583 52.9036 9.2882 55.083C9.38916 56.2137 10.444 57.2348 11.5696 57.3117C12.6741 57.3865 13.6877 57.1886 14.529 56.3473C14.6059 56.6597 14.6677 56.9078 14.7289 57.156H17.1238C17.1007 56.8531 17.0681 56.6155 17.0661 56.3764ZM14.3442 54.3236C14.3146 54.8977 13.65 55.4246 12.982 55.4256C12.3446 55.4266 11.983 55.0966 11.9197 54.4547C11.8735 53.9911 12.1246 53.6576 12.5033 53.5059C13.0619 53.2828 13.6601 53.1598 14.3472 52.9644C14.3472 53.5305 14.3643 53.9278 14.3442 54.3231V54.3236Z" fill="white"/>
<path d="M66.2332 51.5896C66.1353 50.6147 65.7581 49.7131 64.9363 49.1485C64.4295 48.8005 63.7972 48.5659 63.1894 48.4479C61.8819 48.1952 60.6358 48.4278 59.6543 49.3932C58.2725 50.7553 57.8662 52.4244 58.3293 54.2944C58.6608 55.629 59.4619 56.5914 60.784 57.0249C62.3973 57.5548 64.0161 57.4026 65.6149 56.9189C65.7013 56.8928 65.8274 56.7546 65.8168 56.6873C65.7284 56.1142 65.6129 55.5451 65.532 55.1147C64.4793 55.186 63.5601 55.3136 62.6449 55.2935C61.8192 55.2754 60.8472 54.7003 60.8055 53.7128H66.1403C66.177 53.6857 66.2152 53.6581 66.2528 53.6309C66.2508 52.9503 66.301 52.2637 66.2337 51.5896H66.2332ZM63.8183 51.8348H60.7995C60.9055 50.8091 61.5725 50.1099 62.4003 50.1571C63.3175 50.2099 63.8876 50.9618 63.8183 51.8348Z" fill="white"/>
<path d="M73.9188 55.2026C72.9775 55.3467 72.0257 55.4909 71.1115 55.0986C70.5364 54.8515 70.1291 54.4316 70.0241 53.7218H75.7014C75.5783 52.6922 75.5613 51.7298 75.3292 50.8242C75.057 49.7648 74.3563 48.928 73.2764 48.6206C72.5611 48.4177 71.767 48.3313 71.0307 48.4072C70.0557 48.5061 69.1712 48.9562 68.5474 49.7618C67.6051 50.9789 67.2294 52.3431 67.5071 53.8846C67.7387 55.1699 68.3243 56.1996 69.5128 56.7918C71.2702 57.6668 73.0775 57.388 74.8736 56.9199C74.9681 56.8948 75.0756 56.6517 75.062 56.5236C75.0072 56.0158 74.9063 55.514 74.8169 54.9796C74.4803 55.0649 74.2036 55.1584 73.9188 55.2026ZM71.6279 50.1627C72.4968 50.2184 73.0709 50.6674 73.0689 51.8348H70.0557C70.118 50.8744 70.8247 50.1109 71.6284 50.1627H71.6279Z" fill="white"/>
<path d="M92.225 50.903C91.7172 49.2118 90.4791 48.491 89.036 48.3821C88.0199 48.3052 87.0375 48.4388 86.1856 49.0742C84.6868 50.1933 84.2051 51.7423 84.3407 53.5285C84.4502 54.963 85.1012 56.0831 86.3835 56.8029C87.6256 57.501 88.9707 57.3488 90.2963 57.2539C90.8779 57.2117 91.447 57.0028 92.0231 56.8692C91.8981 56.1876 91.7886 55.5893 91.6781 54.9886C91.2109 55.0916 90.8156 55.2202 90.4118 55.2588C89.4138 55.3568 88.3996 55.4954 87.5141 54.8183C87.1595 54.5471 86.945 54.2156 86.9641 53.7138H92.3069C92.3366 53.6867 92.3657 53.6581 92.3963 53.6309C92.3677 52.7213 92.5003 51.8197 92.225 50.9035V50.903ZM86.9496 51.8096C86.9064 51.0396 87.592 50.1817 88.3303 50.1677C89.0752 50.1541 89.8322 50.358 89.9899 51.8096H86.949H86.9496Z" fill="white"/>
<path d="M0 45.2965C0.962377 45.2965 1.87201 45.2779 2.77964 45.3141C2.93636 45.3201 3.15435 45.5296 3.22467 45.6953C3.83595 47.1394 4.4196 48.595 5.01431 50.0461C5.04294 50.1164 5.1002 50.1752 5.17906 50.2897C5.54271 49.4072 5.8923 48.5639 6.23837 47.719C6.53171 47.0023 6.81249 46.2805 7.12089 45.5703C7.17162 45.4537 7.33587 45.3116 7.45039 45.3091C8.37309 45.288 9.29628 45.297 10.3149 45.297C9.84277 46.1378 9.41382 46.9038 8.98236 47.6683C8.18875 49.0747 7.3861 50.4761 6.60806 51.891C6.48952 52.1065 6.43427 52.3822 6.43125 52.6314C6.41518 54.1181 6.42322 55.6049 6.42322 57.1349H3.71691V56.4025C3.71691 55.3342 3.67723 54.2643 3.73147 53.199C3.76563 52.5304 3.5391 51.989 3.23471 51.4299C2.16585 49.468 1.1211 47.493 0.068813 45.522C0.0457079 45.4793 0.0391782 45.4276 0 45.2965Z" fill="white"/>
<path d="M77.1966 54.7897C77.9973 55.2066 78.7798 55.513 79.6613 55.4251C80.0576 55.3854 80.467 55.401 80.5609 54.8495C80.6548 54.297 80.2641 54.1598 79.9014 53.986C79.2268 53.6631 78.482 53.4401 77.8852 53.0101C76.3729 51.9211 76.6627 50.0682 77.9716 49.0807C79.1359 48.2022 80.4856 48.2289 81.8171 48.5056C82.889 48.7286 82.8724 48.7914 82.5645 49.8889C82.4917 50.1491 82.45 50.4183 82.4153 50.5816C81.687 50.4746 80.9818 50.3189 80.2721 50.2953C80.0179 50.2867 79.7532 50.5986 79.4936 50.7639C79.6518 51.007 79.7583 51.3295 79.9803 51.4751C80.3223 51.6991 80.7412 51.8081 81.132 51.9533C81.8674 52.227 82.5821 52.5952 82.9227 53.3105C83.5344 54.5968 83.2803 56.283 81.6549 56.938C80.1641 57.5382 78.6266 57.4639 77.1097 56.9666C76.8415 56.8787 76.6637 56.7084 76.7566 56.3819C76.9023 55.8686 77.0409 55.3538 77.1961 54.7892L77.1966 54.7897Z" fill="white"/>
<path d="M21.7539 57.1499H19.1169V44.7083H21.7539V57.1499Z" fill="white"/>
<path d="M23.9543 44.6908H26.6029V57.1514H23.9543V44.6908Z" fill="white"/>
<path d="M38.4962 63.3687C38.1828 63.4878 37.783 63.1869 37.7061 63.7545C36.9964 63.1382 36.0727 63.1286 35.4343 63.6872C34.6246 64.3959 34.4624 65.6963 35.0842 66.612C35.368 67.0329 35.7457 67.3569 36.2992 67.288C36.7578 67.2313 37.2089 67.1208 37.6694 67.0324C37.9492 68.2439 36.7879 69.0214 35.267 68.2484C35.2093 68.4302 35.1525 68.6081 35.0912 68.7984C35.7778 69.156 36.4615 69.1495 37.1516 69.0059C37.7764 68.8743 38.2215 68.5272 38.3053 67.8596C38.3882 67.1926 38.462 66.5231 38.4882 65.852C38.5188 65.0388 38.4957 64.2251 38.4957 63.3687H38.4962ZM37.679 65.2985C37.6609 65.5743 37.6981 65.8676 37.6127 66.1187C37.4751 66.5246 37.1571 66.7647 36.7061 66.7742C36.254 66.7838 35.8954 66.6215 35.6839 66.2011C35.254 65.3447 35.4428 64.4803 36.1194 63.984C36.5192 63.6907 36.9135 63.8303 37.2154 64.0252C37.4424 64.1714 37.5414 64.5426 37.6559 64.8299C37.7096 64.9655 37.6654 65.1413 37.6654 65.298C37.6694 65.299 37.674 65.299 37.679 65.299V65.2985Z" fill="white"/>
<path d="M48.8833 61.9357V67.3765H48.2765C48.2403 67.3488 48.2047 67.3217 48.1685 67.2941V64.8022H45.4396C45.4396 65.6295 45.4396 66.4618 45.4396 67.2941C45.4034 67.3217 45.3673 67.3488 45.3311 67.3765C45.1423 67.3765 44.9534 67.3765 44.7249 67.3765C44.7249 65.5517 44.7249 63.7434 44.7249 61.9352C44.753 61.9056 44.7811 61.8759 44.8092 61.8458H45.4682V64.0769H48.1032V61.8458H48.7994C48.8275 61.8759 48.8551 61.9056 48.8833 61.9357Z" fill="white"/>
<path d="M67.034 63.7977C66.1515 62.987 65.2469 63.096 64.3845 63.986C64.3604 63.7294 64.3443 63.5696 64.3287 63.3958C64.1017 63.4084 63.9194 63.419 63.7461 63.4285V68.9722C63.7777 68.9702 63.8094 68.9732 63.8395 68.9807H64.4739V67.0053C65.6201 67.7446 66.5805 67.6532 67.2947 66.5005C67.7237 65.8073 67.6122 64.3306 67.034 63.7972V63.7977ZM66.7774 65.405C66.7764 66.2348 66.4167 66.7828 65.81 66.8742C65.1871 66.9686 64.5407 66.5346 64.4744 65.9053C64.4342 65.518 64.4669 65.1006 64.5734 64.7274C64.7677 64.0448 65.1811 63.8333 65.928 63.9293C66.3479 63.983 66.7377 64.4888 66.7769 65.0378C66.7854 65.1599 66.7779 65.2829 66.7779 65.405H66.7774Z" fill="white"/>
<path d="M59.2484 63.317C58.835 63.3778 58.4533 63.6485 58.059 63.8218C58.0514 63.7419 58.0379 63.5832 58.0253 63.4335H57.3713V68.9491H58.057V66.8963C58.2242 67.0143 58.2935 67.0595 58.3598 67.1087C59.1329 67.6954 60.7115 67.5422 61.0797 66.1644C61.1229 66.0012 61.15 65.8319 61.1731 65.6637C61.3203 64.5928 60.7934 63.0889 59.2484 63.317ZM60.0656 66.4954C59.726 66.9174 59.2675 66.9867 58.8425 66.835C58.3839 66.6717 58.1293 66.2564 58.1464 65.7305C58.1494 65.6255 58.1474 65.52 58.1474 65.416C58.1338 65.413 58.1212 65.411 58.1072 65.4085C58.1544 65.1373 58.166 64.853 58.2564 64.5963C58.4543 64.0317 58.7843 63.8665 59.491 63.9177C59.9074 63.9494 60.2755 64.3311 60.3725 64.8118C60.4945 65.4165 60.48 65.9791 60.0656 66.4944V66.4954Z" fill="white"/>
<path d="M3.32219 61.9543C2.5542 61.7926 1.75104 61.7926 0.961954 61.7484C0.905196 61.7453 0.783141 61.9558 0.782136 62.0668C0.770584 63.8283 0.774602 65.5893 0.774602 67.3699H1.51095V65.297C2.13278 65.178 2.71945 65.1297 3.25991 64.9469C3.97717 64.7038 4.21274 64.0478 4.21575 63.3702C4.21776 62.7529 4.00982 62.0994 3.32169 61.9543H3.32219ZM3.4116 63.5666C3.36539 64.3512 2.87315 64.629 1.53757 64.533V62.3812C3.14036 62.214 3.46986 62.5821 3.4116 63.5666Z" fill="white"/>
<path d="M32.1964 67.3795H31.4605C31.4605 66.7099 31.4691 66.0509 31.456 65.3924C31.4515 65.1563 31.4098 64.9188 31.3611 64.6867C31.221 64.0182 31.021 63.8715 30.3686 63.9318C29.8979 63.9755 29.5564 64.3522 29.5478 64.8846C29.5348 65.7023 29.5443 66.5206 29.5443 67.3649H28.7864V63.4355H29.3228C29.3504 63.5686 29.3801 63.7108 29.4007 63.8112C29.7734 63.6344 30.1139 63.3647 30.4821 63.3185C31.6675 63.1703 32.0784 63.7409 32.1808 64.8213C32.2597 65.6506 32.1964 66.4939 32.1964 67.3795Z" fill="white"/>
<path d="M54.5733 64.7319C54.5482 63.9664 54.1619 63.3953 53.5722 63.3351C53.085 63.2858 52.5772 63.3562 52.0905 63.4426C51.7002 63.5109 51.6224 63.7655 51.9077 64.0779C53.2307 63.6078 53.8154 63.8127 53.8018 64.752C53.7526 64.7585 53.7008 64.7616 53.6501 64.7711C52.9821 64.8952 52.2658 64.8901 51.7515 65.4442C51.4109 65.8123 51.3361 66.2433 51.4978 66.7064C51.6324 67.0901 51.8816 67.3774 52.316 67.4036C52.8565 67.4362 53.3949 67.4267 53.8159 66.9977C53.8329 66.9796 53.8802 66.9912 53.9349 66.9892C53.9455 67.1173 53.957 67.2459 53.9696 67.3855H54.5808C54.5808 66.4758 54.6029 65.6029 54.5733 64.7319ZM52.9811 66.8807C52.6119 66.9194 52.2543 66.8114 52.2216 66.4347C52.1985 66.1634 52.3457 65.7355 52.5531 65.6185C52.9022 65.4216 53.3598 65.4165 53.8204 65.3206C53.8897 66.3829 53.633 66.8119 52.9811 66.8802V66.8807Z" fill="white"/>
<path d="M83.1681 64.9494C83.0421 64.0061 82.7286 63.4516 81.923 63.313C80.3443 63.0427 79.7164 64.1608 79.6079 65.2935C79.5341 66.0519 79.8224 66.7335 80.498 67.1675C81.3047 67.6869 82.1219 67.5126 82.9275 67.1991C82.8843 67.0098 82.8517 66.8646 82.813 66.6933C81.1515 67.2539 80.3634 66.5356 80.3729 65.4984H83.1717C83.1717 65.291 83.1917 65.1177 83.1686 64.9494H83.1681ZM82.3991 64.963H80.3322C80.6919 64.0056 81.0852 63.6937 81.7205 63.8313C82.1907 63.9333 82.4474 64.3532 82.3991 64.963Z" fill="white"/>
<path d="M73.7053 67.2941V63.4411H74.3091C74.3221 63.5701 74.3372 63.7253 74.3397 63.749C74.7797 63.5978 75.2056 63.3577 75.6487 63.319C76.5467 63.2406 77.0088 63.7821 77.0847 64.8314C77.1435 65.6476 77.0812 66.4728 77.0726 67.2941C77.0365 67.3217 77.0003 67.3493 76.9636 67.3765C76.7743 67.3765 76.5849 67.3765 76.3418 67.3765C76.3418 66.6466 76.3488 65.9339 76.3373 65.2211C76.3338 65.0217 76.2906 64.8183 76.2378 64.6244C76.0651 63.9921 75.8656 63.863 75.2026 63.9268C74.8395 63.9619 74.4517 64.4059 74.4412 64.8545C74.4241 65.6059 74.4366 66.3583 74.4341 67.1102C74.4341 67.1941 74.4151 67.2775 74.403 67.3765H73.8133C73.7772 67.3488 73.741 67.3212 73.7053 67.2941Z" fill="white"/>
<path d="M14.6445 67.2941V63.4411H15.2483C15.2613 63.5701 15.2764 63.7253 15.2789 63.749C15.7189 63.5978 16.1449 63.3577 16.5879 63.319C17.486 63.2406 17.9481 63.7816 18.0239 64.8314C18.0827 65.6476 18.0204 66.4728 18.0118 67.2941C17.9757 67.3217 17.9395 67.3493 17.9029 67.3765H17.281C17.281 66.6466 17.2881 65.9339 17.2765 65.2211C17.273 65.0217 17.2298 64.8183 17.1771 64.6244C17.0043 63.9921 16.8049 63.863 16.1418 63.9268C15.7787 63.9619 15.3909 64.4059 15.3804 64.8545C15.3633 65.6059 15.3759 66.3583 15.3733 67.1102C15.3733 67.1941 15.3543 67.2775 15.3422 67.3765H14.7525C14.7164 67.3488 14.6802 67.3212 14.6445 67.2941Z" fill="white"/>
<path d="M90.3369 67.3313C90.4334 67.0208 90.4891 66.842 90.5333 66.7004C90.8869 66.7637 91.2129 66.844 91.5439 66.8747C91.9025 66.9078 92.234 66.7797 92.2888 66.3935C92.3365 66.0595 92.1271 65.8324 91.787 65.7074C91.4821 65.5949 91.1742 65.4497 90.9176 65.2538C90.1681 64.6817 90.3917 63.8117 91.1581 63.435C91.7061 63.1653 92.3034 63.218 92.8845 63.53C92.8157 63.7153 92.7574 63.872 92.6951 64.0388C92.445 63.9654 92.1989 63.8097 91.9975 63.8544C91.7081 63.9187 91.4515 64.1297 91.1807 64.2779C91.3123 64.4738 91.4133 64.7038 91.5841 64.8555C91.7318 64.9866 91.9608 65.0243 92.1507 65.1112C92.8945 65.4522 93.1125 65.8756 92.9488 66.6532C92.8529 67.1082 92.3476 67.4076 91.6549 67.3981C91.239 67.392 90.8231 67.3574 90.3369 67.3323V67.3313Z" fill="white"/>
<path d="M85.3989 67.3232C85.4954 67.0158 85.5516 66.837 85.5923 66.7069C85.9685 66.7682 86.3136 66.8546 86.6622 66.8717C86.9912 66.8877 87.3448 66.7451 87.3358 66.3905C87.3302 66.1629 87.0876 65.8917 86.8807 65.7315C86.6135 65.5255 86.2232 65.4668 85.9831 65.2412C85.7556 65.0273 85.5391 64.6857 85.5225 64.3889C85.4964 63.9172 85.9881 63.3873 86.4613 63.3376C86.9289 63.2884 87.4091 63.3647 87.9757 63.3898C87.8742 63.6972 87.8184 63.8655 87.7607 64.0408C87.5005 63.9649 87.2534 63.8082 87.0515 63.8539C86.7626 63.9192 86.5075 64.1327 86.2378 64.2824C86.3719 64.4773 86.4748 64.7093 86.6491 64.8565C86.8144 64.9961 87.0575 65.0413 87.2609 65.1393C87.9636 65.4773 88.1721 65.9063 88.0073 66.6577C87.9104 67.1002 87.4096 67.4071 86.7616 67.3965C86.3297 67.3895 85.8977 67.3508 85.3984 67.3227L85.3989 67.3232Z" fill="white"/>
<path d="M20.9599 63.9247H20.3496V63.3225C20.5264 63.3105 20.7113 63.2974 20.9272 63.2828C21.0377 62.8559 20.7077 62.0819 21.6842 62.2702V63.3863H22.7093V63.9092H21.6952C21.6952 64.7138 21.6711 65.4788 21.7033 66.2413C21.7254 66.7647 22.0619 66.9621 22.6024 66.8581C22.6164 67.0274 22.629 67.1755 22.6466 67.3905C22.3653 67.4252 22.09 67.5231 21.8419 67.4769C21.2653 67.3704 20.9765 66.9385 20.9629 66.2297C20.9483 65.4808 20.9599 64.7314 20.9599 63.9247Z" fill="white"/>
<path d="M6.64332 63.427H7.27821V63.9674C7.48314 63.7841 7.65794 63.5651 7.88547 63.442C8.09643 63.328 8.36264 63.317 8.6394 63.2522V63.7947C8.30187 63.987 7.87995 64.095 7.69963 64.3647C7.48867 64.6807 7.43995 65.1332 7.4073 65.5331C7.36059 66.1072 7.39223 66.6878 7.38771 67.2659C7.38771 67.2966 7.36109 67.3267 7.33849 67.3739H6.64282V63.427H6.64332Z" fill="white"/>
<path d="M25.2231 63.3506H25.9379V67.3624H25.2231V63.3506Z" fill="white"/>
<path d="M11.7865 63.5124V67.3765H11.1798C11.1436 67.3488 11.1079 67.3217 11.0718 67.2941C11.0718 66.0233 11.0718 64.7525 11.0718 63.4225H11.7026C11.7308 63.4526 11.7584 63.4822 11.7865 63.5124Z" fill="white"/>
<path d="M70.1326 67.2941V63.4225H70.7634C70.7916 63.4526 70.8192 63.4822 70.8473 63.5124V67.3765H70.2406C70.2044 67.3488 70.1687 67.3217 70.1326 67.2941Z" fill="white"/>
<path d="M25.5934 61.6298C25.7878 61.9051 26.0073 62.0874 25.9761 62.2019C25.9279 62.3817 25.6964 62.652 25.5688 62.6384C25.3845 62.6188 25.2242 62.3787 25.054 62.2331C25.1981 62.0718 25.3423 61.9106 25.5939 61.6298H25.5934Z" fill="white"/>
<path d="M11.2875 61.7478C11.7501 61.7805 11.8786 61.9749 11.7958 62.2526C11.7476 62.4144 11.5522 62.5324 11.4231 62.6705C11.2714 62.5239 11.0398 62.3973 10.9956 62.223C10.9635 62.0974 11.1815 61.9086 11.2875 61.7478Z" fill="white"/>
<path d="M70.3358 61.7574C70.7512 61.787 70.8833 61.9046 70.8782 62.2295C70.8737 62.5314 70.7562 62.7368 70.4649 62.6515C70.2911 62.6002 70.1052 62.3802 70.0535 62.1989C70.0218 62.0874 70.2333 61.9071 70.3358 61.7574Z" fill="white"/>
<path d="M66.1394 53.7138C66.1771 53.6867 66.2147 53.6591 66.2519 53.6319C66.2142 53.6591 66.1766 53.6867 66.1394 53.7138Z" fill="white"/>
<path d="M44.8092 61.8463C44.7811 61.8759 44.753 61.9056 44.7249 61.9357C44.753 61.9061 44.7811 61.8764 44.8092 61.8463Z" fill="white"/>
<path d="M14.6445 67.2941C14.6807 67.3217 14.7169 67.3493 14.7525 67.3764C14.7164 67.3488 14.6802 67.3212 14.6445 67.2941Z" fill="white"/>
<path d="M17.9028 67.377C17.939 67.3493 17.9752 67.3217 18.0118 67.2946C17.9757 67.3222 17.9395 67.3498 17.9028 67.377Z" fill="white"/>
<path d="M73.7053 67.2941C73.7415 67.3217 73.7777 67.3493 73.8133 67.3764C73.7772 67.3488 73.741 67.3212 73.7053 67.2941Z" fill="white"/>
<path d="M76.9636 67.377C76.9998 67.3493 77.0359 67.3217 77.0726 67.2946C77.0365 67.3222 77.0003 67.3498 76.9636 67.377Z" fill="white"/>
<path d="M63.7461 68.9722C63.7777 68.9702 63.8089 68.9732 63.8395 68.9802C63.8119 69.0048 63.7843 69.029 63.7566 69.0536C63.7531 69.0264 63.7501 68.9993 63.7466 68.9722H63.7461Z" fill="white"/>
</g>
<defs>
<clipPath id="clip0_99_10658">
<rect width="93" height="69.0988" fill="white"/>
</clipPath>
</defs>
</svg>
