<svg width="339" height="455" viewBox="0 0 339 455" fill="none" xmlns="http://www.w3.org/2000/svg">
<g filter="url(#filter0_dd_18413_6265)">
<g clip-path="url(#clip0_18413_6265)">
<path d="M1.3125 1.31271C1.3125 0.587708 1.90023 0 2.62523 0H327.919C329.369 0 330.544 1.17546 330.544 2.62545V446.327H2.62521C1.90021 446.327 1.3125 445.74 1.3125 445.015V1.31271Z" fill="#FF2B77"/>
<g style="mix-blend-mode:color-burn">
<path d="M14.8696 0L14.8696 472.188" stroke="#B3B3B3" stroke-width="0.704713"/>
</g>
<path d="M305.465 436.956L305.728 436.921C305.758 437.07 305.809 437.178 305.881 437.244C305.954 437.309 306.043 437.342 306.147 437.342C306.271 437.342 306.375 437.299 306.46 437.213C306.545 437.128 306.588 437.022 306.588 436.895C306.588 436.774 306.549 436.675 306.47 436.597C306.391 436.518 306.291 436.479 306.169 436.479C306.119 436.479 306.058 436.489 305.984 436.508L306.013 436.278C306.03 436.279 306.044 436.28 306.055 436.28C306.167 436.28 306.268 436.251 306.357 436.193C306.447 436.134 306.492 436.044 306.492 435.923C306.492 435.826 306.459 435.747 306.394 435.683C306.329 435.62 306.245 435.588 306.141 435.588C306.039 435.588 305.954 435.62 305.886 435.685C305.818 435.749 305.774 435.845 305.754 435.974L305.492 435.927C305.524 435.751 305.597 435.615 305.711 435.518C305.825 435.421 305.966 435.372 306.136 435.372C306.252 435.372 306.36 435.398 306.458 435.448C306.557 435.498 306.631 435.566 306.683 435.653C306.736 435.739 306.762 435.831 306.762 435.929C306.762 436.021 306.737 436.105 306.687 436.181C306.638 436.257 306.564 436.317 306.467 436.362C306.593 436.391 306.692 436.452 306.762 436.545C306.832 436.636 306.867 436.751 306.867 436.889C306.867 437.076 306.799 437.235 306.663 437.365C306.526 437.495 306.354 437.559 306.146 437.559C305.958 437.559 305.802 437.503 305.677 437.392C305.553 437.28 305.483 437.135 305.465 436.956Z" fill="white"/>
<path d="M302.605 435.661V435.409H303.991V435.613C303.854 435.758 303.719 435.951 303.585 436.191C303.451 436.432 303.348 436.679 303.275 436.933C303.223 437.112 303.189 437.308 303.174 437.521H302.904C302.907 437.353 302.94 437.15 303.004 436.911C303.067 436.673 303.157 436.443 303.275 436.222C303.394 436 303.52 435.813 303.653 435.661H302.605Z" fill="white"/>
<path d="M300.701 437.521H300.438V435.847C300.374 435.907 300.291 435.967 300.188 436.028C300.086 436.088 299.994 436.133 299.912 436.164V435.91C300.059 435.84 300.188 435.757 300.298 435.658C300.408 435.56 300.485 435.465 300.531 435.372H300.701V437.521Z" fill="white"/>
<path d="M296.834 436.466C296.834 436.213 296.86 436.009 296.911 435.856C296.964 435.701 297.041 435.582 297.144 435.498C297.247 435.414 297.376 435.372 297.532 435.372C297.647 435.372 297.748 435.396 297.834 435.442C297.921 435.488 297.992 435.555 298.049 435.642C298.105 435.729 298.15 435.835 298.182 435.961C298.214 436.085 298.23 436.254 298.23 436.466C298.23 436.717 298.204 436.92 298.152 437.075C298.101 437.229 298.023 437.348 297.92 437.432C297.818 437.516 297.689 437.558 297.532 437.558C297.326 437.558 297.163 437.484 297.046 437.336C296.905 437.158 296.834 436.868 296.834 436.466ZM297.104 436.466C297.104 436.817 297.145 437.051 297.227 437.168C297.309 437.284 297.411 437.342 297.532 437.342C297.653 437.342 297.754 437.284 297.836 437.167C297.918 437.05 297.96 436.816 297.96 436.466C297.96 436.113 297.918 435.879 297.836 435.764C297.754 435.648 297.652 435.59 297.529 435.59C297.408 435.59 297.312 435.641 297.24 435.743C297.149 435.874 297.104 436.114 297.104 436.466Z" fill="white"/>
<path d="M294.8 437.522V437.009H293.871V436.768L294.848 435.381H295.063V436.768H295.352V437.009H295.063V437.522H294.8ZM294.8 436.768V435.803L294.13 436.768H294.8Z" fill="white"/>
<path d="M291.081 436.466C291.081 436.213 291.106 436.009 291.158 435.856C291.211 435.701 291.288 435.582 291.39 435.498C291.493 435.414 291.623 435.372 291.778 435.372C291.893 435.372 291.994 435.396 292.081 435.442C292.167 435.488 292.239 435.555 292.295 435.642C292.352 435.729 292.396 435.835 292.428 435.961C292.46 436.085 292.476 436.254 292.476 436.466C292.476 436.717 292.451 436.92 292.399 437.075C292.347 437.229 292.27 437.348 292.167 437.432C292.065 437.516 291.935 437.558 291.778 437.558C291.572 437.558 291.41 437.484 291.292 437.336C291.151 437.158 291.081 436.868 291.081 436.466ZM291.351 436.466C291.351 436.817 291.392 437.051 291.473 437.168C291.556 437.284 291.658 437.342 291.778 437.342C291.899 437.342 292 437.284 292.082 437.167C292.165 437.05 292.206 436.816 292.206 436.466C292.206 436.113 292.165 435.879 292.082 435.764C292 435.648 291.898 435.59 291.776 435.59C291.655 435.59 291.559 435.641 291.486 435.743C291.396 435.874 291.351 436.114 291.351 436.466Z" fill="white"/>
<path d="M289.194 437.521H288.931V435.847C288.868 435.907 288.784 435.967 288.681 436.028C288.579 436.088 288.487 436.133 288.405 436.164V435.91C288.552 435.84 288.681 435.757 288.791 435.658C288.901 435.56 288.979 435.465 289.024 435.372H289.194V437.521Z" fill="white"/>
<path d="M285.732 436.361C285.623 436.321 285.542 436.264 285.489 436.19C285.437 436.116 285.41 436.027 285.41 435.924C285.41 435.768 285.466 435.638 285.578 435.531C285.69 435.425 285.839 435.372 286.025 435.372C286.212 435.372 286.362 435.427 286.476 435.536C286.59 435.644 286.647 435.776 286.647 435.931C286.647 436.031 286.621 436.117 286.568 436.191C286.517 436.264 286.438 436.321 286.332 436.361C286.463 436.404 286.563 436.473 286.631 436.568C286.7 436.663 286.735 436.777 286.735 436.91C286.735 437.093 286.67 437.247 286.54 437.371C286.411 437.496 286.241 437.558 286.029 437.558C285.818 437.558 285.648 437.496 285.518 437.371C285.389 437.246 285.324 437.089 285.324 436.902C285.324 436.763 285.359 436.647 285.429 436.553C285.5 436.459 285.601 436.395 285.732 436.361ZM285.679 435.915C285.679 436.017 285.712 436.099 285.777 436.164C285.842 436.228 285.927 436.26 286.031 436.26C286.132 436.26 286.215 436.228 286.279 436.165C286.344 436.101 286.377 436.022 286.377 435.93C286.377 435.834 286.343 435.753 286.276 435.688C286.21 435.621 286.127 435.588 286.028 435.588C285.928 435.588 285.844 435.62 285.778 435.685C285.712 435.749 285.679 435.826 285.679 435.915ZM285.594 436.904C285.594 436.979 285.612 437.051 285.647 437.121C285.683 437.192 285.736 437.246 285.806 437.285C285.876 437.323 285.952 437.342 286.032 437.342C286.158 437.342 286.262 437.302 286.343 437.221C286.425 437.14 286.466 437.037 286.466 436.913C286.466 436.786 286.424 436.681 286.339 436.599C286.255 436.516 286.15 436.475 286.024 436.475C285.9 436.475 285.797 436.515 285.716 436.597C285.635 436.679 285.594 436.781 285.594 436.904Z" fill="white"/>
<path d="M283.293 437.522V437.009H282.364V436.768L283.341 435.381H283.556V436.768H283.845V437.009H283.556V437.522H283.293ZM283.293 436.768V435.803L282.623 436.768H283.293Z" fill="white"/>
<path d="M280.564 437.521H280.301V435.847C280.238 435.907 280.155 435.967 280.051 436.028C279.949 436.088 279.857 436.133 279.775 436.164V435.91C279.922 435.84 280.051 435.757 280.161 435.658C280.271 435.56 280.349 435.465 280.394 435.372H280.564V437.521Z" fill="white"/>
<path d="M276.697 436.466C276.697 436.213 276.723 436.009 276.775 435.856C276.827 435.701 276.905 435.582 277.007 435.498C277.11 435.414 277.239 435.372 277.395 435.372C277.51 435.372 277.611 435.396 277.697 435.442C277.784 435.488 277.856 435.555 277.912 435.642C277.969 435.729 278.013 435.835 278.045 435.961C278.077 436.085 278.093 436.254 278.093 436.466C278.093 436.717 278.067 436.92 278.016 437.075C277.964 437.229 277.887 437.348 277.784 437.432C277.681 437.516 277.552 437.558 277.395 437.558C277.189 437.558 277.027 437.484 276.909 437.336C276.768 437.158 276.697 436.868 276.697 436.466ZM276.967 436.466C276.967 436.817 277.008 437.051 277.09 437.168C277.173 437.284 277.274 437.342 277.395 437.342C277.516 437.342 277.617 437.284 277.699 437.167C277.782 437.05 277.823 436.816 277.823 436.466C277.823 436.113 277.782 435.879 277.699 435.764C277.617 435.648 277.515 435.59 277.392 435.59C277.272 435.59 277.175 435.641 277.103 435.743C277.013 435.874 276.967 436.114 276.967 436.466Z" fill="white"/>
<path d="M273.822 436.956L274.085 436.921C274.115 437.07 274.166 437.178 274.238 437.244C274.311 437.309 274.399 437.342 274.504 437.342C274.627 437.342 274.731 437.299 274.816 437.213C274.902 437.128 274.945 437.022 274.945 436.895C274.945 436.774 274.905 436.675 274.826 436.597C274.747 436.518 274.647 436.479 274.526 436.479C274.476 436.479 274.414 436.489 274.34 436.508L274.369 436.278C274.387 436.279 274.401 436.28 274.412 436.28C274.524 436.28 274.624 436.251 274.714 436.193C274.803 436.134 274.848 436.044 274.848 435.923C274.848 435.826 274.816 435.747 274.75 435.683C274.685 435.62 274.601 435.588 274.498 435.588C274.396 435.588 274.31 435.62 274.242 435.685C274.174 435.749 274.13 435.845 274.111 435.974L273.848 435.927C273.88 435.751 273.953 435.615 274.067 435.518C274.181 435.421 274.323 435.372 274.492 435.372C274.609 435.372 274.716 435.398 274.815 435.448C274.913 435.498 274.988 435.566 275.039 435.653C275.092 435.739 275.118 435.831 275.118 435.929C275.118 436.021 275.094 436.105 275.044 436.181C274.994 436.257 274.921 436.317 274.823 436.362C274.95 436.391 275.048 436.452 275.118 436.545C275.188 436.636 275.223 436.751 275.223 436.889C275.223 437.076 275.155 437.235 275.019 437.365C274.883 437.495 274.71 437.559 274.502 437.559C274.314 437.559 274.158 437.503 274.033 437.392C273.91 437.28 273.839 437.135 273.822 436.956Z" fill="white"/>
<path d="M271.786 437.522V437.009H270.857V436.768L271.834 435.381H272.049V436.768H272.338V437.009H272.049V437.522H271.786ZM271.786 436.768V435.803L271.116 436.768H271.786Z" fill="white"/>
<path d="M268.067 436.466C268.067 436.213 268.093 436.009 268.145 435.856C268.197 435.701 268.275 435.582 268.377 435.498C268.48 435.414 268.61 435.372 268.765 435.372C268.88 435.372 268.981 435.396 269.068 435.442C269.154 435.488 269.226 435.555 269.282 435.642C269.339 435.729 269.383 435.835 269.415 435.961C269.447 436.085 269.463 436.254 269.463 436.466C269.463 436.717 269.437 436.92 269.386 437.075C269.334 437.229 269.257 437.348 269.154 437.432C269.051 437.516 268.922 437.558 268.765 437.558C268.559 437.558 268.397 437.484 268.279 437.336C268.138 437.158 268.067 436.868 268.067 436.466ZM268.337 436.466C268.337 436.817 268.378 437.051 268.46 437.168C268.543 437.284 268.645 437.342 268.765 437.342C268.886 437.342 268.987 437.284 269.069 437.167C269.152 437.05 269.193 436.816 269.193 436.466C269.193 436.113 269.152 435.879 269.069 435.764C268.987 435.648 268.885 435.59 268.762 435.59C268.642 435.59 268.545 435.641 268.473 435.743C268.383 435.874 268.337 436.114 268.337 436.466Z" fill="white"/>
<path d="M266.572 437.269V437.521H265.157C265.155 437.458 265.165 437.397 265.188 437.339C265.224 437.243 265.281 437.148 265.36 437.054C265.44 436.961 265.555 436.853 265.705 436.73C265.937 436.539 266.094 436.388 266.176 436.278C266.258 436.166 266.299 436.06 266.299 435.961C266.299 435.857 266.261 435.769 266.186 435.698C266.112 435.626 266.016 435.59 265.896 435.59C265.769 435.59 265.668 435.628 265.592 435.704C265.516 435.78 265.478 435.885 265.477 436.019L265.207 435.991C265.225 435.79 265.295 435.637 265.415 435.531C265.536 435.425 265.698 435.372 265.902 435.372C266.107 435.372 266.27 435.429 266.389 435.543C266.509 435.657 266.569 435.798 266.569 435.967C266.569 436.052 266.551 436.136 266.516 436.219C266.481 436.302 266.423 436.389 266.341 436.48C266.26 436.572 266.125 436.698 265.937 436.857C265.779 436.99 265.678 437.08 265.633 437.127C265.588 437.174 265.551 437.221 265.522 437.269H266.572Z" fill="white"/>
<path d="M263.304 437.521H263.041V435.847C262.977 435.907 262.894 435.967 262.791 436.028C262.689 436.088 262.597 436.133 262.515 436.164V435.91C262.662 435.84 262.791 435.757 262.901 435.658C263.011 435.56 263.088 435.465 263.134 435.372H263.304V437.521Z" fill="white"/>
<g clip-path="url(#clip1_18413_6265)">
<path d="M197.846 149.454C200.739 150.543 202.746 152.719 204.115 155.43C205.512 158.196 206.659 161.088 207.915 163.926C208.118 164.384 208.276 164.869 208.533 165.296C208.813 165.761 208.668 165.965 208.206 166.061C207.699 166.167 207.184 166.24 206.678 166.352C205.721 166.565 203.74 166.324 202.8 165.85C202.221 167.205 201.679 168.575 201.058 169.907C199.738 172.744 198.441 175.596 197.019 178.382C194.747 182.834 192.164 187.101 189.129 191.082C186.69 194.282 183.987 197.233 180.903 199.825C177.802 202.432 174.389 204.521 170.619 206.02C168.375 206.912 166.057 207.539 163.679 207.927C162.565 208.108 161.434 208.206 160.306 208.264C158.782 208.343 157.252 208.414 155.73 208.362C154.558 208.322 153.383 208.14 152.229 207.923C150.792 207.653 149.328 207.415 147.963 206.924C145.998 206.217 144.069 205.378 142.199 204.445C139.198 202.946 136.511 200.955 133.993 198.747C132.655 197.574 131.317 196.394 130.064 195.132C128.58 193.638 127.164 192.073 125.759 190.503C124.02 188.562 122.329 186.579 120.604 184.625C119.237 183.076 117.846 181.547 116.473 180.003C116.239 179.739 115.98 179.626 115.62 179.643C114.963 179.673 114.305 179.644 113.648 179.661C112.179 179.7 112.073 179.307 111.903 178.214C111.408 175.023 112.107 172.084 113.969 169.442C114.238 169.06 114.605 168.74 114.962 168.433C115.082 168.33 115.327 168.29 115.489 168.329C116.99 168.693 118.085 169.595 118.71 170.993C119.252 172.202 119.643 173.479 120.193 174.683C120.871 176.165 121.594 177.631 122.389 179.053C123.678 181.359 125.313 183.429 127.036 185.42C128.8 187.46 130.803 189.256 132.909 190.94C135.815 193.264 138.981 195.168 142.363 196.697C144.369 197.605 146.434 198.39 148.596 198.865C150.324 199.244 152.048 199.686 153.799 199.911C155.447 200.123 157.127 200.178 158.791 200.143C162.204 200.071 165.568 199.637 168.797 198.422C172.016 197.211 174.999 195.59 177.77 193.546C179.895 191.979 181.884 190.267 183.684 188.343C186.873 184.931 189.784 181.302 192.119 177.238C193.709 174.472 195.029 171.581 195.89 168.508C196.383 166.751 196.751 164.95 197.044 163.147C197.294 161.61 197.367 160.045 197.496 158.49C197.559 157.733 197.632 156.971 197.598 156.216C197.531 154.724 197.413 153.233 197.274 151.746C197.198 150.925 197.205 150.147 197.845 149.455L197.846 149.454Z" fill="white"/>
<path d="M173.934 225.294V233.173C174.321 232.858 174.614 232.611 174.914 232.377C177.539 230.324 182.562 230.997 182.984 235.873C183.277 239.268 183.04 242.71 183.04 246.185H178.653C178.639 245.905 178.612 245.622 178.612 245.338C178.609 242.937 178.626 240.536 178.599 238.135C178.592 237.561 178.511 236.971 178.348 236.423C178.031 235.359 177.016 234.88 175.681 235.081C174.823 235.211 173.971 236.313 173.965 237.378C173.949 240.016 173.96 242.655 173.959 245.293C173.959 245.581 173.959 245.867 173.959 246.196H169.386V225.294C169.433 225.233 169.478 225.172 169.525 225.112C170.948 225.112 172.372 225.112 173.795 225.112C173.842 225.173 173.888 225.234 173.934 225.295V225.294Z" fill="white"/>
<path d="M166.691 245.754C165.735 245.986 164.774 246.393 163.8 246.422C161.466 246.49 159.113 246.685 156.847 245.751C153.88 244.529 152.037 242.39 151.321 239.287C150.683 236.518 150.816 233.778 152.178 231.251C154.017 227.841 156.936 226.029 160.843 226.021C162.501 226.018 164.161 226.215 165.816 226.357C166.177 226.388 166.525 226.574 166.901 226.697C166.602 227.934 166.327 229.077 166.026 230.323C165.62 230.207 165.251 230.083 164.872 229.996C162.486 229.445 160.159 229.311 158.054 230.911C156.648 231.978 156.044 233.505 155.874 235.141C155.757 236.277 155.931 237.488 156.202 238.61C156.771 240.976 158.927 242.686 161.523 242.7C162.785 242.706 164.053 242.429 165.309 242.232C165.815 242.152 166.075 242.218 166.155 242.786C166.288 243.728 166.49 244.659 166.692 245.753L166.691 245.754Z" fill="white"/>
<path d="M148.348 244.263C148.286 241.605 148.337 238.94 148.147 236.291C147.995 234.181 146.996 232.522 144.823 231.802C142.05 230.884 139.361 231.348 136.703 232.274C136.512 232.342 136.247 232.67 136.279 232.821C136.47 233.734 136.738 234.629 137.002 235.611C138.561 234.658 140.135 234.442 141.782 234.532C143.025 234.6 143.73 235.407 143.422 236.497C141.451 236.453 139.553 236.764 137.77 237.677C136.219 238.47 134.707 240.353 135.215 242.935C135.608 244.938 137.431 246.496 139.485 246.494C141.232 246.493 142.75 246.084 144.072 244.841C144.18 245.329 144.271 245.729 144.371 246.175H148.459C148.418 245.493 148.363 244.88 148.348 244.263ZM143.728 241.436C143.65 242.422 142.898 242.893 142.096 243.181C141.415 243.425 140.698 243.357 140.121 242.797C139.531 242.22 139.459 241.488 139.845 240.865C140.141 240.385 140.68 239.948 141.207 239.743C141.951 239.455 142.784 239.4 143.739 239.213C143.739 240.089 143.782 240.765 143.728 241.436Z" fill="white"/>
<path d="M116.342 244.882C116.32 242.363 116.37 239.842 116.278 237.326C116.177 234.599 115.199 232.594 112.952 231.834C110.119 230.872 107.317 231.241 104.59 232.348C104.434 232.412 104.227 232.69 104.257 232.822C104.456 233.733 104.712 234.631 104.974 235.618C106.527 234.67 108.097 234.434 109.746 234.532C110.997 234.607 111.643 235.326 111.448 236.364C110.263 236.533 109.094 236.618 107.965 236.878C105.267 237.495 102.85 239.004 103.176 242.693C103.347 244.607 105.132 246.335 107.038 246.465C108.907 246.592 110.623 246.257 112.047 244.833C112.177 245.362 112.282 245.782 112.386 246.202H116.439C116.4 245.689 116.345 245.287 116.342 244.882ZM111.734 241.408C111.684 242.379 110.559 243.271 109.429 243.273C108.35 243.275 107.737 242.716 107.63 241.629C107.552 240.845 107.977 240.28 108.618 240.023C109.564 239.646 110.576 239.438 111.739 239.107C111.739 240.065 111.768 240.738 111.734 241.407V241.408Z" fill="white"/>
<path d="M199.567 236.779C199.401 235.129 198.763 233.603 197.372 232.647C196.514 232.058 195.443 231.661 194.415 231.461C192.201 231.033 190.092 231.427 188.431 233.061C186.092 235.367 185.404 238.192 186.188 241.357C186.749 243.617 188.105 245.246 190.343 245.979C193.074 246.876 195.814 246.619 198.52 245.8C198.666 245.756 198.88 245.522 198.862 245.408C198.712 244.438 198.517 243.475 198.38 242.746C196.598 242.867 195.042 243.083 193.493 243.049C192.095 243.018 190.45 242.044 190.379 240.373H199.41C199.472 240.327 199.536 240.28 199.6 240.234C199.597 239.082 199.682 237.92 199.568 236.779H199.567ZM195.479 237.194H190.369C190.549 235.458 191.678 234.274 193.079 234.354C194.631 234.444 195.596 235.716 195.479 237.194Z" fill="white"/>
<path d="M212.577 242.896C210.983 243.14 209.372 243.384 207.825 242.72C206.851 242.301 206.162 241.591 205.984 240.389H215.594C215.386 238.646 215.357 237.017 214.964 235.484C214.503 233.691 213.317 232.275 211.489 231.754C210.279 231.411 208.934 231.265 207.688 231.393C206.038 231.56 204.54 232.322 203.484 233.686C201.889 235.746 201.253 238.055 201.724 240.665C202.116 242.84 203.107 244.583 205.119 245.586C208.093 247.067 211.153 246.595 214.193 245.803C214.353 245.76 214.535 245.348 214.512 245.132C214.419 244.272 214.248 243.423 214.097 242.518C213.527 242.663 213.059 242.821 212.577 242.896ZM208.699 234.365C210.17 234.459 211.141 235.219 211.138 237.195H206.038C206.143 235.569 207.339 234.277 208.7 234.365H208.699Z" fill="white"/>
<path d="M243.564 235.618C242.704 232.755 240.608 231.535 238.165 231.35C236.445 231.22 234.782 231.446 233.34 232.522C230.803 234.416 229.988 237.038 230.218 240.062C230.403 242.49 231.505 244.386 233.675 245.604C235.778 246.786 238.055 246.528 240.299 246.368C241.283 246.296 242.247 245.943 243.222 245.716C243.01 244.563 242.825 243.55 242.638 242.533C241.847 242.708 241.178 242.925 240.494 242.991C238.805 243.156 237.088 243.391 235.589 242.245C234.989 241.786 234.626 241.225 234.658 240.375H243.702C243.752 240.329 243.802 240.281 243.853 240.235C243.805 238.695 244.029 237.169 243.564 235.618V235.618ZM234.634 237.152C234.561 235.849 235.721 234.397 236.971 234.373C238.232 234.35 239.513 234.695 239.78 237.152H234.633H234.634Z" fill="white"/>
<path d="M87.4536 226.126C89.0826 226.126 90.6224 226.095 92.1587 226.156C92.424 226.166 92.793 226.521 92.912 226.802C93.9467 229.246 94.9347 231.71 95.9414 234.166C95.9898 234.285 96.0868 234.385 96.2202 234.579C96.8358 233.085 97.4276 231.657 98.0134 230.227C98.5099 229.014 98.9852 227.792 99.5072 226.59C99.5931 226.393 99.8711 226.152 100.065 226.148C101.627 226.112 103.189 226.127 104.914 226.127C104.115 227.551 103.388 228.847 102.658 230.141C101.315 232.522 99.9561 234.894 98.6391 237.289C98.4385 237.654 98.3449 238.121 98.3398 238.542C98.3126 241.059 98.3262 243.576 98.3262 246.165H93.7452V244.926C93.7452 243.117 93.6781 241.306 93.7699 239.503C93.8277 238.371 93.4443 237.455 92.929 236.509C91.1198 233.188 89.3513 229.845 87.5701 226.508C87.531 226.436 87.5199 226.348 87.4536 226.126Z" fill="white"/>
<path d="M218.125 242.196C219.48 242.902 220.805 243.421 222.297 243.272C222.968 243.205 223.661 243.231 223.82 242.297C223.979 241.362 223.317 241.13 222.703 240.836C221.561 240.289 220.301 239.912 219.291 239.184C216.731 237.341 217.221 234.204 219.437 232.533C221.408 231.046 223.692 231.091 225.946 231.559C227.76 231.937 227.732 232.043 227.211 233.901C227.088 234.341 227.017 234.797 226.959 235.073C225.726 234.892 224.532 234.628 223.331 234.589C222.901 234.574 222.452 235.102 222.013 235.382C222.281 235.793 222.461 236.339 222.837 236.586C223.416 236.965 224.125 237.149 224.786 237.395C226.031 237.858 227.241 238.482 227.817 239.692C228.853 241.87 228.423 244.724 225.671 245.833C223.148 246.849 220.545 246.723 217.978 245.881C217.524 245.732 217.223 245.444 217.38 244.891C217.627 244.023 217.861 243.151 218.124 242.195L218.125 242.196Z" fill="white"/>
<path d="M124.277 246.191H119.813V225.132H124.277V246.191Z" fill="white"/>
<path d="M128.001 225.102H132.485V246.194H128.001V225.102Z" fill="white"/>
<path d="M152.617 256.718C152.086 256.919 151.409 256.41 151.279 257.371C150.078 256.328 148.514 256.311 147.434 257.257C146.063 258.457 145.788 260.658 146.841 262.208C147.321 262.92 147.961 263.469 148.898 263.352C149.674 263.256 150.437 263.069 151.217 262.919C151.691 264.97 149.725 266.286 147.15 264.978C147.053 265.285 146.957 265.586 146.853 265.909C148.015 266.514 149.172 266.503 150.341 266.26C151.398 266.037 152.151 265.45 152.293 264.32C152.434 263.191 152.559 262.057 152.603 260.921C152.655 259.545 152.616 258.167 152.616 256.718H152.617ZM151.233 259.984C151.203 260.451 151.266 260.948 151.121 261.373C150.888 262.06 150.35 262.466 149.586 262.482C148.821 262.498 148.214 262.224 147.856 261.512C147.128 260.063 147.448 258.599 148.593 257.759C149.27 257.263 149.938 257.499 150.448 257.829C150.833 258.076 151 258.705 151.194 259.191C151.285 259.421 151.21 259.718 151.21 259.984C151.217 259.985 151.225 259.985 151.233 259.985V259.984Z" fill="white"/>
<path d="M170.199 254.293V263.502H169.172C169.11 263.456 169.05 263.41 168.989 263.363V259.145H164.37C164.37 260.545 164.37 261.954 164.37 263.363C164.308 263.41 164.247 263.456 164.186 263.502C163.866 263.502 163.547 263.502 163.16 263.502C163.16 260.414 163.16 257.353 163.16 254.292C163.207 254.242 163.255 254.192 163.303 254.141H164.418V257.917H168.878V254.141H170.057C170.104 254.192 170.151 254.242 170.199 254.293Z" fill="white"/>
<path d="M200.922 257.444C199.429 256.072 197.897 256.257 196.438 257.763C196.397 257.329 196.37 257.058 196.343 256.764C195.959 256.786 195.65 256.803 195.357 256.82V266.203C195.41 266.2 195.464 266.205 195.515 266.218H196.589V262.874C198.529 264.125 200.155 263.971 201.364 262.019C202.09 260.846 201.901 258.347 200.922 257.444V257.444ZM200.488 260.165C200.486 261.57 199.878 262.497 198.85 262.652C197.796 262.812 196.702 262.077 196.59 261.012C196.522 260.356 196.577 259.65 196.757 259.018C197.086 257.863 197.786 257.505 199.05 257.667C199.761 257.758 200.421 258.614 200.487 259.544C200.502 259.75 200.489 259.959 200.489 260.165H200.488Z" fill="white"/>
<path d="M187.744 256.631C187.044 256.734 186.398 257.192 185.73 257.486C185.718 257.351 185.695 257.082 185.673 256.829H184.566V266.165H185.727V262.69C186.01 262.89 186.127 262.966 186.24 263.05C187.548 264.043 190.22 263.783 190.844 261.451C190.917 261.175 190.963 260.888 191.002 260.604C191.251 258.791 190.359 256.245 187.744 256.631ZM189.127 262.012C188.552 262.726 187.776 262.843 187.057 262.586C186.28 262.31 185.849 261.607 185.878 260.717C185.883 260.539 185.88 260.36 185.88 260.184C185.857 260.179 185.836 260.176 185.812 260.172C185.892 259.713 185.911 259.231 186.064 258.797C186.399 257.841 186.958 257.561 188.154 257.648C188.859 257.702 189.482 258.348 189.646 259.162C189.853 260.185 189.828 261.138 189.127 262.01V262.012Z" fill="white"/>
<path d="M93.0771 254.324C91.7771 254.05 90.4176 254.05 89.0819 253.975C88.9859 253.97 88.7793 254.327 88.7776 254.514C88.758 257.496 88.7648 260.477 88.7648 263.491H90.0112V259.982C91.0638 259.781 92.0569 259.699 92.9717 259.39C94.1858 258.978 94.5846 257.868 94.5897 256.721C94.5931 255.676 94.2411 254.57 93.0763 254.324H93.0771ZM93.2285 257.053C93.1503 258.381 92.317 258.851 90.0563 258.689V255.047C92.7694 254.764 93.3271 255.387 93.2285 257.053Z" fill="white"/>
<path d="M141.953 263.507H140.707C140.707 262.374 140.722 261.258 140.7 260.143C140.692 259.744 140.621 259.342 140.539 258.949C140.302 257.817 139.963 257.569 138.859 257.671C138.062 257.745 137.484 258.383 137.47 259.284C137.447 260.668 137.464 262.053 137.464 263.482H136.181V256.831H137.089C137.135 257.056 137.186 257.297 137.22 257.467C137.851 257.168 138.428 256.711 139.051 256.633C141.058 256.382 141.753 257.348 141.926 259.177C142.06 260.581 141.953 262.008 141.953 263.507Z" fill="white"/>
<path d="M179.83 259.025C179.788 257.73 179.134 256.763 178.136 256.661C177.311 256.578 176.451 256.697 175.628 256.843C174.967 256.959 174.835 257.39 175.318 257.918C177.558 257.123 178.547 257.47 178.524 259.059C178.441 259.07 178.353 259.076 178.267 259.092C177.137 259.302 175.924 259.293 175.054 260.231C174.477 260.854 174.351 261.584 174.624 262.368C174.852 263.017 175.274 263.504 176.009 263.548C176.924 263.603 177.836 263.587 178.548 262.861C178.577 262.83 178.657 262.85 178.75 262.846C178.767 263.063 178.787 263.281 178.808 263.517H179.843C179.843 261.977 179.88 260.5 179.83 259.025ZM177.135 262.663C176.51 262.728 175.905 262.545 175.849 261.908C175.81 261.449 176.059 260.724 176.411 260.526C177.002 260.193 177.776 260.184 178.556 260.022C178.673 261.82 178.239 262.546 177.135 262.662V262.663Z" fill="white"/>
<path d="M228.233 259.393C228.02 257.796 227.489 256.858 226.125 256.623C223.453 256.166 222.39 258.058 222.207 259.976C222.082 261.259 222.57 262.413 223.713 263.148C225.079 264.027 226.462 263.732 227.826 263.201C227.753 262.881 227.697 262.635 227.632 262.345C224.819 263.294 223.485 262.078 223.501 260.322H228.239C228.239 259.971 228.273 259.678 228.234 259.393H228.233ZM226.931 259.416H223.433C224.041 257.796 224.707 257.268 225.783 257.501C226.578 257.673 227.013 258.384 226.931 259.416Z" fill="white"/>
<path d="M212.215 263.363V256.841H213.237C213.259 257.06 213.285 257.322 213.289 257.362C214.034 257.106 214.755 256.7 215.505 256.634C217.025 256.502 217.807 257.418 217.936 259.194C218.035 260.576 217.93 261.973 217.915 263.363C217.854 263.41 217.793 263.457 217.731 263.503C217.41 263.503 217.09 263.503 216.678 263.503C216.678 262.267 216.69 261.061 216.67 259.854C216.665 259.517 216.591 259.172 216.502 258.844C216.21 257.774 215.872 257.555 214.75 257.663C214.135 257.723 213.479 258.474 213.461 259.234C213.432 260.505 213.453 261.779 213.449 263.052C213.449 263.194 213.417 263.335 213.396 263.503H212.398C212.337 263.456 212.276 263.409 212.215 263.363Z" fill="white"/>
<path d="M112.243 263.363V256.841H113.265C113.287 257.06 113.312 257.322 113.317 257.362C114.061 257.106 114.782 256.7 115.532 256.634C117.052 256.502 117.835 257.418 117.963 259.194C118.062 260.576 117.957 261.973 117.943 263.363C117.881 263.41 117.82 263.457 117.758 263.503H116.705C116.705 262.267 116.717 261.061 116.698 259.854C116.692 259.517 116.619 259.172 116.529 258.844C116.237 257.774 115.899 257.555 114.777 257.663C114.162 257.723 113.506 258.474 113.488 259.234C113.459 260.506 113.481 261.779 113.476 263.052C113.476 263.194 113.444 263.335 113.424 263.503H112.425C112.364 263.456 112.303 263.409 112.243 263.363Z" fill="white"/>
<path d="M240.368 263.426C240.531 262.9 240.625 262.598 240.7 262.358C241.299 262.465 241.85 262.601 242.411 262.653C243.018 262.709 243.579 262.492 243.672 261.838C243.752 261.273 243.398 260.889 242.822 260.677C242.306 260.487 241.785 260.241 241.351 259.909C240.082 258.941 240.46 257.468 241.758 256.831C242.685 256.374 243.696 256.463 244.68 256.991C244.564 257.305 244.465 257.57 244.359 257.853C243.936 257.729 243.519 257.465 243.178 257.541C242.689 257.649 242.254 258.007 241.796 258.257C242.019 258.589 242.19 258.978 242.479 259.235C242.729 259.457 243.116 259.521 243.438 259.668C244.697 260.245 245.066 260.962 244.789 262.278C244.626 263.048 243.771 263.555 242.599 263.539C241.895 263.529 241.191 263.47 240.368 263.428V263.426Z" fill="white"/>
<path d="M232.009 263.412C232.172 262.892 232.268 262.589 232.336 262.369C232.973 262.473 233.557 262.619 234.147 262.648C234.704 262.675 235.303 262.434 235.288 261.833C235.278 261.448 234.868 260.989 234.517 260.718C234.065 260.369 233.404 260.27 232.998 259.888C232.613 259.526 232.246 258.948 232.218 258.445C232.174 257.647 233.006 256.75 233.807 256.666C234.599 256.582 235.412 256.712 236.371 256.754C236.199 257.275 236.105 257.559 236.007 257.856C235.566 257.728 235.148 257.462 234.806 257.54C234.318 257.65 233.886 258.012 233.429 258.265C233.656 258.595 233.83 258.988 234.125 259.237C234.405 259.473 234.817 259.55 235.161 259.716C236.35 260.288 236.703 261.014 236.424 262.286C236.26 263.035 235.413 263.554 234.316 263.536C233.585 263.525 232.853 263.459 232.008 263.411L232.009 263.412Z" fill="white"/>
<path d="M122.932 257.66H121.899V256.64C122.199 256.62 122.512 256.598 122.877 256.573C123.064 255.851 122.506 254.54 124.158 254.859V256.748H125.894V257.634H124.177C124.177 258.996 124.136 260.29 124.191 261.581C124.228 262.467 124.798 262.801 125.713 262.625C125.736 262.912 125.758 263.162 125.787 263.526C125.311 263.585 124.845 263.751 124.425 263.673C123.449 263.492 122.96 262.761 122.938 261.562C122.913 260.294 122.932 259.025 122.932 257.66Z" fill="white"/>
<path d="M98.6986 256.817H99.7733V257.732C100.12 257.421 100.416 257.051 100.801 256.842C101.158 256.649 101.609 256.631 102.077 256.521V257.439C101.506 257.765 100.792 257.948 100.487 258.404C100.13 258.939 100.047 259.705 99.9918 260.382C99.9127 261.354 99.9663 262.336 99.9586 263.315C99.9586 263.367 99.9136 263.418 99.8753 263.498H98.6978V256.817H98.6986Z" fill="white"/>
<path d="M130.149 256.688H131.359V263.479H130.149V256.688Z" fill="white"/>
<path d="M107.405 256.961V263.502H106.378C106.316 263.455 106.256 263.409 106.195 263.362C106.195 261.211 106.195 259.06 106.195 256.809H107.263C107.31 256.86 107.357 256.91 107.405 256.961Z" fill="white"/>
<path d="M206.167 263.362V256.809H207.235C207.283 256.86 207.33 256.91 207.377 256.961V263.502H206.35C206.289 263.455 206.229 263.409 206.167 263.362Z" fill="white"/>
<path d="M130.776 253.775C131.105 254.241 131.477 254.55 131.424 254.744C131.342 255.048 130.95 255.506 130.734 255.483C130.422 255.449 130.151 255.043 129.863 254.796C130.107 254.524 130.351 254.251 130.777 253.775H130.776Z" fill="white"/>
<path d="M106.56 253.974C107.343 254.029 107.561 254.358 107.42 254.828C107.339 255.102 107.008 255.302 106.79 255.536C106.533 255.287 106.141 255.073 106.066 254.778C106.012 254.565 106.381 254.246 106.56 253.974Z" fill="white"/>
<path d="M206.512 253.99C207.215 254.04 207.438 254.239 207.43 254.789C207.422 255.3 207.223 255.648 206.73 255.504C206.436 255.417 206.121 255.044 206.034 254.738C205.98 254.549 206.338 254.244 206.512 253.99Z" fill="white"/>
<path d="M199.408 240.376C199.472 240.33 199.536 240.283 199.599 240.237C199.535 240.283 199.471 240.33 199.408 240.376Z" fill="white"/>
<path d="M163.303 254.141C163.255 254.191 163.207 254.241 163.16 254.292C163.207 254.242 163.255 254.192 163.303 254.141Z" fill="white"/>
<path d="M112.243 263.363C112.304 263.41 112.365 263.456 112.425 263.502C112.364 263.456 112.303 263.409 112.243 263.363Z" fill="white"/>
<path d="M117.758 263.502C117.819 263.456 117.88 263.409 117.942 263.363C117.881 263.41 117.82 263.456 117.758 263.502Z" fill="white"/>
<path d="M212.215 263.363C212.277 263.41 212.338 263.456 212.398 263.502C212.337 263.456 212.276 263.409 212.215 263.363Z" fill="white"/>
<path d="M217.73 263.502C217.792 263.456 217.853 263.409 217.915 263.363C217.854 263.41 217.793 263.456 217.73 263.502Z" fill="white"/>
<path d="M195.357 266.204C195.41 266.2 195.463 266.206 195.515 266.217C195.468 266.259 195.422 266.3 195.375 266.342C195.369 266.296 195.364 266.25 195.358 266.204H195.357Z" fill="white"/>
</g>
<path opacity="0.15" d="M53.709 363.903C53.7088 377.56 43.2183 388.901 29.4375 391.123C42.9775 393.307 53.3411 404.291 53.6992 417.628L53.709 418.341V446.877H23.5137L22.7598 446.868C6.96979 446.49 -5.70783 434.275 -5.70801 419.262V335.367H53.709V363.903ZM116.474 419.262C116.473 434.513 103.39 446.877 87.252 446.877H57.0566V418.341L57.0664 417.628C57.4245 404.293 67.7862 393.307 81.3242 391.122C67.5455 388.898 57.0568 377.559 57.0566 363.903V335.367H116.474V419.262ZM179.238 363.903C179.238 377.56 168.748 388.901 154.967 391.123C168.507 393.307 178.87 404.291 179.229 417.628L179.238 418.341V446.877H149.043L148.289 446.868C132.499 446.49 119.821 434.275 119.821 419.262V335.367H179.238V363.903ZM242.003 419.262C242.003 434.513 228.92 446.877 212.781 446.877H182.586V418.341L182.596 417.628C182.954 404.293 193.316 393.307 206.854 391.122C193.075 388.898 182.586 377.559 182.586 363.903V335.367H242.003V419.262ZM304.768 363.903C304.767 377.56 294.277 388.901 280.496 391.123C294.036 393.307 304.4 404.291 304.758 417.628L304.768 418.341V446.877H274.572L273.818 446.868C258.029 446.49 245.351 434.275 245.351 419.262V335.367H304.768V363.903ZM367.532 419.262C367.532 434.513 354.449 446.877 338.311 446.877H308.115V418.341L308.125 417.628C308.483 404.293 318.844 393.308 332.382 391.122C318.604 388.898 308.115 377.559 308.115 363.903V335.367H367.532V419.262ZM430.298 363.903C430.298 377.56 419.807 388.901 406.026 391.123C419.566 393.307 429.93 404.291 430.288 417.628L430.298 418.341V446.877H400.103L399.349 446.868C383.559 446.49 370.881 434.275 370.881 419.262V335.367H430.298V363.903ZM493.062 419.262C493.062 434.513 479.979 446.877 463.841 446.877H433.646V418.341L433.655 417.628C434.013 404.293 444.375 393.307 457.913 391.122C444.135 388.898 433.646 377.559 433.646 363.903V335.367H493.062V419.262ZM555.828 363.903C555.828 377.56 545.337 388.901 531.557 391.123C545.096 393.307 555.46 404.291 555.818 417.628L555.828 418.341V446.877H525.633L524.879 446.868C509.089 446.49 496.411 434.275 496.411 419.262V335.367H555.828V363.903ZM618.593 419.262C618.593 434.513 605.509 446.877 589.371 446.877H559.176V418.341L559.186 417.628C559.544 404.293 569.905 393.307 583.443 391.122C569.665 388.898 559.176 377.559 559.176 363.903V335.367H618.593V419.262ZM681.357 363.903C681.357 377.56 670.867 388.901 657.086 391.123C670.626 393.307 680.989 404.291 681.348 417.628L681.357 418.341V446.877H651.162L650.408 446.868C634.618 446.49 621.941 434.275 621.94 419.262V335.367H681.357V363.903ZM744.122 419.262C744.122 434.513 731.039 446.877 714.9 446.877H684.705V418.341L684.715 417.628C685.073 404.293 695.435 393.307 708.973 391.122C695.194 388.898 684.705 377.559 684.705 363.903V335.367H744.122V419.262ZM806.887 363.903C806.887 377.56 796.396 388.901 782.615 391.123C796.155 393.307 806.519 404.291 806.877 417.628L806.887 418.341V446.877H776.691L775.938 446.868C760.148 446.49 747.47 434.275 747.47 419.262V335.367H806.887V363.903ZM869.651 419.262C869.651 434.513 856.568 446.877 840.43 446.877H810.234V418.341L810.244 417.628C810.602 404.293 820.964 393.307 834.502 391.122C820.723 388.898 810.235 377.559 810.234 363.903V335.367H869.651V419.262ZM932.417 363.903C932.417 377.56 921.926 388.901 908.146 391.123C921.685 393.307 932.049 404.291 932.407 417.628L932.417 418.341V446.877H902.222L901.468 446.868C885.678 446.49 873 434.275 873 419.262V335.367H932.417V363.903ZM995.182 419.262C995.181 434.513 982.098 446.877 965.96 446.877H935.765V418.341L935.774 417.628C936.133 404.293 946.494 393.307 960.032 391.122C946.254 388.898 935.765 377.559 935.765 363.903V335.367H995.182V419.262ZM1057.95 363.903C1057.95 377.559 1047.46 388.899 1033.68 391.122C1047.22 393.307 1057.58 404.292 1057.94 417.628L1057.95 418.341V446.877H1027.75L1027 446.868C1011.21 446.49 998.529 434.275 998.529 419.262V335.367H1057.95V363.903ZM1120.71 419.262C1120.71 434.513 1107.63 446.877 1091.49 446.877H1061.29V418.341L1061.3 417.628C1061.66 404.293 1072.02 393.309 1085.56 391.123C1071.78 388.899 1061.29 377.559 1061.29 363.903V335.367H1120.71V419.262ZM1183.48 363.903C1183.48 377.56 1172.98 388.901 1159.2 391.123C1172.74 393.307 1183.11 404.291 1183.47 417.628L1183.48 418.341V446.877H1153.28L1152.53 446.868C1136.74 446.49 1124.06 434.275 1124.06 419.262V335.367H1183.48V363.903ZM1246.24 419.262C1246.24 434.513 1233.16 446.877 1217.02 446.877H1186.82V418.341L1186.83 417.628C1187.19 404.293 1197.55 393.307 1211.09 391.122C1197.31 388.898 1186.82 377.559 1186.82 363.903V335.367H1246.24V419.262ZM25.9697 391.483C25.4788 391.507 24.9843 391.519 24.4873 391.519H-4.98633V419.262C-4.98615 434.077 7.73506 446.155 23.5137 446.155H52.9873V418.341C52.9867 403.993 41.055 392.212 25.9697 391.483ZM84.79 391.484C69.7077 392.216 57.7789 403.995 57.7783 418.341V446.155H87.252C103.031 446.155 115.752 434.077 115.752 419.262V391.519H86.2783L85.5244 391.51C85.279 391.504 85.0339 391.496 84.79 391.484ZM151.499 391.483C151.008 391.507 150.514 391.519 150.017 391.519H120.543V419.262C120.543 434.076 133.264 446.155 149.043 446.155H178.517V418.341C178.516 403.993 166.584 392.212 151.499 391.483ZM210.319 391.484C195.237 392.216 183.308 403.995 183.308 418.341V446.155H212.781C228.56 446.155 241.281 434.077 241.281 419.262V391.519H211.808L211.054 391.51C210.808 391.504 210.563 391.496 210.319 391.484ZM277.028 391.483C276.537 391.507 276.043 391.519 275.546 391.519H246.072V419.262C246.072 434.076 258.794 446.155 274.572 446.155H304.046V418.341C304.045 403.993 292.114 392.212 277.028 391.483ZM335.849 391.484C320.766 392.216 308.838 403.995 308.837 418.341V446.155H338.311C354.089 446.155 366.81 434.077 366.811 419.262V391.519H337.337L336.583 391.51C336.338 391.504 336.092 391.496 335.849 391.484ZM402.559 391.483C402.068 391.507 401.573 391.519 401.076 391.519H371.603V419.262C371.603 434.076 384.324 446.155 400.103 446.155H429.576V418.341C429.576 403.993 417.644 392.212 402.559 391.483ZM461.379 391.484C446.297 392.216 434.368 403.995 434.367 418.341V446.155H463.841C479.619 446.155 492.341 434.077 492.341 419.262V391.519H462.867L462.113 391.51C461.868 391.504 461.623 391.496 461.379 391.484ZM528.089 391.483C527.598 391.507 527.103 391.519 526.606 391.519H497.133V419.262C497.133 434.077 509.854 446.155 525.633 446.155H555.106V418.341C555.106 403.993 543.174 392.212 528.089 391.483ZM586.909 391.484C571.827 392.216 559.898 403.995 559.897 418.341V446.155H589.371C605.15 446.155 617.871 434.076 617.871 419.262V391.519H588.397L587.644 391.51C587.398 391.504 587.153 391.496 586.909 391.484ZM653.618 391.483C653.127 391.507 652.633 391.519 652.136 391.519H622.662V419.262C622.662 434.076 635.384 446.155 651.162 446.155H680.636V418.341C680.635 403.993 668.703 392.212 653.618 391.483ZM712.438 391.484C697.356 392.216 685.427 403.995 685.427 418.341V446.155H714.9C730.679 446.155 743.4 434.076 743.4 419.262V391.519H713.927L713.173 391.51C712.928 391.504 712.682 391.496 712.438 391.484ZM779.147 391.483C778.657 391.507 778.162 391.519 777.665 391.519H748.191V419.262C748.192 434.076 760.913 446.155 776.691 446.155H806.165V418.341C806.164 403.993 794.233 392.212 779.147 391.483ZM837.968 391.484C822.886 392.216 810.957 403.995 810.956 418.341V446.155H840.43C856.208 446.155 868.93 434.077 868.93 419.262V391.519H839.456L838.702 391.51C838.457 391.504 838.212 391.496 837.968 391.484ZM904.678 391.483C904.187 391.507 903.692 391.519 903.195 391.519H873.722V419.262C873.722 434.077 886.443 446.155 902.222 446.155H931.695V418.341C931.695 403.993 919.763 392.212 904.678 391.483ZM963.498 391.484C948.416 392.216 936.487 403.995 936.486 418.341V446.155H965.96C981.738 446.155 994.46 434.076 994.46 419.262V391.519H964.986L964.232 391.51C963.987 391.504 963.742 391.496 963.498 391.484ZM1030.21 391.483C1029.72 391.507 1029.22 391.519 1028.72 391.519H999.251V419.262C999.251 434.076 1011.97 446.155 1027.75 446.155H1057.22V418.341C1057.22 403.993 1045.29 392.212 1030.21 391.483ZM1089.03 391.484C1073.95 392.216 1062.02 403.995 1062.02 418.341V446.155H1091.49C1107.27 446.155 1119.99 434.077 1119.99 419.262V391.519H1090.52L1089.76 391.51C1089.52 391.504 1089.27 391.496 1089.03 391.484ZM1155.74 391.483C1155.25 391.507 1154.75 391.519 1154.25 391.519H1124.78V419.262C1124.78 434.077 1137.5 446.155 1153.28 446.155H1182.75V418.341C1182.75 403.993 1170.82 392.212 1155.74 391.483ZM1214.56 391.484C1199.47 392.216 1187.55 403.995 1187.54 418.341V446.155H1217.02C1232.8 446.155 1245.52 434.076 1245.52 419.262V391.519H1216.04L1215.29 391.51C1215.05 391.504 1214.8 391.496 1214.56 391.484ZM-4.98633 390.726H24.4873C24.9843 390.726 25.4788 390.739 25.9697 390.762C41.0553 390.033 52.9871 378.251 52.9873 363.903V336.089H-4.98633V390.726ZM57.7783 363.903C57.7785 378.251 69.71 390.033 84.7949 390.762C85.0372 390.75 85.2806 390.74 85.5244 390.734L86.2783 390.726H115.752V336.089H57.7783V363.903ZM120.543 390.726H150.017C150.514 390.726 151.008 390.739 151.499 390.762C166.585 390.033 178.516 378.251 178.517 363.903V336.089H120.543V390.726ZM183.308 363.903C183.308 378.251 195.239 390.033 210.324 390.762C210.566 390.75 210.81 390.74 211.054 390.734L211.808 390.726H241.281V336.089H183.308V363.903ZM246.072 390.726H275.546C276.043 390.726 276.537 390.739 277.028 390.762C292.114 390.033 304.046 378.251 304.046 363.903V336.089H246.072V390.726ZM308.837 363.903C308.837 378.251 320.769 390.033 335.854 390.762C336.096 390.75 336.339 390.74 336.583 390.734L337.337 390.726H366.811V336.089H308.837V363.903ZM371.603 390.726H401.076C401.573 390.726 402.068 390.739 402.559 390.762C417.644 390.033 429.576 378.251 429.576 363.903V336.089H371.603V390.726ZM434.367 363.903C434.367 378.251 446.299 390.033 461.384 390.762C461.626 390.75 461.87 390.74 462.113 390.734L462.867 390.726H492.341V336.089H434.367V363.903ZM497.133 390.726H526.606C527.103 390.726 527.598 390.739 528.089 390.762C543.174 390.033 555.106 378.251 555.106 363.903V336.089H497.133V390.726ZM559.897 363.903C559.898 378.251 571.829 390.033 586.914 390.762C587.156 390.75 587.4 390.74 587.644 390.734L588.397 390.726H617.871V336.089H559.897V363.903ZM622.662 390.726H652.136C652.633 390.726 653.127 390.739 653.618 390.762C668.704 390.033 680.636 378.251 680.636 363.903V336.089H622.662V390.726ZM685.427 363.903C685.427 378.251 697.359 390.033 712.443 390.762C712.685 390.75 712.929 390.74 713.173 390.734L713.927 390.726H743.4V336.089H685.427V363.903ZM748.191 390.726H777.665C778.162 390.726 778.657 390.739 779.147 390.762C794.233 390.033 806.165 378.251 806.165 363.903V336.089H748.191V390.726ZM810.956 363.903C810.956 378.251 822.888 390.033 837.973 390.762C838.215 390.75 838.458 390.74 838.702 390.734L839.456 390.726H868.93V336.089H810.956V363.903ZM873.722 390.726H903.195C903.692 390.726 904.187 390.739 904.678 390.762C919.763 390.033 931.695 378.251 931.695 363.903V336.089H873.722V390.726ZM936.486 363.903C936.487 378.251 948.418 390.033 963.503 390.762C963.745 390.75 963.989 390.74 964.232 390.734L964.986 390.726H994.46V336.089H936.486V363.903ZM999.251 390.726H1028.72C1029.22 390.726 1029.72 390.739 1030.21 390.762C1045.29 390.033 1057.22 378.251 1057.22 363.903V336.089H999.251V390.726ZM1062.02 363.903C1062.02 378.251 1073.95 390.033 1089.03 390.762C1089.27 390.75 1089.52 390.74 1089.76 390.734L1090.52 390.726H1119.99V336.089H1062.02V363.903ZM1124.78 390.726H1154.25C1154.75 390.726 1155.25 390.739 1155.74 390.762C1170.82 390.033 1182.75 378.251 1182.75 363.903V336.089H1124.78V390.726ZM1187.54 363.903C1187.55 378.251 1199.48 390.033 1214.56 390.762C1214.8 390.75 1215.05 390.74 1215.29 390.734L1216.04 390.726H1245.52V336.089H1187.54V363.903ZM53.709 249.226L53.6992 249.939C53.3415 263.277 42.9763 274.262 29.4346 276.444C43.2168 278.666 53.7086 290.006 53.709 303.664V332.2H-5.70801V248.305C-5.70758 233.292 6.96993 221.076 22.7598 220.698L23.5137 220.69H53.709V249.226ZM87.252 220.69C103.39 220.69 116.473 233.053 116.474 248.305V332.2H57.0566V303.664C57.057 290.009 67.5455 278.669 81.3242 276.445C67.7858 274.26 57.424 263.274 57.0664 249.939L57.0566 249.226V220.69H87.252ZM179.238 249.226L179.229 249.939C178.871 263.277 168.506 274.262 154.964 276.444C168.746 278.666 179.238 290.006 179.238 303.664V332.2H119.821V248.305C119.822 233.292 132.499 221.076 148.289 220.698L149.043 220.69H179.238V249.226ZM212.781 220.69C228.92 220.69 242.002 233.053 242.003 248.305V332.2H182.586V303.664C182.586 290.009 193.075 278.669 206.854 276.445C193.315 274.26 182.953 263.274 182.596 249.939L182.586 249.226V220.69H212.781ZM304.768 249.226L304.758 249.939C304.4 263.277 294.035 274.262 280.493 276.444C294.275 278.666 304.767 290.006 304.768 303.664V332.2H245.351V248.305C245.351 233.292 258.029 221.076 273.818 220.698L274.572 220.69H304.768V249.226ZM338.311 220.69C354.449 220.69 367.532 233.053 367.532 248.305V332.2H308.115V303.664C308.116 290.009 318.604 278.669 332.383 276.445C318.845 274.26 308.483 263.274 308.125 249.939L308.115 249.226V220.69H338.311ZM430.298 249.226L430.288 249.939C429.93 263.277 419.565 274.262 406.023 276.444C419.806 278.666 430.297 290.007 430.298 303.664V332.2H370.881V248.305C370.881 233.292 383.559 221.076 399.349 220.698L400.103 220.69H430.298V249.226ZM463.841 220.69C479.979 220.69 493.062 233.054 493.062 248.305V332.2H433.646V303.664C433.646 290.009 444.135 278.669 457.913 276.445C444.375 274.26 434.013 263.274 433.655 249.939L433.646 249.226V220.69H463.841ZM555.828 249.226L555.818 249.939C555.461 263.277 545.095 274.262 531.554 276.444C545.336 278.666 555.828 290.007 555.828 303.664V332.2H496.411V248.305C496.412 233.292 509.089 221.076 524.879 220.698L525.633 220.69H555.828V249.226ZM589.371 220.69C605.509 220.69 618.592 233.054 618.593 248.305V332.2H559.176V303.664C559.176 290.009 569.665 278.669 583.443 276.445C569.905 274.26 559.543 263.274 559.186 249.939L559.176 249.226V220.69H589.371ZM681.358 249.226L681.349 249.939C680.991 263.276 670.625 274.262 657.084 276.444C670.866 278.666 681.358 290.007 681.358 303.664V332.2H621.941V248.305C621.942 233.292 634.619 221.076 650.409 220.698L651.163 220.69H681.358V249.226ZM714.901 220.69C731.039 220.69 744.123 233.054 744.123 248.305V332.2H684.706V303.664C684.706 290.009 695.195 278.668 708.974 276.444C695.435 274.259 685.073 263.274 684.716 249.939L684.706 249.226V220.69H714.901ZM806.887 249.226L806.877 249.939C806.519 263.277 796.154 274.262 782.612 276.444C796.395 278.665 806.886 290.006 806.887 303.664V332.2H747.47V248.305C747.47 233.292 760.148 221.076 775.938 220.698L776.691 220.69H806.887V249.226ZM840.43 220.69C856.568 220.69 869.651 233.053 869.651 248.305V332.2H810.234V303.664C810.235 290.009 820.723 278.669 834.502 276.445C820.964 274.26 810.602 263.274 810.244 249.939L810.234 249.226V220.69H840.43ZM932.416 249.226L932.406 249.939C932.049 263.276 921.684 274.261 908.143 276.444C921.925 278.666 932.417 290.007 932.417 303.664V332.2H873L872.999 276.841V248.305C872.999 233.292 885.677 221.076 901.467 220.698L902.221 220.69H932.416V249.226ZM965.959 220.69C982.097 220.69 995.18 233.054 995.181 248.305V276.049H995.182V332.2H935.765V303.664C935.765 290.009 946.254 278.669 960.032 276.445C946.493 274.261 936.131 263.275 935.773 249.939L935.764 249.226V220.69H965.959ZM1057.95 249.226L1057.94 249.939C1057.58 263.277 1047.21 274.262 1033.67 276.444C1047.45 278.666 1057.95 290.006 1057.95 303.664V332.2H998.529V248.305C998.53 233.292 1011.21 221.076 1027 220.698L1027.75 220.69H1057.95V249.226ZM1091.49 220.69C1107.63 220.69 1120.71 233.053 1120.71 248.305V332.2H1061.29V303.664C1061.29 290.009 1071.78 278.668 1085.56 276.444C1072.02 274.259 1061.66 263.274 1061.3 249.939L1061.29 249.226V220.69H1091.49ZM1183.48 249.226L1183.47 249.939C1183.11 263.276 1172.74 274.262 1159.2 276.444C1172.98 278.666 1183.48 290.007 1183.48 303.664V332.2H1124.06V248.305C1124.06 233.292 1136.74 221.076 1152.53 220.698L1153.28 220.69H1183.48V249.226ZM1217.02 220.69C1233.16 220.69 1246.24 233.054 1246.24 248.305V332.2H1186.82V303.664C1186.82 290.009 1197.31 278.668 1211.09 276.444C1197.55 274.259 1187.19 263.274 1186.83 249.939L1186.82 249.226V220.69H1217.02ZM25.9609 276.806C25.4729 276.829 24.9814 276.841 24.4873 276.841H-4.98633V331.479H52.9873V303.664C52.9869 289.314 41.0505 277.53 25.9609 276.806ZM84.7949 276.806C69.7101 277.535 57.7787 289.317 57.7783 303.664V331.479H115.752V276.841H86.2783L85.5244 276.832C85.2806 276.826 85.0372 276.817 84.7949 276.806ZM151.49 276.806C151.002 276.829 150.511 276.841 150.017 276.841H120.543V331.479H178.517V303.664C178.516 289.314 166.58 277.53 151.49 276.806ZM210.324 276.806C195.24 277.535 183.308 289.317 183.308 303.664V331.479H241.281V276.841H211.808L211.054 276.832C210.81 276.826 210.566 276.817 210.324 276.806ZM277.02 276.806C276.532 276.829 276.04 276.841 275.546 276.841H246.072V331.479H304.046V303.664C304.045 289.314 292.109 277.53 277.02 276.806ZM335.854 276.806C320.769 277.535 308.837 289.317 308.837 303.664V331.479H366.811V276.841H337.337L336.583 276.832C336.339 276.826 336.096 276.817 335.854 276.806ZM402.55 276.806C402.062 276.829 401.57 276.841 401.076 276.841H371.603V331.479H429.576V303.664C429.576 289.314 417.639 277.53 402.55 276.806ZM461.384 276.806C446.299 277.535 434.368 289.317 434.367 303.664V331.479H492.341V276.841H462.867L462.113 276.832C461.87 276.826 461.626 276.817 461.384 276.806ZM528.08 276.806C527.592 276.829 527.1 276.841 526.606 276.841H497.133V331.479H555.106V303.664C555.106 289.314 543.169 277.53 528.08 276.806ZM586.914 276.806C571.829 277.535 559.898 289.317 559.897 303.664V331.479H617.871V276.841H588.397L587.644 276.832C587.4 276.826 587.156 276.817 586.914 276.806ZM653.61 276.806C653.123 276.829 652.631 276.841 652.137 276.841H622.663V331.479H680.637V303.664C680.636 289.314 668.699 277.53 653.61 276.806ZM712.443 276.806C697.359 277.535 685.428 289.317 685.428 303.664V331.479H743.401V276.841H713.928L713.174 276.832C712.93 276.826 712.686 276.817 712.443 276.806ZM779.139 276.806C778.651 276.829 778.159 276.841 777.665 276.841H748.191V331.479H806.165V303.664C806.165 289.314 794.228 277.53 779.139 276.806ZM837.973 276.806C822.888 277.535 810.956 289.317 810.956 303.664V331.479H868.93V276.841H839.456L838.702 276.832C838.458 276.826 838.215 276.817 837.973 276.806ZM904.668 276.806C904.18 276.829 903.688 276.841 903.194 276.841H873.722V331.479H931.695V303.664C931.695 289.313 919.758 277.53 904.668 276.806ZM963.502 276.806C948.418 277.535 936.487 289.317 936.486 303.664V331.479H994.46V276.841H964.985L964.231 276.832C963.988 276.826 963.744 276.817 963.502 276.806ZM1030.2 276.806C1029.71 276.829 1029.22 276.841 1028.72 276.841H999.251V331.479H1057.22V303.664C1057.22 289.314 1045.29 277.53 1030.2 276.806ZM1089.03 276.806C1073.95 277.535 1062.02 289.317 1062.02 303.664V331.479H1119.99V276.841H1090.52L1089.76 276.832C1089.52 276.826 1089.27 276.817 1089.03 276.806ZM1155.73 276.806C1155.24 276.829 1154.75 276.841 1154.25 276.841H1124.78V331.479H1182.75V303.664C1182.75 289.314 1170.82 277.53 1155.73 276.806ZM1214.56 276.806C1199.48 277.535 1187.55 289.317 1187.54 303.664V331.479H1245.52V276.841H1216.04L1215.29 276.832C1215.05 276.826 1214.8 276.817 1214.56 276.806ZM23.5137 221.411C7.73522 221.411 -4.98589 233.49 -4.98633 248.305V276.049H24.4873C24.9807 276.049 25.4716 276.06 25.959 276.083C41.0497 275.36 52.9873 263.577 52.9873 249.226V221.411H23.5137ZM57.7783 249.226C57.7784 263.575 69.7125 275.356 84.7998 276.083C85.0405 276.072 85.2823 276.063 85.5244 276.058L86.2783 276.049H115.752V248.305C115.752 233.49 103.031 221.411 87.252 221.411H57.7783V249.226ZM149.043 221.411C133.265 221.411 120.543 233.49 120.543 248.305V276.049H150.017C150.51 276.049 151.001 276.06 151.488 276.083C166.579 275.36 178.517 263.577 178.517 249.226V221.411H149.043ZM183.308 249.226C183.308 263.575 195.242 275.356 210.329 276.083C210.57 276.072 210.812 276.063 211.054 276.058L211.808 276.049H241.281V248.305C241.281 233.49 228.56 221.411 212.781 221.411H183.308V249.226ZM274.572 221.411C258.794 221.412 246.073 233.49 246.072 248.305V276.049H275.546C276.039 276.049 276.53 276.06 277.018 276.083C292.108 275.36 304.046 263.577 304.046 249.226V221.411H274.572ZM308.837 249.226C308.837 263.575 320.771 275.356 335.858 276.083C336.099 276.072 336.341 276.063 336.583 276.058L337.337 276.049H366.811V248.305C366.81 233.49 354.089 221.411 338.311 221.411H308.837V249.226ZM400.103 221.411C384.324 221.412 371.603 233.49 371.603 248.305V276.049H401.076C401.569 276.049 402.061 276.06 402.548 276.083C417.638 275.36 429.576 263.577 429.576 249.226V221.411H400.103ZM434.367 249.226C434.367 263.575 446.302 275.356 461.389 276.083C461.629 276.072 461.871 276.063 462.113 276.058L462.867 276.049H492.341V248.305C492.34 233.49 479.619 221.411 463.841 221.411H434.367V249.226ZM525.633 221.411C509.854 221.411 497.133 233.49 497.133 248.305V276.049H526.606C527.1 276.049 527.591 276.06 528.078 276.083C543.169 275.36 555.106 263.577 555.106 249.226V221.411H525.633ZM559.897 249.226C559.897 263.575 571.832 275.356 586.919 276.083C587.159 276.072 587.402 276.063 587.644 276.058L588.397 276.049H617.871V248.305C617.871 233.49 605.15 221.411 589.371 221.411H559.897V249.226ZM651.163 221.411C635.385 221.411 622.664 233.49 622.663 248.305V276.049H652.137C652.63 276.049 653.121 276.06 653.608 276.083C668.699 275.359 680.637 263.577 680.637 249.226V221.411H651.163ZM685.428 249.226C685.428 263.575 697.362 275.356 712.449 276.083C712.69 276.072 712.932 276.063 713.174 276.058L713.928 276.049H743.401V248.305C743.401 233.49 730.68 221.412 714.901 221.411H685.428V249.226ZM776.691 221.411C760.913 221.411 748.192 233.49 748.191 248.305V276.049H777.665C778.158 276.049 778.649 276.06 779.137 276.083C794.227 275.36 806.165 263.577 806.165 249.226V221.411H776.691ZM810.956 249.226C810.956 263.575 822.89 275.356 837.978 276.083C838.218 276.072 838.46 276.063 838.702 276.058L839.456 276.049H868.93V248.305C868.929 233.49 856.208 221.411 840.43 221.411H810.956V249.226ZM902.221 221.411C886.442 221.411 873.721 233.49 873.721 248.305V276.049H903.195C903.689 276.049 904.18 276.06 904.667 276.083C919.757 275.359 931.694 263.577 931.694 249.226V221.411H902.221ZM936.485 249.226C936.485 263.575 948.42 275.357 963.508 276.083C963.748 276.072 963.99 276.063 964.232 276.058L964.986 276.049H994.459V248.305C994.459 233.49 981.737 221.411 965.959 221.411H936.485V249.226ZM1027.75 221.411C1011.97 221.412 999.251 233.49 999.251 248.305V276.049H1028.72C1029.22 276.049 1029.71 276.06 1030.2 276.083C1045.29 275.36 1057.22 263.577 1057.22 249.226V221.411H1027.75ZM1062.02 249.226C1062.02 263.575 1073.95 275.356 1089.04 276.083C1089.28 276.072 1089.52 276.063 1089.76 276.058L1090.52 276.049H1119.99V248.305C1119.99 233.49 1107.27 221.411 1091.49 221.411H1062.02V249.226ZM1153.28 221.411C1137.5 221.411 1124.78 233.49 1124.78 248.305V276.049H1154.25C1154.75 276.049 1155.24 276.06 1155.73 276.083C1170.82 275.36 1182.75 263.577 1182.75 249.226V221.411H1153.28ZM1187.54 249.226C1187.54 263.575 1199.48 275.356 1214.57 276.083C1214.81 276.072 1215.05 276.063 1215.29 276.058L1216.04 276.049H1245.52V248.305C1245.52 233.49 1232.8 221.411 1217.02 221.411H1187.54V249.226ZM53.709 134.548C53.7088 148.207 43.2149 159.549 29.4307 161.769C42.9743 163.95 53.3414 174.936 53.6992 188.275L53.709 188.988V217.524H23.5137L22.7598 217.516C6.96978 217.138 -5.70783 204.922 -5.70801 189.909V106.012H53.709V134.548ZM116.474 189.909C116.473 205.161 103.39 217.524 87.252 217.524H57.0566V188.988L57.0664 188.275C57.4242 174.937 67.7905 163.95 81.333 161.769C67.5499 159.548 57.0568 148.206 57.0566 134.548V106.012H116.474V189.909ZM179.238 134.548C179.238 148.207 168.744 159.549 154.96 161.769C168.504 163.95 178.871 174.936 179.229 188.275L179.238 188.988V217.524H149.043L148.289 217.516C132.499 217.138 119.821 204.922 119.821 189.909V106.012H179.238V134.548ZM242.003 189.909C242.003 205.161 228.92 217.524 212.781 217.524H182.586V188.988L182.596 188.275C182.954 174.937 193.32 163.95 206.862 161.769C193.079 159.548 182.586 148.206 182.586 134.548V106.012H242.003V189.909ZM304.769 134.548C304.768 148.207 294.274 159.549 280.49 161.769C294.034 163.95 304.401 174.936 304.759 188.275L304.769 188.988V217.524H274.573L273.819 217.516C258.029 217.138 245.352 204.922 245.352 189.909V106.012H304.769V134.548ZM367.533 189.909C367.533 205.161 354.45 217.524 338.312 217.524H308.116V188.988L308.126 188.275C308.484 174.937 318.851 163.95 332.394 161.769C318.61 159.548 308.116 148.207 308.116 134.548V106.012H367.533V189.909ZM430.298 134.548C430.298 148.207 419.804 159.549 406.02 161.769C419.563 163.95 429.93 174.936 430.288 188.275L430.298 188.988V217.524H400.103L399.349 217.516C383.559 217.138 370.881 204.922 370.881 189.909V106.012H430.298V134.548ZM493.062 189.909C493.062 205.161 479.979 217.524 463.841 217.524H433.646V188.988L433.655 188.275C434.013 174.937 444.379 163.951 457.922 161.769C444.139 159.548 433.646 148.206 433.646 134.548V106.012H493.062V189.909ZM555.828 134.548C555.828 148.207 545.334 159.549 531.55 161.769C545.093 163.95 555.461 174.936 555.818 188.275L555.828 188.988V217.524H525.633L524.879 217.516C509.089 217.138 496.411 204.922 496.411 189.909V106.012H555.828V134.548ZM618.593 189.909C618.593 205.161 605.509 217.524 589.371 217.524H559.176V188.988L559.186 188.275C559.543 174.937 569.91 163.95 583.452 161.769C569.669 159.548 559.176 148.206 559.176 134.548V106.012H618.593V189.909ZM681.357 134.548C681.357 148.207 670.863 159.549 657.079 161.769C670.623 163.95 680.99 174.936 681.348 188.275L681.357 188.988V217.524H651.162L650.408 217.516C634.618 217.138 621.941 204.922 621.94 189.909V106.012H681.357V134.548ZM744.122 189.909C744.122 205.161 731.039 217.524 714.9 217.524H684.705V188.988L684.715 188.275C685.073 174.937 695.439 163.95 708.981 161.769C695.198 159.548 684.705 148.206 684.705 134.548V106.012H744.122V189.909ZM806.887 134.548C806.887 148.207 796.393 159.549 782.608 161.769C796.152 163.95 806.519 174.936 806.877 188.275L806.887 188.988V217.524H776.691L775.938 217.516C760.148 217.138 747.47 204.922 747.47 189.909V106.012H806.887V134.548ZM869.651 189.909C869.651 205.161 856.568 217.524 840.43 217.524H810.234V188.988L810.244 188.275C810.602 174.937 820.968 163.95 834.511 161.769C820.728 159.548 810.235 148.206 810.234 134.548V106.012H869.651V189.909ZM932.417 134.548C932.417 148.207 921.923 159.549 908.139 161.769C921.682 163.95 932.049 174.936 932.407 188.275L932.417 188.988V217.524H902.222L901.468 217.516C885.678 217.138 873 204.922 873 189.909V106.012H932.417V134.548ZM995.182 189.909C995.181 205.161 982.098 217.524 965.96 217.524H935.765V188.988L935.774 188.275C936.132 174.937 946.498 163.95 960.041 161.769C946.258 159.548 935.765 148.206 935.765 134.548V106.012H995.182V189.909ZM1057.95 134.548C1057.95 148.207 1047.45 159.549 1033.67 161.769C1047.21 163.95 1057.58 174.936 1057.94 188.275L1057.95 188.988V217.524H1027.75L1027 217.516C1011.21 217.137 998.529 204.922 998.529 189.909V106.012H1057.95V134.548ZM1120.71 189.909C1120.71 205.161 1107.63 217.524 1091.49 217.524H1061.29V188.988L1061.3 188.275C1061.66 174.937 1072.03 163.951 1085.57 161.769C1071.79 159.548 1061.29 148.206 1061.29 134.548V106.012H1120.71V189.909ZM1183.47 134.548C1183.47 148.207 1172.98 159.549 1159.2 161.769C1172.74 163.95 1183.11 174.936 1183.46 188.275L1183.47 188.988V217.524H1153.28L1152.53 217.516C1136.74 217.137 1124.06 204.922 1124.06 189.909V106.012H1183.47V134.548ZM1246.24 189.909C1246.24 205.161 1233.16 217.524 1217.02 217.524H1186.82V188.988L1186.83 188.275C1187.19 174.937 1197.56 163.95 1211.1 161.769C1197.32 159.548 1186.82 148.206 1186.82 134.548V106.012H1246.24V189.909ZM25.9463 162.13C25.4631 162.152 24.9764 162.163 24.4873 162.163H-4.98633V189.909C-4.98615 204.724 7.73506 216.803 23.5137 216.803H52.9873V188.988C52.9871 174.633 41.0429 162.847 25.9463 162.13ZM84.8242 162.13C69.7255 162.845 57.7785 174.632 57.7783 188.988V216.803H87.252C103.031 216.803 115.752 204.724 115.752 189.909V162.163H86.2783L85.5244 162.154C85.2904 162.149 85.0568 162.141 84.8242 162.13ZM151.476 162.13C150.992 162.152 150.506 162.163 150.017 162.163H120.543V189.909C120.543 204.724 133.264 216.803 149.043 216.803H178.517V188.988C178.516 174.633 166.572 162.847 151.476 162.13ZM210.354 162.13C195.255 162.845 183.308 174.632 183.308 188.988V216.803H212.781C228.56 216.803 241.281 204.724 241.281 189.909V162.163H211.808L211.054 162.154C210.82 162.149 210.586 162.141 210.354 162.13ZM277.006 162.13C276.523 162.152 276.036 162.163 275.547 162.163H246.073V189.909C246.073 204.724 258.795 216.803 274.573 216.803H304.047V188.988C304.047 174.633 292.102 162.847 277.006 162.13ZM335.884 162.13C320.785 162.845 308.838 174.632 308.838 188.988V216.803H338.312C354.09 216.803 366.811 204.724 366.812 189.909V162.163H337.338L336.584 162.154C336.35 162.149 336.116 162.141 335.884 162.13ZM402.535 162.13C402.052 162.152 401.565 162.163 401.076 162.163H371.603V189.909C371.603 204.724 384.324 216.802 400.103 216.803H429.576V188.988C429.576 174.633 417.632 162.847 402.535 162.13ZM461.413 162.13C446.314 162.845 434.367 174.632 434.367 188.988V216.803H463.841C479.619 216.803 492.341 204.724 492.341 189.909V162.163H462.867L462.113 162.154C461.88 162.149 461.645 162.141 461.413 162.13ZM528.065 162.13C527.582 162.152 527.095 162.163 526.606 162.163H497.133V189.909C497.133 204.724 509.854 216.803 525.633 216.803H555.106V188.988C555.106 174.633 543.162 162.847 528.065 162.13ZM586.943 162.13C571.845 162.845 559.898 174.632 559.897 188.988V216.803H589.371C605.15 216.803 617.871 204.724 617.871 189.909V162.163H588.397L587.644 162.154C587.41 162.149 587.176 162.141 586.943 162.13ZM653.595 162.13C653.112 162.152 652.625 162.163 652.136 162.163H622.662V189.909C622.662 204.724 635.384 216.802 651.162 216.803H680.636V188.988C680.636 174.633 668.691 162.847 653.595 162.13ZM712.473 162.13C697.374 162.845 685.427 174.632 685.427 188.988V216.803H714.9C730.679 216.803 743.4 204.724 743.4 189.909V162.163H713.927L713.173 162.154C712.939 162.149 712.705 162.141 712.473 162.13ZM779.124 162.13C778.641 162.152 778.154 162.163 777.665 162.163H748.191V189.909C748.192 204.724 760.913 216.802 776.691 216.803H806.165V188.988C806.165 174.633 794.221 162.847 779.124 162.13ZM838.002 162.13C822.903 162.845 810.956 174.632 810.956 188.988V216.803H840.43C856.208 216.803 868.93 204.724 868.93 189.909V162.163H839.456L838.702 162.154C838.468 162.149 838.234 162.141 838.002 162.13ZM904.654 162.13C904.171 162.152 903.684 162.163 903.195 162.163H873.722V189.909C873.722 204.724 886.443 216.803 902.222 216.803H931.695V188.988C931.695 174.633 919.751 162.847 904.654 162.13ZM963.532 162.13C948.433 162.845 936.487 174.632 936.486 188.988V216.803H965.96C981.739 216.803 994.46 204.724 994.46 189.909V162.163H964.986L964.232 162.154C963.999 162.149 963.765 162.141 963.532 162.13ZM1030.18 162.13C1029.7 162.152 1029.21 162.163 1028.72 162.163H999.251V189.909C999.251 204.724 1011.97 216.802 1027.75 216.803H1057.22V188.988C1057.22 174.633 1045.28 162.847 1030.18 162.13ZM1089.06 162.13C1073.96 162.845 1062.02 174.632 1062.02 188.988V216.803H1091.49C1107.27 216.803 1119.99 204.724 1119.99 189.909V162.163H1090.52L1089.76 162.154C1089.53 162.149 1089.29 162.141 1089.06 162.13ZM1155.71 162.13C1155.23 162.152 1154.74 162.163 1154.25 162.163H1124.78V189.909C1124.78 204.724 1137.5 216.802 1153.28 216.803H1182.75V188.988C1182.75 174.633 1170.81 162.847 1155.71 162.13ZM1214.59 162.13C1199.49 162.845 1187.54 174.632 1187.54 188.988V216.803H1217.02C1232.8 216.803 1245.52 204.724 1245.52 189.909V162.163H1216.04L1215.29 162.154C1215.06 162.149 1214.82 162.141 1214.59 162.13ZM-4.98633 161.373H24.4873C24.9725 161.373 25.4552 161.385 25.9346 161.407C41.0367 160.696 52.9871 148.907 52.9873 134.548V106.733H-4.98633V161.373ZM57.7783 134.548C57.7785 148.907 69.7286 160.695 84.8301 161.407C85.0607 161.397 85.2924 161.387 85.5244 161.382L86.2783 161.373H115.752V106.733H57.7783V134.548ZM120.543 161.373H150.017C150.502 161.373 150.985 161.385 151.464 161.407C166.566 160.696 178.516 148.907 178.517 134.548V106.733H120.543V161.373ZM183.308 134.548C183.308 148.907 195.258 160.695 210.359 161.407C210.59 161.397 210.822 161.387 211.054 161.382L211.808 161.373H241.281V106.733H183.308V134.548ZM246.073 161.373H275.547C276.032 161.373 276.515 161.385 276.994 161.407C292.096 160.695 304.047 148.907 304.047 134.548V106.733H246.073V161.373ZM308.838 134.548C308.838 148.907 320.788 160.695 335.89 161.407C336.12 161.397 336.352 161.387 336.584 161.382L337.338 161.373H366.812V106.733H308.838V134.548ZM371.603 161.373H401.076C401.561 161.373 402.044 161.385 402.523 161.407C417.625 160.695 429.576 148.907 429.576 134.548V106.733H371.603V161.373ZM434.367 134.548C434.367 148.906 446.318 160.695 461.419 161.407C461.649 161.397 461.881 161.387 462.113 161.382L462.867 161.373H492.341V106.733H434.367V134.548ZM497.133 161.373H526.606C527.092 161.373 527.574 161.385 528.054 161.407C543.156 160.695 555.106 148.907 555.106 134.548V106.733H497.133V161.373ZM559.897 134.548C559.898 148.907 571.848 160.695 586.949 161.407C587.18 161.397 587.412 161.387 587.644 161.382L588.397 161.373H617.871V106.733H559.897V134.548ZM622.662 161.373H652.136C652.621 161.373 653.104 161.385 653.583 161.407C668.685 160.695 680.636 148.907 680.636 134.548V106.733H622.662V161.373ZM685.427 134.548C685.427 148.906 697.377 160.695 712.479 161.407C712.709 161.397 712.941 161.387 713.173 161.382L713.927 161.373H743.4V106.733H685.427V134.548ZM748.191 161.373H777.665C778.15 161.373 778.633 161.385 779.112 161.407C794.214 160.695 806.165 148.907 806.165 134.548V106.733H748.191V161.373ZM810.956 134.548C810.956 148.906 822.906 160.694 838.007 161.407C838.238 161.397 838.47 161.387 838.702 161.382L839.456 161.373H868.93V106.733H810.956V134.548ZM873.722 161.373H903.195C903.68 161.373 904.163 161.385 904.643 161.407C919.744 160.695 931.695 148.907 931.695 134.548V106.733H873.722V161.373ZM936.486 134.548C936.487 148.907 948.437 160.695 963.538 161.407C963.769 161.397 964.001 161.387 964.232 161.382L964.986 161.373H994.46V106.733H936.486V134.548ZM999.251 161.373H1028.72C1029.21 161.373 1029.69 161.385 1030.17 161.407C1045.27 160.695 1057.22 148.907 1057.22 134.548V106.733H999.251V161.373ZM1062.02 134.548C1062.02 148.906 1073.97 160.695 1089.07 161.407C1089.3 161.397 1089.53 161.387 1089.76 161.382L1090.52 161.373H1119.99V106.733H1062.02V134.548ZM1124.78 161.373H1154.25C1154.74 161.373 1155.22 161.385 1155.7 161.407C1170.8 160.696 1182.75 148.907 1182.75 134.548V106.733H1124.78V161.373ZM1187.54 134.548C1187.54 148.906 1199.49 160.695 1214.6 161.407C1214.83 161.397 1215.06 161.387 1215.29 161.382L1216.04 161.373H1245.52V106.733H1187.54V134.548ZM53.709 19.8721L53.6992 20.585C53.3415 33.926 42.9719 44.9138 29.4258 47.0928C43.2123 49.3106 53.7087 60.6529 53.709 74.3135V102.85H-5.70801V18.9512C-5.70783 3.93801 6.96978 -8.2772 22.7598 -8.65521L23.5137 -8.664H53.709V19.8721ZM87.252 -8.664C103.39 -8.664 116.473 3.69973 116.474 18.9512V102.85H57.0566V74.3135C57.057 60.6546 67.5509 49.3126 81.335 47.0928C67.7913 44.9118 57.4241 33.9244 57.0664 20.585L57.0566 19.8721V-8.664H87.252ZM179.238 19.8721L179.229 20.585C178.871 33.926 168.501 44.9138 154.955 47.0928C168.742 49.3106 179.238 60.6529 179.238 74.3135V102.85H119.821V18.9512C119.821 3.93805 132.499 -8.27713 148.289 -8.65521L149.043 -8.664H179.238V19.8721ZM212.781 -8.664C228.92 -8.664 242.003 3.69973 242.003 18.9512V102.85H182.586V74.3135C182.586 60.6546 193.08 49.3126 206.864 47.0928C193.321 44.9118 182.953 33.9243 182.596 20.585L182.586 19.8721V-8.664H212.781ZM304.768 19.8721L304.758 20.585C304.4 33.926 294.03 44.9137 280.484 47.0928C294.271 49.3103 304.768 60.6527 304.769 74.3135V102.85H245.352V47.4874H245.351V18.9512C245.351 3.93801 258.028 -8.2772 273.818 -8.65521L274.572 -8.664H304.768V19.8721ZM338.311 -8.664C354.449 -8.66397 367.532 3.69975 367.532 18.9512V46.6983L367.533 102.85H308.116V74.3135C308.117 60.6548 318.61 49.3128 332.394 47.0928C318.85 44.9118 308.483 33.9244 308.125 20.585L308.115 19.8721V-8.664H338.311ZM430.298 19.8721L430.288 20.585C429.93 33.9259 419.561 44.9137 406.015 47.0928C419.801 49.3106 430.298 60.653 430.298 74.3135V102.85H370.881V18.9512C370.881 3.93808 383.559 -8.2771 399.349 -8.65521L400.103 -8.664H430.298V19.8721ZM463.841 -8.664C479.979 -8.66386 493.062 3.69982 493.062 18.9512V102.85H433.646V74.3135C433.646 60.6547 444.14 49.3127 457.924 47.0928C444.38 44.9117 434.013 33.9243 433.655 20.585L433.646 19.8721V-8.664H463.841ZM555.828 19.8721L555.818 20.585C555.461 33.9259 545.091 44.9137 531.545 47.0928C545.331 49.3107 555.828 60.653 555.828 74.3135V102.85H496.411V18.9512C496.411 3.93801 509.089 -8.2772 524.879 -8.65521L525.633 -8.664H555.828V19.8721ZM589.371 -8.664C605.509 -8.66385 618.593 3.69983 618.593 18.9512V102.85H559.176V74.3135C559.176 60.6546 569.67 49.3126 583.454 47.0928C569.91 44.9118 559.543 33.9244 559.186 20.585L559.176 19.8721V-8.664H589.371ZM681.358 19.8721L681.349 20.585C680.991 33.9261 670.62 44.9139 657.074 47.0928C670.861 49.3106 681.357 60.653 681.357 74.3135V102.85H621.94V46.6983H621.941V18.9512C621.942 3.93801 634.619 -8.2772 650.409 -8.65521L651.163 -8.664H681.358V19.8721ZM714.901 -8.664C731.04 -8.66364 744.123 3.69995 744.123 18.9512L744.122 47.4874V102.85H684.705V74.3135C684.705 60.6547 695.2 49.3127 708.983 47.0928C695.44 44.9116 685.074 33.9242 684.716 20.585L684.706 19.8721V-8.664H714.901ZM806.887 19.8721L806.877 20.585C806.519 33.926 796.15 44.9138 782.604 47.0928C796.39 49.3106 806.886 60.653 806.887 74.3135V102.85H747.47V18.9512C747.47 3.93805 760.148 -8.27714 775.938 -8.65521L776.691 -8.664H806.887V19.8721ZM840.43 -8.664C856.568 -8.664 869.651 3.69973 869.651 18.9512V102.85H810.234V74.3135C810.235 60.6546 820.729 49.3126 834.513 47.0928C820.969 44.9118 810.602 33.9244 810.244 20.585L810.234 19.8721V-8.664H840.43ZM932.416 19.8721L932.406 20.585C932.048 33.9259 921.679 44.9136 908.133 47.0928C921.92 49.3104 932.417 60.6528 932.417 74.3135V102.85H873V47.4874H872.999V18.9512C872.999 3.93801 885.677 -8.2772 901.467 -8.65521L902.221 -8.664H932.416V19.8721ZM965.959 -8.664C982.097 -8.66375 995.18 3.69989 995.181 18.9512V46.6983H995.182V102.85H935.765V74.3135C935.765 60.6549 946.258 49.3129 960.042 47.0928C946.498 44.9118 936.131 33.9244 935.773 20.585L935.764 19.8721V-8.664H965.959ZM1057.95 19.8721L1057.94 20.585C1057.58 33.926 1047.21 44.9138 1033.66 47.0928C1047.45 49.3106 1057.95 60.653 1057.95 74.3135V102.85H998.529V18.9512C998.529 3.93812 1011.21 -8.27702 1027 -8.65521L1027.75 -8.664H1057.95V19.8721ZM1091.49 -8.664C1107.63 -8.664 1120.71 3.69973 1120.71 18.9512V102.85H1061.29V74.3135C1061.29 60.655 1071.79 49.313 1085.57 47.0928C1072.03 44.9113 1061.66 33.924 1061.3 20.585L1061.29 19.8721V-8.664H1091.49ZM1183.47 19.8721L1183.46 20.585C1183.11 33.926 1172.74 44.9138 1159.19 47.0928C1172.98 49.3105 1183.47 60.6529 1183.47 74.3135V102.85H1124.06V18.9512C1124.06 3.9381 1136.74 -8.27706 1152.53 -8.65521L1153.28 -8.664H1183.47V19.8721ZM1217.02 -8.664C1233.16 -8.664 1246.24 3.69973 1246.24 18.9512V102.85H1186.82V74.3135C1186.82 60.6547 1197.32 49.3127 1211.1 47.0928C1197.56 44.9117 1187.19 33.9243 1186.83 20.585L1186.82 19.8721V-8.664H1217.02ZM25.9209 47.4532C25.446 47.4749 24.9679 47.4874 24.4873 47.4874H-4.98633V102.128H52.9873V74.3135C52.9869 59.9503 41.0294 48.1584 25.9209 47.4532ZM84.8301 47.4542C69.7287 48.1665 57.7787 59.955 57.7783 74.3135V102.128H115.752V47.4874H86.2783L85.5244 47.4786C85.2924 47.473 85.0607 47.4648 84.8301 47.4542ZM151.45 47.4532C150.975 47.4749 150.497 47.4874 150.017 47.4874H120.543V102.128H178.517V74.3135C178.516 59.9503 166.559 48.1584 151.45 47.4532ZM210.359 47.4542C195.258 48.1666 183.308 59.9551 183.308 74.3135V102.128H241.281V47.4874H211.808L211.054 47.4786C210.822 47.473 210.59 47.4648 210.359 47.4542ZM276.98 47.4532C276.505 47.4749 276.027 47.4874 275.546 47.4874H246.073V102.128H304.047V74.3135C304.047 59.9504 292.089 48.1586 276.98 47.4532ZM335.889 47.4542C320.788 48.1668 308.838 59.9552 308.838 74.3135V102.128H366.812V47.4874H337.337L336.583 47.4786C336.351 47.473 336.119 47.4648 335.889 47.4542ZM402.51 47.4532C402.035 47.4749 401.557 47.4874 401.076 47.4874H371.603V102.128H429.576V74.3135C429.576 59.9503 417.618 48.1585 402.51 47.4532ZM461.419 47.4542C446.318 48.1667 434.368 59.9551 434.367 74.3135V102.128H492.341V47.4874H462.867L462.113 47.4786C461.881 47.473 461.649 47.4648 461.419 47.4542ZM528.04 47.4532C527.565 47.4749 527.087 47.4874 526.606 47.4874H497.133V102.128H555.106V74.3135C555.106 59.9504 543.148 48.1586 528.04 47.4532ZM586.949 47.4542C571.848 48.1665 559.898 59.955 559.897 74.3135V102.128H617.871V47.4874H588.397L587.644 47.4786C587.412 47.473 587.18 47.4648 586.949 47.4542ZM653.57 47.4532C653.096 47.4749 652.617 47.4874 652.137 47.4874H622.662V102.128H680.636V74.3135C680.635 59.9506 668.678 48.1589 653.57 47.4532ZM712.479 47.4542C697.378 48.1662 685.427 59.9548 685.427 74.3135V102.128H743.4V47.4874H713.928L713.174 47.4786C712.942 47.473 712.71 47.4648 712.479 47.4542ZM779.099 47.4532C778.624 47.4749 778.146 47.4874 777.665 47.4874H748.191V102.128H806.165V74.3135C806.165 59.9503 794.207 48.1585 779.099 47.4532ZM838.008 47.4542C822.906 48.1665 810.956 59.955 810.956 74.3135V102.128H868.93V47.4874H839.456L838.702 47.4786C838.47 47.473 838.238 47.4648 838.008 47.4542ZM904.629 47.4532C904.154 47.4749 903.675 47.4874 903.194 47.4874H873.722V102.128H931.695V74.3135C931.695 59.9504 919.737 48.1587 904.629 47.4532ZM963.538 47.4542C948.437 48.1665 936.487 59.955 936.486 74.3135V102.128H994.46V47.4874H964.985L964.231 47.4786C964 47.473 963.768 47.4648 963.538 47.4542ZM1030.16 47.4532C1029.68 47.4749 1029.21 47.4874 1028.72 47.4874H999.251V102.128H1057.22V74.3135C1057.22 59.9503 1045.27 48.1585 1030.16 47.4532ZM1089.07 47.4542C1073.97 48.1666 1062.02 59.9551 1062.02 74.3135V102.128H1119.99V47.4874H1090.52L1089.76 47.4786C1089.53 47.473 1089.3 47.4648 1089.07 47.4542ZM1155.69 47.4532C1155.21 47.4749 1154.73 47.4874 1154.25 47.4874H1124.78V102.128H1182.75V74.3135C1182.75 59.9502 1170.8 48.1584 1155.69 47.4532ZM1214.6 47.4542C1199.49 48.1667 1187.54 59.9551 1187.54 74.3135V102.128H1245.52V47.4874H1216.04L1215.29 47.4786C1215.06 47.473 1214.83 47.4648 1214.6 47.4542ZM23.5137 -7.94232C7.73506 -7.94215 -4.98615 4.13649 -4.98633 18.9512V46.6983H24.4873C24.9672 46.6983 25.4447 46.7099 25.9189 46.7315C41.0285 46.0272 52.9873 34.2363 52.9873 19.8721V-7.94232H23.5137ZM57.7783 19.8721C57.7784 34.2334 69.7326 46.0229 84.8379 46.7315C85.0659 46.721 85.295 46.7126 85.5244 46.7071L86.2783 46.6983H115.752V18.9512C115.752 4.13639 103.031 -7.94232 87.252 -7.94232H57.7783V19.8721ZM149.043 -7.94232C133.264 -7.94208 120.543 4.13654 120.543 18.9512V46.6983H150.017C150.496 46.6983 150.974 46.7099 151.448 46.7315C166.558 46.0272 178.517 34.2363 178.517 19.8721V-7.94232H149.043ZM183.308 19.8721C183.308 34.2333 195.262 46.0228 210.367 46.7315C210.595 46.721 210.824 46.7126 211.054 46.7071L211.808 46.6983H241.281V18.9512C241.281 4.13639 228.56 -7.94232 212.781 -7.94232H183.308V19.8721ZM274.572 -7.94232C258.794 -7.94215 246.072 4.13649 246.072 18.9512V46.6983H275.547C276.026 46.6983 276.504 46.7099 276.978 46.7315C292.087 46.0271 304.046 34.2363 304.046 19.8721V-7.94232H274.572ZM308.837 19.8721C308.837 34.2334 320.791 46.0229 335.896 46.7315C336.125 46.721 336.354 46.7126 336.584 46.7071L337.338 46.6983H366.811V18.9512C366.81 4.13641 354.089 -7.94229 338.311 -7.94232H308.837V19.8721ZM400.103 -7.94232C384.324 -7.94205 371.603 4.13656 371.603 18.9512V46.6983H401.076C401.556 46.6983 402.034 46.7099 402.508 46.7315C417.617 46.027 429.576 34.2362 429.576 19.8721V-7.94232H400.103ZM434.367 19.8721C434.367 34.2333 446.322 46.0228 461.427 46.7315C461.655 46.7211 461.884 46.7126 462.113 46.7071L462.867 46.6983H492.341V18.9512C492.341 4.13648 479.619 -7.94218 463.841 -7.94232H434.367V19.8721ZM525.633 -7.94232C509.854 -7.94215 497.133 4.13649 497.133 18.9512V46.6983H526.606C527.086 46.6983 527.564 46.7099 528.038 46.7315C543.148 46.027 555.106 34.2362 555.106 19.8721V-7.94232H525.633ZM559.897 19.8721C559.897 34.2334 571.852 46.0229 586.957 46.7315C587.185 46.7211 587.414 46.7126 587.644 46.7071L588.397 46.6983H617.871V18.9512C617.871 4.13649 605.15 -7.94217 589.371 -7.94232H559.897V19.8721ZM651.163 -7.94232C635.384 -7.94215 622.663 4.13649 622.663 18.9512V46.6983H652.136C652.615 46.6983 653.093 46.7099 653.567 46.7315C668.677 46.0273 680.637 34.2364 680.637 19.8721V-7.94232H651.163ZM685.428 19.8721C685.428 34.2332 697.381 46.0225 712.486 46.7315C712.714 46.7211 712.944 46.7126 713.173 46.7071L713.927 46.6983H743.401V18.9512C743.401 4.13661 730.68 -7.94197 714.901 -7.94232H685.428V19.8721ZM776.691 -7.94232C760.913 -7.94209 748.192 4.13653 748.191 18.9512V46.6983H777.665C778.145 46.6983 778.622 46.7099 779.097 46.7315C794.206 46.0272 806.165 34.2363 806.165 19.8721V-7.94232H776.691ZM810.956 19.8721C810.956 34.2333 822.91 46.0228 838.016 46.7315C838.244 46.721 838.473 46.7126 838.702 46.7071L839.456 46.6983H868.93V18.9512C868.93 4.13639 856.208 -7.94232 840.43 -7.94232H810.956V19.8721ZM902.221 -7.94232C886.442 -7.94215 873.721 4.13649 873.721 18.9512V46.6983H903.195C903.675 46.6983 904.152 46.7099 904.626 46.7315C919.735 46.0269 931.694 34.2361 931.694 19.8721V-7.94232H902.221ZM936.485 19.8721C936.485 34.2334 948.44 46.0229 963.545 46.7315C963.773 46.721 964.003 46.7126 964.232 46.7071L964.986 46.6983H994.459V18.9512C994.459 4.13654 981.738 -7.94207 965.959 -7.94232H936.485V19.8721ZM1027.75 -7.94232C1011.97 -7.94197 999.251 4.13661 999.251 18.9512V46.6983H1028.72C1029.2 46.6983 1029.68 46.7099 1030.16 46.7315C1045.27 46.0272 1057.22 34.2363 1057.22 19.8721V-7.94232H1027.75ZM1062.02 19.8721C1062.02 34.2333 1073.97 46.0227 1089.08 46.7315C1089.3 46.7211 1089.53 46.7126 1089.76 46.7071L1090.52 46.6983H1119.99V18.9512C1119.99 4.13639 1107.27 -7.94232 1091.49 -7.94232H1062.02V19.8721ZM1153.28 -7.94232C1137.5 -7.94201 1124.78 4.13658 1124.78 18.9512V46.6983H1154.25C1154.73 46.6983 1155.21 46.7099 1155.68 46.7315C1170.79 46.0272 1182.75 34.2363 1182.75 19.8721V-7.94232H1153.28ZM1187.54 19.8721C1187.54 34.2333 1199.5 46.0227 1214.6 46.7315C1214.83 46.721 1215.06 46.7126 1215.29 46.7071L1216.04 46.6983H1245.52V18.9512C1245.52 4.13639 1232.8 -7.94232 1217.02 -7.94232H1187.54V19.8721Z" fill="white"/>
</g>
</g>
<defs>
<filter id="filter0_dd_18413_6265" x="-0.000227213" y="0" width="338.749" height="454.532" filterUnits="userSpaceOnUse" color-interpolation-filters="sRGB">
<feFlood flood-opacity="0" result="BackgroundImageFix"/>
<feColorMatrix in="SourceAlpha" type="matrix" values="0 0 0 0 0 0 0 0 0 0 0 0 0 0 0 0 0 0 127 0" result="hardAlpha"/>
<feOffset dx="7.87636" dy="7.87636"/>
<feGaussianBlur stdDeviation="0.164091"/>
<feComposite in2="hardAlpha" operator="out"/>
<feColorMatrix type="matrix" values="0 0 0 0 0 0 0 0 0 0 0 0 0 0 0 0 0 0 0.25 0"/>
<feBlend mode="normal" in2="BackgroundImageFix" result="effect1_dropShadow_18413_6265"/>
<feColorMatrix in="SourceAlpha" type="matrix" values="0 0 0 0 0 0 0 0 0 0 0 0 0 0 0 0 0 0 127 0" result="hardAlpha"/>
<feOffset dy="1.31273"/>
<feGaussianBlur stdDeviation="0.656364"/>
<feComposite in2="hardAlpha" operator="out"/>
<feColorMatrix type="matrix" values="0 0 0 0 0 0 0 0 0 0 0 0 0 0 0 0 0 0 0.25 0"/>
<feBlend mode="normal" in2="effect1_dropShadow_18413_6265" result="effect2_dropShadow_18413_6265"/>
<feBlend mode="normal" in="SourceGraphic" in2="effect2_dropShadow_18413_6265" result="shape"/>
</filter>
<clipPath id="clip0_18413_6265">
<path d="M1.3125 1.31271C1.3125 0.587708 1.90023 0 2.62523 0H327.919C329.369 0 330.544 1.17546 330.544 2.62545V446.327H2.62521C1.90021 446.327 1.3125 445.74 1.3125 445.015V1.31271Z" fill="white"/>
</clipPath>
<clipPath id="clip1_18413_6265">
<rect width="157.422" height="116.964" fill="white" transform="translate(87.4536 149.454)"/>
</clipPath>
</defs>
</svg>
