<svg width="21" height="21" viewBox="0 0 21 21" fill="none" xmlns="http://www.w3.org/2000/svg">
<g clip-path="url(#clip0_535_5171)">
<path d="M13.125 18.375V11.375C13.125 11.1429 13.0328 10.9204 12.8687 10.7563C12.7046 10.5922 12.4821 10.5 12.25 10.5H8.75C8.51794 10.5 8.29538 10.5922 8.13128 10.7563C7.96719 10.9204 7.875 11.1429 7.875 11.375V18.375" stroke="#FF2B77" stroke-width="1.75" stroke-linecap="round" stroke-linejoin="round"/>
<path d="M2.625 8.74954C2.62494 8.49498 2.68042 8.24346 2.78756 8.01255C2.89471 7.78163 3.05095 7.57687 3.24538 7.41254L9.37037 2.16342C9.68624 1.89646 10.0864 1.75 10.5 1.75C10.9136 1.75 11.3138 1.89646 11.6296 2.16342L17.7546 7.41254C17.9491 7.57687 18.1053 7.78163 18.2124 8.01255C18.3196 8.24346 18.3751 8.49498 18.375 8.74954V16.6245C18.375 17.0887 18.1906 17.5338 17.8624 17.862C17.5342 18.1902 17.0891 18.3745 16.625 18.3745H4.375C3.91087 18.3745 3.46575 18.1902 3.13756 17.862C2.80937 17.5338 2.625 17.0887 2.625 16.6245V8.74954Z" stroke="#FF2B77" stroke-width="1.75" stroke-linecap="round" stroke-linejoin="round"/>
</g>
<defs>
<clipPath id="clip0_535_5171">
<rect width="21" height="21" fill="white"/>
</clipPath>
</defs>
</svg>
