<svg width="12" height="13" viewBox="0 0 12 13" fill="none" xmlns="http://www.w3.org/2000/svg">
<path fill-rule="evenodd" clip-rule="evenodd" d="M7.52108 2.07537C7.99497 1.52612 8.31441 0.761137 8.22699 0C7.54408 0.026 6.71788 0.436245 6.22821 0.984839C5.78849 1.47168 5.40464 2.24958 5.50784 2.99578C6.26962 3.05232 7.04718 2.62525 7.52108 2.07537ZM9.22934 6.90625C9.2484 8.87377 11.0303 9.52827 11.05 9.53672C11.0355 9.58287 10.7654 10.4693 10.1114 11.3858C9.54549 12.1775 8.95854 12.966 8.03375 12.9829C7.12539 12.9991 6.83291 12.4668 5.79375 12.4668C4.75525 12.4668 4.43056 12.9659 3.57084 12.999C2.67826 13.0309 1.99797 12.1425 1.42811 11.3534C0.262103 9.73949 -0.628508 6.79256 0.567738 4.80359C1.16192 3.81625 2.22342 3.19006 3.37628 3.17446C4.25243 3.15821 5.07995 3.7394 5.61563 3.7394C6.15131 3.7394 7.15694 3.04066 8.21385 3.14336C8.65619 3.16091 9.89845 3.31425 10.6957 4.43289C10.6313 4.47124 9.21357 5.26178 9.22934 6.90625Z" fill="black"/>
</svg>
