<svg width="22" height="40" viewBox="0 0 22 40" fill="none" xmlns="http://www.w3.org/2000/svg">
<g clip-path="url(#clip0_535_5310)">
<path d="M21.2862 23.4848C21.6591 22.658 21.9056 21.7604 22.0001 20.8193L15.8521 22.1268V19.6132L21.286 18.4584C21.6589 17.6317 21.9055 16.734 21.9999 15.7929L15.8519 17.0994V8.05957C14.9099 8.58851 14.0732 9.29259 13.3931 10.1231V17.6222L10.9343 18.1448V6.83008C9.99227 7.35883 9.15563 8.0631 8.47554 8.8936V18.6672L2.97398 19.8363C2.60103 20.6631 2.35431 21.5607 2.25968 22.5018L8.47554 21.1809V24.3463L1.81403 25.7619C1.44107 26.5887 1.19454 27.4863 1.1001 28.4275L8.07284 26.9457C8.64045 26.8276 9.1283 26.492 9.44548 26.0302L10.7242 24.1344V24.134C10.857 23.9379 10.9343 23.7014 10.9343 23.4467V20.6582L13.3931 20.1356V25.1629L21.286 23.4844L21.2862 23.4848Z" fill="#1B213E"/>
<path d="M14.1072 30.1045C13.7343 30.9315 13.4878 31.8289 13.3933 32.77L21.2858 31.0923C21.6588 30.2655 21.9051 29.3679 21.9997 28.4268L14.1072 30.1045Z" fill="#1B213E"/>
</g>
<defs>
<clipPath id="clip0_535_5310">
<rect width="22" height="39.6" fill="white"/>
</clipPath>
</defs>
</svg>
