<svg width="35" height="35" viewBox="0 0 35 35" fill="none" xmlns="http://www.w3.org/2000/svg">
<path d="M31.3207 5.65856C29.1091 11.1732 23.5658 18.6697 18.9271 22.3892L16.098 24.6582C15.739 24.9167 15.38 25.1465 14.9779 25.3045C14.9779 25.046 14.9635 24.7587 14.9204 24.4859C14.7624 23.2796 14.2167 22.1594 13.2545 21.1972C12.278 20.2207 11.086 19.6462 9.86532 19.4882C9.5781 19.4739 9.29088 19.4452 9.00366 19.4739C9.16163 19.0287 9.40577 18.6122 9.70735 18.2676L11.9477 15.4384C15.6528 10.7998 23.178 5.22773 28.6783 3.03049C29.5256 2.71455 30.3442 2.94432 30.8612 3.47568C31.4069 4.00704 31.6654 4.82562 31.3207 5.65856Z" stroke="#3B4057" stroke-width="2.15416" stroke-linecap="round" stroke-linejoin="round"/>
<path d="M14.979 25.3043C14.979 26.884 14.3758 28.3919 13.2413 29.5408C12.3653 30.4168 11.1733 31.02 9.75156 31.2067L6.21875 31.5944C4.29437 31.8099 2.64285 30.1727 2.87263 28.2196L3.26037 24.6868C3.60504 21.5417 6.23311 19.5312 9.01915 19.4737C9.30637 19.4594 9.60795 19.4737 9.88081 19.4881C11.1015 19.6461 12.2935 20.2061 13.27 21.197C14.2322 22.1592 14.7779 23.2794 14.9359 24.4857C14.9503 24.7586 14.979 25.0314 14.979 25.3043Z" stroke="#3B4057" stroke-width="2.15416" stroke-linecap="round" stroke-linejoin="round"/>
<path opacity="0.4" d="M20.4498 20.7801C20.4498 17.0318 17.4052 13.9873 13.657 13.9873" stroke="#3B4057" stroke-width="2.15416" stroke-linecap="round" stroke-linejoin="round"/>
</svg>
