<svg width="35" height="35" viewBox="0 0 35 35" fill="none" xmlns="http://www.w3.org/2000/svg">
<path d="M30.1613 8.58922C25.3786 8.11526 20.5672 7.87109 15.7701 7.87109C12.9263 7.87109 10.0826 8.01472 7.23879 8.30197L4.30884 8.58922" stroke="#666666" stroke-width="2.15438" stroke-linecap="round" stroke-linejoin="round"/>
<path opacity="0.34" d="M12.208 7.13773L12.524 5.25625C12.7538 3.89181 12.9261 2.87207 15.3534 2.87207H19.1164C21.5436 2.87207 21.7303 3.94926 21.9458 5.27061L22.2618 7.13773" stroke="#666666" stroke-width="2.15438" stroke-linecap="round" stroke-linejoin="round"/>
<path d="M27.0738 13.127L26.1403 27.59C25.9823 29.8449 25.853 31.5971 21.8459 31.5971H12.6252C8.61803 31.5971 8.48877 29.8449 8.33078 27.59L7.39722 13.127" stroke="#666666" stroke-width="2.15438" stroke-linecap="round" stroke-linejoin="round"/>
<path opacity="0.34" d="M14.8367 23.6982H19.6194" stroke="#666666" stroke-width="2.15438" stroke-linecap="round" stroke-linejoin="round"/>
<path opacity="0.34" d="M13.6443 17.9531H20.8255" stroke="#666666" stroke-width="2.15438" stroke-linecap="round" stroke-linejoin="round"/>
</svg>
