<svg width="30" height="30" viewBox="0 0 30 30" fill="none" xmlns="http://www.w3.org/2000/svg">
<path d="M15 0.5C23.0081 0.5 29.5 6.99187 29.5 15C29.5 23.0081 23.0081 29.5 15 29.5C6.99187 29.5 0.5 23.0081 0.5 15C0.5 6.99187 6.99187 0.5 15 0.5Z" fill="#FF2B77"/>
<path d="M15 0.5C23.0081 0.5 29.5 6.99187 29.5 15C29.5 23.0081 23.0081 29.5 15 29.5C6.99187 29.5 0.5 23.0081 0.5 15C0.5 6.99187 6.99187 0.5 15 0.5Z" stroke="#ECE9E9"/>
<path d="M16.879 15.75H15.1212V21H12.7775V15.75H10.8556V13.5938H12.7775V11.9297C12.7775 10.0547 13.9025 9 15.6134 9C16.4337 9 17.3009 9.16406 17.3009 9.16406V11.0156H16.34C15.4025 11.0156 15.1212 11.5781 15.1212 12.1875V13.5938H17.2072L16.879 15.75Z" fill="white"/>
</svg>
