<svg width="37" height="37" viewBox="0 0 37 37" fill="none" xmlns="http://www.w3.org/2000/svg">
<path opacity="0.4" d="M16.0855 16.6588L8.70166 9.83789" stroke="#3B4057" stroke-width="2.12888" stroke-linecap="round" stroke-linejoin="round"/>
<path d="M28.6374 9.10586H29.7013C29.7013 8.8237 29.5892 8.55311 29.3897 8.35359C29.1902 8.15408 28.9196 8.04199 28.6374 8.04199V9.10586ZM28.6374 17.148V18.2119C28.9195 18.2116 29.1899 18.0994 29.3894 17.9C29.5888 17.7005 29.701 17.4301 29.7013 17.148H28.6374ZM7.95754 9.10586V8.04199C7.67539 8.04199 7.40479 8.15408 7.20528 8.35359C7.00576 8.55311 6.89368 8.8237 6.89368 9.10586H7.95754ZM7.95754 17.148H6.89368C6.89368 17.7363 7.36931 18.2119 7.95754 18.2119V17.148ZM7.96214 17.148H9.026C9.026 16.8659 8.91392 16.5953 8.71441 16.3958C8.51489 16.1963 8.24429 16.0842 7.96214 16.0842V17.148ZM7.96214 29.7858H6.89712C6.89712 30.374 7.37391 30.8496 7.96214 30.8496V29.7858ZM16.0043 29.7858V30.8496C16.2865 30.8496 16.5571 30.7375 16.7566 30.538C16.9561 30.3385 17.0682 30.0679 17.0682 29.7858H16.0043ZM16.0043 17.148V16.0842C15.7223 16.0845 15.4518 16.1967 15.2524 16.3961C15.0529 16.5956 14.9408 16.866 14.9405 17.148H16.0043ZM27.5736 9.10586V17.148H29.7013V9.10586H27.5736ZM16.0043 10.1697H28.6374V8.04199H16.0043V10.1697ZM7.95754 10.1697H16.0043V8.04199H7.95754V10.1697ZM9.02141 17.148V9.10586H6.89368V17.148H9.02141ZM7.96214 16.0842H7.95754V18.2119H7.96214V16.0842ZM9.026 29.7858V17.148H6.89712V29.7858H9.026ZM16.0043 28.7219H7.96214V30.8496H16.0043V28.7219ZM14.9405 17.148V29.7858H17.0682V17.148H14.9405ZM28.6374 16.0842H16.0043V18.2119H28.6374V16.0842Z" fill="#3B4057"/>
</svg>
