<svg width="55" height="55" viewBox="0 0 55 55" fill="none" xmlns="http://www.w3.org/2000/svg">
<g clip-path="url(#clip0_360_12232)">
<path d="M28.6816 27.5H27.5V1.18164C27.5 0.529053 28.0291 0 28.6816 0C36.2755 0 42.4316 6.15603 42.4316 13.75C42.4316 21.344 36.2756 27.5 28.6816 27.5Z" fill="#F44336"/>
<path d="M28.6816 0C28.4101 0 28.1608 0.0924902 27.9613 0.246426C34.3121 1.4618 39.1118 7.04494 39.1118 13.75C39.1118 20.6165 34.0784 26.307 27.5 27.3342V27.5H28.6816C36.2755 27.5 42.4316 21.3439 42.4316 13.75C42.4316 6.15603 36.2756 0 28.6816 0Z" fill="#E53935"/>
<path d="M27.5 26.3184V27.5H1.18164C0.529053 27.5 0 26.9709 0 26.3184C0 18.7245 6.15603 12.5684 13.75 12.5684C21.344 12.5684 27.5 18.7244 27.5 26.3184Z" fill="#FFC107"/>
<path d="M13.7498 12.5684C13.1879 12.5684 12.6342 12.6028 12.0898 12.6684C18.9009 13.4881 24.1799 19.2863 24.1799 26.3184V27.5H27.4998V26.3184C27.4998 18.7244 21.3438 12.5684 13.7498 12.5684Z" fill="#FFB300"/>
<path d="M27.5 28.6816V27.5H53.8184C54.4709 27.5 55 28.0291 55 28.6816C55 36.2755 48.844 42.4316 41.25 42.4316C33.656 42.4316 27.5 36.2756 27.5 28.6816Z" fill="#2196F3"/>
<path d="M53.8181 27.5H50.4982C51.1508 27.5 51.6799 28.0291 51.6799 28.6816C51.6799 35.7136 46.4008 41.5119 39.5898 42.3316C40.1406 42.3981 40.6949 42.4315 41.2497 42.4316C48.8436 42.4316 54.9997 36.2755 54.9997 28.6816C54.9997 28.0291 54.4707 27.5 53.8181 27.5Z" fill="#1E88E5"/>
<path d="M26.3184 27.5H27.5V53.8184C27.5 54.4709 26.9709 55 26.3184 55C18.7245 55 12.5684 48.844 12.5684 41.25C12.5684 33.656 18.7244 27.5 26.3184 27.5Z" fill="#43A047"/>
<path d="M26.3178 27.5C25.5904 27.5 24.8764 27.5569 24.1795 27.6658V53.8184C24.1795 54.1995 23.9984 54.5374 23.7183 54.7536C24.575 54.9176 25.4454 55.0001 26.3178 55C26.9704 55 27.4994 54.4709 27.4994 53.8184V27.5H26.3178Z" fill="#388E3C"/>
</g>
<defs>
<clipPath id="clip0_360_12232">
<rect width="55" height="55" fill="white"/>
</clipPath>
</defs>
</svg>
