<svg width="12" height="12" viewBox="0 0 12 12" fill="none" xmlns="http://www.w3.org/2000/svg">
<mask id="mask0_301_11908" style="mask-type:luminance" maskUnits="userSpaceOnUse" x="0" y="0" width="12" height="12">
<path d="M11.3705 0.307434H0.307312V11.3706H11.3705V0.307434Z" fill="white"/>
</mask>
<g mask="url(#mask0_301_11908)">
<path d="M11.3654 5.94249C11.3654 5.48924 11.3278 5.15849 11.2463 4.81549H5.94928V6.86124H9.05852C8.99583 7.36965 8.65736 8.13529 7.90506 8.64978L7.89455 8.71825L9.56933 9.98597L9.68537 9.99734C10.7511 9.03564 11.3654 7.62079 11.3654 5.94249Z" fill="#4285F4"/>
<path d="M5.94906 11.3326C7.47233 11.3326 8.75111 10.8426 9.68515 9.99733L7.90484 8.64978C7.42845 8.97442 6.78906 9.20103 5.94906 9.20103C4.45713 9.20103 3.19087 8.23939 2.73949 6.91028L2.67333 6.91575L0.931833 8.23263L0.909058 8.29453C1.83681 10.0953 3.74248 11.3326 5.94906 11.3326Z" fill="#34A853"/>
<path d="M2.73971 6.91033C2.6206 6.56731 2.55168 6.19976 2.55168 5.82004C2.55168 5.44026 2.6206 5.07277 2.73344 4.72977L2.73028 4.65672L0.966964 3.31866L0.90927 3.34548C0.5269 4.09275 0.307495 4.9319 0.307495 5.82004C0.307495 6.70818 0.5269 7.54726 0.90927 8.29457L2.73971 6.91033Z" fill="#FBBC05"/>
<path d="M5.94906 2.43901C7.00842 2.43901 7.72304 2.88614 8.13053 3.2598L9.72277 1.74076C8.74491 0.852632 7.47233 0.307495 5.94906 0.307495C3.74248 0.307495 1.83681 1.54476 0.909058 3.34551L2.73322 4.7298C3.19087 3.40066 4.45713 2.43901 5.94906 2.43901Z" fill="#EB4335"/>
</g>
</svg>
