<svg width="106" height="119" viewBox="0 0 106 119" fill="none" xmlns="http://www.w3.org/2000/svg">
<g clip-path="url(#clip0_243_1691)">
<g clip-path="url(#clip1_243_1691)">
<g clip-path="url(#clip2_243_1691)">
<path d="M3 15.0866H34.3162L47.1253 4.97384C50.7134 2.14107 55.8671 2.38221 59.1693 5.53737L74.1688 19.8689C78.7579 24.4121 71.9951 33.4986 65.9568 27.9989L53.3972 17.4778M103.153 47.1282H90.8344L61.1261 77.7351C54.6463 82.8712 45.7777 75.0407 51.4648 69.6052M51.4648 69.6052L58.7108 61.9535M51.4648 69.6052L48.5665 72.2355C43.691 77.1288 35.8658 68.7763 40.1129 64.3446M40.1129 64.3446L48.5665 55.2582M40.1129 64.3446L37.2145 66.4967C33.1086 69.6052 23.2058 61.9535 27.7948 57.1711L29.8478 55.2582M29.8478 55.2582L40.1129 45.6935M29.8478 55.2582C24.9105 59.9017 16.5637 52.0712 20.7904 47.1282L37.2145 30.8683" stroke="#FF2B77" stroke-width="5" stroke-linecap="round"/>
</g>
</g>
</g>
<defs>
<clipPath id="clip0_243_1691">
<rect width="106" height="82" fill="white"/>
</clipPath>
<clipPath id="clip1_243_1691">
<rect width="106" height="82" fill="white"/>
</clipPath>
<clipPath id="clip2_243_1691">
<rect width="106" height="82" fill="white"/>
</clipPath>
</defs>
</svg>
