<svg width="30" height="30" viewBox="0 0 30 30" fill="none" xmlns="http://www.w3.org/2000/svg">
<path d="M15 0.5C23.0081 0.5 29.5 6.99187 29.5 15C29.5 23.0081 23.0081 29.5 15 29.5C6.99187 29.5 0.5 23.0081 0.5 15C0.5 6.99187 6.99187 0.5 15 0.5Z" fill="#FF2B77"/>
<path d="M15 0.5C23.0081 0.5 29.5 6.99187 29.5 15C29.5 23.0081 23.0081 29.5 15 29.5C6.99187 29.5 0.5 23.0081 0.5 15C0.5 6.99187 6.99187 0.5 15 0.5Z" stroke="#ECE9E9"/>
<path d="M14.75 12.3047C16.2266 12.3047 17.4453 13.5234 17.4453 15C17.4453 16.5 16.2266 17.6953 14.75 17.6953C13.25 17.6953 12.0547 16.5 12.0547 15C12.0547 13.5234 13.25 12.3047 14.75 12.3047ZM14.75 16.7578C15.7109 16.7578 16.4844 15.9844 16.4844 15C16.4844 14.0391 15.7109 13.2656 14.75 13.2656C13.7656 13.2656 12.9922 14.0391 12.9922 15C12.9922 15.9844 13.7891 16.7578 14.75 16.7578ZM18.1719 12.2109C18.1719 12.5625 17.8906 12.8438 17.5391 12.8438C17.1875 12.8438 16.9062 12.5625 16.9062 12.2109C16.9062 11.8594 17.1875 11.5781 17.5391 11.5781C17.8906 11.5781 18.1719 11.8594 18.1719 12.2109ZM19.9531 12.8438C20 13.7109 20 16.3125 19.9531 17.1797C19.9062 18.0234 19.7188 18.75 19.1094 19.3828C18.5 19.9922 17.75 20.1797 16.9062 20.2266C16.0391 20.2734 13.4375 20.2734 12.5703 20.2266C11.7266 20.1797 11 19.9922 10.3672 19.3828C9.75781 18.75 9.57031 18.0234 9.52344 17.1797C9.47656 16.3125 9.47656 13.7109 9.52344 12.8438C9.57031 12 9.75781 11.25 10.3672 10.6406C11 10.0312 11.7266 9.84375 12.5703 9.79688C13.4375 9.75 16.0391 9.75 16.9062 9.79688C17.75 9.84375 18.5 10.0312 19.1094 10.6406C19.7188 11.25 19.9062 12 19.9531 12.8438ZM18.8281 18.0938C19.1094 17.4141 19.0391 15.7734 19.0391 15C19.0391 14.25 19.1094 12.6094 18.8281 11.9062C18.6406 11.4609 18.2891 11.0859 17.8438 10.9219C17.1406 10.6406 15.5 10.7109 14.75 10.7109C13.9766 10.7109 12.3359 10.6406 11.6562 10.9219C11.1875 11.1094 10.8359 11.4609 10.6484 11.9062C10.3672 12.6094 10.4375 14.25 10.4375 15C10.4375 15.7734 10.3672 17.4141 10.6484 18.0938C10.8359 18.5625 11.1875 18.9141 11.6562 19.1016C12.3359 19.3828 13.9766 19.3125 14.75 19.3125C15.5 19.3125 17.1406 19.3828 17.8438 19.1016C18.2891 18.9141 18.6641 18.5625 18.8281 18.0938Z" fill="white"/>
</svg>
