<svg width="32" height="34" viewBox="0 0 32 34" fill="none" xmlns="http://www.w3.org/2000/svg">
<path d="M7.02797 15.445C5.33812 14.0369 5.22218 11.4818 6.77754 9.9264C8.34413 8.3598 10.9215 8.49052 12.3215 10.2076L22.4167 22.5885C23.1307 23.4641 23.0661 24.738 22.2672 25.5369C21.4619 26.3422 20.1756 26.4005 19.3007 25.6715L7.02797 15.445Z" fill="#FF2B77"/>
<path d="M19.1677 8.93828C18.6015 7.39903 19.4792 5.70585 21.0634 5.28137C22.6591 4.85381 24.2746 5.89908 24.5385 7.52979L26.4415 19.2882C26.5761 20.1198 26.0595 20.9183 25.2458 21.1363C24.4256 21.3561 23.5732 20.9142 23.28 20.1173L19.1677 8.93828Z" fill="#FF2B77"/>
<path d="M5.15024 28.2985C3.52584 28.0722 2.44642 26.4999 2.81892 24.9026C3.19411 23.2939 4.87755 22.3619 6.4401 22.8979L17.707 26.763C18.5038 27.0364 18.9644 27.8684 18.7731 28.6888C18.5802 29.5158 17.7887 30.0592 16.9477 29.942L5.15024 28.2985Z" fill="#FF2B77"/>
</svg>
