<svg width="11" height="15" viewBox="0 0 11 15" fill="none" xmlns="http://www.w3.org/2000/svg">
<path d="M4.87098 14.2168C0.736215 8.26953 -0.000113487 7.64648 -0.000113487 5.4375C-0.000113487 2.43555 2.40711 0 5.43739 0C8.43934 0 10.8749 2.43555 10.8749 5.4375C10.8749 7.64648 10.1102 8.26953 5.97547 14.2168C5.72059 14.6133 5.12586 14.6133 4.87098 14.2168ZM5.43739 7.70312C6.68348 7.70312 7.70301 6.71191 7.70301 5.4375C7.70301 4.19141 6.68348 3.17188 5.43739 3.17188C4.16297 3.17188 3.17176 4.19141 3.17176 5.4375C3.17176 6.71191 4.16297 7.70312 5.43739 7.70312Z" fill="#EE0A78"/>
</svg>
