<svg width="168" height="125" viewBox="0 0 168 125" fill="none" xmlns="http://www.w3.org/2000/svg">
<path d="M124.123 0C127.209 1.16194 129.351 3.48311 130.811 6.37572C132.301 9.32638 133.525 12.4122 134.865 15.439C135.081 15.928 135.25 16.4459 135.524 16.9012C135.823 17.3974 135.668 17.6151 135.176 17.7176C134.634 17.8301 134.085 17.9081 133.546 18.0278C132.524 18.2546 130.411 17.9979 129.408 17.4926C128.791 18.9376 128.212 20.3988 127.55 21.8202C126.141 24.8471 124.758 27.8893 123.241 30.8618C120.817 35.6111 118.061 40.1637 114.823 44.4114C112.221 47.8247 109.337 50.9731 106.047 53.7387C102.739 56.5197 99.0975 58.7484 95.0756 60.3475C92.6819 61.299 90.2092 61.9684 87.6722 62.3821C86.4839 62.5753 85.2766 62.6796 84.073 62.7413C82.4475 62.8256 80.8157 62.9018 79.1912 62.8465C77.9412 62.8038 76.6877 62.6097 75.4559 62.3775C73.9239 62.09 72.3619 61.836 70.9052 61.3117C68.809 60.558 66.7509 59.6627 64.7562 58.6668C61.5543 57.0676 58.688 54.9442 56.0013 52.5886C54.5736 51.3368 53.1468 50.0778 51.8098 48.7317C50.2261 47.138 48.7158 45.4681 47.2164 43.7937C45.3615 41.7229 43.5574 39.6067 41.7169 37.5223C40.2584 35.8696 38.7753 34.2388 37.3104 32.5915C37.0601 32.3094 36.7844 32.1888 36.3998 32.2069C35.6995 32.2387 34.9974 32.2078 34.2963 32.2269C32.7289 32.2677 32.6155 31.8486 32.4341 30.6831C31.9062 27.278 32.6527 24.1432 34.6392 21.324C34.9258 20.9168 35.3167 20.5757 35.6977 20.2483C35.8256 20.1376 36.0877 20.095 36.2601 20.1367C37.8619 20.5249 39.0293 21.4873 39.6969 22.9785C40.2747 24.2684 40.692 25.6308 41.2788 26.9161C42.0018 28.4971 42.7737 30.0608 43.6218 31.5774C44.9969 34.0374 46.7411 36.2461 48.5788 38.3704C50.461 40.5464 52.598 42.4631 54.8448 44.2599C57.9451 46.7389 61.323 48.7698 64.9304 50.4016C67.071 51.3695 69.2743 52.2076 71.58 52.7137C73.4241 53.1183 75.2636 53.5899 77.1312 53.8303C78.8891 54.0562 80.6824 54.1151 82.4566 54.0779C86.0984 54.0008 89.6876 53.5373 93.1318 52.2421C96.5659 50.9495 99.7487 49.2206 102.705 47.0401C104.972 45.3684 107.094 43.5415 109.014 41.4889C112.417 37.8488 115.522 33.9775 118.013 29.6418C119.709 26.6902 121.117 23.6062 122.036 20.3281C122.562 18.4532 122.955 16.5321 123.268 14.6082C123.535 12.9691 123.612 11.2992 123.75 9.64022C123.817 8.83294 123.895 8.01931 123.858 7.21384C123.787 5.62195 123.661 4.03188 123.513 2.44543C123.431 1.56921 123.439 0.739253 124.122 0.000907059L124.123 0Z" fill="white"/>
<path d="M92.2625 81.1289V89.5347C92.6753 89.1981 92.9873 88.9351 93.3075 88.6847C96.1076 86.4951 101.467 87.2126 101.917 92.4146C102.23 96.0365 101.977 99.7082 101.977 103.416H97.2967C97.2813 103.117 97.2532 102.815 97.2532 102.513C97.2496 99.9504 97.2677 97.3889 97.2387 94.8274C97.2314 94.216 97.1452 93.5856 96.9711 93.0014C96.6328 91.8658 95.5506 91.3551 94.1256 91.5701C93.2104 91.708 92.3016 92.8835 92.2952 94.0201C92.278 96.8347 92.2898 99.6502 92.2889 102.465C92.2889 102.771 92.2889 103.077 92.2889 103.428H87.4098V81.128C87.4597 81.0636 87.5087 80.9983 87.5585 80.9339C89.077 80.9339 90.5954 80.9339 92.1138 80.9339C92.1637 80.9992 92.2127 81.0645 92.2625 81.1299V81.1289Z" fill="white"/>
<path d="M84.5342 102.957C83.5147 103.205 82.4888 103.64 81.4502 103.67C78.9604 103.743 76.4496 103.951 74.0323 102.955C70.8667 101.65 68.9011 99.3691 68.1373 96.0583C67.4561 93.104 67.5976 90.1815 69.0507 87.4857C71.0127 83.8475 74.1276 81.9146 78.2955 81.9055C80.0643 81.9019 81.8348 82.1123 83.6009 82.2638C83.9864 82.2974 84.3574 82.496 84.7583 82.6266C84.4399 83.9464 84.146 85.1664 83.8249 86.4952C83.3923 86.3719 82.9977 86.2394 82.594 86.146C80.0479 85.5582 77.5653 85.4158 75.3194 87.122C73.8201 88.2613 73.1751 89.8903 72.9946 91.6355C72.8695 92.8474 73.0554 94.139 73.3439 95.3363C73.9516 97.8607 76.251 99.6848 79.0211 99.6993C80.3672 99.7065 81.7196 99.4108 83.0603 99.2004C83.6 99.1151 83.8775 99.185 83.9628 99.7909C84.1043 100.796 84.3202 101.79 84.5351 102.957L84.5342 102.957Z" fill="white"/>
<path d="M64.9656 101.366C64.8994 98.5309 64.9538 95.6873 64.7506 92.8609C64.5891 90.6105 63.5233 88.8399 61.2049 88.0725C58.2461 87.0929 55.378 87.5882 52.5416 88.5759C52.3384 88.6485 52.0554 88.9977 52.0899 89.1592C52.2931 90.1334 52.5797 91.0885 52.8609 92.1352C54.5244 91.1193 56.2034 90.8889 57.9604 90.9842C59.2865 91.0568 60.0384 91.9185 59.7101 93.0813C57.6075 93.0341 55.583 93.3661 53.6799 94.3403C52.0255 95.1857 50.4127 97.1948 50.9542 99.9496C51.3742 102.087 53.3189 103.748 55.5104 103.747C57.3735 103.745 58.9935 103.309 60.4031 101.982C60.5192 102.503 60.6162 102.93 60.7224 103.406H65.0835C65.04 102.679 64.981 102.024 64.9656 101.366ZM60.0366 98.3504C59.9532 99.4026 59.1513 99.9042 58.2951 100.212C57.5694 100.472 56.8039 100.399 56.1889 99.8017C55.5585 99.1867 55.4823 98.4057 55.8941 97.7409C56.2097 97.2284 56.7848 96.7631 57.3472 96.5445C58.1409 96.237 59.0298 96.178 60.0484 95.9785C60.0484 96.9127 60.0938 97.6347 60.0366 98.3504Z" fill="white"/>
<path d="M30.8187 102.027C30.7961 99.3391 30.8487 96.6497 30.7507 93.9657C30.6428 91.0559 29.5997 88.917 27.2023 88.1061C24.18 87.0802 21.1912 87.4739 18.2814 88.6549C18.1145 88.7229 17.8941 89.0195 17.9258 89.1601C18.139 90.1325 18.412 91.0903 18.6914 92.1425C20.3477 91.1321 22.023 90.8799 23.7818 90.9842C25.117 91.064 25.8063 91.8314 25.5977 92.9389C24.3342 93.1194 23.087 93.2101 21.8824 93.4877C19.0034 94.1453 16.4255 95.7553 16.7729 99.6911C16.9553 101.733 18.8601 103.577 20.8928 103.716C22.8874 103.851 24.7179 103.493 26.2372 101.974C26.376 102.538 26.4875 102.986 26.5982 103.435H30.9231C30.8813 102.888 30.8224 102.459 30.8187 102.027ZM25.9034 98.3196C25.8499 99.3564 24.6498 100.308 23.4434 100.31C22.2924 100.312 21.6393 99.7156 21.525 98.5563C21.4416 97.7191 21.8951 97.1168 22.579 96.8429C23.5877 96.4402 24.668 96.2179 25.9088 95.8651C25.9088 96.8874 25.9397 97.6048 25.9034 98.3187V98.3196Z" fill="white"/>
<path d="M119.608 93.3824C119.432 91.6218 118.75 89.9937 117.266 88.9741C116.351 88.3456 115.209 87.922 114.112 87.7088C111.751 87.2525 109.5 87.6725 107.728 89.4159C105.232 91.8758 104.499 94.89 105.335 98.267C105.934 100.677 107.38 102.415 109.768 103.198C112.681 104.155 115.605 103.88 118.492 103.006C118.648 102.959 118.875 102.71 118.856 102.588C118.697 101.553 118.488 100.526 118.342 99.7482C116.441 99.877 114.781 100.107 113.128 100.071C111.637 100.038 109.882 98.9999 109.807 97.2166H119.441C119.507 97.1676 119.576 97.1177 119.644 97.0687C119.64 95.8397 119.731 94.5997 119.609 93.3824H119.608ZM115.247 93.8251H109.796C109.987 91.9729 111.192 90.7103 112.687 90.7955C114.343 90.8908 115.372 92.2486 115.247 93.8251Z" fill="white"/>
<path d="M133.488 99.907C131.788 100.167 130.069 100.428 128.418 99.7192C127.38 99.2729 126.644 98.5146 126.454 97.233H136.707C136.485 95.3735 136.454 93.6356 136.035 92.0001C135.543 90.0872 134.278 88.576 132.328 88.0209C131.036 87.6544 129.602 87.4984 128.272 87.6354C126.511 87.8141 124.914 88.6268 123.788 90.0817C122.086 92.2795 121.407 94.7431 121.909 97.5269C122.327 99.848 123.385 101.707 125.531 102.777C128.705 104.357 131.968 103.854 135.212 103.008C135.383 102.963 135.577 102.524 135.552 102.293C135.453 101.376 135.271 100.469 135.109 99.5042C134.502 99.6584 134.002 99.8272 133.488 99.907ZM129.351 90.8055C130.92 90.9062 131.957 91.7171 131.953 93.8251H126.511C126.624 92.0908 127.9 90.7121 129.351 90.8055H129.351Z" fill="white"/>
<path d="M166.546 92.1425C165.629 89.0884 163.393 87.7868 160.787 87.5899C158.952 87.4512 157.178 87.6925 155.64 88.8399C152.933 90.8608 152.063 93.6582 152.308 96.8837C152.506 99.4742 153.681 101.497 155.997 102.797C158.24 104.058 160.669 103.783 163.063 103.611C164.113 103.535 165.141 103.158 166.181 102.917C165.956 101.686 165.758 100.605 165.558 99.5205C164.715 99.7064 164.001 99.9387 163.272 100.008C161.469 100.185 159.638 100.436 158.039 99.213C157.398 98.7232 157.011 98.1245 157.046 97.2184H166.694C166.747 97.1694 166.8 97.1177 166.855 97.0687C166.804 95.426 167.043 93.7979 166.546 92.1434V92.1425ZM157.019 93.7797C156.941 92.3892 158.179 90.8399 159.513 90.8145C160.858 90.7901 162.225 91.1583 162.51 93.7797H157.018H157.019Z" fill="white"/>
<path d="M0 82.0178C1.73792 82.0178 3.38061 81.9842 5.01966 82.0495C5.30267 82.0604 5.69633 82.4387 5.82332 82.738C6.92721 85.3458 7.98121 87.9744 9.05517 90.5949C9.10687 90.7219 9.21028 90.828 9.35268 91.0348C10.0094 89.4411 10.6407 87.9182 11.2657 86.3925C11.7954 85.0981 12.3024 83.7947 12.8594 82.5121C12.951 82.3017 13.2476 82.045 13.4544 82.0405C15.1207 82.0024 16.7878 82.0187 18.6274 82.0187C17.7747 83.5371 17.0001 84.9204 16.2209 86.3009C14.7878 88.8407 13.3383 91.3714 11.9333 93.9266C11.7192 94.3157 11.6194 94.8137 11.614 95.2636C11.585 97.9484 11.5995 100.633 11.5995 103.396H6.71224V102.074C6.71224 100.144 6.64058 98.2124 6.73854 96.2885C6.80022 95.0812 6.39114 94.1034 5.84146 93.0939C3.91124 89.5509 2.02456 85.9843 0.124267 82.425C0.0825424 82.3479 0.0707506 82.2545 0 82.0178Z" fill="white"/>
<path d="M139.407 99.1613C140.853 99.9141 142.266 100.467 143.858 100.309C144.573 100.237 145.313 100.265 145.482 99.2692C145.652 98.2715 144.946 98.0238 144.291 97.71C143.073 97.1268 141.728 96.724 140.65 95.9476C137.919 93.9811 138.442 90.6349 140.806 88.8517C142.909 87.2652 145.346 87.3133 147.751 87.8131C149.686 88.2158 149.656 88.3292 149.1 90.3111C148.969 90.781 148.894 91.2671 148.831 91.5619C147.516 91.3687 146.242 91.0876 144.961 91.0449C144.502 91.0295 144.024 91.5928 143.555 91.8912C143.84 92.3302 144.033 92.9125 144.434 93.1756C145.051 93.5801 145.808 93.777 146.513 94.0391C147.841 94.5335 149.132 95.1983 149.747 96.49C150.852 98.813 150.393 101.858 147.458 103.041C144.766 104.125 141.989 103.99 139.25 103.092C138.765 102.934 138.444 102.626 138.612 102.037C138.875 101.11 139.125 100.18 139.406 99.1604L139.407 99.1613Z" fill="white"/>
<path d="M39.2848 103.424H34.5228V80.9558H39.2848V103.424Z" fill="white"/>
<path d="M43.2584 80.9239H48.0413V103.426H43.2584V80.9239Z" fill="white"/>
<path d="M69.5193 114.654C68.9533 114.869 68.2313 114.325 68.0925 115.35C66.8109 114.237 65.1428 114.22 63.9899 115.229C62.5277 116.509 62.2347 118.857 63.3577 120.511C63.8702 121.271 64.5523 121.856 65.5519 121.732C66.38 121.629 67.1945 121.43 68.0263 121.27C68.5315 123.458 66.4344 124.862 63.6879 123.466C63.5835 123.794 63.481 124.115 63.3704 124.459C64.6103 125.105 65.8448 125.093 67.0911 124.834C68.2195 124.596 69.0232 123.969 69.1746 122.764C69.3243 121.559 69.4577 120.35 69.5048 119.138C69.5602 117.67 69.5184 116.2 69.5184 114.654H69.5193ZM68.0435 118.139C68.0109 118.637 68.078 119.166 67.9238 119.62C67.6753 120.353 67.1011 120.786 66.2866 120.804C65.4702 120.821 64.8226 120.528 64.4407 119.769C63.6643 118.222 64.0053 116.661 65.2271 115.765C65.9491 115.235 66.6612 115.487 67.2063 115.839C67.6163 116.103 67.795 116.774 68.0018 117.292C68.0989 117.537 68.0191 117.855 68.0191 118.138C68.0263 118.14 68.0345 118.14 68.0435 118.14V118.139Z" fill="white"/>
<path d="M88.2769 112.066V121.891H87.1812C87.1159 121.841 87.0515 121.792 86.9862 121.742V117.243H82.0581C82.0581 118.736 82.0581 120.239 82.0581 121.742C81.9928 121.792 81.9275 121.841 81.8622 121.891C81.5212 121.891 81.1801 121.891 80.7674 121.891C80.7674 118.596 80.7674 115.33 80.7674 112.065C80.8182 112.012 80.869 111.958 80.9198 111.904H82.1098V115.933H86.8683V111.904H88.1255C88.1763 111.958 88.2261 112.012 88.2769 112.066Z" fill="white"/>
<path d="M121.055 115.428C119.461 113.964 117.827 114.161 116.27 115.769C116.226 115.305 116.197 115.017 116.169 114.703C115.759 114.725 115.43 114.745 115.117 114.762V124.773C115.174 124.769 115.231 124.775 115.286 124.788H116.431V121.221C118.501 122.556 120.236 122.391 121.525 120.309C122.3 119.058 122.099 116.391 121.055 115.428V115.428ZM120.591 118.331C120.589 119.83 119.94 120.819 118.844 120.984C117.719 121.155 116.552 120.371 116.432 119.234C116.36 118.535 116.419 117.781 116.611 117.107C116.962 115.875 117.709 115.493 119.057 115.666C119.816 115.763 120.52 116.677 120.59 117.668C120.606 117.888 120.592 118.111 120.592 118.331H120.591Z" fill="white"/>
<path d="M106.994 114.56C106.248 114.67 105.559 115.159 104.847 115.472C104.833 115.328 104.808 115.041 104.786 114.771H103.605V124.731H104.843V121.024C105.145 121.237 105.27 121.319 105.39 121.408C106.786 122.467 109.637 122.191 110.302 119.702C110.38 119.408 110.429 119.102 110.47 118.798C110.736 116.864 109.785 114.149 106.994 114.56ZM108.47 120.3C107.857 121.062 107.029 121.187 106.262 120.913C105.433 120.619 104.974 119.868 105.004 118.919C105.01 118.729 105.006 118.539 105.006 118.351C104.982 118.346 104.959 118.342 104.934 118.337C105.019 117.848 105.04 117.334 105.203 116.871C105.56 115.851 106.156 115.553 107.433 115.645C108.185 115.702 108.849 116.392 109.024 117.26C109.245 118.352 109.219 119.368 108.47 120.298V120.3Z" fill="white"/>
<path d="M5.99925 112.1C4.61235 111.808 3.16197 111.808 1.73698 111.728C1.63448 111.722 1.41406 112.102 1.41225 112.303C1.39139 115.484 1.39864 118.664 1.39864 121.88H2.72839V118.136C3.85133 117.921 4.91078 117.834 5.88677 117.504C7.18205 117.065 7.60746 115.88 7.6129 114.657C7.61653 113.542 7.24101 112.362 5.99834 112.1H5.99925ZM6.1607 115.011C6.07725 116.428 5.18834 116.93 2.77647 116.756V112.871C5.67089 112.569 6.26592 113.233 6.1607 115.011Z" fill="white"/>
<path d="M58.1424 121.897H56.8135C56.8135 120.688 56.8289 119.498 56.8054 118.308C56.7972 117.882 56.7219 117.453 56.6339 117.034C56.3809 115.827 56.0198 115.562 54.8416 115.671C53.9917 115.75 53.3749 116.43 53.3594 117.391C53.3359 118.868 53.3531 120.346 53.3531 121.87H51.9843V114.774H52.9531C53.003 115.015 53.0565 115.272 53.0937 115.453C53.7667 115.134 54.3817 114.647 55.0466 114.563C57.1872 114.296 57.9292 115.326 58.1142 117.277C58.2566 118.775 58.1424 120.298 58.1424 121.897Z" fill="white"/>
<path d="M98.5517 117.116C98.5063 115.733 97.8088 114.702 96.7439 114.593C95.8641 114.504 94.947 114.631 94.0681 114.787C93.3633 114.911 93.2227 115.37 93.7379 115.935C96.1271 115.086 97.1829 115.456 97.1584 117.152C97.0696 117.164 96.9761 117.169 96.8845 117.186C95.6781 117.41 94.3847 117.401 93.4558 118.402C92.8408 119.067 92.7057 119.845 92.9978 120.681C93.2409 121.374 93.6908 121.893 94.4754 121.94C95.4514 121.999 96.4237 121.982 97.1838 121.207C97.2147 121.175 97.2999 121.196 97.3988 121.192C97.4179 121.423 97.4387 121.655 97.4614 121.908H98.5653C98.5653 120.265 98.6052 118.688 98.5517 117.116ZM95.6763 120.996C95.0096 121.066 94.3638 120.871 94.3048 120.191C94.2631 119.701 94.5289 118.928 94.9035 118.717C95.5339 118.361 96.3602 118.352 97.192 118.179C97.3172 120.097 96.8537 120.872 95.6763 120.995V120.996Z" fill="white"/>
<path d="M150.19 117.508C149.963 115.805 149.397 114.804 147.942 114.553C145.091 114.065 143.957 116.084 143.761 118.13C143.628 119.499 144.148 120.73 145.368 121.514C146.825 122.452 148.301 122.137 149.756 121.571C149.678 121.229 149.619 120.967 149.549 120.658C146.548 121.67 145.125 120.373 145.142 118.5H150.197C150.197 118.125 150.233 117.812 150.191 117.508H150.19ZM148.802 117.533H145.069C145.718 115.804 146.429 115.241 147.576 115.489C148.425 115.673 148.889 116.432 148.802 117.533Z" fill="white"/>
<path d="M133.102 121.742V114.784H134.193C134.216 115.018 134.243 115.298 134.248 115.34C135.042 115.067 135.812 114.634 136.612 114.564C138.233 114.423 139.068 115.4 139.205 117.295C139.311 118.769 139.199 120.259 139.183 121.742C139.118 121.792 139.053 121.842 138.986 121.891C138.644 121.891 138.302 121.891 137.863 121.891C137.863 120.573 137.876 119.286 137.855 117.999C137.849 117.639 137.771 117.272 137.676 116.921C137.364 115.779 137.003 115.546 135.806 115.662C135.15 115.725 134.45 116.527 134.431 117.337C134.4 118.694 134.423 120.053 134.418 121.41C134.418 121.562 134.384 121.713 134.362 121.891H133.297C133.232 121.841 133.167 121.791 133.102 121.742Z" fill="white"/>
<path d="M26.4462 121.742V114.784H27.5365C27.5601 115.018 27.5873 115.298 27.5918 115.34C28.3864 115.067 29.1556 114.634 29.9556 114.564C31.5775 114.423 32.412 115.399 32.5489 117.295C32.655 118.769 32.5426 120.259 32.5272 121.742C32.4618 121.792 32.3965 121.842 32.3303 121.891H31.2074C31.2074 120.573 31.2201 119.286 31.1992 117.999C31.1929 117.639 31.1149 117.272 31.0196 116.921C30.7076 115.779 30.3475 115.546 29.1502 115.662C28.4944 115.725 27.7941 116.527 27.7751 117.337C27.7442 118.694 27.7669 120.053 27.7624 121.41C27.7624 121.562 27.7279 121.713 27.7061 121.891H26.6412C26.5759 121.841 26.5106 121.791 26.4462 121.742Z" fill="white"/>
<path d="M163.137 121.81C163.311 121.249 163.411 120.926 163.491 120.67C164.13 120.785 164.719 120.93 165.316 120.985C165.964 121.045 166.563 120.814 166.661 120.116C166.748 119.513 166.369 119.103 165.755 118.877C165.205 118.674 164.649 118.412 164.185 118.058C162.832 117.025 163.235 115.454 164.62 114.774C165.609 114.287 166.688 114.382 167.737 114.945C167.613 115.28 167.508 115.563 167.395 115.864C166.944 115.731 166.499 115.45 166.135 115.531C165.613 115.647 165.149 116.028 164.66 116.296C164.898 116.649 165.08 117.065 165.389 117.339C165.656 117.576 166.069 117.644 166.412 117.8C167.755 118.416 168.149 119.181 167.853 120.585C167.68 121.407 166.768 121.948 165.517 121.93C164.766 121.919 164.015 121.857 163.137 121.811V121.81Z" fill="white"/>
<path d="M154.219 121.795C154.393 121.24 154.495 120.917 154.568 120.682C155.247 120.793 155.871 120.949 156.5 120.98C157.094 121.009 157.733 120.751 157.716 120.111C157.706 119.7 157.268 119.21 156.895 118.921C156.412 118.549 155.707 118.443 155.274 118.035C154.863 117.649 154.472 117.032 154.442 116.496C154.395 115.644 155.283 114.687 156.137 114.598C156.982 114.509 157.849 114.647 158.872 114.692C158.689 115.247 158.588 115.551 158.484 115.868C158.014 115.731 157.568 115.448 157.203 115.53C156.681 115.648 156.221 116.034 155.734 116.304C155.976 116.656 156.162 117.075 156.476 117.341C156.775 117.593 157.214 117.674 157.581 117.851C158.85 118.462 159.227 119.236 158.929 120.593C158.754 121.392 157.85 121.947 156.68 121.928C155.9 121.915 155.119 121.845 154.218 121.794L154.219 121.795Z" fill="white"/>
<path d="M37.8505 115.658H36.7485V114.57C37.0677 114.549 37.4015 114.525 37.7916 114.499C37.9911 113.728 37.3952 112.33 39.1585 112.67V114.685H41.0098V115.63H39.1785C39.1785 117.083 39.1349 118.464 39.193 119.841C39.2329 120.786 39.8406 121.143 40.8166 120.955C40.842 121.261 40.8647 121.528 40.8964 121.917C40.3885 121.979 39.8914 122.156 39.4433 122.073C38.402 121.88 37.8805 121.1 37.856 119.82C37.8297 118.468 37.8505 117.115 37.8505 115.658Z" fill="white"/>
<path d="M11.997 114.759H13.1435V115.735C13.5136 115.404 13.8292 115.008 14.2401 114.786C14.6211 114.58 15.1019 114.56 15.6016 114.443V115.423C14.9921 115.77 14.2302 115.965 13.9045 116.452C13.5236 117.023 13.4356 117.84 13.3766 118.562C13.2923 119.599 13.3494 120.648 13.3413 121.692C13.3413 121.747 13.2932 121.801 13.2524 121.887H11.9961V114.759H11.997Z" fill="white"/>
<path d="M45.5494 114.621H46.8401V121.866H45.5494V114.621Z" fill="white"/>
<path d="M21.2847 114.913V121.891H20.189C20.1237 121.841 20.0593 121.792 19.994 121.742C19.994 119.448 19.994 117.153 19.994 114.751H21.1332C21.184 114.805 21.2339 114.859 21.2847 114.913Z" fill="white"/>
<path d="M126.65 121.742V114.751H127.789C127.84 114.805 127.89 114.859 127.941 114.913V121.891H126.845C126.78 121.841 126.715 121.792 126.65 121.742Z" fill="white"/>
<path d="M46.218 111.514C46.5691 112.011 46.9654 112.34 46.9092 112.547C46.8221 112.871 46.404 113.359 46.1736 113.335C45.8407 113.3 45.5513 112.866 45.2439 112.603C45.5042 112.312 45.7645 112.021 46.2189 111.514H46.218Z" fill="white"/>
<path d="M20.3834 111.727C21.2188 111.786 21.451 112.137 21.3013 112.638C21.2143 112.93 20.8614 113.144 20.6283 113.393C20.3544 113.128 19.9362 112.9 19.8564 112.585C19.7983 112.358 20.192 112.017 20.3834 111.727Z" fill="white"/>
<path d="M127.017 111.744C127.767 111.798 128.005 112.01 127.996 112.597C127.988 113.142 127.776 113.513 127.25 113.359C126.936 113.266 126.6 112.869 126.507 112.541C126.45 112.34 126.832 112.014 127.017 111.744Z" fill="white"/>
<path d="M119.439 97.2184C119.507 97.1694 119.575 97.1195 119.642 97.0706C119.574 97.1195 119.506 97.1694 119.439 97.2184Z" fill="white"/>
<path d="M80.9198 111.905C80.869 111.958 80.8182 112.012 80.7674 112.066C80.8182 112.012 80.869 111.959 80.9198 111.905Z" fill="white"/>
<path d="M26.4462 121.743C26.5115 121.793 26.5768 121.842 26.6412 121.891C26.5759 121.841 26.5106 121.792 26.4462 121.743Z" fill="white"/>
<path d="M32.3305 121.892C32.3958 121.842 32.4611 121.792 32.5274 121.743C32.4621 121.793 32.3967 121.843 32.3305 121.892Z" fill="white"/>
<path d="M133.102 121.743C133.168 121.793 133.233 121.842 133.297 121.891C133.232 121.841 133.167 121.792 133.102 121.743Z" fill="white"/>
<path d="M138.986 121.892C139.051 121.842 139.117 121.792 139.183 121.743C139.117 121.793 139.052 121.843 138.986 121.892Z" fill="white"/>
<path d="M115.117 124.773C115.174 124.769 115.23 124.775 115.286 124.787C115.236 124.832 115.186 124.875 115.136 124.92C115.13 124.871 115.124 124.822 115.118 124.773H115.117Z" fill="white"/>
</svg>
