<svg width="15" height="11" viewBox="0 0 15 11" fill="none" xmlns="http://www.w3.org/2000/svg">
<path d="M13.1407 0C13.8771 0 14.5001 0.623047 14.5001 1.35938V9.51562C14.5001 10.2803 13.8771 10.875 13.1407 10.875H1.35947C0.594824 10.875 9.72748e-05 10.2803 9.72748e-05 9.51562V1.35938C9.72748e-05 0.623047 0.594824 0 1.35947 0H13.1407ZM13.1407 1.35938H1.35947V2.52051C1.98252 3.05859 3.00205 3.85156 5.15439 5.55078C5.63584 5.91895 6.57041 6.8252 7.2501 6.79688C7.90146 6.8252 8.83603 5.91895 9.31748 5.55078C11.4698 3.85156 12.4894 3.05859 13.1407 2.52051V1.35938ZM1.35947 9.51562H13.1407V4.27637C12.4894 4.78613 11.5548 5.52246 10.1671 6.62695C9.51572 7.1084 8.43955 8.18457 7.2501 8.15625C6.03232 8.18457 4.92783 7.1084 4.30478 6.62695C2.91709 5.52246 1.98252 4.78613 1.35947 4.27637V9.51562Z" fill="#EE0A78"/>
</svg>
