<svg width="13" height="15" viewBox="0 0 13 15" fill="none" xmlns="http://www.w3.org/2000/svg">
<path d="M3.68153 14.3867C-0.000113487 10.7334 -0.000113487 4.75781 3.68153 1.10449C3.85145 0.93457 4.07801 0.90625 4.27625 1.01953L6.11707 2.18066C6.25868 2.26562 6.34364 2.40723 6.34364 2.57715C6.34364 2.63379 6.34364 2.71875 6.31532 2.77539L5.38075 5.06934C5.32411 5.23926 5.15418 5.35254 4.92762 5.35254H4.8993L3.31336 5.21094C2.71864 6.85352 2.71864 8.66602 3.31336 10.2803L4.8993 10.1387H4.92762C5.15418 10.1387 5.32411 10.252 5.38075 10.4219L6.31532 12.7158C6.34364 12.7725 6.34364 12.8574 6.34364 12.9141C6.34364 13.084 6.25868 13.2256 6.11707 13.3105L4.27625 14.4717C4.19129 14.5283 4.10633 14.5283 4.02137 14.5283C3.87977 14.5283 3.76649 14.5 3.68153 14.3867ZM7.92957 2.74707C8.2411 3.31348 8.2411 4.02148 7.92957 4.58789C7.81629 4.78613 7.56141 4.81445 7.39149 4.67285L7.22157 4.50293C7.10828 4.38965 7.07996 4.21973 7.16493 4.07812C7.22157 3.96484 7.24989 3.82324 7.24989 3.68164C7.24989 3.51172 7.22157 3.37012 7.16493 3.25684C7.07996 3.11523 7.10828 2.94531 7.22157 2.83203L7.39149 2.66211C7.56141 2.52051 7.81629 2.54883 7.92957 2.74707ZM10.5067 0.169922C12.2343 2.18066 12.2343 5.1543 10.5067 7.16504C10.3934 7.33496 10.1669 7.33496 10.0253 7.19336L9.85536 7.05176C9.74207 6.91016 9.71375 6.71191 9.82703 6.57031C11.2431 4.89941 11.2431 2.43555 9.82703 0.764648C9.71375 0.623047 9.74207 0.424805 9.85536 0.283203L10.0253 0.141602C10.1669 0 10.3934 0 10.5067 0.169922ZM9.20399 1.44434C10.2235 2.74707 10.2518 4.58789 9.20399 5.89062C9.09071 6.06055 8.86414 6.08887 8.72254 5.94727L8.55262 5.77734C8.41102 5.66406 8.41102 5.46582 8.49598 5.32422C9.26063 4.36133 9.26063 2.97363 8.49598 2.01074C8.41102 1.86914 8.41102 1.6709 8.55262 1.55762L8.72254 1.3877C8.86414 1.24609 9.09071 1.27441 9.20399 1.44434Z" fill="#EE0A78"/>
</svg>
