<svg width="77" height="77" viewBox="0 0 77 77" fill="none" xmlns="http://www.w3.org/2000/svg">
<path d="M0 31.952C0 16.8897 0 9.35851 4.67926 4.67926C9.35851 0 16.8897 0 31.952 0H45.0232C60.0855 0 67.6167 0 72.2959 4.67926C76.9752 9.35851 76.9752 16.8897 76.9752 31.952V45.0232C76.9752 60.0855 76.9752 67.6167 72.2959 72.2959C67.6167 76.9752 60.0855 76.9752 45.0232 76.9752H31.952C16.8897 76.9752 9.35851 76.9752 4.67926 72.2959C0 67.6167 0 60.0855 0 45.0232V31.952Z" fill="#FFE7F0"/>
<path opacity="0.4" d="M28.722 38.4883H48.2531" stroke="#FF2B77" stroke-width="2.44138" stroke-linecap="round" stroke-linejoin="round"/>
<path d="M38.4875 48.2537V28.7227" stroke="#FF2B77" stroke-width="2.44138" stroke-linecap="round" stroke-linejoin="round"/>
</svg>
