<svg width="16" height="28" viewBox="0 0 16 28" fill="none" xmlns="http://www.w3.org/2000/svg">
<g clip-path="url(#clip0_535_5319)">
<path d="M14.6343 16.1454C14.8907 15.577 15.0602 14.9599 15.1251 14.3129L10.8983 15.2118V13.4837L14.6341 12.6898C14.8905 12.1214 15.06 11.5043 15.125 10.8573L10.8982 11.7554V5.54059C10.2506 5.90423 9.67537 6.38829 9.2078 6.95926V12.1149L7.51738 12.4742V4.69531C6.86972 5.05883 6.29453 5.54301 5.82696 6.11399V12.8334L2.04464 13.6371C1.78824 14.2055 1.61862 14.8226 1.55356 15.4696L5.82696 14.5615V16.7377L1.24718 17.711C0.990769 18.2794 0.82128 18.8965 0.756348 19.5435L5.55011 18.5248C5.94034 18.4436 6.27574 18.2129 6.4938 17.8954L7.37295 16.592V16.5918C7.46421 16.4569 7.51738 16.2943 7.51738 16.1192V14.2022L9.2078 13.8429V17.2991L14.6341 16.1452L14.6343 16.1454Z" fill="white"/>
<path d="M9.69884 20.6964C9.44243 21.265 9.27294 21.8819 9.20801 22.529L14.6341 21.3755C14.8905 20.8071 15.0599 20.19 15.1249 19.543L9.69884 20.6964Z" fill="white"/>
</g>
<defs>
<clipPath id="clip0_535_5319">
<rect width="15.125" height="27.225" fill="white"/>
</clipPath>
</defs>
</svg>
