<svg width="56" height="56" viewBox="0 0 56 56" fill="none" xmlns="http://www.w3.org/2000/svg">
<path opacity="0.4" d="M20.8258 23.1397C23.3818 23.1397 25.4538 21.0677 25.4538 18.5118C25.4538 15.9558 23.3818 13.8838 20.8258 13.8838C18.2699 13.8838 16.1979 15.9558 16.1979 18.5118C16.1979 21.0677 18.2699 23.1397 20.8258 23.1397Z" stroke="#FF2B77" stroke-width="3.47097" stroke-linecap="round" stroke-linejoin="round"/>
<path d="M27.7677 4.62793H20.8258C9.25589 4.62793 4.62793 9.25589 4.62793 20.8258V34.7097C4.62793 46.2796 9.25589 50.9076 20.8258 50.9076H34.7097C46.2796 50.9076 50.9076 46.2796 50.9076 34.7097V25.4538" stroke="#FF2B77" stroke-width="3.47097" stroke-linecap="round" stroke-linejoin="round"/>
<path opacity="0.4" d="M37.3006 11.8246C36.537 9.41807 37.4394 6.43303 39.9385 5.62314C41.2575 5.20662 42.9004 5.55372 43.826 6.82641C44.7053 5.50744 46.3945 5.18348 47.7135 5.62314C50.2357 6.43303 51.1382 9.41807 50.3746 11.8246C49.1713 15.6195 45.0061 17.6096 43.8491 17.6096C42.669 17.6096 38.527 15.6658 37.3006 11.8246Z" stroke="#FF2B77" stroke-width="3.47097" stroke-linecap="round" stroke-linejoin="round"/>
<path opacity="0.4" d="M6.1781 43.8497L17.586 36.1904C19.4141 34.964 22.052 35.1028 23.6949 36.5144L24.4586 37.1854C26.2635 38.7358 29.1791 38.7358 30.984 37.1854L40.6101 28.9245C42.415 27.3741 45.3307 27.3741 47.1356 28.9245L50.9074 32.1641" stroke="#FF2B77" stroke-width="3.47097" stroke-linecap="round" stroke-linejoin="round"/>
</svg>
