<svg width="31" height="31" viewBox="0 0 31 31" fill="none" xmlns="http://www.w3.org/2000/svg">
<rect width="30.4175" height="30.4175" rx="8" fill="#F1F2F9"/>
<path d="M7.76489 23.7163V22.6529C7.76489 21.6753 7.95743 20.7074 8.33152 19.8042C8.70561 18.9011 9.25393 18.0805 9.94516 17.3892C10.6364 16.698 11.457 16.1497 12.3601 15.7756C13.2633 15.4015 14.2312 15.209 15.2088 15.209C16.1863 15.209 17.1543 15.4015 18.0574 15.7756C18.9606 16.1497 19.7812 16.698 20.4724 17.3892C21.1636 18.0805 21.7119 18.9011 22.086 19.8042C22.4601 20.7074 22.6527 21.6753 22.6527 22.6529V23.7163" stroke="#A0A3BD" stroke-width="1.5" stroke-linecap="round" stroke-linejoin="round"/>
<path d="M15.2087 15.209C16.3369 15.209 17.4188 14.7608 18.2165 13.9631C19.0142 13.1654 19.4624 12.0834 19.4624 10.9553C19.4624 9.82717 19.0142 8.74524 18.2165 7.94752C17.4188 7.14981 16.3369 6.70166 15.2087 6.70166C14.0806 6.70166 12.9987 7.14981 12.2009 7.94752C11.4032 8.74524 10.9551 9.82717 10.9551 10.9553C10.9551 12.0834 11.4032 13.1654 12.2009 13.9631C12.9987 14.7608 14.0806 15.209 15.2087 15.209V15.209Z" stroke="#A0A3BD" stroke-width="1.5" stroke-linecap="round" stroke-linejoin="round"/>
</svg>
