<svg width="93" height="70" viewBox="0 0 93 70" fill="none" xmlns="http://www.w3.org/2000/svg">
<g clip-path="url(#clip0_18331_4518)">
<path d="M65.2165 0C66.9252 0.643427 68.1111 1.92877 68.9198 3.53056C69.7451 5.16449 70.4226 6.87326 71.1645 8.54939C71.2846 8.82012 71.378 9.10692 71.5297 9.35907C71.6954 9.63382 71.6095 9.75437 71.3368 9.81113C71.0369 9.87341 70.7331 9.9166 70.4342 9.98291C69.8686 10.1085 68.6983 9.96633 68.1428 9.68656C67.8012 10.4867 67.4808 11.2959 67.1141 12.083C66.3341 13.7591 65.5681 15.4437 64.7277 17.0897C63.3856 19.7197 61.8597 22.2407 60.0665 24.5929C58.6255 26.483 57.0287 28.2264 55.2069 29.7579C53.3751 31.2979 51.3584 32.532 49.1313 33.4175C47.8058 33.9444 46.4365 34.3151 45.0317 34.5441C44.3737 34.6511 43.7051 34.7089 43.0386 34.743C42.1385 34.7897 41.2349 34.8319 40.3353 34.8013C39.6431 34.7777 38.949 34.6702 38.2669 34.5416C37.4185 34.3824 36.5536 34.2417 35.7469 33.9514C34.5861 33.534 33.4465 33.0383 32.3419 32.4868C30.5689 31.6012 28.9817 30.4254 27.4939 29.121C26.7033 28.4278 25.9132 27.7306 25.1728 26.9852C24.2958 26.1027 23.4595 25.178 22.6293 24.2508C21.6021 23.1041 20.603 21.9323 19.5839 20.778C18.7762 19.8628 17.955 18.9597 17.1438 18.0476C17.0052 17.8914 16.8525 17.8246 16.6395 17.8346C16.2518 17.8522 15.863 17.8351 15.4747 17.8457C14.6068 17.8683 14.544 17.6362 14.4435 16.9908C14.1512 15.1052 14.5646 13.3693 15.6646 11.8082C15.8233 11.5827 16.0398 11.3938 16.2507 11.2125C16.3216 11.1512 16.4667 11.1276 16.5622 11.1507C17.4492 11.3657 18.0956 11.8986 18.4653 12.7244C18.7853 13.4386 19.0163 14.1931 19.3413 14.9048C19.7416 15.7803 20.1691 16.6462 20.6387 17.486C21.4002 18.8482 22.3661 20.0713 23.3837 21.2476C24.4259 22.4526 25.6093 23.514 26.8535 24.509C28.5703 25.8817 30.4408 27.0063 32.4384 27.9099C33.6238 28.4459 34.8438 28.91 36.1206 29.1903C37.1418 29.4143 38.1604 29.6755 39.1946 29.8086C40.168 29.9337 41.161 29.9663 42.1435 29.9457C44.1602 29.903 46.1477 29.6463 48.0549 28.9291C49.9566 28.2133 51.7191 27.256 53.356 26.0485C54.6112 25.1228 55.7866 24.1112 56.8499 22.9745C58.734 20.9588 60.4533 18.8151 61.8331 16.4142C62.7724 14.7797 63.5519 13.072 64.0607 11.2567C64.352 10.2185 64.5695 9.15464 64.7428 8.08929C64.8905 7.18167 64.9332 6.25696 65.0095 5.33828C65.0467 4.89125 65.0899 4.4407 65.0698 3.99467C65.0301 3.11316 64.9603 2.23266 64.8784 1.35416C64.8332 0.868952 64.8377 0.409362 65.216 0.000502285L65.2165 0Z" fill="#FF2B77"/>
<path d="M51.0905 44.8043V49.459C51.3191 49.2726 51.4919 49.1269 51.6692 48.9883C53.2197 47.7758 56.1877 48.1731 56.4369 51.0537C56.6101 53.0593 56.47 55.0926 56.47 57.1459H53.8782C53.8697 56.9802 53.8541 56.8129 53.8541 56.6456C53.8521 55.2267 53.8622 53.8082 53.8461 52.3898C53.8421 52.0512 53.7943 51.7022 53.6979 51.3787C53.5105 50.7498 52.9113 50.467 52.1222 50.5861C51.6154 50.6624 51.1121 51.3134 51.1086 51.9427C51.0991 53.5013 51.1056 55.0604 51.1051 56.619C51.1051 56.7888 51.1051 56.9581 51.1051 57.1524H48.4033V44.8038C48.4309 44.7681 48.4581 44.732 48.4857 44.6963C49.3265 44.6963 50.1673 44.6963 51.0082 44.6963C51.0358 44.7325 51.0629 44.7686 51.0905 44.8048V44.8043Z" fill="#FF2B77"/>
<path d="M46.8109 56.8918C46.2463 57.0289 45.6782 57.2695 45.1031 57.2866C43.7243 57.3267 42.334 57.4418 40.9954 56.8903C39.2425 56.168 38.154 54.9047 37.7311 53.0714C37.3539 51.4354 37.4322 49.8171 38.2369 48.3243C39.3233 46.3096 41.0482 45.2393 43.3562 45.2342C44.3356 45.2322 45.3161 45.3488 46.294 45.4326C46.5075 45.4512 46.7129 45.5612 46.935 45.6336C46.7586 46.3644 46.5959 47.04 46.4181 47.7758C46.1785 47.7075 45.96 47.6342 45.7365 47.5824C44.3266 47.2569 42.9518 47.1781 41.7082 48.1229C40.8779 48.7537 40.5208 49.6559 40.4208 50.6222C40.3515 51.2933 40.4545 52.0086 40.6142 52.6716C40.9507 54.0694 42.224 55.0795 43.758 55.0876C44.5034 55.0916 45.2523 54.9278 45.9947 54.8113C46.2935 54.7641 46.4472 54.8028 46.4944 55.1383C46.5728 55.6948 46.6923 56.2453 46.8114 56.8913L46.8109 56.8918Z" fill="#FF2B77"/>
<path d="M35.9746 56.0108C35.938 54.4406 35.9681 52.866 35.8556 51.3008C35.7662 50.0547 35.176 49.0742 33.8922 48.6493C32.2537 48.1068 30.6655 48.3811 29.0948 48.928C28.9823 48.9682 28.8256 49.1616 28.8447 49.251C28.9572 49.7905 29.1159 50.3194 29.2716 50.899C30.1928 50.3364 31.1226 50.2089 32.0955 50.2616C32.8298 50.3018 33.2462 50.779 33.0644 51.4229C31.9001 51.3968 30.779 51.5806 29.7252 52.1201C28.809 52.5882 27.916 53.7008 28.2158 55.2262C28.4484 56.4096 29.5253 57.3298 30.7388 57.3288C31.7705 57.3277 32.6676 57.0867 33.4481 56.3518C33.5124 56.6401 33.5662 56.8767 33.6249 57.1404H36.0399C36.0158 56.7376 35.9832 56.3749 35.9746 56.0108ZM33.2452 54.3407C33.199 54.9233 32.755 55.2011 32.2808 55.3713C31.879 55.5155 31.4551 55.4753 31.1145 55.1443C30.7654 54.8038 30.7232 54.3713 30.9513 54.0031C31.1261 53.7193 31.4445 53.4617 31.7559 53.3406C32.1954 53.1703 32.6877 53.1377 33.2517 53.0272C33.2517 53.5445 33.2769 53.9444 33.2452 54.3407Z" fill="#FF2B77"/>
<path d="M17.0663 56.3764C17.0538 54.8882 17.0829 53.3989 17.0287 51.9126C16.9689 50.3013 16.3913 49.1169 15.0637 48.6679C13.3901 48.0998 11.7351 48.3178 10.1237 48.9717C10.0313 49.0094 9.90927 49.1737 9.92685 49.2515C10.0449 49.79 10.1961 50.3204 10.3508 50.903C11.268 50.3435 12.1957 50.2038 13.1696 50.2616C13.909 50.3058 14.2907 50.7307 14.1752 51.344C13.4755 51.444 12.7849 51.4942 12.1178 51.6479C10.5236 52.0121 9.09607 52.9036 9.28845 55.083C9.38941 56.2137 10.4442 57.2348 11.5698 57.3117C12.6743 57.3865 13.688 57.1886 14.5293 56.3473C14.6061 56.6597 14.6679 56.9078 14.7292 57.156H17.1241C17.101 56.8531 17.0683 56.6155 17.0663 56.3764ZM14.3444 54.3236C14.3148 54.8977 13.6503 55.4246 12.9822 55.4256C12.3448 55.4266 11.9832 55.0966 11.9199 54.4547C11.8737 53.9911 12.1248 53.6576 12.5036 53.5059C13.0621 53.2828 13.6603 53.1598 14.3475 52.9644C14.3475 53.5305 14.3645 53.9278 14.3444 54.3231V54.3236Z" fill="#FF2B77"/>
<path d="M66.233 51.5896C66.135 50.6147 65.7578 49.7131 64.9361 49.1485C64.4293 48.8005 63.7969 48.5659 63.1891 48.4479C61.8817 48.1952 60.6355 48.4278 59.6541 49.3932C58.2723 50.7553 57.8659 52.4244 58.329 54.2944C58.6606 55.629 59.4617 56.5914 60.7837 57.0249C62.397 57.5548 64.0159 57.4026 65.6147 56.9189C65.7011 56.8928 65.8271 56.7546 65.8166 56.6873C65.7282 56.1142 65.6127 55.5451 65.5318 55.1147C64.479 55.186 63.5598 55.3136 62.6447 55.2935C61.8189 55.2754 60.847 54.7003 60.8053 53.7128H66.1401C66.1767 53.6857 66.2149 53.6581 66.2526 53.6309C66.2506 52.9503 66.3008 52.2637 66.2335 51.5896H66.233ZM63.818 51.8348H60.7993C60.9053 50.8091 61.5723 50.1099 62.4001 50.1571C63.3172 50.2099 63.8873 50.9618 63.818 51.8348Z" fill="#FF2B77"/>
<path d="M73.9185 55.2026C72.9773 55.3467 72.0254 55.4909 71.1113 55.0986C70.5362 54.8515 70.1288 54.4316 70.0238 53.7218H75.7012C75.5781 52.6922 75.561 51.7298 75.329 50.8242C75.0567 49.7648 74.356 48.928 73.2761 48.6206C72.5609 48.4177 71.7668 48.3313 71.0304 48.4072C70.0555 48.5061 69.1709 48.9562 68.5471 49.7618C67.6048 50.9789 67.2291 52.3431 67.5069 53.8846C67.7384 55.1699 68.3241 56.1996 69.5125 56.7918C71.27 57.6668 73.0772 57.388 74.8734 56.9199C74.9678 56.8948 75.0753 56.6517 75.0617 56.5236C75.007 56.0158 74.906 55.514 74.8166 54.9796C74.4801 55.0649 74.2033 55.1584 73.9185 55.2026ZM71.6276 50.1627C72.4966 50.2184 73.0707 50.6674 73.0687 51.8348H70.0555C70.1178 50.8744 70.8245 50.1109 71.6281 50.1627H71.6276Z" fill="#FF2B77"/>
<path d="M92.225 50.903C91.7172 49.2118 90.4791 48.491 89.036 48.3821C88.0199 48.3052 87.0375 48.4388 86.1856 49.0742C84.6868 50.1933 84.2051 51.7423 84.3407 53.5285C84.4502 54.963 85.1012 56.0831 86.3835 56.8029C87.6256 57.501 88.9707 57.3488 90.2963 57.2539C90.8779 57.2117 91.447 57.0028 92.0231 56.8692C91.8981 56.1876 91.7886 55.5893 91.6781 54.9886C91.2109 55.0916 90.8156 55.2202 90.4118 55.2588C89.4138 55.3568 88.3996 55.4954 87.5141 54.8183C87.1595 54.5471 86.945 54.2156 86.9641 53.7138H92.3069C92.3366 53.6867 92.3657 53.6581 92.3963 53.6309C92.3677 52.7213 92.5003 51.8197 92.225 50.9035V50.903ZM86.9496 51.8096C86.9064 51.0396 87.592 50.1817 88.3303 50.1677C89.0752 50.1541 89.8322 50.358 89.9899 51.8096H86.949H86.9496Z" fill="#FF2B77"/>
<path d="M0 45.2965C0.962377 45.2965 1.87201 45.2779 2.77964 45.3141C2.93636 45.3201 3.15435 45.5296 3.22467 45.6953C3.83595 47.1394 4.4196 48.595 5.01431 50.0461C5.04294 50.1164 5.1002 50.1752 5.17906 50.2897C5.54271 49.4072 5.8923 48.5639 6.23837 47.719C6.53171 47.0023 6.81249 46.2805 7.12089 45.5703C7.17162 45.4537 7.33587 45.3116 7.45039 45.3091C8.37309 45.288 9.29628 45.297 10.3149 45.297C9.84277 46.1378 9.41382 46.9038 8.98236 47.6683C8.18875 49.0747 7.3861 50.4761 6.60806 51.891C6.48952 52.1065 6.43427 52.3822 6.43125 52.6314C6.41518 54.1181 6.42322 55.6049 6.42322 57.1349H3.71691V56.4025C3.71691 55.3342 3.67723 54.2643 3.73147 53.199C3.76563 52.5304 3.5391 51.989 3.23471 51.4299C2.16585 49.468 1.1211 47.493 0.068813 45.522C0.0457079 45.4793 0.0391782 45.4276 0 45.2965Z" fill="#FF2B77"/>
<path d="M77.1969 54.7897C77.9975 55.2066 78.7801 55.513 79.6616 55.4251C80.0579 55.3854 80.4672 55.401 80.5612 54.8495C80.6551 54.297 80.2643 54.1598 79.9017 53.986C79.2271 53.6631 78.4822 53.4401 77.8855 53.0101C76.3731 51.9211 76.6629 50.0682 77.9719 49.0807C79.1362 48.2022 80.4858 48.2289 81.8174 48.5056C82.8892 48.7286 82.8727 48.7914 82.5648 49.8889C82.4919 50.1491 82.4503 50.4183 82.4156 50.5816C81.6873 50.4746 80.9821 50.3189 80.2723 50.2953C80.0182 50.2867 79.7535 50.5986 79.4938 50.7639C79.652 51.007 79.7585 51.3295 79.9805 51.4751C80.3226 51.6991 80.7415 51.8081 81.1323 51.9533C81.8676 52.227 82.5824 52.5952 82.9229 53.3105C83.5347 54.5968 83.2805 56.283 81.6551 56.938C80.1644 57.5382 78.6269 57.4639 77.11 56.9666C76.8417 56.8787 76.6639 56.7084 76.7569 56.3819C76.9025 55.8686 77.0411 55.3538 77.1964 54.7892L77.1969 54.7897Z" fill="#FF2B77"/>
<path d="M21.7537 57.1499H19.1167V44.7083H21.7537V57.1499Z" fill="#FF2B77"/>
<path d="M23.9546 44.6908H26.6031V57.1514H23.9546V44.6908Z" fill="#FF2B77"/>
<path d="M38.496 63.3687C38.1825 63.4878 37.7827 63.1869 37.7059 63.7545C36.9961 63.1382 36.0724 63.1286 35.434 63.6872C34.6244 64.3959 34.4621 65.6963 35.0839 66.612C35.3677 67.0329 35.7455 67.3569 36.299 67.288C36.7576 67.2313 37.2086 67.1208 37.6692 67.0324C37.949 68.2439 36.7877 69.0214 35.2668 68.2484C35.209 68.4302 35.1523 68.6081 35.091 68.7984C35.7776 69.156 36.4612 69.1495 37.1513 69.0059C37.7762 68.8743 38.2212 68.5272 38.3051 67.8596C38.388 67.1926 38.4618 66.5231 38.4879 65.852C38.5186 65.0388 38.4955 64.2251 38.4955 63.3687H38.496ZM37.6787 65.2985C37.6607 65.5743 37.6978 65.8676 37.6124 66.1187C37.4748 66.5246 37.1569 66.7647 36.7058 66.7742C36.2538 66.7838 35.8951 66.6215 35.6837 66.2011C35.2537 65.3447 35.4426 64.4803 36.1191 63.984C36.519 63.6907 36.9133 63.8303 37.2151 64.0252C37.4422 64.1714 37.5411 64.5426 37.6556 64.8299C37.7094 64.9655 37.6652 65.1413 37.6652 65.298C37.6692 65.299 37.6737 65.299 37.6787 65.299V65.2985Z" fill="#FF2B77"/>
<path d="M48.8835 61.9357V67.3765H48.2768C48.2406 67.3488 48.2049 67.3217 48.1688 67.2941V64.8022H45.4398C45.4398 65.6295 45.4398 66.4618 45.4398 67.2941C45.4037 67.3217 45.3675 67.3488 45.3314 67.3765C45.1425 67.3765 44.9536 67.3765 44.7251 67.3765C44.7251 65.5517 44.7251 63.7434 44.7251 61.9352C44.7532 61.9056 44.7814 61.8759 44.8095 61.8458H45.4685V64.0769H48.1035V61.8458H48.7996C48.8278 61.8759 48.8554 61.9056 48.8835 61.9357Z" fill="#FF2B77"/>
<path d="M67.034 63.7977C66.1515 62.987 65.2469 63.096 64.3845 63.986C64.3604 63.7294 64.3443 63.5696 64.3287 63.3958C64.1017 63.4084 63.9194 63.419 63.7461 63.4285V68.9722C63.7777 68.9702 63.8094 68.9732 63.8395 68.9807H64.4739V67.0053C65.6201 67.7446 66.5805 67.6532 67.2947 66.5005C67.7237 65.8073 67.6122 64.3306 67.034 63.7972V63.7977ZM66.7774 65.405C66.7764 66.2348 66.4167 66.7828 65.81 66.8742C65.1871 66.9686 64.5407 66.5346 64.4744 65.9053C64.4342 65.518 64.4669 65.1006 64.5734 64.7274C64.7677 64.0448 65.1811 63.8333 65.928 63.9293C66.3479 63.983 66.7377 64.4888 66.7769 65.0378C66.7854 65.1599 66.7779 65.2829 66.7779 65.405H66.7774Z" fill="#FF2B77"/>
<path d="M59.2486 63.317C58.8352 63.3778 58.4535 63.6485 58.0592 63.8218C58.0517 63.7419 58.0381 63.5832 58.0256 63.4335H57.3716V68.9491H58.0572V66.8963C58.2245 67.0143 58.2938 67.0595 58.3601 67.1087C59.1331 67.6954 60.7118 67.5422 61.08 66.1644C61.1231 66.0012 61.1503 65.8319 61.1734 65.6637C61.3205 64.5928 60.7936 63.0889 59.2486 63.317ZM60.0658 66.4954C59.7263 66.9174 59.2677 66.9867 58.8428 66.835C58.3842 66.6717 58.1295 66.2564 58.1466 65.7305C58.1496 65.6255 58.1476 65.52 58.1476 65.416C58.1341 65.413 58.1215 65.411 58.1074 65.4085C58.1546 65.1373 58.1662 64.853 58.2566 64.5963C58.4545 64.0317 58.7845 63.8665 59.4912 63.9177C59.9076 63.9494 60.2758 64.3311 60.3727 64.8118C60.4948 65.4165 60.4802 65.9791 60.0658 66.4944V66.4954Z" fill="#FF2B77"/>
<path d="M3.32219 61.9543C2.5542 61.7926 1.75104 61.7926 0.961954 61.7484C0.905196 61.7453 0.783141 61.9558 0.782136 62.0668C0.770584 63.8283 0.774602 65.5893 0.774602 67.3699H1.51095V65.297C2.13278 65.178 2.71945 65.1297 3.25991 64.9469C3.97717 64.7038 4.21274 64.0478 4.21575 63.3702C4.21776 62.7529 4.00982 62.0994 3.32169 61.9543H3.32219ZM3.4116 63.5666C3.36539 64.3512 2.87315 64.629 1.53757 64.533V62.3812C3.14036 62.214 3.46986 62.5821 3.4116 63.5666Z" fill="#FF2B77"/>
<path d="M32.1966 67.3795H31.4608C31.4608 66.7099 31.4693 66.0509 31.4563 65.3924C31.4517 65.1563 31.4101 64.9188 31.3613 64.6867C31.2212 64.0182 31.0213 63.8715 30.3688 63.9318C29.8982 63.9755 29.5566 64.3522 29.5481 64.8846C29.535 65.7023 29.5446 66.5206 29.5446 67.3649H28.7866V63.4355H29.3231C29.3507 63.5686 29.3803 63.7108 29.4009 63.8112C29.7736 63.6344 30.1142 63.3647 30.4823 63.3185C31.6677 63.1703 32.0786 63.7409 32.1811 64.8213C32.2599 65.6506 32.1966 66.4939 32.1966 67.3795Z" fill="#FF2B77"/>
<path d="M54.5733 64.7319C54.5482 63.9664 54.1619 63.3953 53.5722 63.3351C53.085 63.2858 52.5772 63.3562 52.0905 63.4426C51.7002 63.5109 51.6224 63.7655 51.9077 64.0779C53.2307 63.6078 53.8154 63.8127 53.8018 64.752C53.7526 64.7585 53.7008 64.7616 53.6501 64.7711C52.9821 64.8952 52.2658 64.8901 51.7515 65.4442C51.4109 65.8123 51.3361 66.2433 51.4978 66.7064C51.6324 67.0901 51.8816 67.3774 52.316 67.4036C52.8565 67.4362 53.3949 67.4267 53.8159 66.9977C53.8329 66.9796 53.8802 66.9912 53.9349 66.9892C53.9455 67.1173 53.957 67.2459 53.9696 67.3855H54.5808C54.5808 66.4758 54.6029 65.6029 54.5733 64.7319ZM52.9811 66.8807C52.6119 66.9194 52.2543 66.8114 52.2216 66.4347C52.1985 66.1634 52.3457 65.7355 52.5531 65.6185C52.9022 65.4216 53.3598 65.4165 53.8204 65.3206C53.8897 66.3829 53.633 66.8119 52.9811 66.8802V66.8807Z" fill="#FF2B77"/>
<path d="M83.1681 64.9494C83.0421 64.0061 82.7286 63.4516 81.923 63.313C80.3443 63.0427 79.7164 64.1608 79.6079 65.2935C79.5341 66.0519 79.8224 66.7335 80.498 67.1675C81.3047 67.6869 82.1219 67.5126 82.9275 67.1991C82.8843 67.0098 82.8517 66.8646 82.813 66.6933C81.1515 67.2539 80.3634 66.5356 80.3729 65.4984H83.1717C83.1717 65.291 83.1917 65.1177 83.1686 64.9494H83.1681ZM82.3991 64.963H80.3322C80.6919 64.0056 81.0852 63.6937 81.7205 63.8313C82.1907 63.9333 82.4474 64.3532 82.3991 64.963Z" fill="#FF2B77"/>
<path d="M73.7051 67.2941V63.4411H74.3088C74.3219 63.5701 74.337 63.7253 74.3395 63.749C74.7795 63.5978 75.2054 63.3577 75.6484 63.319C76.5465 63.2406 77.0086 63.7821 77.0845 64.8314C77.1432 65.6476 77.0809 66.4728 77.0724 67.2941C77.0362 67.3217 77.0001 67.3493 76.9634 67.3765C76.774 67.3765 76.5847 67.3765 76.3416 67.3765C76.3416 66.6466 76.3486 65.9339 76.3371 65.2211C76.3335 65.0217 76.2903 64.8183 76.2376 64.6244C76.0648 63.9921 75.8654 63.863 75.2024 63.9268C74.8392 63.9619 74.4515 64.4059 74.4409 64.8545C74.4238 65.6059 74.4364 66.3583 74.4339 67.1102C74.4339 67.1941 74.4148 67.2775 74.4028 67.3765H73.8131C73.7769 67.3488 73.7407 67.3212 73.7051 67.2941Z" fill="#FF2B77"/>
<path d="M14.6445 67.2941V63.4411H15.2483C15.2613 63.5701 15.2764 63.7253 15.2789 63.749C15.7189 63.5978 16.1449 63.3577 16.5879 63.319C17.486 63.2406 17.9481 63.7816 18.0239 64.8314C18.0827 65.6476 18.0204 66.4728 18.0118 67.2941C17.9757 67.3217 17.9395 67.3493 17.9029 67.3765H17.281C17.281 66.6466 17.2881 65.9339 17.2765 65.2211C17.273 65.0217 17.2298 64.8183 17.1771 64.6244C17.0043 63.9921 16.8049 63.863 16.1418 63.9268C15.7787 63.9619 15.3909 64.4059 15.3804 64.8545C15.3633 65.6059 15.3759 66.3583 15.3733 67.1102C15.3733 67.1941 15.3543 67.2775 15.3422 67.3765H14.7525C14.7164 67.3488 14.6802 67.3212 14.6445 67.2941Z" fill="#FF2B77"/>
<path d="M90.3369 67.3313C90.4334 67.0208 90.4891 66.842 90.5333 66.7004C90.8869 66.7637 91.2129 66.844 91.5439 66.8747C91.9025 66.9078 92.234 66.7797 92.2888 66.3935C92.3365 66.0595 92.1271 65.8324 91.787 65.7074C91.4821 65.5949 91.1742 65.4497 90.9176 65.2538C90.1681 64.6817 90.3917 63.8117 91.1581 63.435C91.7061 63.1653 92.3034 63.218 92.8845 63.53C92.8157 63.7153 92.7574 63.872 92.6951 64.0388C92.445 63.9654 92.1989 63.8097 91.9975 63.8544C91.7081 63.9187 91.4515 64.1297 91.1807 64.2779C91.3123 64.4738 91.4133 64.7038 91.5841 64.8555C91.7318 64.9866 91.9608 65.0243 92.1507 65.1112C92.8945 65.4522 93.1125 65.8756 92.9488 66.6532C92.8529 67.1082 92.3476 67.4076 91.6549 67.3981C91.239 67.392 90.8231 67.3574 90.3369 67.3323V67.3313Z" fill="#FF2B77"/>
<path d="M85.3989 67.3232C85.4954 67.0158 85.5516 66.837 85.5923 66.7069C85.9685 66.7682 86.3136 66.8546 86.6622 66.8717C86.9912 66.8877 87.3448 66.7451 87.3358 66.3905C87.3302 66.1629 87.0876 65.8917 86.8807 65.7315C86.6135 65.5255 86.2232 65.4668 85.9831 65.2412C85.7556 65.0273 85.5391 64.6857 85.5225 64.3889C85.4964 63.9172 85.9881 63.3873 86.4613 63.3376C86.9289 63.2884 87.4091 63.3647 87.9757 63.3898C87.8742 63.6972 87.8184 63.8655 87.7607 64.0408C87.5005 63.9649 87.2534 63.8082 87.0515 63.8539C86.7626 63.9192 86.5075 64.1327 86.2378 64.2824C86.3719 64.4773 86.4748 64.7093 86.6491 64.8565C86.8144 64.9961 87.0575 65.0413 87.2609 65.1393C87.9636 65.4773 88.1721 65.9063 88.0073 66.6577C87.9104 67.1002 87.4096 67.4071 86.7616 67.3965C86.3297 67.3895 85.8977 67.3508 85.3984 67.3227L85.3989 67.3232Z" fill="#FF2B77"/>
<path d="M20.9599 63.9247H20.3496V63.3225C20.5264 63.3105 20.7113 63.2974 20.9272 63.2828C21.0377 62.8559 20.7077 62.0819 21.6842 62.2702V63.3863H22.7093V63.9092H21.6952C21.6952 64.7138 21.6711 65.4788 21.7033 66.2413C21.7254 66.7647 22.0619 66.9621 22.6024 66.8581C22.6164 67.0274 22.629 67.1755 22.6466 67.3905C22.3653 67.4252 22.09 67.5231 21.8419 67.4769C21.2653 67.3704 20.9765 66.9385 20.9629 66.2297C20.9483 65.4808 20.9599 64.7314 20.9599 63.9247Z" fill="#FF2B77"/>
<path d="M6.64308 63.427H7.27797V63.9674C7.4829 63.7841 7.6577 63.5651 7.88523 63.442C8.09619 63.328 8.3624 63.317 8.63916 63.2522V63.7947C8.30162 63.987 7.8797 64.095 7.69938 64.3647C7.48843 64.6807 7.4397 65.1332 7.40706 65.5331C7.36034 66.1072 7.39199 66.6878 7.38747 67.2659C7.38747 67.2966 7.36085 67.3267 7.33824 67.3739H6.64258V63.427H6.64308Z" fill="#FF2B77"/>
<path d="M25.2231 63.3506H25.9379V67.3624H25.2231V63.3506Z" fill="#FF2B77"/>
<path d="M11.7865 63.5124V67.3765H11.1798C11.1436 67.3488 11.1079 67.3217 11.0718 67.2941C11.0718 66.0233 11.0718 64.7525 11.0718 63.4225H11.7026C11.7308 63.4526 11.7584 63.4822 11.7865 63.5124Z" fill="#FF2B77"/>
<path d="M70.1323 67.2941V63.4225H70.7632C70.7913 63.4526 70.8189 63.4822 70.8471 63.5124V67.3765H70.2403C70.2042 67.3488 70.1685 67.3217 70.1323 67.2941Z" fill="#FF2B77"/>
<path d="M25.5932 61.6298C25.7875 61.9051 26.007 62.0874 25.9759 62.2019C25.9277 62.3817 25.6961 62.652 25.5686 62.6384C25.3842 62.6188 25.224 62.3787 25.0537 62.2331C25.1979 62.0718 25.342 61.9106 25.5937 61.6298H25.5932Z" fill="#FF2B77"/>
<path d="M11.2872 61.7478C11.7498 61.7805 11.8784 61.9749 11.7955 62.2526C11.7473 62.4144 11.5519 62.5324 11.4228 62.6705C11.2711 62.5239 11.0396 62.3973 10.9954 62.223C10.9632 62.0974 11.1812 61.9086 11.2872 61.7478Z" fill="#FF2B77"/>
<path d="M70.3358 61.7574C70.7512 61.787 70.8833 61.9046 70.8782 62.2295C70.8737 62.5314 70.7562 62.7368 70.4649 62.6515C70.2911 62.6002 70.1052 62.3802 70.0535 62.1989C70.0218 62.0874 70.2333 61.9071 70.3358 61.7574Z" fill="#FF2B77"/>
<path d="M66.1392 53.7138C66.1768 53.6867 66.2145 53.6591 66.2517 53.6319C66.214 53.6591 66.1763 53.6867 66.1392 53.7138Z" fill="#FF2B77"/>
<path d="M44.8095 61.8463C44.7814 61.8759 44.7532 61.9056 44.7251 61.9357C44.7532 61.9061 44.7814 61.8764 44.8095 61.8463Z" fill="#FF2B77"/>
<path d="M14.6445 67.2941C14.6807 67.3217 14.7169 67.3493 14.7525 67.3764C14.7164 67.3488 14.6802 67.3212 14.6445 67.2941Z" fill="#FF2B77"/>
<path d="M17.9028 67.377C17.939 67.3493 17.9752 67.3217 18.0118 67.2946C17.9757 67.3222 17.9395 67.3498 17.9028 67.377Z" fill="#FF2B77"/>
<path d="M73.7051 67.2941C73.7412 67.3217 73.7774 67.3493 73.8131 67.3764C73.7769 67.3488 73.7407 67.3212 73.7051 67.2941Z" fill="#FF2B77"/>
<path d="M76.9634 67.377C76.9995 67.3493 77.0357 67.3217 77.0724 67.2946C77.0362 67.3222 77 67.3498 76.9634 67.377Z" fill="#FF2B77"/>
<path d="M63.7461 68.9722C63.7777 68.9702 63.8089 68.9732 63.8395 68.9802C63.8119 69.0048 63.7843 69.029 63.7566 69.0536C63.7531 69.0264 63.7501 68.9993 63.7466 68.9722H63.7461Z" fill="#FF2B77"/>
</g>
<defs>
<clipPath id="clip0_18331_4518">
<rect width="93" height="69.0988" fill="white"/>
</clipPath>
</defs>
</svg>
