<svg width="32" height="32" viewBox="0 0 32 32" fill="none" xmlns="http://www.w3.org/2000/svg">
<rect x="0.380952" y="0.380952" width="31.2381" height="31.2381" rx="8.03525" fill="#FFE2EC"/>
<rect x="0.380952" y="0.380952" width="31.2381" height="31.2381" rx="8.03525" stroke="#FFBFD6" stroke-width="0.761905"/>
<path d="M16.0016 24.9496C17.7716 24.9493 19.5018 24.4242 20.9734 23.4407C22.4449 22.4571 23.5919 21.0593 24.2691 19.424C24.9463 17.7887 25.1234 15.9893 24.778 14.2533C24.4327 12.5173 23.5803 10.9228 22.3287 9.67117C21.0771 8.41959 19.4825 7.56723 17.7466 7.22185C16.0106 6.87647 14.2112 7.05359 12.5759 7.73081C10.9405 8.40803 9.54274 9.55494 8.55921 11.0265C7.57567 12.4981 7.05057 14.2283 7.05029 15.9983C7.05011 17.1738 7.28151 18.3379 7.73129 19.424C8.18107 20.5101 8.84041 21.497 9.67166 22.3282C10.5029 23.1595 11.4898 23.8188 12.5759 24.2686C13.662 24.7184 14.826 24.9498 16.0016 24.9496V24.9496Z" stroke="#FF2B77" stroke-width="1.14286" stroke-linecap="round" stroke-linejoin="round"/>
<path d="M7.49951 18.8062H24.2481" stroke="#FF2B77" stroke-width="1.14286" stroke-linecap="round" stroke-linejoin="round"/>
<path d="M7.49951 13.1904H24.2481" stroke="#FF2B77" stroke-width="1.14286" stroke-linecap="round" stroke-linejoin="round"/>
<path d="M14.0697 7.25879C12.4634 13.0547 12.6999 19.2068 14.7464 24.8623" stroke="#FF2B77" stroke-width="1.14286" stroke-linecap="round" stroke-linejoin="round"/>
<path d="M17.9306 7.25879C18.6323 9.78112 18.9865 12.3874 18.9835 15.0055C18.9906 18.3663 18.409 21.7023 17.2651 24.8623" stroke="#FF2B77" stroke-width="1.14286" stroke-linecap="round" stroke-linejoin="round"/>
</svg>
