<svg width="93" height="70" viewBox="0 0 93 70" fill="none" xmlns="http://www.w3.org/2000/svg">
<g clip-path="url(#clip0_695_4772)">
<path d="M65.2167 0C66.9255 0.643427 68.1114 1.92877 68.9201 3.53056C69.7453 5.16449 70.4229 6.87326 71.1648 8.54939C71.2848 8.82012 71.3782 9.10692 71.5299 9.35907C71.6957 9.63382 71.6098 9.75437 71.337 9.81113C71.0372 9.87341 70.7333 9.9166 70.4344 9.98291C69.8689 10.1085 68.6985 9.96633 68.143 9.68656C67.8015 10.4867 67.481 11.2959 67.1143 12.083C66.3343 13.7591 65.5683 15.4437 64.728 17.0897C63.3859 19.7197 61.8599 22.2407 60.0668 24.5929C58.6257 26.483 57.029 28.2264 55.2072 29.7579C53.3753 31.2979 51.3587 32.532 49.1315 33.4175C47.806 33.9444 46.4368 34.3151 45.0319 34.5441C44.3739 34.6511 43.7054 34.7089 43.0388 34.743C42.1387 34.7897 41.2351 34.8319 40.3355 34.8013C39.6434 34.7777 38.9492 34.6702 38.2671 34.5416C37.4188 34.3824 36.5538 34.2417 35.7472 33.9514C34.5864 33.534 33.4467 33.0383 32.3422 32.4868C30.5691 31.6012 28.9819 30.4254 27.4941 29.121C26.7035 28.4278 25.9134 27.7306 25.1731 26.9852C24.2961 26.1027 23.4598 25.178 22.6295 24.2508C21.6023 23.1041 20.6033 21.9323 19.5842 20.778C18.7765 19.8628 17.9552 18.9597 17.1441 18.0476C17.0054 17.8914 16.8527 17.8246 16.6398 17.8346C16.252 17.8522 15.8632 17.8351 15.475 17.8457C14.607 17.8683 14.5442 17.6362 14.4438 16.9908C14.1514 15.1052 14.5648 13.3693 15.6648 11.8082C15.8235 11.5827 16.04 11.3938 16.251 11.2125C16.3218 11.1512 16.467 11.1276 16.5624 11.1507C17.4494 11.3657 18.0959 11.8986 18.4656 12.7244C18.7855 13.4386 19.0166 14.1931 19.3416 14.9048C19.7419 15.7803 20.1693 16.6462 20.639 17.486C21.4004 18.8482 22.3663 20.0713 23.3839 21.2476C24.4262 22.4526 25.6096 23.514 26.8537 24.509C28.5705 25.8817 30.441 27.0063 32.4386 27.9099C33.624 28.4459 34.8441 28.91 36.1209 29.1903C37.142 29.4143 38.1606 29.6755 39.1949 29.8086C40.1683 29.9337 41.1613 29.9663 42.1438 29.9457C44.1604 29.903 46.148 29.6463 48.0551 28.9291C49.9568 28.2133 51.7193 27.256 53.3563 26.0485C54.6115 25.1228 55.7868 24.1112 56.8502 22.9745C58.7342 20.9588 60.4535 18.8151 61.8333 16.4142C62.7726 14.7797 63.5521 13.072 64.061 11.2567C64.3523 10.2185 64.5698 9.15464 64.7431 8.08929C64.8907 7.18167 64.9334 6.25696 65.0098 5.33828C65.0469 4.89125 65.0901 4.4407 65.07 3.99467C65.0304 3.11316 64.9605 2.23266 64.8787 1.35416C64.8335 0.868952 64.838 0.409362 65.2162 0.000502285L65.2167 0Z" fill="#FF2B77"/>
<path d="M51.0903 44.8043V49.459C51.3188 49.2726 51.4916 49.1269 51.6689 48.9883C53.2195 47.7758 56.1875 48.1731 56.4366 51.0537C56.6099 53.0593 56.4698 55.0926 56.4698 57.1459H53.878C53.8694 56.9802 53.8539 56.8129 53.8539 56.6456C53.8519 55.2267 53.8619 53.8082 53.8458 52.3898C53.8418 52.0512 53.7941 51.7022 53.6977 51.3787C53.5103 50.7498 52.9111 50.467 52.122 50.5861C51.6152 50.6624 51.1119 51.3134 51.1084 51.9427C51.0988 53.5013 51.1054 55.0604 51.1049 56.619C51.1049 56.7888 51.1049 56.9581 51.1049 57.1524H48.4031V44.8038C48.4307 44.7681 48.4578 44.732 48.4855 44.6963C49.3263 44.6963 50.1671 44.6963 51.0079 44.6963C51.0356 44.7325 51.0627 44.7686 51.0903 44.8048V44.8043Z" fill="#FF2B77"/>
<path d="M46.8109 56.8919C46.2463 57.029 45.6782 57.2696 45.1031 57.2867C43.7243 57.3269 42.334 57.4419 40.9954 56.8904C39.2425 56.1681 38.154 54.9049 37.7311 53.0715C37.3539 51.4356 37.4322 49.8172 38.2369 48.3245C39.3233 46.3098 41.0482 45.2394 43.3562 45.2344C44.3356 45.2324 45.3161 45.3489 46.294 45.4328C46.5075 45.4514 46.7129 45.5614 46.935 45.6337C46.7586 46.3645 46.5959 47.0401 46.4181 47.776C46.1785 47.7076 45.96 47.6343 45.7365 47.5826C44.3266 47.2571 42.9518 47.1782 41.7082 48.123C40.8779 48.7539 40.5208 49.656 40.4208 50.6224C40.3515 51.2935 40.4545 52.0087 40.6142 52.6717C40.9507 54.0696 42.224 55.0797 43.758 55.0877C44.5034 55.0917 45.2523 54.928 45.9947 54.8115C46.2935 54.7642 46.4472 54.8029 46.4944 55.1384C46.5728 55.695 46.6923 56.2455 46.8114 56.8914L46.8109 56.8919Z" fill="#FF2B77"/>
<path d="M35.9746 56.0109C35.938 54.4408 35.9681 52.8661 35.8556 51.301C35.7662 50.0548 35.176 49.0744 33.8922 48.6494C32.2537 48.107 30.6655 48.3812 29.0948 48.9282C28.9823 48.9684 28.8256 49.1618 28.8447 49.2512C28.9572 49.7906 29.1159 50.3195 29.2716 50.8992C30.1928 50.3366 31.1226 50.209 32.0955 50.2618C32.8298 50.302 33.2462 50.7791 33.0644 51.4231C31.9001 51.3969 30.779 51.5808 29.7252 52.1202C28.809 52.5884 27.916 53.7009 28.2158 55.2264C28.4484 56.4097 29.5253 57.3299 30.7388 57.3289C31.7705 57.3279 32.6676 57.0868 33.4481 56.352C33.5124 56.6403 33.5662 56.8769 33.6249 57.1406H36.0399C36.0158 56.7377 35.9832 56.3751 35.9746 56.0109ZM33.2452 54.3408C33.199 54.9235 32.755 55.2012 32.2808 55.3715C31.879 55.5157 31.4551 55.4755 31.1145 55.1445C30.7654 54.8039 30.7232 54.3715 30.9513 54.0033C31.1261 53.7195 31.4445 53.4618 31.7559 53.3408C32.1954 53.1705 32.6877 53.1379 33.2517 53.0274C33.2517 53.5447 33.2769 53.9445 33.2452 54.3408Z" fill="#FF2B77"/>
<path d="M17.0661 56.3767C17.0535 54.8884 17.0827 53.3991 17.0284 51.9129C16.9686 50.3016 16.391 49.1172 15.0635 48.6681C13.3899 48.1 11.7348 48.318 10.1235 48.972C10.0311 49.0097 9.90903 49.1739 9.92661 49.2518C10.0446 49.7902 10.1958 50.3206 10.3505 50.9033C11.2677 50.3437 12.1954 50.2041 13.1694 50.2619C13.9087 50.3061 14.2905 50.731 14.1749 51.3443C13.4752 51.4443 12.7846 51.4945 12.1176 51.6482C10.5233 52.0123 9.09583 52.9039 9.2882 55.0833C9.38916 56.2139 10.444 57.2351 11.5696 57.3119C12.6741 57.3868 13.6877 57.1889 14.529 56.3476C14.6059 56.66 14.6677 56.9081 14.7289 57.1562H17.1238C17.1007 56.8534 17.0681 56.6158 17.0661 56.3767ZM14.3442 54.3239C14.3146 54.898 13.65 55.4249 12.982 55.4259C12.3446 55.4269 11.983 55.0969 11.9197 54.4549C11.8735 53.9913 12.1246 53.6578 12.5033 53.5061C13.0619 53.2831 13.6601 53.1601 14.3472 52.9647C14.3472 53.5307 14.3643 53.9281 14.3442 54.3233V54.3239Z" fill="#FF2B77"/>
<path d="M66.2332 51.59C66.1353 50.6151 65.7581 49.7135 64.9363 49.1489C64.4295 48.8008 63.7972 48.5662 63.1894 48.4482C61.8819 48.1955 60.6358 48.4281 59.6543 49.3935C58.2725 50.7557 57.8662 52.4248 58.3293 54.2948C58.6608 55.6294 59.4619 56.5917 60.784 57.0252C62.3973 57.5551 64.0161 57.4029 65.6149 56.9192C65.7013 56.8931 65.8274 56.755 65.8168 56.6877C65.7284 56.1146 65.6129 55.5455 65.532 55.115C64.4793 55.1863 63.5601 55.3139 62.6449 55.2938C61.8192 55.2758 60.8472 54.7006 60.8055 53.7131H66.1403C66.177 53.686 66.2152 53.6584 66.2528 53.6313C66.2508 52.9507 66.301 52.2641 66.2337 51.59H66.2332ZM63.8183 51.8351H60.7995C60.9055 50.8094 61.5725 50.1103 62.4003 50.1575C63.3175 50.2102 63.8876 50.9621 63.8183 51.8351Z" fill="#FF2B77"/>
<path d="M73.9187 55.2025C72.9774 55.3467 72.0256 55.4908 71.1114 55.0985C70.5363 54.8514 70.1289 54.4315 70.024 53.7218H75.7013C75.5782 52.6921 75.5611 51.7297 75.3291 50.8241C75.0568 49.7648 74.3562 48.928 73.2762 48.6206C72.561 48.4176 71.7669 48.3312 71.0305 48.4071C70.0556 48.506 69.1711 48.9561 68.5472 49.7618C67.6049 50.9788 67.2292 52.343 67.507 53.8845C67.7386 55.1699 68.3242 56.1995 69.5126 56.7917C71.2701 57.6667 73.0773 57.3879 74.8735 56.9198C74.9679 56.8947 75.0754 56.6516 75.0619 56.5235C75.0071 56.0157 74.9062 55.5139 74.8168 54.9795C74.4802 55.0649 74.2035 55.1583 73.9187 55.2025ZM71.6277 50.1626C72.4967 50.2183 73.0708 50.6674 73.0688 51.8347H70.0556C70.1179 50.8743 70.8246 50.1108 71.6283 50.1626H71.6277Z" fill="#FF2B77"/>
<path d="M92.2249 50.9033C91.7171 49.2121 90.479 48.4913 89.0359 48.3823C88.0198 48.3055 87.0373 48.4391 86.1855 49.0745C84.6866 50.1936 84.205 51.7426 84.3406 53.5287C84.4501 54.9633 85.101 56.0834 86.3834 56.8031C87.6255 57.5013 88.9706 57.3491 90.2962 57.2542C90.8778 57.212 91.4469 57.003 92.023 56.8694C91.8979 56.1878 91.7884 55.5896 91.6779 54.9889C91.2108 55.0919 90.8155 55.2204 90.4117 55.2591C89.4136 55.3571 88.3995 55.4957 87.514 54.8186C87.1594 54.5474 86.9449 54.2159 86.964 53.7141H92.3068C92.3364 53.687 92.3656 53.6583 92.3962 53.6312C92.3676 52.7216 92.5002 51.82 92.2249 50.9038V50.9033ZM86.9494 51.8099C86.9062 51.0399 87.5919 50.182 88.3302 50.168C89.0751 50.1544 89.832 50.3583 89.9898 51.8099H86.9489H86.9494Z" fill="#FF2B77"/>
<path d="M0 45.2968C0.962377 45.2968 1.87201 45.2782 2.77964 45.3143C2.93636 45.3204 3.15435 45.5298 3.22467 45.6956C3.83595 47.1396 4.4196 48.5953 5.01431 50.0464C5.04294 50.1167 5.1002 50.1755 5.17906 50.29C5.54271 49.4075 5.8923 48.5641 6.23837 47.7193C6.53171 47.0025 6.81249 46.2807 7.12089 45.5705C7.17162 45.454 7.33587 45.3118 7.45039 45.3093C8.37309 45.2882 9.29628 45.2973 10.3149 45.2973C9.84277 46.1381 9.41382 46.9041 8.98236 47.6686C8.18875 49.075 7.3861 50.4763 6.60806 51.8913C6.48952 52.1067 6.43427 52.3825 6.43125 52.6316C6.41518 54.1184 6.42322 55.6052 6.42322 57.1351H3.71691V56.4028C3.71691 55.3344 3.67723 54.2646 3.73147 53.1992C3.76563 52.5307 3.5391 51.9892 3.23471 51.4302C2.16585 49.4682 1.1211 47.4933 0.068813 45.5223C0.0457079 45.4796 0.0391782 45.4279 0 45.2968Z" fill="#FF2B77"/>
<path d="M77.1966 54.7899C77.9973 55.2068 78.7798 55.5131 79.6613 55.4252C80.0576 55.3856 80.467 55.4011 80.5609 54.8496C80.6548 54.2971 80.2641 54.16 79.9014 53.9862C79.2268 53.6632 78.482 53.4402 77.8852 53.0103C76.3729 51.9213 76.6627 50.0684 77.9716 49.0809C79.1359 48.2024 80.4856 48.229 81.8171 48.5058C82.889 48.7288 82.8724 48.7916 82.5645 49.8891C82.4917 50.1492 82.45 50.4185 82.4153 50.5817C81.687 50.4747 80.9818 50.319 80.2721 50.2954C80.0179 50.2869 79.7532 50.5988 79.4936 50.764C79.6518 51.0071 79.7583 51.3296 79.9803 51.4753C80.3223 51.6993 80.7412 51.8083 81.132 51.9535C81.8674 52.2272 82.5821 52.5954 82.9227 53.3106C83.5344 54.597 83.2803 56.2831 81.6549 56.9381C80.1641 57.5384 78.6266 57.464 77.1097 56.9668C76.8415 56.8789 76.6637 56.7086 76.7566 56.3821C76.9023 55.8688 77.0409 55.3539 77.1961 54.7894L77.1966 54.7899Z" fill="#FF2B77"/>
<path d="M21.7539 57.1501H19.1169V44.7085H21.7539V57.1501Z" fill="#FF2B77"/>
<path d="M23.9543 44.6909H26.6029V57.1516H23.9543V44.6909Z" fill="#FF2B77"/>
<path d="M38.4962 63.3687C38.1828 63.4878 37.783 63.1869 37.7061 63.7545C36.9964 63.1382 36.0727 63.1286 35.4343 63.6872C34.6246 64.3959 34.4624 65.6963 35.0842 66.612C35.368 67.0329 35.7457 67.3569 36.2992 67.288C36.7578 67.2313 37.2089 67.1208 37.6694 67.0324C37.9492 68.2439 36.7879 69.0214 35.267 68.2484C35.2093 68.4302 35.1525 68.6081 35.0912 68.7984C35.7778 69.156 36.4615 69.1495 37.1516 69.0059C37.7764 68.8743 38.2215 68.5272 38.3053 67.8596C38.3882 67.1926 38.462 66.5231 38.4882 65.852C38.5188 65.0388 38.4957 64.2251 38.4957 63.3687H38.4962ZM37.679 65.2985C37.6609 65.5743 37.6981 65.8676 37.6127 66.1187C37.4751 66.5246 37.1571 66.7647 36.7061 66.7742C36.254 66.7838 35.8954 66.6215 35.6839 66.2011C35.254 65.3447 35.4428 64.4803 36.1194 63.984C36.5192 63.6907 36.9135 63.8303 37.2154 64.0252C37.4424 64.1714 37.5414 64.5426 37.6559 64.8299C37.7096 64.9655 37.6654 65.1413 37.6654 65.298C37.6694 65.299 37.674 65.299 37.679 65.299V65.2985Z" fill="#FF2B77"/>
<path d="M48.8833 61.9361V67.3768H48.2765C48.2403 67.3492 48.2047 67.3221 48.1685 67.2945V64.8026H45.4396C45.4396 65.6299 45.4396 66.4622 45.4396 67.2945C45.4034 67.3221 45.3673 67.3492 45.3311 67.3768C45.1423 67.3768 44.9534 67.3768 44.7249 67.3768C44.7249 65.552 44.7249 63.7438 44.7249 61.9356C44.753 61.906 44.7811 61.8763 44.8092 61.8462H45.4682V64.0773H48.1032V61.8462H48.7994C48.8275 61.8763 48.8551 61.906 48.8833 61.9361Z" fill="#FF2B77"/>
<path d="M67.034 63.798C66.1515 62.9873 65.2469 63.0963 64.3845 63.9863C64.3604 63.7297 64.3443 63.5699 64.3287 63.3961C64.1017 63.4087 63.9194 63.4193 63.7461 63.4288V68.9725C63.7777 68.9705 63.8094 68.9735 63.8395 68.981H64.4739V67.0056C65.6201 67.7449 66.5805 67.6535 67.2947 66.5008C67.7237 65.8076 67.6122 64.3309 67.034 63.7975V63.798ZM66.7774 65.4053C66.7764 66.2351 66.4167 66.783 65.81 66.8745C65.1871 66.9689 64.5407 66.5349 64.4744 65.9056C64.4342 65.5183 64.4669 65.1009 64.5734 64.7277C64.7677 64.0451 65.1811 63.8336 65.928 63.9296C66.3479 63.9833 66.7377 64.4891 66.7769 65.0381C66.7854 65.1602 66.7779 65.2832 66.7779 65.4053H66.7774Z" fill="#FF2B77"/>
<path d="M59.2484 63.3171C58.835 63.3779 58.4533 63.6486 58.059 63.8219C58.0514 63.7421 58.0379 63.5833 58.0253 63.4337H57.3713V68.9492H58.057V66.8964C58.2242 67.0144 58.2935 67.0596 58.3598 67.1089C59.1329 67.6955 60.7115 67.5423 61.0797 66.1646C61.1229 66.0013 61.15 65.8321 61.1731 65.6638C61.3203 64.5929 60.7934 63.0891 59.2484 63.3171ZM60.0656 66.4956C59.726 66.9175 59.2675 66.9868 58.8425 66.8351C58.3839 66.6719 58.1293 66.2565 58.1464 65.7306C58.1494 65.6256 58.1474 65.5201 58.1474 65.4162C58.1338 65.4132 58.1212 65.4111 58.1072 65.4086C58.1544 65.1374 58.166 64.8531 58.2564 64.5964C58.4543 64.0319 58.7843 63.8666 59.491 63.9179C59.9074 63.9495 60.2755 64.3312 60.3725 64.8119C60.4945 65.4167 60.48 65.9792 60.0656 66.4946V66.4956Z" fill="#FF2B77"/>
<path d="M3.32219 61.9545C2.5542 61.7928 1.75104 61.7928 0.961954 61.7486C0.905196 61.7456 0.783141 61.956 0.782136 62.067C0.770584 63.8285 0.774602 65.5895 0.774602 67.3701H1.51095V65.2972C2.13278 65.1782 2.71945 65.1299 3.25991 64.9471C3.97717 64.704 4.21274 64.048 4.21575 63.3704C4.21776 62.7531 4.00982 62.0997 3.32169 61.9545H3.32219ZM3.4116 63.5668C3.36539 64.3514 2.87315 64.6292 1.53757 64.5332V62.3814C3.14036 62.2142 3.46986 62.5824 3.4116 63.5668Z" fill="#FF2B77"/>
<path d="M32.1964 67.3795H31.4605C31.4605 66.71 31.4691 66.051 31.456 65.3925C31.4515 65.1564 31.4098 64.9188 31.3611 64.6868C31.221 64.0182 31.021 63.8716 30.3686 63.9318C29.8979 63.9755 29.5564 64.3523 29.5478 64.8847C29.5348 65.7024 29.5443 66.5206 29.5443 67.365H28.7864V63.4356H29.3228C29.3504 63.5687 29.3801 63.7108 29.4007 63.8113C29.7734 63.6345 30.1139 63.3648 30.4821 63.3186C31.6675 63.1704 32.0784 63.741 32.1808 64.8214C32.2597 65.6507 32.1964 66.494 32.1964 67.3795Z" fill="#FF2B77"/>
<path d="M54.5733 64.732C54.5482 63.9665 54.1619 63.3954 53.5722 63.3351C53.085 63.2859 52.5772 63.3562 52.0905 63.4426C51.7002 63.5109 51.6224 63.7656 51.9077 64.078C53.2307 63.6078 53.8154 63.8128 53.8018 64.752C53.7526 64.7586 53.7008 64.7616 53.6501 64.7711C52.9821 64.8952 52.2658 64.8902 51.7515 65.4442C51.4109 65.8124 51.3361 66.2433 51.4978 66.7064C51.6324 67.0902 51.8816 67.3775 52.316 67.4036C52.8565 67.4363 53.3949 67.4267 53.8159 66.9978C53.8329 66.9797 53.8802 66.9912 53.9349 66.9892C53.9455 67.1173 53.957 67.2459 53.9696 67.3855H54.5808C54.5808 66.4759 54.6029 65.6029 54.5733 64.732ZM52.9811 66.8807C52.6119 66.9194 52.2543 66.8114 52.2216 66.4347C52.1985 66.1635 52.3457 65.7355 52.5531 65.6185C52.9022 65.4216 53.3598 65.4166 53.8204 65.3206C53.8897 66.383 53.633 66.8119 52.9811 66.8802V66.8807Z" fill="#FF2B77"/>
<path d="M83.1683 64.9497C83.0422 64.0064 82.7288 63.4519 81.9231 63.3133C80.3444 63.043 79.7166 64.1611 79.6081 65.2938C79.5342 66.0522 79.8225 66.7338 80.4981 67.1678C81.3048 67.6872 82.122 67.5129 82.9277 67.1995C82.8845 67.0101 82.8518 66.8649 82.8131 66.6937C81.1516 67.2542 80.3635 66.5359 80.373 65.4987H83.1718C83.1718 65.2913 83.1919 65.118 83.1688 64.9497H83.1683ZM82.3993 64.9633H80.3324C80.692 64.0059 81.0853 63.694 81.7207 63.8316C82.1908 63.9336 82.4475 64.3535 82.3993 64.9633Z" fill="#FF2B77"/>
<path d="M73.7052 67.2941V63.441H74.3089C74.322 63.5701 74.3371 63.7253 74.3396 63.7489C74.7796 63.5978 75.2055 63.3577 75.6485 63.319C76.5466 63.2406 77.0087 63.7821 77.0846 64.8314C77.1433 65.6476 77.0811 66.4728 77.0725 67.2941C77.0363 67.3217 77.0002 67.3493 76.9635 67.3764C76.7742 67.3764 76.5848 67.3764 76.3417 67.3764C76.3417 66.6466 76.3487 65.9339 76.3372 65.2211C76.3337 65.0217 76.2905 64.8183 76.2377 64.6244C76.0649 63.992 75.8655 63.863 75.2025 63.9267C74.8394 63.9619 74.4516 64.4059 74.441 64.8545C74.424 65.6059 74.4365 66.3583 74.434 67.1102C74.434 67.1941 74.4149 67.2775 74.4029 67.3764H73.8132C73.777 67.3488 73.7409 67.3212 73.7052 67.2941Z" fill="#FF2B77"/>
<path d="M14.6445 67.2941V63.441H15.2483C15.2613 63.5701 15.2764 63.7253 15.2789 63.7489C15.7189 63.5978 16.1449 63.3577 16.5879 63.319C17.486 63.2406 17.9481 63.7816 18.0239 64.8314C18.0827 65.6476 18.0204 66.4728 18.0118 67.2941C17.9757 67.3217 17.9395 67.3493 17.9029 67.3764H17.281C17.281 66.6466 17.2881 65.9339 17.2765 65.2211C17.273 65.0217 17.2298 64.8183 17.1771 64.6244C17.0043 63.992 16.8049 63.863 16.1418 63.9268C15.7787 63.9619 15.3909 64.4059 15.3804 64.8545C15.3633 65.6059 15.3759 66.3583 15.3733 67.1102C15.3733 67.1941 15.3543 67.2775 15.3422 67.3764H14.7525C14.7164 67.3488 14.6802 67.3212 14.6445 67.2941Z" fill="#FF2B77"/>
<path d="M90.3369 67.3316C90.4334 67.0212 90.4891 66.8424 90.5333 66.7007C90.8869 66.764 91.2129 66.8444 91.5439 66.875C91.9025 66.9082 92.234 66.7801 92.2888 66.3938C92.3365 66.0598 92.1271 65.8328 91.787 65.7077C91.4821 65.5952 91.1742 65.45 90.9176 65.2542C90.1681 64.6821 90.3917 63.8121 91.1581 63.4354C91.7061 63.1657 92.3034 63.2184 92.8845 63.5303C92.8157 63.7157 92.7574 63.8724 92.6951 64.0391C92.445 63.9658 92.1989 63.8101 91.9975 63.8548C91.7081 63.9191 91.4515 64.13 91.1807 64.2782C91.3123 64.4741 91.4133 64.7041 91.5841 64.8558C91.7318 64.9869 91.9608 65.0246 92.1507 65.1115C92.8945 65.4526 93.1125 65.876 92.9488 66.6535C92.8529 67.1086 92.3476 67.4079 91.6549 67.3984C91.239 67.3924 90.8231 67.3577 90.3369 67.3326V67.3316Z" fill="#FF2B77"/>
<path d="M85.3989 67.3236C85.4954 67.0162 85.5516 66.8374 85.5923 66.7073C85.9685 66.7686 86.3136 66.855 86.6622 66.872C86.9912 66.8881 87.3448 66.7455 87.3358 66.3909C87.3302 66.1633 87.0876 65.8921 86.8807 65.7319C86.6135 65.5259 86.2232 65.4672 85.9831 65.2416C85.7556 65.0277 85.5391 64.6861 85.5225 64.3893C85.4964 63.9176 85.9881 63.3877 86.4613 63.338C86.9289 63.2887 87.4091 63.3651 87.9757 63.3902C87.8742 63.6976 87.8184 63.8659 87.7607 64.0412C87.5005 63.9653 87.2534 63.8086 87.0515 63.8543C86.7626 63.9196 86.5075 64.1331 86.2378 64.2828C86.3719 64.4777 86.4748 64.7097 86.6491 64.8569C86.8144 64.9965 87.0575 65.0417 87.2609 65.1397C87.9636 65.4777 88.1721 65.9067 88.0073 66.6581C87.9104 67.1006 87.4096 67.4075 86.7616 67.3969C86.3297 67.3899 85.8977 67.3512 85.3984 67.3231L85.3989 67.3236Z" fill="#FF2B77"/>
<path d="M20.9599 63.9248H20.3496V63.3225C20.5264 63.3105 20.7113 63.2974 20.9272 63.2828C21.0377 62.8559 20.7077 62.0819 21.6842 62.2702V63.3863H22.7093V63.9092H21.6952C21.6952 64.7138 21.6711 65.4788 21.7033 66.2413C21.7254 66.7647 22.0619 66.9621 22.6024 66.8581C22.6164 67.0274 22.629 67.1755 22.6466 67.3905C22.3653 67.4252 22.09 67.5231 21.8419 67.4769C21.2653 67.3704 20.9765 66.9385 20.9629 66.2297C20.9483 65.4808 20.9599 64.7314 20.9599 63.9248Z" fill="#FF2B77"/>
<path d="M6.64332 63.4272H7.27821V63.9677C7.48314 63.7844 7.65794 63.5654 7.88547 63.4423C8.09643 63.3283 8.36264 63.3172 8.6394 63.2524V63.7949C8.30187 63.9873 7.87995 64.0953 7.69963 64.365C7.48867 64.6809 7.43995 65.1335 7.4073 65.5333C7.36059 66.1074 7.39223 66.6881 7.38771 67.2662C7.38771 67.2968 7.36109 67.327 7.33849 67.3742H6.64282V63.4272H6.64332Z" fill="#FF2B77"/>
<path d="M25.2231 63.3506H25.9379V67.3623H25.2231V63.3506Z" fill="#FF2B77"/>
<path d="M11.7865 63.5128V67.3768H11.1798C11.1436 67.3492 11.1079 67.3221 11.0718 67.2945C11.0718 66.0237 11.0718 64.7529 11.0718 63.4229H11.7026C11.7308 63.453 11.7584 63.4826 11.7865 63.5128Z" fill="#FF2B77"/>
<path d="M70.1326 67.2945V63.4229H70.7634C70.7916 63.453 70.8192 63.4826 70.8473 63.5128V67.3768H70.2406C70.2044 67.3492 70.1687 67.3221 70.1326 67.2945Z" fill="#FF2B77"/>
<path d="M25.5934 61.6299C25.7878 61.9051 26.0073 62.0875 25.9761 62.202C25.9279 62.3818 25.6964 62.652 25.5688 62.6385C25.3845 62.6189 25.2242 62.3788 25.054 62.2331C25.1981 62.0719 25.3423 61.9107 25.5939 61.6299H25.5934Z" fill="#FF2B77"/>
<path d="M11.2875 61.748C11.7501 61.7807 11.8786 61.9751 11.7958 62.2528C11.7476 62.4146 11.5522 62.5326 11.4231 62.6707C11.2714 62.5241 11.0398 62.3975 10.9956 62.2232C10.9635 62.0976 11.1815 61.9088 11.2875 61.748Z" fill="#FF2B77"/>
<path d="M70.3359 61.7573C70.7513 61.787 70.8834 61.9045 70.8784 62.2295C70.8738 62.5313 70.7563 62.7368 70.465 62.6514C70.2912 62.6002 70.1053 62.3802 70.0536 62.1988C70.022 62.0873 70.2334 61.907 70.3359 61.7573Z" fill="#FF2B77"/>
<path d="M66.1393 53.7142C66.177 53.6871 66.2146 53.6594 66.2518 53.6323C66.2141 53.6594 66.1765 53.6871 66.1393 53.7142Z" fill="#FF2B77"/>
<path d="M44.8092 61.8467C44.7811 61.8763 44.753 61.9059 44.7249 61.9361C44.753 61.9064 44.7811 61.8768 44.8092 61.8467Z" fill="#FF2B77"/>
<path d="M14.6445 67.2944C14.6807 67.3221 14.7169 67.3497 14.7525 67.3768C14.7164 67.3492 14.6802 67.3216 14.6445 67.2944Z" fill="#FF2B77"/>
<path d="M17.9028 67.3773C17.939 67.3497 17.9752 67.322 18.0118 67.2949C17.9757 67.3225 17.9395 67.3502 17.9028 67.3773Z" fill="#FF2B77"/>
<path d="M73.7052 67.2944C73.7414 67.3221 73.7775 67.3497 73.8132 67.3768C73.777 67.3492 73.7409 67.3216 73.7052 67.2944Z" fill="#FF2B77"/>
<path d="M76.9636 67.3773C76.9998 67.3497 77.0359 67.322 77.0726 67.2949C77.0365 67.3225 77.0003 67.3502 76.9636 67.3773Z" fill="#FF2B77"/>
<path d="M63.7461 68.9723C63.7777 68.9703 63.8089 68.9733 63.8395 68.9803C63.8119 69.0049 63.7843 69.029 63.7566 69.0537C63.7531 69.0265 63.7501 68.9994 63.7466 68.9723H63.7461Z" fill="#FF2B77"/>
</g>
<defs>
<clipPath id="clip0_695_4772">
<rect width="93" height="69.0988" fill="white"/>
</clipPath>
</defs>
</svg>
