<svg width="1440" height="747" viewBox="0 0 1440 747" fill="none" xmlns="http://www.w3.org/2000/svg">
<g opacity="0.7">
<mask id="mask0_344_4016" style="mask-type:alpha" maskUnits="userSpaceOnUse" x="-22" y="-605" width="1507" height="1507">
<rect width="1505.95" height="1505.95" transform="translate(-21.4426 -604.58)" fill="url(#paint0_radial_344_4016)"/>
</mask>
<g mask="url(#mask0_344_4016)">
<g clip-path="url(#clip0_344_4016)">
<g opacity="0.5">
<g clip-path="url(#clip1_344_4016)">
<line x1="73.2694" y1="-604.58" x2="73.2694" y2="901.374" stroke="#264F88" stroke-width="1.17653"/>
<line x1="167.392" y1="-604.58" x2="167.392" y2="901.374" stroke="#264F88" stroke-width="1.17653"/>
<line x1="261.514" y1="-604.58" x2="261.514" y2="901.374" stroke="#264F88" stroke-width="1.17653"/>
<line x1="355.636" y1="-604.58" x2="355.636" y2="901.374" stroke="#264F88" stroke-width="1.17653"/>
<line x1="449.758" y1="-604.58" x2="449.758" y2="901.374" stroke="#264F88" stroke-width="1.17653"/>
<line x1="543.88" y1="-604.58" x2="543.88" y2="901.374" stroke="#264F88" stroke-width="1.17653"/>
<line x1="638.002" y1="-604.58" x2="638.002" y2="901.374" stroke="#264F88" stroke-width="1.17653"/>
<line x1="732.124" y1="-604.58" x2="732.124" y2="901.374" stroke="#264F88" stroke-width="1.17653"/>
<line x1="826.247" y1="-604.58" x2="826.247" y2="901.374" stroke="#264F88" stroke-width="1.17653"/>
<line x1="920.369" y1="-604.58" x2="920.369" y2="901.374" stroke="#264F88" stroke-width="1.17653"/>
<line x1="1014.49" y1="-604.58" x2="1014.49" y2="901.374" stroke="#264F88" stroke-width="1.17653"/>
<line x1="1108.61" y1="-604.58" x2="1108.61" y2="901.374" stroke="#264F88" stroke-width="1.17653"/>
<line x1="1202.74" y1="-604.58" x2="1202.74" y2="901.374" stroke="#264F88" stroke-width="1.17653"/>
<line x1="1296.86" y1="-604.58" x2="1296.86" y2="901.374" stroke="#264F88" stroke-width="1.17653"/>
<line x1="1390.98" y1="-604.58" x2="1390.98" y2="901.374" stroke="#264F88" stroke-width="1.17653"/>
</g>
<rect x="-20.4605" y="-603.6" width="1503.99" height="1503.99" stroke="#EAECF0" stroke-width="1.96088"/>
</g>
<g opacity="0.5">
<g clip-path="url(#clip2_344_4016)">
<line x1="-21.4417" y1="53.6871" x2="1484.51" y2="53.6871" stroke="#264F88" stroke-width="1.17653"/>
<rect x="-21.4417" y="148.397" width="96.083" height="94.1221" fill="#FF2B77"/>
<line x1="-21.4417" y1="336.053" x2="1484.51" y2="336.053" stroke="#264F88" stroke-width="1.17653"/>
<line x1="-21.9839" y1="241.244" x2="1483.97" y2="241.244" stroke="#264F88" stroke-width="1.17653"/>
<line x1="-25.6479" y1="149.641" x2="1480.31" y2="149.641" stroke="#264F88" stroke-width="1.17653"/>
<line x1="-21.4417" y1="430.175" x2="1484.51" y2="430.175" stroke="#264F88" stroke-width="1.17653"/>
<line x1="-21.4417" y1="524.297" x2="1484.51" y2="524.297" stroke="#264F88" stroke-width="1.17653"/>
<line x1="-21.4417" y1="618.42" x2="1484.51" y2="618.42" stroke="#264F88" stroke-width="1.17653"/>
<line x1="-21.4417" y1="712.542" x2="1484.51" y2="712.542" stroke="#264F88" stroke-width="1.17653"/>
</g>
<rect x="-20.4605" y="-603.6" width="1503.99" height="1692.24" stroke="#EAECF0" stroke-width="1.96088"/>
</g>
</g>
<path d="M449.17 132.71L449.17 164.084" stroke="url(#paint1_linear_344_4016)" stroke-width="1.96088"/>
<path d="M472.7 148.404L425.639 148.404" stroke="url(#paint2_linear_344_4016)" stroke-width="1.96088"/>
<path d="M1204.11 411.155L1204.11 446.451" stroke="url(#paint3_linear_344_4016)" stroke-width="1.96088"/>
<path d="M1221.75 428.803L1186.46 428.803" stroke="url(#paint4_linear_344_4016)" stroke-width="1.96088"/>
<path d="M1108.02 133.703L1108.02 165.077" stroke="url(#paint5_linear_344_4016)" stroke-width="1.96088"/>
<path d="M1123.71 149.396L1092.33 149.396" stroke="url(#paint6_linear_344_4016)" stroke-width="1.96088"/>
<path d="M357.01 318.993L357.01 354.289" stroke="url(#paint7_linear_344_4016)" stroke-width="1.96088"/>
<path d="M374.656 336.634L339.36 336.634" stroke="url(#paint8_linear_344_4016)" stroke-width="1.96088"/>
<path d="M919.781 28.7837L919.781 75.8448" stroke="url(#paint9_linear_344_4016)" stroke-width="1.96088"/>
<path d="M943.311 52.3145L896.25 52.3144" stroke="url(#paint10_linear_344_4016)" stroke-width="1.96088"/>
<circle cx="543.29" cy="54.2684" r="3.92176" fill="#264F88"/>
<circle cx="1015.86" cy="242.519" r="3.92176" fill="#264F88"/>
<circle cx="260.922" cy="148.397" r="3.92176" fill="#264F88"/>
<rect x="1013.9" y="-39.8398" width="96.083" height="94.1221" fill="#FF2B77"/>
<rect x="166.802" y="242.52" width="96.083" height="94.1221" fill="#FF2B77"/>
<rect x="1202" y="149" width="96" height="91" fill="url(#paint11_linear_344_4016)"/>
</g>
</g>
<defs>
<radialGradient id="paint0_radial_344_4016" cx="0" cy="0" r="1" gradientUnits="userSpaceOnUse" gradientTransform="translate(752.977 752.977) rotate(90) scale(752.977 752.977)">
<stop/>
<stop offset="1" stop-opacity="0"/>
</radialGradient>
<linearGradient id="paint1_linear_344_4016" x1="449.17" y1="164.084" x2="449.17" y2="132.71" gradientUnits="userSpaceOnUse">
<stop stop-color="#FF2B77" stop-opacity="0"/>
<stop offset="0.50284" stop-color="#FF2B77"/>
<stop offset="1" stop-color="#FF2B77" stop-opacity="0"/>
</linearGradient>
<linearGradient id="paint2_linear_344_4016" x1="425.639" y1="148.404" x2="472.7" y2="148.404" gradientUnits="userSpaceOnUse">
<stop stop-color="#FF2B77" stop-opacity="0"/>
<stop offset="0.50284" stop-color="#FF2B77"/>
<stop offset="1" stop-color="#FF2B77" stop-opacity="0"/>
</linearGradient>
<linearGradient id="paint3_linear_344_4016" x1="1204.11" y1="446.451" x2="1204.11" y2="411.155" gradientUnits="userSpaceOnUse">
<stop stop-color="#FF2B77" stop-opacity="0"/>
<stop offset="0.50284" stop-color="#FF2B77"/>
<stop offset="1" stop-color="#FF2B77" stop-opacity="0"/>
</linearGradient>
<linearGradient id="paint4_linear_344_4016" x1="1186.46" y1="428.803" x2="1221.75" y2="428.803" gradientUnits="userSpaceOnUse">
<stop stop-color="#FF2B77" stop-opacity="0"/>
<stop offset="0.50284" stop-color="#FF2B77"/>
<stop offset="1" stop-color="#FF2B77" stop-opacity="0"/>
</linearGradient>
<linearGradient id="paint5_linear_344_4016" x1="1108.02" y1="165.077" x2="1108.02" y2="133.703" gradientUnits="userSpaceOnUse">
<stop stop-color="#FF2B77" stop-opacity="0"/>
<stop offset="0.50284" stop-color="#FF2B77"/>
<stop offset="1" stop-color="#FF2B77" stop-opacity="0"/>
</linearGradient>
<linearGradient id="paint6_linear_344_4016" x1="1092.33" y1="149.396" x2="1123.71" y2="149.397" gradientUnits="userSpaceOnUse">
<stop stop-color="#FF2B77" stop-opacity="0"/>
<stop offset="0.50284" stop-color="#FF2B77"/>
<stop offset="1" stop-color="#FF2B77" stop-opacity="0"/>
</linearGradient>
<linearGradient id="paint7_linear_344_4016" x1="357.01" y1="354.289" x2="357.01" y2="318.993" gradientUnits="userSpaceOnUse">
<stop stop-color="#FF2B77" stop-opacity="0"/>
<stop offset="0.50284" stop-color="#FF2B77"/>
<stop offset="1" stop-color="#FF2B77" stop-opacity="0"/>
</linearGradient>
<linearGradient id="paint8_linear_344_4016" x1="339.36" y1="336.634" x2="374.656" y2="336.634" gradientUnits="userSpaceOnUse">
<stop stop-color="#FF2B77" stop-opacity="0"/>
<stop offset="0.50284" stop-color="#FF2B77"/>
<stop offset="1" stop-color="#FF2B77" stop-opacity="0"/>
</linearGradient>
<linearGradient id="paint9_linear_344_4016" x1="919.781" y1="75.8448" x2="919.781" y2="28.7837" gradientUnits="userSpaceOnUse">
<stop stop-color="#FF2B77" stop-opacity="0"/>
<stop offset="0.50284" stop-color="#FF2B77"/>
<stop offset="1" stop-color="#FF2B77" stop-opacity="0"/>
</linearGradient>
<linearGradient id="paint10_linear_344_4016" x1="896.25" y1="52.3144" x2="943.311" y2="52.3145" gradientUnits="userSpaceOnUse">
<stop stop-color="#FF2B77" stop-opacity="0"/>
<stop offset="0.50284" stop-color="#FF2B77"/>
<stop offset="1" stop-color="#FF2B77" stop-opacity="0"/>
</linearGradient>
<linearGradient id="paint11_linear_344_4016" x1="1250" y1="149" x2="1250" y2="240" gradientUnits="userSpaceOnUse">
<stop stop-color="#FF2B77"/>
<stop offset="1" stop-color="#FF0961"/>
</linearGradient>
<clipPath id="clip0_344_4016">
<rect width="1505.95" height="1505.95" fill="white" transform="translate(-21.4409 -604.58)"/>
</clipPath>
<clipPath id="clip1_344_4016">
<rect x="-21.4409" y="-604.58" width="1505.95" height="1505.95" fill="white"/>
</clipPath>
<clipPath id="clip2_344_4016">
<rect x="-21.4409" y="-604.58" width="1505.95" height="1694.2" fill="white"/>
</clipPath>
</defs>
</svg>
