<svg width="353" height="160" viewBox="0 0 353 160" fill="none" xmlns="http://www.w3.org/2000/svg">
<rect x="146.833" y="30.5" width="59" height="59" rx="29.5" stroke="url(#paint0_linear_240_3370)"/>
<rect x="146.833" y="30.5" width="59" height="59" rx="29.5" stroke="url(#paint1_linear_240_3370)"/>
<rect x="154.833" y="38.5" width="43" height="43" rx="21.5" stroke="url(#paint2_linear_240_3370)"/>
<rect x="154.833" y="38.5" width="43" height="43" rx="21.5" stroke="url(#paint3_linear_240_3370)"/>
<path fill-rule="evenodd" clip-rule="evenodd" d="M165.833 52.5C165.833 50.8431 167.176 49.5 168.833 49.5H170.205C171.065 49.5 171.815 50.0856 172.024 50.9202L173.13 55.3434C173.313 56.0753 173.039 56.8455 172.436 57.2982L171.142 58.2684C171.008 58.3691 170.979 58.5167 171.016 58.6197C172.152 61.7195 174.614 64.1815 177.714 65.317C177.817 65.3547 177.964 65.3255 178.065 65.1912L179.035 63.8976C179.488 63.2941 180.258 63.0206 180.99 63.2036L185.413 64.3094C186.248 64.518 186.833 65.268 186.833 66.1284V67.5C186.833 69.1569 185.49 70.5 183.833 70.5H181.583C172.885 70.5 165.833 63.4485 165.833 54.75V52.5Z" fill="#FF2B77"/>
<path d="M116.023 117.296H112.759V120.576H111.607V117.296H108.327V116.144H111.591V112.88H112.743V116.144H116.023V117.296ZM123.675 120.768L123.899 122H117.499V120.768H119.947V112.512L117.851 113.696L117.387 112.544L120.107 111.04H121.435V120.768H123.675ZM132.811 108.72C132.181 109.499 131.573 110.608 130.987 112.048C130.411 113.477 130.123 114.981 130.123 116.56C130.123 118.139 130.411 119.648 130.987 121.088C131.573 122.517 132.181 123.621 132.811 124.4H131.787C131.531 124.144 131.248 123.787 130.939 123.328C130.64 122.869 130.315 122.304 129.963 121.632C129.621 120.96 129.333 120.176 129.099 119.28C128.875 118.373 128.763 117.467 128.763 116.56C128.763 115.653 128.875 114.752 129.099 113.856C129.333 112.949 129.621 112.16 129.963 111.488C130.315 110.816 130.64 110.251 130.939 109.792C131.248 109.333 131.531 108.976 131.787 108.72H132.811ZM139.91 120.768L140.134 122H133.734V120.768H136.182V112.512L134.086 113.696L133.622 112.544L136.342 111.04H137.67V120.768H139.91ZM141.585 112.032C142.823 111.317 144.001 110.96 145.121 110.96C146.231 110.96 147.148 111.216 147.873 111.728C148.609 112.24 148.977 112.992 148.977 113.984C148.977 114.453 148.865 114.896 148.641 115.312C148.417 115.717 148.129 116.069 147.777 116.368C147.425 116.667 147.031 116.955 146.593 117.232C146.167 117.499 145.735 117.76 145.297 118.016C144.871 118.272 144.481 118.533 144.129 118.8C143.777 119.056 143.489 119.349 143.265 119.68C143.041 120.011 142.929 120.363 142.929 120.736H148.977L149.185 122H141.297V121.152C141.297 120.587 141.409 120.069 141.633 119.6C141.857 119.131 142.151 118.736 142.513 118.416C142.876 118.085 143.276 117.781 143.713 117.504C144.151 117.216 144.588 116.949 145.025 116.704C145.473 116.459 145.879 116.213 146.241 115.968C146.604 115.712 146.897 115.424 147.121 115.104C147.345 114.773 147.457 114.421 147.457 114.048C147.457 113.419 147.223 112.949 146.753 112.64C146.284 112.32 145.692 112.16 144.977 112.16C144.103 112.16 143.068 112.517 141.873 113.232L141.585 112.032ZM155.966 116.336C157.576 116.731 158.382 117.627 158.382 119.024C158.382 120.016 158.024 120.789 157.31 121.344C156.595 121.888 155.582 122.16 154.27 122.16C152.691 122.16 151.395 121.856 150.382 121.248L150.83 120.176C151.971 120.709 153.038 120.976 154.03 120.976C155.939 120.976 156.894 120.288 156.894 118.912C156.894 118.251 156.643 117.749 156.142 117.408C155.64 117.067 154.942 116.896 154.046 116.896H152.926V115.792H154.046C154.899 115.771 155.544 115.6 155.982 115.28C156.419 114.949 156.638 114.501 156.638 113.936C156.638 112.72 155.843 112.112 154.254 112.112C153.379 112.112 152.371 112.379 151.23 112.912L150.782 111.84C151.848 111.232 153.08 110.928 154.478 110.928C155.587 110.928 156.462 111.179 157.102 111.68C157.742 112.181 158.062 112.896 158.062 113.824C158.062 115.104 157.363 115.941 155.966 116.336ZM159.314 124.4C159.943 123.6 160.546 122.485 161.122 121.056C161.708 119.627 162.002 118.128 162.002 116.56C162.002 114.992 161.708 113.493 161.122 112.064C160.546 110.635 159.943 109.52 159.314 108.72H160.338C160.594 108.976 160.871 109.333 161.17 109.792C161.479 110.251 161.804 110.816 162.146 111.488C162.487 112.16 162.77 112.949 162.994 113.856C163.228 114.752 163.346 115.653 163.346 116.56C163.346 117.467 163.228 118.373 162.994 119.28C162.77 120.176 162.487 120.96 162.146 121.632C161.804 122.304 161.479 122.869 161.17 123.328C160.871 123.787 160.594 124.144 160.338 124.4H159.314ZM177.52 119.6H175.712V122H174.208V119.6H168.464V118.432L174.192 111.12H175.712V118.432H177.52V119.6ZM174.208 118.432V112.976L169.968 118.432H174.208ZM179.488 111.12H186.032L185.824 112.336H180.752L180.592 115.488C181.392 115.328 182.112 115.248 182.752 115.248C183.968 115.248 184.912 115.547 185.584 116.144C186.256 116.741 186.592 117.531 186.592 118.512C186.592 119.664 186.213 120.56 185.456 121.2C184.709 121.84 183.674 122.16 182.352 122.16C180.848 122.16 179.584 121.856 178.56 121.248L179.008 120.176C180.17 120.709 181.205 120.976 182.112 120.976C183.05 120.976 183.776 120.773 184.288 120.368C184.81 119.963 185.072 119.355 185.072 118.544C185.072 117.872 184.821 117.344 184.32 116.96C183.829 116.565 183.146 116.368 182.272 116.368C181.312 116.368 180.293 116.517 179.216 116.816L179.488 111.12ZM195.485 112.752C194.738 112.336 193.954 112.128 193.133 112.128C192.024 112.128 191.176 112.517 190.589 113.296C190.013 114.075 189.725 115.227 189.725 116.752C190.162 116.187 190.701 115.781 191.341 115.536C191.981 115.291 192.594 115.168 193.181 115.168C194.248 115.168 195.09 115.488 195.709 116.128C196.338 116.757 196.653 117.536 196.653 118.464C196.653 119.488 196.306 120.363 195.613 121.088C194.92 121.803 193.933 122.16 192.653 122.16C191.224 122.16 190.12 121.68 189.341 120.72C188.573 119.749 188.189 118.448 188.189 116.816C188.189 116.219 188.242 115.648 188.349 115.104C188.456 114.549 188.632 114.021 188.877 113.52C189.122 113.008 189.421 112.565 189.773 112.192C190.136 111.819 190.589 111.52 191.133 111.296C191.677 111.072 192.285 110.96 192.957 110.96C194.088 110.96 195.085 111.195 195.949 111.664L195.485 112.752ZM189.805 117.808C189.837 118.661 190.093 119.403 190.573 120.032C191.064 120.661 191.752 120.976 192.637 120.976C193.362 120.976 193.96 120.747 194.429 120.288C194.898 119.819 195.133 119.237 195.133 118.544C195.133 117.851 194.909 117.296 194.461 116.88C194.024 116.453 193.442 116.24 192.717 116.24C192.109 116.24 191.533 116.395 190.989 116.704C190.456 117.003 190.061 117.371 189.805 117.808ZM198.505 117.936V116.784H203.961V117.936H198.505ZM206.934 122L211.606 112.336H205.51L205.734 111.12H213.142V112.192L208.39 122H206.934ZM220.602 116.416C221.317 116.661 221.877 116.987 222.282 117.392C222.687 117.787 222.89 118.336 222.89 119.04C222.89 120.021 222.479 120.789 221.658 121.344C220.837 121.888 219.791 122.16 218.522 122.16C217.263 122.16 216.234 121.909 215.434 121.408C214.634 120.896 214.234 120.165 214.234 119.216C214.234 118.587 214.437 118.027 214.842 117.536C215.247 117.035 215.775 116.635 216.426 116.336C215.402 115.792 214.89 114.96 214.89 113.84C214.89 112.923 215.237 112.213 215.93 111.712C216.634 111.211 217.53 110.96 218.618 110.96C219.653 110.96 220.511 111.211 221.194 111.712C221.887 112.203 222.234 112.891 222.234 113.776C222.234 114.885 221.69 115.765 220.602 116.416ZM220.266 112.576C219.882 112.245 219.317 112.08 218.57 112.08C217.823 112.08 217.253 112.245 216.858 112.576C216.463 112.896 216.266 113.307 216.266 113.808C216.266 114.032 216.298 114.24 216.362 114.432C216.426 114.613 216.543 114.779 216.714 114.928C216.885 115.067 217.034 115.184 217.162 115.28C217.29 115.376 217.509 115.477 217.818 115.584C218.127 115.691 218.346 115.765 218.474 115.808C218.613 115.84 218.869 115.909 219.242 116.016C219.37 116.048 219.466 116.075 219.53 116.096C220.415 115.467 220.858 114.704 220.858 113.808C220.858 113.307 220.661 112.896 220.266 112.576ZM218.538 121.04C219.349 121.04 220.021 120.859 220.554 120.496C221.087 120.133 221.354 119.643 221.354 119.024C221.354 118.789 221.295 118.576 221.178 118.384C221.071 118.192 220.933 118.037 220.762 117.92C220.602 117.803 220.378 117.691 220.09 117.584C219.813 117.467 219.557 117.376 219.322 117.312C219.087 117.237 218.789 117.152 218.426 117.056C218.063 116.949 217.765 116.859 217.53 116.784C216.357 117.381 215.77 118.117 215.77 118.992C215.77 119.621 216.015 120.123 216.506 120.496C216.997 120.859 217.674 121.04 218.538 121.04ZM225.67 120.352C226.384 120.768 227.168 120.976 228.022 120.976C229.131 120.976 229.979 120.592 230.566 119.824C231.152 119.045 231.446 117.893 231.446 116.368C231.008 116.923 230.464 117.328 229.814 117.584C229.174 117.829 228.566 117.952 227.99 117.952C226.912 117.952 226.059 117.637 225.43 117.008C224.811 116.368 224.502 115.584 224.502 114.656C224.502 113.621 224.848 112.747 225.542 112.032C226.235 111.317 227.227 110.96 228.518 110.96C229.936 110.96 231.03 111.445 231.798 112.416C232.576 113.376 232.966 114.672 232.966 116.304C232.966 116.901 232.912 117.477 232.806 118.032C232.699 118.576 232.523 119.104 232.278 119.616C232.032 120.117 231.728 120.555 231.366 120.928C231.014 121.301 230.566 121.6 230.022 121.824C229.478 122.048 228.875 122.16 228.214 122.16C227.072 122.16 226.07 121.92 225.206 121.44L225.67 120.352ZM231.35 115.312C231.318 114.459 231.056 113.717 230.566 113.088C230.086 112.448 229.398 112.128 228.502 112.128C227.787 112.128 227.195 112.363 226.726 112.832C226.256 113.291 226.022 113.867 226.022 114.56C226.022 115.264 226.24 115.829 226.678 116.256C227.126 116.672 227.712 116.88 228.438 116.88C229.046 116.88 229.616 116.731 230.15 116.432C230.683 116.133 231.083 115.76 231.35 115.312ZM242.962 120.592C242.13 121.637 240.951 122.16 239.426 122.16C237.901 122.16 236.722 121.637 235.89 120.592C235.069 119.547 234.658 118.203 234.658 116.56C234.658 114.917 235.069 113.573 235.89 112.528C236.722 111.483 237.901 110.96 239.426 110.96C240.951 110.96 242.13 111.488 242.962 112.544C243.794 113.589 244.21 114.928 244.21 116.56C244.21 118.203 243.794 119.547 242.962 120.592ZM241.842 113.344C241.287 112.555 240.482 112.16 239.426 112.16C238.37 112.16 237.565 112.555 237.01 113.344C236.455 114.133 236.178 115.205 236.178 116.56C236.178 117.915 236.455 118.987 237.01 119.776C237.565 120.565 238.37 120.96 239.426 120.96C240.482 120.96 241.287 120.565 241.842 119.776C242.407 118.987 242.69 117.915 242.69 116.56C242.69 115.205 242.407 114.133 241.842 113.344Z" fill="#3B4057"/>
<path d="M312.375 41.125L328.625 24.875M328.625 24.875L316.437 24.875M328.625 24.875V37.0625" stroke="#4D4D4D" stroke-width="1.5" stroke-linecap="round" stroke-linejoin="round"/>
<defs>
<linearGradient id="paint0_linear_240_3370" x1="151.272" y1="93.2927" x2="209.077" y2="25.9756" gradientUnits="userSpaceOnUse">
<stop stop-color="#FF2B77"/>
<stop offset="0.323723" stop-color="#FF2B77" stop-opacity="0.03"/>
</linearGradient>
<linearGradient id="paint1_linear_240_3370" x1="206.15" y1="22.3171" x2="151.272" y2="90" gradientUnits="userSpaceOnUse">
<stop stop-color="#FF2B77"/>
<stop offset="0.576615" stop-color="#FF2B77" stop-opacity="0.01"/>
</linearGradient>
<linearGradient id="paint2_linear_240_3370" x1="149.543" y1="40.4839" x2="198.156" y2="82" gradientUnits="userSpaceOnUse">
<stop stop-color="#FF2B77"/>
<stop offset="0.323723" stop-color="#FF2B77" stop-opacity="0"/>
</linearGradient>
<linearGradient id="paint3_linear_240_3370" x1="207.027" y1="91.9355" x2="155.93" y2="55.7419" gradientUnits="userSpaceOnUse">
<stop stop-color="#FF2B77"/>
<stop offset="0.576615" stop-color="#FF2B77" stop-opacity="0"/>
</linearGradient>
</defs>
</svg>
