<svg width="353" height="160" viewBox="0 0 353 160" fill="none" xmlns="http://www.w3.org/2000/svg">
<rect x="146.833" y="30.5" width="59" height="59" rx="29.5" stroke="url(#paint0_linear_240_3362)"/>
<rect x="146.833" y="30.5" width="59" height="59" rx="29.5" stroke="url(#paint1_linear_240_3362)"/>
<rect x="154.833" y="38.5" width="43" height="43" rx="21.5" stroke="url(#paint2_linear_240_3362)"/>
<rect x="154.833" y="38.5" width="43" height="43" rx="21.5" stroke="url(#paint3_linear_240_3362)"/>
<path d="M165.833 56.6691V65.25C165.833 66.9069 167.176 68.25 168.833 68.25H183.833C185.49 68.25 186.833 66.9069 186.833 65.25V56.6691L177.906 62.1631C176.941 62.7564 175.725 62.7564 174.761 62.1631L165.833 56.6691Z" fill="#FF2B77"/>
<path d="M186.833 54.9078V54.75C186.833 53.0931 185.49 51.75 183.833 51.75H168.833C167.176 51.75 165.833 53.0931 165.833 54.75V54.9078L175.547 60.8856C176.029 61.1823 176.637 61.1823 177.119 60.8856L186.833 54.9078Z" fill="#FF2B77"/>
<path d="M82.6654 121.04C83.4654 121.04 84.3027 120.821 85.1774 120.384L85.4494 121.456C84.5321 121.925 83.5667 122.16 82.5534 122.16C81.2414 122.16 80.1961 121.787 79.4174 121.04C78.6494 120.283 78.2654 119.269 78.2654 118C78.2654 116.731 78.6494 115.723 79.4174 114.976C80.1961 114.219 81.2414 113.84 82.5534 113.84C83.5667 113.84 84.5321 114.075 85.4494 114.544L85.1774 115.616C84.3027 115.179 83.4654 114.96 82.6654 114.96C81.7907 114.96 81.0814 115.232 80.5374 115.776C80.0041 116.32 79.7374 117.061 79.7374 118C79.7374 118.939 80.0041 119.68 80.5374 120.224C81.0814 120.768 81.7907 121.04 82.6654 121.04ZM91.085 113.84C92.397 113.84 93.437 114.24 94.205 115.04C94.9837 115.829 95.373 116.816 95.373 118C95.373 119.184 94.9837 120.176 94.205 120.976C93.437 121.765 92.397 122.16 91.085 122.16C89.7517 122.16 88.701 121.765 87.933 120.976C87.165 120.176 86.781 119.184 86.781 118C86.781 116.816 87.165 115.829 87.933 115.04C88.701 114.24 89.7517 113.84 91.085 113.84ZM91.069 121.04C91.965 121.04 92.6583 120.747 93.149 120.16C93.6503 119.563 93.901 118.843 93.901 118C93.901 117.168 93.6503 116.453 93.149 115.856C92.6583 115.259 91.965 114.96 91.069 114.96C90.173 114.96 89.4797 115.259 88.989 115.856C88.4983 116.443 88.253 117.157 88.253 118C88.253 118.853 88.493 119.573 88.973 120.16C89.4637 120.747 90.1623 121.04 91.069 121.04ZM101.546 113.84C102.474 113.84 103.189 114.096 103.69 114.608C104.191 115.12 104.442 115.84 104.442 116.768V122H103.002V116.8C103.002 116.213 102.831 115.76 102.49 115.44C102.149 115.12 101.663 114.96 101.034 114.96C100.17 114.96 99.418 115.344 98.778 116.112V122H97.338V114H98.666L98.778 115.216C99.45 114.299 100.373 113.84 101.546 113.84ZM108.761 111.12V114H111.593V115.12H108.761V119.776C108.761 120.619 109.257 121.04 110.249 121.04C110.676 121.04 111.108 120.955 111.545 120.784L111.753 121.84C111.177 122.053 110.548 122.16 109.865 122.16C108.99 122.16 108.345 121.952 107.929 121.536C107.524 121.109 107.321 120.533 107.321 119.808V115.12H106.009V114H107.321V111.392L108.761 111.12ZM120.436 121.056C120.681 121.056 120.884 121.019 121.044 120.944V122C120.745 122.107 120.399 122.16 120.004 122.16C119.001 122.16 118.436 121.707 118.308 120.8C117.551 121.707 116.543 122.16 115.284 122.16C114.441 122.16 113.769 121.947 113.268 121.52C112.767 121.083 112.516 120.523 112.516 119.84C112.516 118.955 112.863 118.293 113.556 117.856C114.249 117.419 115.156 117.2 116.276 117.2C116.895 117.2 117.561 117.248 118.276 117.344V116.64C118.276 116.149 118.095 115.749 117.732 115.44C117.369 115.12 116.815 114.96 116.068 114.96C115.065 114.96 114.095 115.184 113.156 115.632L112.884 114.512C113.801 114.064 114.916 113.84 116.228 113.84C117.369 113.84 118.233 114.101 118.82 114.624C119.417 115.136 119.716 115.835 119.716 116.72V120.192C119.716 120.48 119.764 120.699 119.86 120.848C119.967 120.987 120.159 121.056 120.436 121.056ZM115.732 121.04C116.692 121.04 117.54 120.624 118.276 119.792V118.416C117.711 118.32 117.076 118.272 116.372 118.272C114.783 118.272 113.988 118.736 113.988 119.664C113.988 120.091 114.143 120.427 114.452 120.672C114.772 120.917 115.199 121.04 115.732 121.04ZM126.228 121.04C127.028 121.04 127.865 120.821 128.74 120.384L129.012 121.456C128.095 121.925 127.129 122.16 126.116 122.16C124.804 122.16 123.759 121.787 122.98 121.04C122.212 120.283 121.828 119.269 121.828 118C121.828 116.731 122.212 115.723 122.98 114.976C123.759 114.219 124.804 113.84 126.116 113.84C127.129 113.84 128.095 114.075 129.012 114.544L128.74 115.616C127.865 115.179 127.028 114.96 126.228 114.96C125.353 114.96 124.644 115.232 124.1 115.776C123.567 116.32 123.3 117.061 123.3 118C123.3 118.939 123.567 119.68 124.1 120.224C124.644 120.768 125.353 121.04 126.228 121.04ZM132.839 111.12V114H135.671V115.12H132.839V119.776C132.839 120.619 133.335 121.04 134.327 121.04C134.754 121.04 135.186 120.955 135.623 120.784L135.831 121.84C135.255 122.053 134.626 122.16 133.943 122.16C133.068 122.16 132.423 121.952 132.007 121.536C131.602 121.109 131.399 120.533 131.399 119.808V115.12H130.087V114H131.399V111.392L132.839 111.12ZM147.81 115.328V121.952H146.466V120.544C146.22 121.045 145.858 121.435 145.378 121.712C144.898 121.979 144.359 122.112 143.762 122.112C142.706 122.112 141.879 121.755 141.282 121.04C140.684 120.315 140.386 119.328 140.386 118.08C140.386 116.832 140.684 115.851 141.282 115.136C141.879 114.421 142.706 114.064 143.762 114.064C144.359 114.064 144.898 114.197 145.378 114.464C145.858 114.731 146.22 115.115 146.466 115.616V115.264C146.466 114.155 146.162 113.339 145.554 112.816C144.956 112.283 144.146 112.016 143.122 112.016C141.607 112.016 140.359 112.528 139.378 113.552C138.396 114.576 137.906 116.037 137.906 117.936C137.906 119.909 138.402 121.429 139.394 122.496C140.386 123.563 141.767 124.096 143.538 124.096V125.2C141.33 125.2 139.612 124.539 138.386 123.216C137.17 121.893 136.562 120.133 136.562 117.936C136.562 115.824 137.164 114.133 138.37 112.864C139.575 111.595 141.159 110.96 143.122 110.96C144.615 110.96 145.767 111.339 146.578 112.096C147.399 112.843 147.81 113.92 147.81 115.328ZM146.482 118.08C146.482 117.109 146.252 116.373 145.794 115.872C145.346 115.36 144.786 115.104 144.114 115.104C143.346 115.104 142.77 115.381 142.386 115.936C142.002 116.48 141.81 117.195 141.81 118.08C141.81 118.965 142.002 119.685 142.386 120.24C142.77 120.784 143.346 121.056 144.114 121.056C144.786 121.056 145.346 120.805 145.794 120.304C146.252 119.792 146.482 119.051 146.482 118.08ZM156.235 114H157.755L153.771 122.736C153.323 123.739 152.838 124.48 152.315 124.96C151.803 125.44 151.137 125.68 150.315 125.68C149.814 125.68 149.398 125.616 149.067 125.488L149.275 124.416C149.638 124.512 149.974 124.56 150.283 124.56C150.731 124.56 151.115 124.427 151.435 124.16C151.755 123.893 152.081 123.419 152.411 122.736L152.779 121.952L149.163 114H150.683L153.515 120.272L156.235 114ZM166.796 121.056C167.041 121.056 167.244 121.019 167.404 120.944V122C167.105 122.107 166.758 122.16 166.364 122.16C165.361 122.16 164.796 121.707 164.668 120.8C163.91 121.707 162.902 122.16 161.644 122.16C160.801 122.16 160.129 121.947 159.628 121.52C159.126 121.083 158.876 120.523 158.876 119.84C158.876 118.955 159.222 118.293 159.916 117.856C160.609 117.419 161.516 117.2 162.636 117.2C163.254 117.2 163.921 117.248 164.636 117.344V116.64C164.636 116.149 164.454 115.749 164.092 115.44C163.729 115.12 163.174 114.96 162.428 114.96C161.425 114.96 160.454 115.184 159.516 115.632L159.244 114.512C160.161 114.064 161.276 113.84 162.588 113.84C163.729 113.84 164.593 114.101 165.18 114.624C165.777 115.136 166.076 115.835 166.076 116.72V120.192C166.076 120.48 166.124 120.699 166.22 120.848C166.326 120.987 166.518 121.056 166.796 121.056ZM162.092 121.04C163.052 121.04 163.9 120.624 164.636 119.792V118.416C164.07 118.32 163.436 118.272 162.732 118.272C161.142 118.272 160.348 118.736 160.348 119.664C160.348 120.091 160.502 120.427 160.812 120.672C161.132 120.917 161.558 121.04 162.092 121.04ZM168.619 122V110.528L170.059 110.32V122H168.619ZM172.463 122V110.528L173.903 110.32V122H172.463ZM183.827 121.056C184.072 121.056 184.275 121.019 184.435 120.944V122C184.136 122.107 183.789 122.16 183.395 122.16C182.392 122.16 181.827 121.707 181.699 120.8C180.941 121.707 179.933 122.16 178.675 122.16C177.832 122.16 177.16 121.947 176.659 121.52C176.157 121.083 175.907 120.523 175.907 119.84C175.907 118.955 176.253 118.293 176.947 117.856C177.64 117.419 178.547 117.2 179.667 117.2C180.285 117.2 180.952 117.248 181.667 117.344V116.64C181.667 116.149 181.485 115.749 181.123 115.44C180.76 115.12 180.205 114.96 179.459 114.96C178.456 114.96 177.485 115.184 176.547 115.632L176.275 114.512C177.192 114.064 178.307 113.84 179.619 113.84C180.76 113.84 181.624 114.101 182.211 114.624C182.808 115.136 183.107 115.835 183.107 116.72V120.192C183.107 120.48 183.155 120.699 183.251 120.848C183.357 120.987 183.549 121.056 183.827 121.056ZM179.123 121.04C180.083 121.04 180.931 120.624 181.667 119.792V118.416C181.101 118.32 180.467 118.272 179.763 118.272C178.173 118.272 177.379 118.736 177.379 119.664C177.379 120.091 177.533 120.427 177.843 120.672C178.163 120.917 178.589 121.04 179.123 121.04ZM189.619 121.04C190.419 121.04 191.256 120.821 192.131 120.384L192.403 121.456C191.485 121.925 190.52 122.16 189.507 122.16C188.195 122.16 187.149 121.787 186.371 121.04C185.603 120.283 185.219 119.269 185.219 118C185.219 116.731 185.603 115.723 186.371 114.976C187.149 114.219 188.195 113.84 189.507 113.84C190.52 113.84 191.485 114.075 192.403 114.544L192.131 115.616C191.256 115.179 190.419 114.96 189.619 114.96C188.744 114.96 188.035 115.232 187.491 115.776C186.957 116.32 186.691 117.061 186.691 118C186.691 118.939 186.957 119.68 187.491 120.224C188.035 120.768 188.744 121.04 189.619 121.04ZM198.421 113.84C199.349 113.84 200.064 114.096 200.565 114.608C201.066 115.12 201.317 115.84 201.317 116.768V122H199.877V116.8C199.877 116.213 199.706 115.76 199.365 115.44C199.024 115.12 198.538 114.96 197.909 114.96C197.045 114.96 196.293 115.344 195.653 116.112V122H194.213V110.528L195.653 110.32V115.216C196.325 114.299 197.248 113.84 198.421 113.84ZM211.043 117.76C211.043 118.08 211.038 118.304 211.027 118.432H204.707C204.792 119.264 205.086 119.915 205.587 120.384C206.099 120.853 206.798 121.088 207.683 121.088C208.643 121.088 209.555 120.869 210.419 120.432L210.691 121.456C209.784 121.925 208.75 122.16 207.587 122.16C206.168 122.16 205.08 121.792 204.323 121.056C203.576 120.309 203.203 119.291 203.203 118C203.203 116.731 203.576 115.723 204.323 114.976C205.07 114.219 206.072 113.84 207.331 113.84C208.024 113.84 208.616 113.947 209.107 114.16C209.608 114.373 209.992 114.672 210.259 115.056C210.536 115.44 210.734 115.856 210.851 116.304C210.979 116.741 211.043 117.227 211.043 117.76ZM204.723 117.376H209.603C209.592 116.619 209.416 116.016 209.075 115.568C208.744 115.12 208.147 114.896 207.283 114.896C206.59 114.896 206.014 115.115 205.555 115.552C205.096 115.979 204.819 116.587 204.723 117.376ZM220.434 117.76C220.434 118.08 220.428 118.304 220.418 118.432H214.098C214.183 119.264 214.476 119.915 214.978 120.384C215.49 120.853 216.188 121.088 217.074 121.088C218.034 121.088 218.946 120.869 219.81 120.432L220.082 121.456C219.175 121.925 218.14 122.16 216.978 122.16C215.559 122.16 214.471 121.792 213.714 121.056C212.967 120.309 212.594 119.291 212.594 118C212.594 116.731 212.967 115.723 213.714 114.976C214.46 114.219 215.463 113.84 216.722 113.84C217.415 113.84 218.007 113.947 218.498 114.16C218.999 114.373 219.383 114.672 219.65 115.056C219.927 115.44 220.124 115.856 220.242 116.304C220.37 116.741 220.434 117.227 220.434 117.76ZM214.114 117.376H218.994C218.983 116.619 218.807 116.016 218.466 115.568C218.135 115.12 217.538 114.896 216.674 114.896C215.98 114.896 215.404 115.115 214.946 115.552C214.487 115.979 214.21 116.587 214.114 117.376ZM223.504 116.08C223.504 116.432 223.675 116.709 224.016 116.912C224.357 117.104 224.768 117.253 225.248 117.36C225.739 117.456 226.224 117.573 226.704 117.712C227.184 117.84 227.595 118.069 227.936 118.4C228.277 118.72 228.448 119.152 228.448 119.696C228.448 120.507 228.16 121.12 227.584 121.536C227.008 121.952 226.192 122.16 225.136 122.16C223.845 122.16 222.768 121.931 221.904 121.472L222.192 120.384C223.099 120.843 224.069 121.072 225.104 121.072C226.352 121.072 226.976 120.629 226.976 119.744C226.976 119.392 226.805 119.115 226.464 118.912C226.133 118.709 225.723 118.56 225.232 118.464C224.752 118.357 224.267 118.24 223.776 118.112C223.296 117.973 222.885 117.739 222.544 117.408C222.213 117.067 222.048 116.624 222.048 116.08C222.048 115.333 222.331 114.773 222.896 114.4C223.461 114.027 224.224 113.84 225.184 113.84C226.475 113.84 227.552 114.064 228.416 114.512L228.144 115.6C227.259 115.152 226.283 114.928 225.216 114.928C224.075 114.928 223.504 115.312 223.504 116.08ZM237.746 117.76C237.746 118.08 237.741 118.304 237.73 118.432H231.41C231.495 119.264 231.789 119.915 232.29 120.384C232.802 120.853 233.501 121.088 234.386 121.088C235.346 121.088 236.258 120.869 237.122 120.432L237.394 121.456C236.487 121.925 235.453 122.16 234.29 122.16C232.871 122.16 231.783 121.792 231.026 121.056C230.279 120.309 229.906 119.291 229.906 118C229.906 116.731 230.279 115.723 231.026 114.976C231.773 114.219 232.775 113.84 234.034 113.84C234.727 113.84 235.319 113.947 235.81 114.16C236.311 114.373 236.695 114.672 236.962 115.056C237.239 115.44 237.437 115.856 237.554 116.304C237.682 116.741 237.746 117.227 237.746 117.76ZM231.426 117.376H236.306C236.295 116.619 236.119 116.016 235.778 115.568C235.447 115.12 234.85 114.896 233.986 114.896C233.293 114.896 232.717 115.115 232.258 115.552C231.799 115.979 231.522 116.587 231.426 117.376ZM240.753 122H239.345V120.576H240.753V122ZM246.744 121.04C247.544 121.04 248.381 120.821 249.256 120.384L249.528 121.456C248.61 121.925 247.645 122.16 246.632 122.16C245.32 122.16 244.274 121.787 243.496 121.04C242.728 120.283 242.344 119.269 242.344 118C242.344 116.731 242.728 115.723 243.496 114.976C244.274 114.219 245.32 113.84 246.632 113.84C247.645 113.84 248.61 114.075 249.528 114.544L249.256 115.616C248.381 115.179 247.544 114.96 246.744 114.96C245.869 114.96 245.16 115.232 244.616 115.776C244.082 116.32 243.816 117.061 243.816 118C243.816 118.939 244.082 119.68 244.616 120.224C245.16 120.768 245.869 121.04 246.744 121.04ZM255.163 113.84C256.475 113.84 257.515 114.24 258.283 115.04C259.062 115.829 259.451 116.816 259.451 118C259.451 119.184 259.062 120.176 258.283 120.976C257.515 121.765 256.475 122.16 255.163 122.16C253.83 122.16 252.779 121.765 252.011 120.976C251.243 120.176 250.859 119.184 250.859 118C250.859 116.816 251.243 115.829 252.011 115.04C252.779 114.24 253.83 113.84 255.163 113.84ZM255.147 121.04C256.043 121.04 256.736 120.747 257.227 120.16C257.728 119.563 257.979 118.843 257.979 118C257.979 117.168 257.728 116.453 257.227 115.856C256.736 115.259 256.043 114.96 255.147 114.96C254.251 114.96 253.558 115.259 253.067 115.856C252.576 116.443 252.331 117.157 252.331 118C252.331 118.853 252.571 119.573 253.051 120.16C253.542 120.747 254.24 121.04 255.147 121.04ZM271.16 113.84C272.088 113.84 272.803 114.096 273.304 114.608C273.805 115.12 274.056 115.84 274.056 116.768V122H272.616V116.8C272.616 116.213 272.445 115.76 272.104 115.44C271.763 115.12 271.277 114.96 270.648 114.96C269.784 114.96 269.037 115.344 268.408 116.112C268.44 116.315 268.456 116.533 268.456 116.768V122H267.016V116.8C267.016 116.213 266.845 115.76 266.504 115.44C266.163 115.12 265.677 114.96 265.048 114.96C264.216 114.96 263.485 115.344 262.856 116.112V122H261.416V114H262.744L262.856 115.216C263.528 114.299 264.429 113.84 265.56 113.84C266.947 113.84 267.837 114.373 268.232 115.44C268.936 114.373 269.912 113.84 271.16 113.84Z" fill="#3B4057"/>
<path d="M311.875 41.125L328.125 24.875M328.125 24.875L315.937 24.875M328.125 24.875V37.0625" stroke="#4D4D4D" stroke-width="1.5" stroke-linecap="round" stroke-linejoin="round"/>
<defs>
<linearGradient id="paint0_linear_240_3362" x1="151.272" y1="93.2927" x2="209.077" y2="25.9756" gradientUnits="userSpaceOnUse">
<stop stop-color="#FF2B77"/>
<stop offset="0.323723" stop-color="#FF2B77" stop-opacity="0.03"/>
</linearGradient>
<linearGradient id="paint1_linear_240_3362" x1="206.15" y1="22.3171" x2="151.272" y2="90" gradientUnits="userSpaceOnUse">
<stop stop-color="#FF2B77"/>
<stop offset="0.576615" stop-color="#FF2B77" stop-opacity="0.01"/>
</linearGradient>
<linearGradient id="paint2_linear_240_3362" x1="149.543" y1="40.4839" x2="198.156" y2="82" gradientUnits="userSpaceOnUse">
<stop stop-color="#FF2B77"/>
<stop offset="0.323723" stop-color="#FF2B77" stop-opacity="0"/>
</linearGradient>
<linearGradient id="paint3_linear_240_3362" x1="207.027" y1="91.9355" x2="155.93" y2="55.7419" gradientUnits="userSpaceOnUse">
<stop stop-color="#FF2B77"/>
<stop offset="0.576615" stop-color="#FF2B77" stop-opacity="0"/>
</linearGradient>
</defs>
</svg>
