<svg width="25" height="25" viewBox="0 0 25 25" fill="none" xmlns="http://www.w3.org/2000/svg">
<g clip-path="url(#clip0_1001_10202)">
<path d="M21.6262 3.37903H2.70328C1.98632 3.37903 1.29873 3.66384 0.791771 4.1708C0.284809 4.67776 0 5.36535 0 6.0823L0 9.12349H24.3295V6.0823C24.3295 5.36535 24.0447 4.67776 23.5377 4.1708C23.0307 3.66384 22.3432 3.37903 21.6262 3.37903Z" fill="#141414"/>
<path d="M0 18.247C0 18.9639 0.284809 19.6515 0.791771 20.1585C1.29873 20.6655 1.98632 20.9503 2.70328 20.9503H21.6262C22.3432 20.9503 23.0307 20.6655 23.5377 20.1585C24.0447 19.6515 24.3295 18.9639 24.3295 18.247V15.2058H0V18.247Z" fill="#007A3D"/>
<path d="M0 9.12341H24.3295V15.2058H0V9.12341Z" fill="#EEEEEE"/>
<path d="M0.913032 4.05762C0.625946 4.31101 0.395428 4.62262 0.238118 4.97174C0.0808078 5.32085 -0.000364185 5.69945 1.22827e-06 6.08237V18.2471C1.22827e-06 19.0534 0.352779 19.7772 0.913032 20.2725L11.8268 12.1647L0.913032 4.05762Z" fill="#CE1126"/>
<path d="M4.4786 13.0689L5.19226 13.7285L5.1213 12.7587L6.08231 12.6121L5.28012 12.0633L5.76468 11.2206L4.83543 11.5051L4.4786 10.6008L4.12176 11.5051L3.19251 11.2206L3.6764 12.0633L2.87488 12.6121L3.83522 12.7587L3.76493 13.7285L4.4786 13.0689Z" fill="white"/>
</g>
<defs>
<clipPath id="clip0_1001_10202">
<rect width="24.3295" height="24.3295" fill="white"/>
</clipPath>
</defs>
</svg>
