<svg width="353" height="160" viewBox="0 0 353 160" fill="none" xmlns="http://www.w3.org/2000/svg">
<rect x="146.833" y="30.5" width="59" height="59" rx="29.5" stroke="url(#paint0_linear_240_3378)"/>
<rect x="146.833" y="30.5" width="59" height="59" rx="29.5" stroke="url(#paint1_linear_240_3378)"/>
<rect x="154.833" y="38.5" width="43" height="43" rx="21.5" stroke="url(#paint2_linear_240_3378)"/>
<rect x="154.833" y="38.5" width="43" height="43" rx="21.5" stroke="url(#paint3_linear_240_3378)"/>
<path fill-rule="evenodd" clip-rule="evenodd" d="M175.873 70.351C175.903 70.3685 175.927 70.3821 175.944 70.3915L175.972 70.4071C176.195 70.5294 176.471 70.5285 176.694 70.4075L176.723 70.3915C176.74 70.3821 176.763 70.3685 176.794 70.351C176.854 70.316 176.94 70.265 177.049 70.1982C177.266 70.0646 177.572 69.8676 177.938 69.6091C178.668 69.0931 179.643 68.3274 180.62 67.3273C182.564 65.3368 184.583 62.3462 184.583 58.5C184.583 53.9437 180.89 50.25 176.333 50.25C171.777 50.25 168.083 53.9437 168.083 58.5C168.083 62.3462 170.103 65.3368 172.047 67.3273C173.024 68.3274 173.998 69.0931 174.729 69.6091C175.095 69.8676 175.401 70.0646 175.618 70.1982C175.726 70.265 175.813 70.316 175.873 70.351ZM176.333 61.5C177.99 61.5 179.333 60.1569 179.333 58.5C179.333 56.8431 177.99 55.5 176.333 55.5C174.676 55.5 173.333 56.8431 173.333 58.5C173.333 60.1569 174.676 61.5 176.333 61.5Z" fill="#FF2B77"/>
<path d="M126.22 115.44L125.036 114.272L126.188 113.12L127.388 114.272L126.22 115.44ZM126.124 125.44C124.78 125.44 123.713 125.088 122.924 124.384C122.145 123.691 121.756 122.661 121.756 121.296C121.756 120.155 121.99 118.869 122.46 117.44L123.564 117.744C123.19 118.843 123.004 119.909 123.004 120.944C123.014 121.947 123.297 122.704 123.852 123.216C124.406 123.739 125.19 124 126.204 124C127.27 124 128.06 123.696 128.572 123.088C129.094 122.491 129.356 121.563 129.356 120.304V114.272L130.7 114.048V120.448C130.7 121.995 130.326 123.211 129.58 124.096C128.833 124.992 127.681 125.44 126.124 125.44ZM132.297 122L132.025 120.56H136.057C136.707 120.56 137.203 120.4 137.545 120.08C137.897 119.76 138.073 119.307 138.073 118.72L138.057 117.792C138.046 117.141 137.811 116.613 137.353 116.208C136.905 115.803 136.329 115.6 135.625 115.6H134.681V114.192H135.913C136.937 114.192 137.774 114.507 138.425 115.136C139.075 115.765 139.406 116.592 139.417 117.616L139.433 118.928C139.422 119.909 139.129 120.667 138.553 121.2C137.987 121.733 137.15 122 136.041 122H132.297ZM139.763 125.44L139.635 124.272C141.555 124.272 142.515 123.355 142.515 121.52L142.499 114.272L143.859 114.048V121.568C143.859 122.901 143.517 123.877 142.835 124.496C142.152 125.125 141.128 125.44 139.763 125.44ZM149.648 110.528L149.424 111.44H145.808V110.528H146.688C146.517 110.251 146.432 109.947 146.432 109.616C146.432 109.211 146.565 108.88 146.832 108.624C147.109 108.357 147.456 108.224 147.872 108.224C148.192 108.224 148.608 108.325 149.12 108.528V109.312C148.704 109.152 148.363 109.072 148.096 109.072C147.861 109.072 147.669 109.136 147.52 109.264C147.371 109.392 147.296 109.563 147.296 109.776C147.296 110.085 147.387 110.336 147.568 110.528H149.648ZM152.736 110.528L154.096 110.32V118.8C154.096 120.933 152.971 122 150.72 122H150.704H145.424L145.168 120.56H148.96L147.36 112.752L148.704 112.416L150.24 120.56H150.704H150.72C152.064 120.56 152.736 119.867 152.736 118.48V110.528ZM156.866 122V110.528L158.226 110.32V122H156.866ZM164.356 124.08L163.476 124C163.892 122.912 164.132 121.771 164.196 120.576H165.476C165.37 121.76 164.996 122.928 164.356 124.08ZM170.415 111.632L169.247 112.784L168.079 111.632L169.247 110.48L170.415 111.632ZM172.959 111.632L171.791 112.784L170.607 111.632L171.791 110.48L172.959 111.632ZM175.599 120.56C175.706 120.56 175.759 120.608 175.759 120.704V121.84C175.759 121.947 175.706 122 175.599 122C174.618 122 173.892 121.771 173.423 121.312C172.346 121.867 171.38 122.144 170.527 122.144C169.45 122.144 168.564 121.776 167.871 121.04C167.188 120.304 166.847 119.392 166.847 118.304C166.847 117.195 167.194 116.251 167.887 115.472C168.58 114.693 169.46 114.304 170.527 114.304C171.178 114.304 171.892 114.453 172.671 114.752V113.76L174.015 113.536L174.031 118.768C174.031 119.408 174.154 119.867 174.399 120.144C174.644 120.421 175.044 120.56 175.599 120.56ZM170.527 120.768C171.242 120.779 172.01 120.597 172.831 120.224C172.724 119.861 172.671 119.419 172.671 118.896V116.112C171.807 115.824 171.108 115.68 170.575 115.68C169.86 115.68 169.274 115.931 168.815 116.432C168.367 116.933 168.143 117.552 168.143 118.288C168.143 118.992 168.362 119.579 168.799 120.048C169.247 120.517 169.823 120.757 170.527 120.768ZM175.599 122C175.492 122 175.439 121.947 175.439 121.84L175.455 120.704C175.455 120.608 175.508 120.56 175.615 120.56H176.831C178.164 120.56 178.831 119.893 178.831 118.56V114.272L180.175 114.048V118.928C180.175 119.909 179.892 120.667 179.327 121.2C178.762 121.733 177.924 122 176.815 122H175.599ZM176.623 125.568L175.455 124.416L176.623 123.264L177.791 124.416L176.623 125.568ZM179.167 125.568L177.983 124.416L179.167 123.264L180.335 124.416L179.167 125.568ZM181.672 122L181.4 120.56H185.432C186.082 120.56 186.578 120.4 186.92 120.08C187.272 119.76 187.448 119.307 187.448 118.72L187.432 117.792C187.421 117.141 187.186 116.613 186.728 116.208C186.28 115.803 185.704 115.6 185 115.6H184.056V114.192H185.288C186.312 114.192 187.149 114.507 187.8 115.136C188.45 115.765 188.781 116.592 188.792 117.616L188.808 118.928C188.797 119.909 188.504 120.667 187.928 121.2C187.362 121.733 186.525 122 185.416 122H181.672ZM198.146 120.56C198.252 120.56 198.306 120.608 198.306 120.704V121.84C198.306 121.947 198.252 122 198.146 122H197.202C197.01 124.293 195.026 125.44 191.25 125.44L191.09 124.272C192.572 124.272 193.708 124.091 194.498 123.728C195.287 123.365 195.735 122.789 195.842 122H193.922C192.791 122 191.884 121.659 191.202 120.976C190.519 120.283 190.178 119.355 190.178 118.192C190.178 117.051 190.524 116.117 191.218 115.392C191.922 114.667 192.807 114.304 193.874 114.304C194.866 114.304 195.671 114.635 196.29 115.296C196.908 115.947 197.218 116.811 197.218 117.888V120.56H198.146ZM191.442 118.128C191.442 118.928 191.682 119.541 192.162 119.968C192.642 120.395 193.287 120.608 194.098 120.608C194.439 120.608 195.026 120.597 195.858 120.576V118C195.858 117.307 195.66 116.752 195.266 116.336C194.882 115.909 194.375 115.696 193.746 115.696C193.084 115.696 192.535 115.92 192.098 116.368C191.66 116.816 191.442 117.403 191.442 118.128ZM207.73 120.56C207.837 120.56 207.89 120.608 207.89 120.704V121.84C207.89 121.947 207.837 122 207.73 122C205.863 122 204.359 121.717 203.218 121.152C202.503 121.472 201.767 121.696 201.01 121.824C200.253 121.941 199.298 122 198.146 122C198.039 121.989 197.986 121.936 197.986 121.84V120.704C197.986 120.608 198.039 120.56 198.146 120.56C199.245 120.56 200.327 120.464 201.394 120.272C200.829 119.6 200.349 118.971 199.954 118.384C199.559 117.787 199.122 117.035 198.642 116.128L199.154 114.896C200.647 114.128 201.997 113.744 203.202 113.744C204.269 113.744 205.154 114.027 205.858 114.592C206.562 115.157 206.914 115.877 206.914 116.752C206.914 117.36 206.727 117.979 206.354 118.608C205.981 119.227 205.431 119.792 204.706 120.304C205.559 120.475 206.567 120.56 207.73 120.56ZM202.978 115.12C202.146 115.109 201.181 115.36 200.082 115.872C200.551 116.779 200.989 117.536 201.394 118.144C201.81 118.741 202.317 119.376 202.914 120.048C203.682 119.675 204.306 119.221 204.786 118.688C205.277 118.155 205.522 117.659 205.522 117.2C205.522 116.581 205.287 116.08 204.818 115.696C204.359 115.312 203.746 115.12 202.978 115.12ZM222.779 120.56C222.886 120.56 222.939 120.608 222.939 120.704V121.84C222.939 121.947 222.886 122 222.779 122C221.894 122 221.067 121.675 220.299 121.024C219.755 121.664 218.918 121.984 217.787 121.984C216.934 121.984 216.043 121.701 215.115 121.136C214.55 121.701 213.739 121.984 212.683 121.984C211.915 121.984 211.121 121.707 210.299 121.152C209.713 121.717 208.865 122 207.755 122C207.649 122 207.595 121.947 207.595 121.84V120.704C207.595 120.608 207.649 120.56 207.755 120.56C209.099 120.56 209.771 119.893 209.771 118.56L209.755 115.968L211.115 115.76V118.928C211.115 119.376 211.051 119.787 210.923 120.16C211.542 120.416 212.097 120.544 212.587 120.544C213.931 120.544 214.603 119.877 214.603 118.544L214.587 115.952L215.947 115.744V118.912C215.947 119.381 215.878 119.792 215.739 120.144C216.401 120.411 217.019 120.544 217.595 120.544C218.246 120.544 218.742 120.379 219.083 120.048C219.435 119.707 219.611 119.205 219.611 118.544V114.256L220.955 114.032V118.912C220.955 119.264 220.913 119.611 220.827 119.952C221.446 120.357 222.097 120.56 222.779 120.56ZM222.786 122C222.68 122 222.626 121.947 222.626 121.84V120.704C222.626 120.608 222.685 120.56 222.802 120.56C224.136 120.56 224.802 119.867 224.802 118.48L224.818 110.528L226.162 110.32V118.8C226.162 120.933 225.037 122 222.786 122ZM228.928 122V110.528L230.288 110.32V122H228.928Z" fill="#3B4057"/>
<path d="M311.875 41.125L328.125 24.875M328.125 24.875L315.938 24.875M328.125 24.875V37.0625" stroke="#4D4D4D" stroke-width="1.5" stroke-linecap="round" stroke-linejoin="round"/>
<defs>
<linearGradient id="paint0_linear_240_3378" x1="151.272" y1="93.2927" x2="209.077" y2="25.9756" gradientUnits="userSpaceOnUse">
<stop stop-color="#FF2B77"/>
<stop offset="0.323723" stop-color="#FF2B77" stop-opacity="0.03"/>
</linearGradient>
<linearGradient id="paint1_linear_240_3378" x1="206.15" y1="22.3171" x2="151.272" y2="90" gradientUnits="userSpaceOnUse">
<stop stop-color="#FF2B77"/>
<stop offset="0.576615" stop-color="#FF2B77" stop-opacity="0.01"/>
</linearGradient>
<linearGradient id="paint2_linear_240_3378" x1="149.543" y1="40.4839" x2="198.156" y2="82" gradientUnits="userSpaceOnUse">
<stop stop-color="#FF2B77"/>
<stop offset="0.323723" stop-color="#FF2B77" stop-opacity="0"/>
</linearGradient>
<linearGradient id="paint3_linear_240_3378" x1="207.027" y1="91.9355" x2="155.93" y2="55.7419" gradientUnits="userSpaceOnUse">
<stop stop-color="#FF2B77"/>
<stop offset="0.576615" stop-color="#FF2B77" stop-opacity="0"/>
</linearGradient>
</defs>
</svg>
