<svg width="167" height="166" viewBox="0 0 167 166" fill="none" xmlns="http://www.w3.org/2000/svg">
<mask id="mask0_18282_1202" style="mask-type:luminance" maskUnits="userSpaceOnUse" x="0" y="0" width="167" height="166">
<path d="M167 0H0V165.999H167V0Z" fill="white"/>
</mask>
<g mask="url(#mask0_18282_1202)">
<mask id="mask1_18282_1202" style="mask-type:luminance" maskUnits="userSpaceOnUse" x="-21" y="-17" width="195" height="194">
<path d="M9.5127 -16.6375L173.851 13.0619L144.329 176.415L-20.0087 146.716L9.5127 -16.6375Z" fill="white"/>
</mask>
<g mask="url(#mask1_18282_1202)">
<g opacity="0.951219">
<path d="M107.199 78.4218C107.305 78.6016 107.455 78.7536 107.638 78.8708C108.211 79.2357 108.792 79.5399 109.435 79.8431C110.276 80.2489 111.159 80.599 112.077 80.8892C116.275 82.2167 121.752 82.8411 126.268 79.7922C128.863 78.0404 130.208 74.9502 129.084 72.6634C128.541 71.5588 127.416 70.8594 126.14 70.4702C125.181 70.178 124.093 70.0023 123.015 70.0088C122.524 70.0121 122.275 69.5763 122.528 69.1564L122.53 69.1526C123.09 68.2319 123.5 67.2082 123.743 66.2356C124.066 64.9411 124.046 63.6165 123.378 62.5825C121.996 60.4419 118.654 60.0049 115.817 61.3282C110.878 63.631 108.594 68.6484 107.572 72.9308C107.348 73.8672 107.194 74.8041 107.109 75.7337C107.038 76.4418 107 77.0975 107.018 77.7775C107.024 78.01 107.086 78.2297 107.199 78.4218Z" fill="#FF2B77"/>
</g>
<g opacity="0.944444">
<path d="M110.519 48.0324C110.647 48.1238 110.8 48.1784 110.969 48.1944C111.497 48.244 112.014 48.246 112.577 48.2237C113.316 48.2015 114.07 48.1223 114.835 47.986C118.331 47.3626 122.589 45.7376 125.121 41.7858C126.576 39.5152 126.732 36.7389 125.265 35.4903C124.557 34.8872 123.525 34.8024 122.467 35.0025C121.671 35.1529 120.811 35.4381 120.008 35.8528C119.643 36.0418 119.338 35.8171 119.411 35.4133L119.412 35.4096C119.577 34.5218 119.602 33.6158 119.516 32.8107C119.402 31.739 119.023 30.7761 118.241 30.2722C116.622 29.2289 114.009 30.1795 112.255 32.2282C109.203 35.7937 108.876 40.3392 109.289 43.8666C109.38 44.6378 109.522 45.3831 109.714 46.0967C109.855 46.6427 110.006 47.1378 110.207 47.6292C110.275 47.7972 110.381 47.9347 110.519 48.0324Z" fill="#FF2B77"/>
</g>
<g opacity="0.954545">
<path d="M82.4494 65.6682C82.5826 65.7465 82.734 65.7918 82.8947 65.8021C83.3956 65.8347 83.8796 65.8253 84.4031 65.7933C85.0911 65.7576 85.7859 65.6711 86.4817 65.5337C89.6642 64.9053 93.4154 63.3723 95.2186 59.8135C96.2548 57.7687 96.0023 55.3035 94.4512 54.2281C93.702 53.7087 92.7248 53.6557 91.7624 53.8561C91.0394 54.0066 90.2752 54.278 89.5838 54.663C89.2692 54.8385 88.9514 54.6459 88.962 54.2862L88.962 54.2829C88.9895 53.4921 88.8825 52.6883 88.6869 51.9761C88.4265 51.0283 87.9339 50.1827 87.1299 49.7528C85.4656 48.8627 83.1564 49.762 81.8089 51.6165C79.4638 54.8442 79.8101 58.8817 80.7019 62.0005C80.8968 62.6823 81.1365 63.3402 81.4184 63.9686C81.6289 64.4497 81.8416 64.8854 82.0995 65.3169C82.1878 65.4648 82.3068 65.5846 82.4494 65.6682Z" fill="#FF2B77"/>
</g>
</g>
<path d="M87.0914 110.101L86.6581 78.715C86.6374 78.3997 86.4451 78.1212 86.1575 77.9903C85.8703 77.8593 85.5336 77.8971 85.2822 78.0885L12.6464 130.213C12.3184 130.463 12.2144 130.911 12.3987 131.279C12.5377 131.558 12.8111 131.731 13.1071 131.752C13.2038 131.758 13.3028 131.749 13.4003 131.721L86.4694 110.982C86.8586 110.872 87.1179 110.504 87.0914 110.101Z" fill="#F5A1CC"/>
<path d="M76.2802 71.8372C76.2579 71.5769 76.118 71.341 75.9004 71.1964L54.1292 53.0813C53.935 52.9524 53.6966 52.908 53.4696 52.9581C53.2421 53.0083 53.0448 53.1489 52.923 53.3475L12.4348 130.447C12.2098 130.814 12.2917 131.291 12.626 131.562C12.7677 131.677 12.9359 131.74 13.1066 131.752C13.3391 131.768 13.5762 131.689 13.7563 131.518L76.0157 72.5336C76.2053 72.3539 76.3027 72.0975 76.2802 71.8372Z" fill="#FFECF5"/>
<path d="M87.0609 109.923L76.251 71.6778C76.1693 71.3888 75.9427 71.1636 75.6531 71.084C75.3635 71.0043 75.0536 71.0818 74.8355 71.2883L12.5763 130.273C12.2897 130.545 12.2254 130.977 12.4208 131.32C12.5662 131.575 12.8269 131.732 13.1073 131.752C13.2041 131.758 13.3032 131.749 13.4005 131.721L86.4697 110.982C86.9251 110.853 87.1897 110.379 87.0609 109.923Z" fill="#F5A1CC"/>
<mask id="mask2_18282_1202" style="mask-type:luminance" maskUnits="userSpaceOnUse" x="-11" y="-8" width="179" height="178">
<path d="M0.611572 -7.9325L167.215 3.57419L155.777 169.179L-10.8262 157.672L0.611572 -7.9325Z" fill="white"/>
</mask>
<g mask="url(#mask2_18282_1202)">
<path d="M56.7772 89.4419C56.044 87.4052 54.6007 85.6612 52.7132 84.5314C50.7737 83.3706 48.5317 82.9691 46.3989 83.4012C44.4436 83.7975 42.6117 84.9932 41.101 86.8591C40.0718 88.1304 39.2421 89.5417 38.7014 90.9412C38.6874 90.9778 38.661 91.0012 38.6231 91.0108C38.5854 91.0204 38.5506 91.0125 38.5197 90.9862C37.3829 90.0087 35.9849 89.1567 34.4769 88.5223C32.2641 87.5914 30.0843 87.4029 28.174 87.9775C26.0904 88.6041 24.3037 90.0172 23.1427 91.9567C22.0128 93.8441 21.5648 96.0629 21.8808 98.2044C22.9893 105.715 30.1001 110.105 35.8701 112.465C37.2059 113.011 38.5946 113.474 39.9909 113.838C41.1864 114.16 42.1572 114.371 43.1386 114.521C43.2352 114.536 43.3315 114.546 43.4279 114.553C43.8076 114.579 44.1862 114.543 44.5566 114.444C44.9892 114.329 45.3915 114.134 45.7522 113.863C46.5456 113.268 47.3008 112.624 48.1955 111.781C49.2589 110.796 50.2643 109.732 51.1838 108.62C55.1545 103.814 59.3483 96.5852 56.7772 89.4419Z" fill="#FF2A77"/>
<path d="M55.9503 98.1189C54.5947 100.716 47.2921 104.116 45.5242 105.179C39.0753 109.058 33.9918 111.217 27.1089 107.249C29.7499 109.589 32.9784 111.282 35.8704 112.465C37.2063 113.011 38.5949 113.474 39.9912 113.838C41.1867 114.16 42.1575 114.371 43.1389 114.521C43.2355 114.536 43.3318 114.546 43.4282 114.553C43.8079 114.579 44.1865 114.543 44.5569 114.444C44.9895 114.329 45.3919 114.134 45.7525 113.863C46.5459 113.267 47.3011 112.624 48.1959 111.781C49.2592 110.796 50.2646 109.732 51.1842 108.62C53.7273 105.542 56.3617 101.47 57.2519 97.0634C56.8468 97.4029 56.2255 97.5918 55.9503 98.1189Z" fill="#CC125E"/>
</g>
<path d="M122.634 98.7198L86.1623 77.8948C85.8886 77.7957 85.5829 77.8424 85.3508 78.0189L12.6463 130.213C12.3093 130.47 12.2102 130.934 12.4126 131.306C12.5566 131.57 12.8225 131.732 13.1073 131.752C13.2232 131.76 13.3419 131.744 13.457 131.703L122.633 100.333C122.973 100.211 123.2 99.8883 123.2 99.527C123.201 99.1655 122.974 98.8428 122.634 98.7198Z" fill="#FFECF5"/>
</g>
</svg>
