<svg width="167" height="167" viewBox="0 0 167 167" fill="none" xmlns="http://www.w3.org/2000/svg">
<mask id="mask0_18282_2202" style="mask-type:luminance" maskUnits="userSpaceOnUse" x="0" y="0" width="167" height="167">
<path d="M167 0H0V167H167V0Z" fill="white"/>
</mask>
<g mask="url(#mask0_18282_2202)">
<path d="M83.5001 29.7163C113.183 29.7163 137.284 53.8168 137.284 83.5001C137.284 113.183 113.183 137.284 83.5001 137.284C53.8168 137.284 29.7163 113.183 29.7163 83.5001C29.7163 53.8168 53.8168 29.7163 83.5001 29.7163Z" fill="#FFE4F0"/>
<path d="M87.2106 95.5235L83.138 103.138L82.103 105.067L81.5446 106.113L79.3404 110.235L78.4618 111.878L70.7644 126.268C70.3734 126.998 69.7418 126.992 69.3618 126.255L66.4268 120.565C66.0468 119.829 65.06 119.212 64.2296 119.2L57.3572 119.077C56.5308 119.063 56.2063 118.471 56.6387 117.764L64.5971 104.754L65.1706 103.817V103.816L67.9386 99.2917L68.4058 98.5251L74.5757 88.4413L83.3107 93.3373L87.2106 95.5235Z" fill="#FF2A77"/>
<path d="M108.334 119.983L101.462 119.86C100.632 119.847 99.6241 120.424 99.2177 121.147L96.0808 126.733C95.6745 127.455 95.0459 127.437 94.681 126.691L87.5048 112.053L86.6634 110.334L84.8074 106.55L84.2493 105.406L83.1382 103.138L79.3379 95.3842L83.3106 93.3377L92.2144 88.7538L98.542 99.9761L98.9925 100.771L101.035 104.396L101.622 105.436L101.624 105.438L109.1 118.697C109.506 119.42 109.161 119.998 108.334 119.983Z" fill="#FF2A77"/>
<path d="M110.366 88.7977C110.118 89.6662 110.153 90.6577 110.249 91.6716C110.377 93.0521 110.62 94.472 110.421 95.6924C110.347 96.1649 110.205 96.6027 109.968 96.9987C108.639 99.2086 104.749 99.4105 102.903 101.19C102.084 101.982 101.562 103.19 101.036 104.396C100.378 105.905 99.7168 107.405 98.4667 108.102C96.2447 109.335 92.7776 107.577 90.2556 108.208C89.0302 108.51 87.8589 109.465 86.6629 110.333C85.4769 111.202 84.2635 111.982 82.9518 111.96C81.6532 111.935 80.4816 111.134 79.342 110.235C78.1637 109.315 77.0148 108.296 75.7867 107.947C73.2844 107.23 69.7602 108.864 67.585 107.553C66.3743 106.825 65.7668 105.324 65.1713 103.818C64.6794 102.57 64.1968 101.32 63.3944 100.488C61.6156 98.6452 57.7352 98.3033 56.48 96.0493C56.3055 95.7318 56.1873 95.3876 56.1211 95.0207C55.8554 93.6479 56.2437 91.9964 56.4309 90.4241C56.5368 89.5135 56.5736 88.6279 56.3794 87.8356C55.8698 85.7884 53.5319 83.8836 52.8258 81.7672C52.6908 81.3662 52.6142 80.9552 52.6216 80.5345C52.6684 77.9015 55.9436 75.7855 56.635 73.3714C56.6842 73.1993 56.7236 73.0172 56.7533 72.835C56.9475 71.5996 56.7062 70.175 56.5759 68.8119C56.4456 67.4635 56.4262 66.1715 57.031 65.165C58.3597 62.9578 62.2529 62.7536 64.0962 60.9771C65.9392 59.1979 66.2784 55.3148 68.5348 54.065C70.7567 52.8322 74.2191 54.5863 76.7465 53.9614C79.1873 53.3562 81.4169 50.1598 84.0473 50.2066C86.6802 50.2534 88.7962 53.5259 91.2154 54.22C93.713 54.9358 97.2392 53.3024 99.4164 54.6137C101.627 55.9451 101.828 59.8352 103.607 61.6782C105.384 63.5239 109.267 63.8634 110.517 66.1147C111.046 67.0695 111.026 68.2458 110.876 69.4836C110.696 71.0412 110.31 72.69 110.571 74.0852C110.586 74.1664 110.603 74.2476 110.623 74.3288C111.228 76.7696 114.422 78.9966 114.375 81.6319C114.37 82.0082 114.296 82.3751 114.171 82.732C113.442 84.8774 110.96 86.7281 110.366 88.7977Z" fill="#FF7EAE"/>
<path d="M105.054 81.4607C105.051 81.4189 105.044 81.3768 105.037 81.3354C105.034 81.313 105.032 81.2906 105.027 81.2685C105.019 81.2291 105.01 81.1897 105 81.1506C104.995 81.1232 104.988 81.0964 104.98 81.0694C104.968 81.0176 104.953 80.9685 104.936 80.9167C104.453 79.4256 102.805 78.0892 102.446 76.6499C102.007 74.8854 103.236 72.4643 102.374 70.9114C101.499 69.3368 98.7867 69.1008 97.5442 67.8136C96.3041 66.5243 96.161 63.8051 94.6181 62.8774C93.0973 61.9598 90.6344 63.1013 88.8873 62.6018C87.1991 62.1169 85.723 59.8314 83.8824 59.7993C82.0444 59.7649 80.4865 61.9966 78.7812 62.4196C77.0194 62.8604 74.5983 61.6326 73.0453 62.4938C71.4707 63.3674 71.2318 66.0789 69.9448 67.3213C68.6579 68.5641 65.9391 68.7072 65.0087 70.2474C64.839 70.5304 64.738 70.8472 64.6866 71.1848C64.6866 71.1871 64.6866 71.1874 64.6866 71.1898C64.6839 71.2045 64.6812 71.2192 64.6789 71.2342C64.6715 71.298 64.6642 71.3642 64.6568 71.4284V71.4357C64.6518 71.5069 64.6468 71.5784 64.6445 71.6523C64.6421 71.7238 64.6394 71.795 64.6394 71.8665C64.6394 71.957 64.6421 72.0509 64.6445 72.1418C64.6542 72.3978 64.6765 72.6588 64.7036 72.9218C64.7059 72.9465 64.7083 72.9713 64.711 72.9933C64.7183 73.0598 64.7257 73.1263 64.7333 73.1928C64.7628 73.4635 64.7948 73.7362 64.8192 74.0045V74.0069C64.8339 74.177 64.849 74.3471 64.8563 74.5142C64.8587 74.5757 64.861 74.6371 64.8637 74.6986C64.876 75.1491 64.8463 75.5795 64.7333 75.9755C64.721 76.0223 64.7059 76.0671 64.6916 76.1112C64.6765 76.1553 64.6592 76.2021 64.6394 76.2465C64.6224 76.291 64.605 76.3378 64.583 76.3819C64.5633 76.426 64.5435 76.4704 64.5191 76.5145C64.4968 76.559 64.4747 76.6034 64.4503 76.6475C64.4085 76.7288 64.3617 76.8076 64.3123 76.8865C63.8989 77.5555 63.3061 78.2075 62.8162 78.8819C62.7771 78.9337 62.74 78.9855 62.7056 79.0369C62.489 79.3447 62.2972 79.6595 62.1619 79.9843C62.1395 80.0308 62.1201 80.0802 62.1004 80.132C62.088 80.1664 62.0753 80.2032 62.0633 80.24C62.0609 80.2473 62.0586 80.255 62.0559 80.262C62.0439 80.2964 62.0339 80.3339 62.0265 80.3683C62.0142 80.4 62.0068 80.4294 62.0018 80.4592C61.9971 80.4739 61.9918 80.4886 61.9918 80.5033C61.9794 80.5477 61.9697 80.5922 61.9627 80.6363C61.955 80.6881 61.9477 80.7422 61.943 80.7937C61.9356 80.8575 61.9303 80.919 61.9303 80.9832C61.8982 82.8215 64.1305 84.3787 64.5536 86.084C64.5686 86.1382 64.5803 86.195 64.588 86.2515C64.5903 86.2612 64.5907 86.2688 64.593 86.2789V86.2812C64.605 86.3377 64.6151 86.3942 64.6197 86.4533C64.6298 86.5101 64.6344 86.5689 64.6371 86.6281C64.6445 86.6872 64.6468 86.746 64.6468 86.8052C64.6542 86.9626 64.6518 87.1253 64.6421 87.2877V87.2924C64.6371 87.3957 64.6298 87.4989 64.6197 87.6022C64.6197 87.6022 64.6197 87.6022 64.6197 87.6049C64.61 87.7081 64.6 87.8117 64.5853 87.9177C64.5753 88.0136 64.5636 88.1098 64.5512 88.2057C64.5465 88.2278 64.5435 88.2498 64.5412 88.2719C64.4917 88.6261 64.4353 88.9834 64.3912 89.3352C64.3838 89.3941 64.3761 89.4529 64.3711 89.5147C64.3514 89.6674 64.337 89.8198 64.3273 89.9699C64.3076 90.2455 64.3053 90.5109 64.3273 90.7669C64.325 90.7699 64.325 90.7719 64.3273 90.7719C64.3617 91.1482 64.4503 91.5027 64.6274 91.8202C64.7083 91.9676 64.8072 92.1032 64.9178 92.2285C65.139 92.4819 65.4171 92.6964 65.7272 92.8859C65.8111 92.9373 65.8996 92.9865 65.9882 93.0356C66.1135 93.1074 66.2465 93.1736 66.3818 93.2374C66.4951 93.2942 66.6108 93.3457 66.7264 93.3998C66.96 93.5058 67.1986 93.6064 67.4348 93.7123C67.612 93.7888 67.7894 93.8674 67.9615 93.9489C68.1339 94.0301 68.3014 94.1136 68.4638 94.2022C68.8424 94.4087 69.1846 94.6403 69.4553 94.923C70.6981 96.2099 70.8381 98.9268 72.381 99.8568C73.9018 100.772 76.3647 99.6332 78.1118 100.132C78.609 100.275 79.0889 100.573 79.5638 100.925C79.6229 100.969 79.6794 101.011 79.7359 101.055C79.8071 101.109 79.8813 101.166 79.9524 101.223C80.1025 101.34 80.2552 101.461 80.4053 101.582C80.5062 101.663 80.6071 101.742 80.7104 101.821C80.9637 102.017 81.22 102.204 81.4806 102.366C82.0026 102.694 82.541 102.925 83.1168 102.935C84.9551 102.967 86.5127 100.735 88.2176 100.312C88.8746 100.15 89.6255 100.216 90.3858 100.322C90.5211 100.339 90.6588 100.358 90.7945 100.378C90.8854 100.393 90.9766 100.408 91.0675 100.42C91.9832 100.553 92.8811 100.654 93.6243 100.388C93.7372 100.349 93.8482 100.3 93.9541 100.241C94.0029 100.213 94.0497 100.184 94.0965 100.152C94.1897 100.09 94.2789 100.024 94.3625 99.9477C95.5826 98.87 95.8877 96.5398 97.054 95.4126C97.9004 94.5982 99.3601 94.2563 100.526 93.6805C100.585 93.6531 100.64 93.6237 100.694 93.5963C101.018 93.4269 101.316 93.2351 101.565 93.0038C101.73 92.8484 101.874 92.6767 101.991 92.4845C102.025 92.4257 102.06 92.3662 102.087 92.3051C102.116 92.2436 102.143 92.1791 102.168 92.1153C102.33 91.6825 102.372 91.1953 102.357 90.681C102.355 90.6195 102.352 90.558 102.35 90.4965C102.347 90.435 102.343 90.3705 102.34 90.309C102.335 90.2479 102.33 90.1837 102.325 90.1222C102.323 90.0755 102.318 90.0263 102.313 89.9769C102.31 89.9618 102.308 89.9478 102.308 89.9328C102.303 89.8689 102.296 89.8048 102.288 89.7409C102.28 89.6791 102.273 89.615 102.268 89.5511C102.266 89.5144 102.261 89.4749 102.256 89.4362C102.239 89.2831 102.222 89.1307 102.204 88.978C102.204 88.9509 102.2 88.9242 102.197 88.8991C102.17 88.6335 102.148 88.3705 102.138 88.1142C102.133 87.9792 102.131 87.8438 102.136 87.7085C102.136 87.659 102.138 87.6126 102.14 87.5658C102.145 87.4722 102.153 87.3786 102.163 87.2877C102.168 87.241 102.173 87.1965 102.18 87.1521C102.18 87.1497 102.18 87.1497 102.18 87.1497C102.187 87.1056 102.195 87.0612 102.204 87.0171C102.212 86.98 102.219 86.9405 102.229 86.9034C102.239 86.852 102.251 86.8029 102.266 86.7537C102.401 86.2789 102.679 85.821 103.012 85.3656C103.086 85.2646 103.162 85.1664 103.238 85.0655C103.275 85.016 103.317 84.9649 103.356 84.9127C103.477 84.763 103.597 84.613 103.715 84.4626C103.794 84.3617 103.876 84.2581 103.954 84.1548C104.151 83.9015 104.338 83.6455 104.5 83.3876C104.599 83.2298 104.687 83.0724 104.766 82.91C104.818 82.8041 104.864 82.6962 104.904 82.5879C105.002 82.3145 105.064 82.0368 105.069 81.7488C105.071 81.6525 105.067 81.5566 105.054 81.4607Z" fill="white"/>
<path d="M100.572 81.6702C100.404 91.099 92.6258 98.6069 83.197 98.4392C73.7685 98.2718 66.2605 90.4924 66.4283 81.0636C66.5954 71.6352 74.3747 64.1279 83.8032 64.295C93.232 64.4624 100.74 72.2414 100.572 81.6702Z" fill="#FF7EAE"/>
<path d="M91.478 78.5342L88.2325 78.0326C87.3997 77.9033 86.4186 77.1771 86.0517 76.4178L84.6241 73.4587C84.2585 72.6995 83.6479 72.6944 83.2683 73.4467L81.7872 76.3794C81.408 77.1313 80.4138 77.8394 79.5793 77.9531L76.3224 78.3968C75.4873 78.5105 75.2935 79.0889 75.8914 79.6824L78.2242 81.9976C78.8231 82.5911 79.19 83.755 79.039 84.5845L78.4548 87.818C78.3051 88.6474 78.7957 89.011 79.5449 88.625L82.4666 87.1225C83.2159 86.7372 84.4376 86.7483 85.1791 87.1466L88.0738 88.7025C88.816 89.1009 89.3132 88.747 89.1779 87.9152L88.6512 84.6697C88.5169 83.8379 88.9042 82.681 89.5131 82.0985L91.8857 79.8274C92.4943 79.2446 92.3105 78.6632 91.478 78.5342Z" fill="white"/>
<path d="M51.9956 54.7498L52.144 54.7772C52.1541 54.7791 52.1553 54.7932 52.1455 54.7967L52.0034 54.8475C52 54.8487 51.9975 54.8517 51.9969 54.8552L51.9694 55.0036C51.9675 55.0138 51.9534 55.0149 51.9499 55.0052L51.8991 54.8631C51.8979 54.8597 51.895 54.8572 51.8914 54.8565L51.743 54.8291C51.7329 54.8272 51.7317 54.8131 51.7415 54.8096L51.8836 54.7588C51.887 54.7576 51.8895 54.7546 51.8902 54.7511L51.9176 54.6027C51.9195 54.5925 51.9336 54.5914 51.9371 54.6011L51.9879 54.7432C51.9891 54.7466 51.992 54.7491 51.9956 54.7498Z" fill="#FF2A77"/>
</g>
</svg>
