<svg width="25" height="25" viewBox="0 0 25 25" fill="none" xmlns="http://www.w3.org/2000/svg">
<g clip-path="url(#clip0_1001_10187)">
<path d="M21.6262 3.37915H2.70328C1.98632 3.37915 1.29873 3.66396 0.791771 4.17092C0.284809 4.67788 0 5.36547 0 6.08243L0 18.2472C0 18.9641 0.284809 19.6517 0.791771 20.1587C1.29873 20.6656 1.98632 20.9504 2.70328 20.9504H21.6262C22.3432 20.9504 23.0307 20.6656 23.5377 20.1587C24.0447 19.6517 24.3295 18.9641 24.3295 18.2472V6.08243C24.3295 5.36547 24.0447 4.67788 23.5377 4.17092C23.0307 3.66396 22.3432 3.37915 21.6262 3.37915Z" fill="#006C35"/>
<path d="M6.02721 9.49536C6.45433 9.53591 6.21847 8.77291 6.37323 8.63437C6.40229 8.56611 6.45635 8.56543 6.46041 8.65194V9.29937C6.45635 9.51023 6.5949 9.57173 6.70235 9.61566C6.81454 9.60687 6.88888 9.61092 6.93281 9.71973L6.98552 10.8402C6.98552 10.8402 7.24503 10.9146 7.2572 10.2097C7.27004 9.7961 7.17475 9.45008 7.23084 9.36966C7.23287 9.29059 7.33357 9.28586 7.40385 9.32438C7.51536 9.40277 7.56537 9.50009 7.73838 9.46157C8.00263 9.38926 8.16077 9.26085 8.16482 9.0581C8.14928 8.8655 8.12765 8.67289 8.04453 8.48028C8.05602 8.44514 7.99384 8.35458 8.00533 8.31944C8.05264 8.39378 8.12495 8.38769 8.14117 8.31944C8.09657 8.17143 8.02696 8.02951 7.91342 7.96801C7.82016 7.88556 7.68364 7.90245 7.63363 8.07411C7.61065 8.27145 7.70527 8.50664 7.84854 8.69789C7.87895 8.77291 7.9222 8.89726 7.90328 9.00945C7.82691 9.0527 7.74987 9.03513 7.68634 8.96755C7.68634 8.96755 7.47616 8.81008 7.47616 8.77494C7.53226 8.4181 7.489 8.37756 7.45792 8.27889C7.43629 8.14237 7.37141 8.09844 7.3187 8.00518C7.26598 7.94976 7.19502 7.94976 7.16123 8.00518C7.06797 8.16602 7.11122 8.51204 7.1788 8.66681C7.22679 8.80873 7.30113 8.89861 7.26598 8.89861C7.23692 8.97903 7.17745 8.96011 7.1342 8.86752C7.07202 8.67559 7.05986 8.38972 7.05986 8.26064C7.04094 8.10114 7.02066 7.75986 6.91591 7.67335C6.85171 7.58617 6.75642 7.62807 6.7233 7.70849C6.71654 7.86664 6.71519 8.02545 6.73344 8.17211C6.80508 8.42824 6.82805 8.65397 6.8632 8.91686C6.87266 9.26896 6.65978 9.06959 6.66924 8.89523C6.71857 8.66883 6.70573 8.312 6.6618 8.22144C6.62734 8.13156 6.58611 8.10858 6.50231 8.12345C6.43608 8.11804 6.26442 8.30592 6.21576 8.6168C6.21576 8.6168 6.17454 8.77696 6.15697 8.91956C6.13331 9.08041 6.02788 9.19394 5.95354 8.89726C5.88934 8.68167 5.85014 8.1498 5.74269 8.27415C5.7116 8.68978 5.67443 9.42102 6.02721 9.49536Z" fill="white"/>
<path d="M6.66983 9.79883C6.31841 9.80559 5.80411 10.2604 5.78992 10.5125C6.16027 10.3341 6.52453 10.1624 6.90164 9.9786C6.84082 9.88736 6.89826 9.80559 6.66983 9.79883Z" fill="white"/>
<path d="M8.60762 11.1619C8.77049 10.6192 8.58126 10.2191 8.6698 10.2211C8.857 10.4232 9.11922 10.2482 9.17666 10.1779C9.20167 10.1427 9.26317 10.1197 9.30642 10.1657C9.45307 10.2711 9.71123 10.2211 9.76462 10.0359C9.79838 9.84996 9.81915 9.66186 9.8268 9.47299C9.70718 9.51016 9.61797 9.53516 9.60986 9.5845L9.58486 9.74534C9.57472 9.79738 9.47132 9.79941 9.46726 9.73318C9.42198 9.52705 9.23411 9.50002 9.12057 9.81968C9.0442 9.88186 8.90633 9.89402 8.89147 9.80144C8.90971 9.5872 8.82321 9.55814 8.6502 9.65884C8.59478 9.23375 8.53869 8.82758 8.48327 8.40249C8.55558 8.40046 8.62181 8.45385 8.68737 8.3714C8.61506 8.14636 8.46232 7.6868 8.37784 7.65368C8.33662 7.60367 8.30148 7.63476 8.24809 7.6476C8.15753 7.67666 8.07305 7.75506 8.09941 7.90712C8.20686 8.55928 8.27715 9.05601 8.38393 9.70817C8.40015 9.78454 8.33662 9.88524 8.25417 9.8751C8.11427 9.78049 8.07913 9.58855 7.83989 9.59666C7.66621 9.59869 7.46819 9.78657 7.44386 9.96836C7.4148 10.1123 7.40466 10.2691 7.44386 10.3955C7.56551 10.5415 7.71216 10.5273 7.83989 10.4942C7.94464 10.4509 8.03182 10.3455 8.06832 10.3705C8.09332 10.4009 8.0744 10.7476 7.57362 11.0139C7.27018 11.1497 7.02891 11.1808 6.89915 10.9334C6.81873 10.7787 6.90523 10.1907 6.70722 10.3272C6.12128 11.8377 8.07913 12.0472 8.2981 10.3894C8.31905 10.3211 8.4015 10.2529 8.41569 10.3644C8.37041 11.8661 6.90118 11.9695 6.6518 11.4971C6.58963 11.3856 6.57138 11.1382 6.5653 10.9895C6.52813 10.6942 6.37336 10.8077 6.34904 11.1004C6.32403 11.2632 6.33079 11.3092 6.33079 11.4653C6.40851 12.6514 8.3008 12.1418 8.60762 11.1619ZM7.87774 10.136C7.86557 10.1589 7.81218 10.1495 7.77299 10.1495C7.72838 10.1475 7.70743 10.14 7.6804 10.1042C7.66823 10.0637 7.70608 10.0251 7.72298 9.99472C7.74393 9.9589 7.85679 9.92173 7.89666 10.0218C7.90404 10.0407 7.90618 10.0614 7.90285 10.0815C7.89952 10.1015 7.89085 10.1204 7.87774 10.136Z" fill="white"/>
<path d="M9.19217 8.79192C9.30977 8.74866 9.86732 8.11137 9.86732 8.11137C9.83826 8.08636 9.81258 8.06811 9.78352 8.04311C9.75243 8.01608 9.75581 7.98904 9.78352 7.96269C9.92138 7.88226 9.87745 7.70588 9.80514 7.62545C9.75837 7.60251 9.70688 7.5908 9.65479 7.59127C9.60269 7.59174 9.55143 7.60437 9.50508 7.62816C9.40844 7.72074 9.38546 7.86942 9.46183 7.96269C9.53617 7.99783 9.61051 8.07284 9.56117 8.11407C9.33342 8.35736 8.70896 8.77705 8.78128 8.79192C8.79682 8.81219 9.18001 8.81151 9.19217 8.79192ZM9.6051 7.79103C9.64092 7.78224 9.68687 7.81401 9.7085 7.86131C9.73013 7.90862 9.71864 7.9539 9.68349 7.96269H9.68214C9.647 7.97147 9.60104 7.93971 9.57942 7.8924C9.55847 7.84442 9.56996 7.79981 9.6051 7.79103ZM5.98879 11.6635C5.89688 11.8507 5.85836 11.7223 5.85025 11.6175C5.83969 11.4416 5.84853 11.265 5.87661 11.0911C5.89958 10.9424 5.87661 10.9877 5.8293 11.0478C5.62047 11.3803 5.60222 11.8777 5.71779 12.0257C5.77861 12.096 5.87931 12.1271 5.95433 12.1041C6.08543 12.0473 6.14288 11.7811 6.11179 11.6844C6.06719 11.6162 6.03272 11.6053 5.98879 11.6635ZM12.8693 8.14381C13.1099 8.46685 13.3383 8.79597 13.562 9.13118C13.6059 9.42178 13.6377 9.70562 13.6566 9.98744C13.6938 10.5308 13.7046 11.1188 13.6708 11.6912C13.7722 11.6952 13.9364 11.5263 13.9932 11.2796C14.0304 10.9383 13.9797 10.3308 13.9763 10.1294C13.9718 10.0031 13.9657 9.87697 13.958 9.7509C14.2243 10.1861 14.4838 10.6416 14.7373 11.1478C14.8299 11.1046 14.8096 10.5869 14.7555 10.5139C14.5528 10.0794 14.2737 9.64953 14.1844 9.48463C14.1513 9.42381 14.0385 9.2508 13.904 9.05278C13.8924 8.89474 13.8735 8.73733 13.8472 8.58106C13.8053 8.29181 13.9668 8.61282 13.9445 8.44455C13.8925 8.15529 13.7316 7.95998 13.5438 7.69506C13.4829 7.60923 13.485 7.59166 13.391 7.71601C13.3578 7.79051 13.3426 7.87175 13.3464 7.95322C13.3171 7.9101 13.2858 7.86838 13.2525 7.8282C13.1505 7.7402 13.048 7.65279 12.945 7.56598C12.8767 7.51732 12.7105 7.42947 12.6808 7.57544C12.6669 7.67777 12.672 7.78176 12.6956 7.88226C12.7132 7.95458 12.8179 8.07487 12.8693 8.14381ZM13.3694 8.12759C13.3823 8.18368 13.3958 8.23977 13.4046 8.29722L13.4147 8.35196C13.3863 8.31234 13.3568 8.27358 13.3262 8.23572C13.2153 8.10461 13.3072 8.13299 13.3694 8.12759Z" fill="white"/>
<path d="M14.8128 11.2815C14.5776 11.5268 14.2383 11.8289 13.8693 11.9688C13.8294 12.0134 13.968 12.2047 14.1464 12.2047C14.4458 12.1695 14.7094 12.0013 14.9533 11.5586C15.0189 11.4559 15.1338 11.2349 15.1365 11.0632C15.1588 10.059 15.0865 9.27703 14.9358 8.55121C14.9257 8.49297 14.9284 8.43323 14.9439 8.37617C14.9628 8.35319 15.029 8.37617 15.0642 8.3194C15.1149 8.26669 14.9283 7.83416 14.8215 7.66791C14.7837 7.59357 14.7709 7.54356 14.708 7.6767C14.6418 7.78483 14.5978 7.97338 14.6033 8.14909C14.7459 9.13782 14.7898 10.0035 14.883 10.9923C14.8905 11.0876 14.8763 11.2268 14.8128 11.2815ZM18.7528 8.77423C18.7426 8.70394 18.7116 8.54039 18.7237 8.51944C18.7426 8.46943 18.8406 8.52485 18.8758 8.4674C18.9271 8.41537 18.623 8.02474 18.5169 7.85849C18.4784 7.78415 18.4656 7.73414 18.4027 7.86728C18.3365 7.97541 18.3135 8.16937 18.3399 8.33967C18.4987 9.41355 18.6169 10.2205 18.6413 11.1727C18.6271 11.2633 18.6244 11.3119 18.5818 11.4255C18.4879 11.5458 18.3845 11.6958 18.2865 11.7688C18.1892 11.8411 17.9817 11.9107 17.9134 11.9641C17.6992 12.0891 17.6985 12.2317 17.8729 12.2364C18.1716 12.2013 18.5257 12.177 18.7697 11.808C18.8352 11.7053 18.913 11.4261 18.9163 11.2545C18.9386 10.2502 18.9035 9.50006 18.7528 8.77423ZM16.4881 9.61021C16.4908 9.47235 16.5037 9.28988 16.5111 9.17566C16.5145 9.13309 16.5246 9.0851 16.5652 9.07429C16.6064 9.06348 16.6794 9.11619 16.68 9.07159C16.6719 8.98441 16.6544 8.85465 16.605 8.79315C16.5374 8.69313 16.3584 8.71746 16.3266 8.87425C16.3273 8.93237 16.3536 8.96345 16.3489 9.01617C16.3408 9.0459 16.3097 9.06618 16.236 9.03104C16.2482 9.02022 16.1881 8.9371 16.1881 8.9371C16.1306 8.90196 16.0536 8.93913 16.0042 8.97089C15.9864 9.00496 15.9757 9.04235 15.9729 9.08071C15.9701 9.11908 15.9753 9.15761 15.988 9.19391C16.0691 9.34732 16.3523 9.60751 16.4881 9.61021Z" fill="white"/>
<path d="M16.393 8.43505C16.5911 8.67767 16.7931 8.92367 16.9966 9.17372C17.0405 9.73195 17.052 10.1888 17.0952 10.747C17.0891 10.9836 17.0162 11.1897 16.9465 11.2194C16.9465 11.2194 16.8418 11.2803 16.7715 11.2133C16.7201 11.1924 16.5154 10.8721 16.5154 10.8721C16.4106 10.7761 16.3417 10.8031 16.2673 10.8721C16.0619 11.0701 15.9693 11.4418 15.8301 11.6972C15.7936 11.7547 15.6922 11.8033 15.5794 11.6932C15.2935 11.3019 15.4611 10.7457 15.4259 10.889C15.1712 11.1762 15.2834 11.6513 15.3408 11.754C15.4246 11.9216 15.4929 12.0297 15.6564 12.1129C15.8051 12.2223 15.9213 12.1534 15.9849 12.077C16.1349 11.9209 16.1369 11.5256 16.2072 11.4458C16.2559 11.3019 16.3809 11.3262 16.441 11.3904C16.4961 11.4681 16.5691 11.5314 16.6539 11.5749C16.7938 11.6986 16.9607 11.7209 17.125 11.608C17.2371 11.5452 17.3108 11.4634 17.3764 11.3019C17.4494 11.1072 17.4095 10.2125 17.3946 9.67586C17.4994 9.81102 17.6014 9.95227 17.7048 10.0935C17.7501 10.5416 17.7758 10.9876 17.7609 11.4431C17.7501 11.5344 18.0785 11.1728 18.0758 11.0011C18.0745 10.8626 18.0758 10.7369 18.0758 10.6186C18.234 10.8565 18.3881 11.1018 18.5327 11.3613C18.6232 11.314 18.5935 10.8038 18.5361 10.7335C18.3691 10.4537 18.1468 10.1624 17.9934 9.95429C17.9832 9.92794 17.9778 9.8982 17.9657 9.8732C17.9042 9.7306 17.9427 9.61571 17.9136 9.46433C17.8853 9.31227 17.8927 9.08519 17.8488 8.90475C17.8366 8.83446 17.8001 8.60874 17.8109 8.58779C17.8285 8.5371 17.8961 8.58914 17.9292 8.53102C17.9785 8.47695 17.7582 7.90589 17.646 7.74234C17.6055 7.66935 17.5325 7.69436 17.4419 7.8133C17.3588 7.89169 17.3899 8.07011 17.4216 8.23974C17.5007 8.65064 17.5669 9.04464 17.6237 9.43459C17.5022 9.27302 17.3794 9.1124 17.2554 8.95273L17.25 8.92299C17.25 8.91556 17.2317 8.56887 17.2155 8.48642C17.2128 8.4533 17.2047 8.44316 17.2398 8.44722C17.277 8.47831 17.2817 8.48033 17.3054 8.49115C17.3432 8.4979 17.3764 8.4337 17.3541 8.37491L17.0047 7.73153C16.977 7.70382 16.9405 7.67408 16.8965 7.73896C16.8693 7.76278 16.8474 7.79219 16.8325 7.82518C16.8176 7.85818 16.8099 7.894 16.81 7.93022C16.8208 8.08228 16.8472 8.23771 16.8573 8.39045L16.8722 8.4729C16.8567 8.45465 16.8377 8.43167 16.8296 8.42356C16.5329 8.11134 16.9661 8.37288 16.7729 8.13161C16.6093 7.95184 16.562 7.89575 16.4214 7.78762C16.3511 7.74234 16.3086 7.65583 16.2856 7.80316C16.274 7.93235 16.2706 8.06214 16.2755 8.19176C16.2755 8.25393 16.3383 8.36747 16.393 8.43505ZM10.3776 9.16426C10.5479 9.23455 10.6567 8.91015 10.727 8.55467C10.7743 8.45465 10.8108 8.44384 10.8351 8.4952C10.829 8.96827 10.8689 9.07303 10.9906 9.21698C11.2616 9.42648 11.4859 9.24333 11.5042 9.22576L11.715 9.01491C11.7617 8.96557 11.8245 8.96219 11.8907 9.00612C11.9556 9.06424 11.9468 9.16561 12.0847 9.2359C12.2009 9.28253 12.4496 9.24671 12.5071 9.14669C12.5848 9.01423 12.6037 8.96827 12.6389 8.91826C12.6943 8.8446 12.7889 8.87771 12.7889 8.90069C12.7801 8.94192 12.7247 8.98314 12.7625 9.05681C12.8288 9.10614 12.8436 9.07438 12.8828 9.06357C13.0207 8.99733 13.1234 8.69862 13.1234 8.69862C13.1295 8.58711 13.0673 8.59657 13.0268 8.61955C12.9741 8.65132 12.9707 8.66213 12.918 8.69457C12.8504 8.7047 12.72 8.74931 12.6558 8.64929C12.5895 8.52899 12.5882 8.36139 12.5382 8.24042C12.5382 8.23163 12.4503 8.04916 12.5321 8.03767C12.5733 8.04511 12.6605 8.06808 12.6747 7.9951C12.7173 7.92346 12.5821 7.71936 12.4902 7.61596C12.4098 7.5281 12.2983 7.51729 12.1908 7.60718C12.1151 7.67678 12.1259 7.75383 12.1111 7.82749C12.0988 7.87948 12.0988 7.93361 12.1111 7.98558C12.1234 8.03755 12.1477 8.08594 12.182 8.12688C12.257 8.27488 12.3942 8.46614 12.3489 8.73377C12.3489 8.73377 12.2692 8.86082 12.1293 8.8446C12.0712 8.83176 11.9766 8.80675 11.9266 8.43505C11.8887 8.15324 11.936 7.75923 11.8164 7.57474C11.7731 7.46323 11.7421 7.35577 11.6366 7.54635C11.6082 7.62137 11.4866 7.7349 11.5751 7.96941C11.6474 8.11742 11.6765 8.35869 11.6441 8.62766C11.5941 8.70403 11.5832 8.72971 11.5177 8.80608C11.4258 8.90475 11.3264 8.87974 11.2501 8.84257C11.1784 8.79459 11.123 8.76958 11.0906 8.61685C11.0967 8.37355 11.1102 7.97482 11.0656 7.89034C11 7.75923 10.8919 7.80654 10.8452 7.84641C10.6229 8.04984 10.5134 8.39248 10.4465 8.66483C10.385 8.86352 10.3195 8.80675 10.2735 8.72633C10.1613 8.6209 10.1539 7.79843 10.018 7.93427C9.79976 8.55197 10.141 9.23049 10.3776 9.16426Z" fill="white"/>
<path d="M13.6085 10.4915L13.5436 10.4543L12.2724 10.4483C12.2068 10.4233 12.2264 10.4016 12.2724 10.3841C12.5758 10.3428 13.1158 10.255 13.1516 9.73662C13.1455 9.46697 13.0354 9.2899 12.7042 9.24124C12.4616 9.26017 12.2879 9.49603 12.3156 9.75487C12.3042 9.82515 12.3386 9.96167 12.2677 9.97721C11.8007 10.0198 11.2918 10.3117 11.2749 10.5212C11.2465 10.5408 11.183 10.4841 11.1911 10.3949C11.1686 10.0133 11.0587 9.64194 10.8701 9.3095C10.7227 9.16217 10.7687 9.21083 10.67 9.28044C10.6065 9.35343 10.595 9.40344 10.5984 9.54874C10.5984 9.55415 10.7173 9.88597 10.818 10.1185C10.8849 10.357 10.9478 10.6294 10.9025 10.8869C10.7457 11.2275 10.4301 11.5329 10.126 11.6985C9.9692 11.7492 9.83471 11.731 9.80159 11.6958C9.70495 11.6309 9.70968 11.5113 9.71712 11.5093C9.97325 11.3302 10.2666 11.1862 10.4963 10.7044C10.5639 10.5206 10.5842 10.4091 10.5173 10.1245C10.4987 10.0243 10.4526 9.93115 10.3841 9.85556C10.4254 9.82853 10.5436 9.91841 10.5619 9.86502C10.5276 9.70929 10.4501 9.56639 10.3382 9.45277C10.247 9.36965 10.1476 9.36019 10.0638 9.43655C9.9692 9.48927 9.94892 9.67715 9.9942 9.84205C10.0442 9.9664 10.1801 9.98735 10.2774 10.2367C10.2774 10.2421 10.3125 10.4232 10.2625 10.4942C10.2226 10.6186 9.70563 11.0247 9.67724 11.043C9.66305 11.0605 9.66913 11.0342 9.66711 10.9666C9.66373 10.8842 9.70022 10.6895 9.69008 10.6882C9.5218 10.797 9.46571 11.1302 9.4353 11.2288C9.00953 11.5228 8.52767 11.7418 8.24924 12.0405C8.10394 12.2669 9.2481 11.7803 9.38123 11.7215C9.41097 11.7431 9.40759 11.8452 9.48734 11.9364C9.60628 12.0973 9.85769 12.1966 10.1044 12.1351C10.5166 11.9857 10.7552 11.7046 10.9971 11.393C11.0316 11.3424 11.0856 11.3038 11.1357 11.3424C11.3019 11.7147 11.7824 11.9783 12.4021 12.006C12.5461 11.831 12.4765 11.7465 12.4184 11.71C12.4184 11.7046 12.1122 11.5884 12.0656 11.4721C12.0372 11.3667 12.1061 11.2741 12.244 11.2038C12.6421 11.1558 13.0334 11.1024 13.4125 10.9808C13.4165 10.8537 13.4902 10.6632 13.5409 10.5807C13.5896 10.4969 13.6159 10.5219 13.6085 10.4915ZM12.563 9.69945C12.5819 9.66768 12.6448 9.66904 12.7036 9.7035C12.7624 9.73729 12.7955 9.79136 12.7759 9.82312C12.7569 9.85556 12.6934 9.85353 12.6346 9.81907C12.5758 9.78528 12.5441 9.73189 12.563 9.69945ZM12.0514 10.9835C11.9149 11.0301 11.7838 11.0666 11.7838 11.264C11.8345 11.5384 11.7142 11.4444 11.6432 11.4066C11.5594 11.3464 11.3235 11.2011 11.2897 10.8875C11.2843 10.8125 11.3431 10.7497 11.4371 10.7497C11.5783 10.7882 11.7871 10.7909 11.9683 10.8098C12.1163 10.8193 12.1899 10.9355 12.0514 10.9835ZM7.34296 7.93894C7.48894 8.00923 7.76467 7.97949 7.75251 7.74295C7.75251 7.722 7.7471 7.65172 7.74508 7.63279C7.71534 7.56318 7.63424 7.58008 7.61532 7.65239C7.60924 7.67605 7.62546 7.71389 7.60451 7.72606C7.59234 7.73822 7.54571 7.73079 7.54774 7.66591C7.54774 7.64496 7.53219 7.62266 7.52341 7.60982C7.51395 7.60373 7.50854 7.60171 7.49164 7.60171C7.47137 7.60238 7.47137 7.60779 7.46056 7.62536C7.45583 7.64226 7.44907 7.65983 7.44907 7.67943C7.44636 7.7024 7.43758 7.71051 7.42068 7.71457C7.40176 7.71457 7.40582 7.7166 7.39095 7.70646C7.38149 7.69632 7.37 7.69227 7.37 7.67537C7.36994 7.65562 7.36675 7.636 7.36054 7.61725C7.35243 7.60644 7.33958 7.60171 7.32472 7.59765C7.24497 7.59765 7.23956 7.68889 7.24429 7.72403C7.23686 7.73011 7.23416 7.89366 7.34296 7.93894Z" fill="white"/>
<path d="M11.8343 9.47979C11.8343 9.45884 11.8188 9.43721 11.81 9.42369C11.8006 9.41761 11.7951 9.41558 11.7783 9.41558C11.758 9.41626 11.7587 9.42167 11.7472 9.43924C11.7424 9.45681 11.7357 9.4737 11.7357 9.4933C11.7336 9.51696 11.7242 9.52507 11.7073 9.52845C11.6884 9.52845 11.6924 9.53047 11.6769 9.52101C11.6674 9.51087 11.6559 9.50682 11.6559 9.48992C11.6559 9.47017 11.6527 9.45054 11.6465 9.4318C11.6384 9.42099 11.6255 9.41626 11.6106 9.41288C11.5309 9.41288 11.5255 9.50412 11.5295 9.53858C11.5235 9.54534 11.5201 9.70821 11.6289 9.75417C11.7755 9.82378 12.1236 9.78323 12.0384 9.55818C12.037 9.52117 12.0345 9.48421 12.031 9.44735C12.0013 9.37774 11.9195 9.39531 11.9012 9.46695C11.8958 9.4906 11.9121 9.52845 11.8904 9.54061C11.8796 9.55278 11.8323 9.54534 11.8343 9.47979ZM14.1301 9.00198C14.2761 9.07227 14.5511 9.04253 14.539 8.80667C14.5375 8.76966 14.5351 8.7327 14.5315 8.69584C14.5018 8.62623 14.4207 8.6438 14.4025 8.71544C14.3964 8.73909 14.4126 8.77694 14.391 8.7891C14.3788 8.80127 14.3322 8.79451 14.3342 8.72895C14.3342 8.708 14.3187 8.6857 14.3099 8.67286C14.3004 8.66678 14.295 8.66475 14.2774 8.66475C14.2572 8.6661 14.2578 8.67083 14.2463 8.6884C14.2416 8.70597 14.2349 8.72287 14.2349 8.74247C14.2321 8.76612 14.2234 8.77423 14.2065 8.77761C14.1875 8.77761 14.1916 8.77964 14.1761 8.77018C14.1666 8.76004 14.1558 8.75598 14.1558 8.73909C14.1557 8.71912 14.1525 8.69928 14.1463 8.68029C14.1375 8.66948 14.1254 8.66475 14.1098 8.66137C14.0301 8.66137 14.0247 8.75261 14.0294 8.78707C14.0247 8.79383 14.0213 8.9567 14.1301 9.00198ZM14.2288 8.08828C14.2808 8.23425 14.1889 8.37347 14.2436 8.39375C14.293 8.41672 14.3633 8.24304 14.3889 8.08287C14.4193 7.95311 14.3268 7.68752 14.1957 7.63277C14.1159 7.61385 14.0024 7.66116 14.0389 7.76794C14.0206 7.8193 14.1997 7.99366 14.2288 8.08828ZM15.577 11.5106C15.6791 11.5113 15.7967 11.2775 15.8467 11.0457C15.8744 10.7267 15.8278 10.5327 15.8196 10.3448C15.8109 10.1576 15.6081 8.72828 15.5662 8.58635C15.5169 8.31805 15.7642 8.55054 15.7372 8.39442C15.6514 8.19776 15.4385 7.91189 15.3709 7.74091C15.3304 7.66792 15.3479 7.60304 15.2574 7.72198C15.1742 7.99569 15.1452 8.21871 15.1769 8.38902C15.3919 9.51087 15.6122 10.4435 15.577 11.5106ZM18.1154 8.57757C18.1391 8.65056 18.0796 8.88642 18.1289 8.90804C18.1742 8.93237 18.2377 8.74517 18.2614 8.57149C18.2742 8.4762 18.2046 8.14369 18.085 8.08422C18.012 8.06395 17.9086 8.11463 17.9424 8.23087C17.9255 8.28697 18.089 8.47484 18.1154 8.57757ZM9.24934 11.0484C9.29326 11.0666 9.35341 10.9287 9.37639 10.801C9.38923 10.7307 9.32165 10.4868 9.20743 10.4428C9.13715 10.428 9.04118 10.4469 9.07092 10.551C9.06754 10.6071 9.22636 10.6746 9.23582 10.8051C9.2588 10.8591 9.20203 11.0328 9.24934 11.0484ZM6.1703 7.92946C6.19261 7.98555 6.148 8.16464 6.19463 8.18154C6.23721 8.20046 6.29736 8.05719 6.31966 7.9254C6.3325 7.85242 6.32236 7.60507 6.15341 7.55438C6.0838 7.53884 5.98716 7.57736 6.01892 7.66589C6.0027 7.70779 6.1453 7.85106 6.1703 7.92946ZM9.48317 8.72219C9.35409 8.79248 9.3034 9.00063 9.3845 9.1216C9.45952 9.22906 9.57846 9.18919 9.59468 9.18919C9.72173 9.20473 9.79675 8.9513 9.79675 8.9513C9.79675 8.9513 9.8008 8.88034 9.6501 9.01482C9.58657 9.02699 9.57846 9.00333 9.56292 8.96684C9.54753 8.9007 9.55442 8.83132 9.58251 8.7695C9.60414 8.70665 9.55548 8.67894 9.48317 8.72219ZM10.4577 7.94298C10.4785 7.9301 10.4964 7.91297 10.5101 7.89271C10.5239 7.87244 10.5332 7.8495 10.5374 7.82538C10.557 7.72671 10.4327 7.87201 10.4172 7.76186C10.3894 7.65981 10.4692 7.61791 10.5449 7.51924C10.5476 7.45098 10.5462 7.403 10.4536 7.45841C10.3888 7.50234 10.259 7.63615 10.255 7.79024C10.2509 7.87742 10.2347 7.87674 10.2921 7.93216C10.3333 7.99231 10.3746 7.98623 10.4577 7.94298ZM11.3356 7.99569C11.4194 7.76861 11.4194 7.67265 11.4255 7.57601C11.3998 7.42935 11.3004 7.43408 11.2349 7.59696C11.2065 7.65846 11.1734 7.98217 11.1788 7.98217C11.1565 8.07881 11.2795 8.12004 11.3356 7.99569ZM16.857 9.60617C16.857 9.60617 16.1792 10.088 16.163 10.1049C16.0954 10.1644 16.1292 10.3752 16.163 10.3509C16.2109 10.3698 16.8928 9.9069 16.8793 9.85284C16.9111 9.85419 16.9266 9.58184 16.857 9.60617ZM16.7739 10.9132C16.8192 10.9375 16.9388 10.7895 16.9341 10.605C16.9476 10.5097 16.8996 10.1603 16.7807 10.1009C16.7077 10.0806 16.6104 10.1428 16.6441 10.2583C16.6272 10.3137 16.7279 10.5077 16.7543 10.6104C16.778 10.6841 16.7246 10.8916 16.7739 10.9132ZM12.9353 11.9242C12.9353 11.9303 12.9927 11.9796 13.0603 11.9404C13.2022 11.8857 13.2914 11.833 13.4901 11.7891C13.5421 11.7884 13.5388 11.6485 13.4563 11.6438C13.3489 11.6492 13.2488 11.6546 13.1414 11.7397C13.0751 11.7546 13.0643 11.7147 13.0495 11.6782C13.0332 11.5883 13.0866 11.5262 13.0751 11.4593C13.0792 11.4633 13.0136 11.4032 12.9467 11.437C12.9434 11.437 12.7974 11.5356 12.7508 11.6046C12.7217 11.6269 12.7251 11.6458 12.7339 11.683C12.7562 11.7343 12.796 11.7188 12.8406 11.6944C12.9001 11.6863 12.9285 11.7255 12.9238 11.7965C12.8954 11.8864 12.9353 11.9195 12.9353 11.9242ZM17.3625 12.0364C17.3402 12.0749 17.3254 12.1331 17.3943 12.1513C17.5214 12.1871 17.814 11.9965 17.814 11.9932C17.8613 11.9573 17.8458 11.8904 17.8417 11.8904C17.814 11.8587 17.7518 11.8769 17.7099 11.8722C17.6903 11.8722 17.6241 11.862 17.6558 11.8039C17.6782 11.7726 17.6959 11.7382 17.7086 11.7019C17.7282 11.658 17.7113 11.6289 17.6396 11.6052C17.5673 11.5917 17.5383 11.5985 17.4578 11.6052C17.4146 11.6147 17.3997 11.6336 17.3916 11.6863C17.395 11.7661 17.443 11.762 17.493 11.7938C17.522 11.831 17.541 11.8648 17.4909 11.9249C17.4436 11.9688 17.4105 11.9932 17.3625 12.0364ZM17.2328 15.5439H16.2191V15.206C16.2191 15.1164 16.1835 15.0304 16.1201 14.9671C16.0567 14.9037 15.9708 14.8681 15.8811 14.8681C15.7915 14.8681 15.7056 14.9037 15.6422 14.9671C15.5788 15.0304 15.5432 15.1164 15.5432 15.206V15.5439H7.43341C7.43341 15.5439 7.43341 16.2197 9.46087 16.2197H15.5432V16.5576C15.5432 16.6473 15.5788 16.7332 15.6422 16.7966C15.7056 16.8599 15.7915 16.8955 15.8811 16.8955C15.9708 16.8955 16.0567 16.8599 16.1201 16.7966C16.1835 16.7332 16.2191 16.6473 16.2191 16.5576V16.2197H16.8949V16.5576C16.8949 16.6473 16.9305 16.7332 16.9938 16.7966C17.0572 16.8599 17.1432 16.8955 17.2328 16.8955C17.3224 16.8955 17.4084 16.8599 17.4717 16.7966C17.5351 16.7332 17.5707 16.6473 17.5707 16.5576V15.8818C17.5707 15.7922 17.5351 15.7063 17.4717 15.6429C17.4084 15.5795 17.3224 15.5439 17.2328 15.5439Z" fill="white"/>
</g>
<defs>
<clipPath id="clip0_1001_10187">
<rect width="24.3295" height="24.3295" fill="white"/>
</clipPath>
</defs>
</svg>
