<svg width="167" height="151" viewBox="0 0 167 151" fill="none" xmlns="http://www.w3.org/2000/svg">
<g clip-path="url(#clip0_18282_2560)">
<mask id="mask0_18282_2560" style="mask-type:luminance" maskUnits="userSpaceOnUse" x="-1" y="-1" width="168" height="168">
<path d="M166.83 -0.5H-0.169922V166.5H166.83V-0.5Z" fill="white"/>
</mask>
<g mask="url(#mask0_18282_2560)">
<mask id="mask1_18282_2560" style="mask-type:luminance" maskUnits="userSpaceOnUse" x="-1" y="-4" width="168" height="168">
<path d="M-0.169922 -3.59253H166.83V163.407H-0.169922V-3.59253Z" fill="white"/>
</mask>
<g mask="url(#mask1_18282_2560)">
<mask id="mask2_18282_2560" style="mask-type:luminance" maskUnits="userSpaceOnUse" x="50" y="55" width="67" height="59">
<path d="M57.9708 68.4648C40.6523 85.1648 53.6549 114.544 81.4745 113.617C109.308 112.689 117.82 95.9722 116.112 80.2167C113.328 54.5481 82.3707 44.9364 57.9708 68.4648Z" fill="white"/>
</mask>
<g mask="url(#mask2_18282_2560)">
<path d="M141.133 129.237C111.889 166.556 58.5211 165.305 33.708 145.785C8.09309 125.632 -4.21313 77.9703 29.3122 44.4459C62.8365 10.9206 101.368 21.2345 125.705 34.3483C154.884 50.0731 170.679 91.5311 141.133 129.237Z" fill="#FFE7F0"/>
<path d="M152.995 61.0612C151.161 57.0325 147.102 54.2307 142.386 54.2307C141.278 54.2307 140.207 54.3887 139.191 54.6777C138.429 48.9794 133.551 44.5837 127.644 44.5837C123.15 44.5837 119.252 47.1296 117.308 50.8563C115.312 49.2565 112.781 48.2975 110.025 48.2975C103.589 48.2975 98.3706 53.5158 98.3706 59.9518C98.3706 60.3268 98.3901 60.6954 98.4247 61.0612H152.995Z" fill="white"/>
</g>
</g>
<path d="M102.937 122.546L68.5935 123.061C68.5935 123.061 68.1355 93.2681 68.1466 93.2512C76.6794 85.6175 102.49 92.7363 102.49 92.7363L102.937 122.546Z" fill="#FF679E"/>
<path d="M102.491 92.7357L68.1466 93.2506L72.7724 88.0588L97.712 87.6849L102.491 92.7357Z" fill="#FF679E"/>
<path d="M77.4461 120.436L71.7381 120.522L71.6772 116.462L77.3852 116.377L77.4461 120.436Z" fill="white"/>
<path d="M82.0014 93.0434C81.948 93.0567 82.1349 101.944 82.1349 101.944L82.7155 101.432L82.9563 101.932L83.4303 101.526L83.6468 101.921L83.9556 101.539L84.1506 101.914L84.4763 101.216L84.9272 101.902L85.5864 101.074L85.8087 101.889L85.9915 101.446L86.2053 101.736L86.6177 101.226L87.0474 101.871L87.4994 101.192L87.9308 101.984L88.1123 101.456L88.3296 101.978L88.5525 101.428L88.9576 101.842L88.8241 92.9411C88.8241 92.9411 83.3581 91.218 82.0014 93.0434Z" fill="#FFE7F0"/>
<path d="M89.2718 122.75L89.1763 116.382L88.599 117.122L88.3548 116.395L87.883 116.981L87.6643 116.405L87.3582 116.958L87.1605 116.412L86.8401 117.423L86.384 116.424L85.7297 117.622L85.5019 116.437L85.3227 117.08L85.1063 116.656L84.6973 117.394L84.2633 116.456L83.8157 117.437L83.379 116.287L83.201 117.051L82.9802 116.293L82.761 117.088L82.3536 116.484L82.449 122.852L89.2718 122.75Z" fill="#FFE7F0"/>
<path d="M88.8243 92.9404L88.4334 89.2879L88.1867 89.6602L87.948 89.2952L87.4724 89.594L87.258 89.3055L86.9472 89.5868L86.7537 89.3131L86.4258 89.8251L85.9771 89.3247L85.6506 89.9293L85.4317 89.3329L85.2471 89.6577L85.0344 89.446L84.6195 89.8219L84.193 89.3515L83.7382 89.8503L83.3101 89.2721L83.1264 89.6592L82.9113 89.2781L82.6862 89.6809L82.2827 89.3801L82.0015 93.0427L88.8243 92.9404Z" fill="#FF2A77"/>
<path d="M71.3284 90.3492L99.5257 89.9265" stroke="#3C341B" stroke-width="0.541204" stroke-linecap="round" stroke-linejoin="round"/>
<path d="M85.333 87.6392L85.8567 122.57" stroke="#3C341B" stroke-width="0.541204" stroke-linecap="round" stroke-linejoin="round"/>
<path d="M85.9984 37.7321C85.9657 37.7317 85.933 37.7327 85.8994 37.7324L85.8998 37.7319C69.1852 37.6148 55.5036 51.0039 55.2583 67.7158C58.5949 64.4501 63.947 64.5076 67.2123 67.8442L67.3334 67.9676L67.3339 67.9676L67.4577 67.8468C70.7938 64.5811 76.146 64.6386 79.4116 67.9752L79.5184 68.0842L79.5156 68.0975L79.5236 68.0892L79.5315 68.0972L79.532 68.0968L79.5362 68.0769L79.6372 67.978C82.9737 64.7128 88.3259 64.7703 91.5916 68.1064L91.7123 68.2302L91.7132 68.2302L91.719 68.2241L91.8366 68.109C95.1727 64.8438 100.526 64.9013 103.791 68.2374L103.909 68.3585L103.918 68.3493L104.03 68.24C107.367 64.9747 112.718 65.0322 115.984 68.3683L116.105 68.4921C116.285 51.6844 102.806 37.9126 85.9984 37.7321Z" fill="white"/>
<path d="M85.7387 37.7313C69.0245 37.6137 55.343 51.0033 55.0976 67.7156C58.4342 64.4499 63.7859 64.5074 67.0516 67.844L67.1724 67.9669C64.2898 44.9686 85.5612 37.7908 85.7387 37.7313Z" fill="#FF2A77"/>
<path d="M85.8542 37.7311C85.8166 37.7307 85.7795 37.732 85.7423 37.7316C76.825 51.2741 79.3672 68.0716 79.3714 68.0965L79.493 67.977C82.8291 64.7118 88.1817 64.7692 91.4474 68.1054L91.5681 68.2292L91.5743 68.2231C91.625 67.9149 94.2946 51.3462 85.7432 37.733C85.7432 37.733 107.153 45.3319 103.773 68.3483L103.886 68.2389C107.222 64.9732 112.574 65.0307 115.84 68.3673L115.96 68.4911C116.141 51.6838 102.662 37.9115 85.8542 37.7311Z" fill="#FF2A77"/>
<path d="M91.6772 68.2236L85.3952 90.1076L79.4738 68.0965" stroke="#3C341B" stroke-width="0.442241" stroke-linecap="round" stroke-linejoin="round"/>
<path d="M67.2764 67.967L85.3953 90.1077" stroke="#3C341B" stroke-width="0.442241" stroke-linecap="round" stroke-linejoin="round"/>
<path d="M55.2002 67.7151L85.3956 90.1075" stroke="#3C341B" stroke-width="0.442241" stroke-linecap="round" stroke-linejoin="round"/>
<path d="M103.876 68.3489L85.3951 90.1072" stroke="#3C341B" stroke-width="0.442241" stroke-linecap="round" stroke-linejoin="round"/>
<path d="M116.063 68.4908L85.3952 90.1077" stroke="#3C341B" stroke-width="0.442241" stroke-linecap="round" stroke-linejoin="round"/>
</g>
</g>
<defs>
<clipPath id="clip0_18282_2560">
<rect width="167" height="151" fill="white"/>
</clipPath>
</defs>
</svg>
