<svg width="406" height="320" viewBox="0 0 406 320" fill="none" xmlns="http://www.w3.org/2000/svg">
<path d="M145.24 196.2C137.4 196.2 130.76 194.36 125.32 190.68C119.88 187 115.8 182 113.08 175.68C110.36 169.36 109 162.2 109 154.2C109 146.28 110.36 139.16 113.08 132.84C115.8 126.44 119.88 121.4 125.32 117.72C130.76 114.04 137.4 112.2 145.24 112.2C153.08 112.2 159.72 114.04 165.16 117.72C170.68 121.4 174.8 126.44 177.52 132.84C180.24 139.16 181.6 146.28 181.6 154.2C181.6 162.2 180.24 169.36 177.52 175.68C174.8 182 170.68 187 165.16 190.68C159.72 194.36 153.08 196.2 145.24 196.2ZM145.24 123.48C138.04 123.48 132.64 126.24 129.04 131.76C125.44 137.2 123.64 144.68 123.64 154.2C123.64 163.72 125.44 171.24 129.04 176.76C132.64 182.2 138.04 184.92 145.24 184.92C152.44 184.92 157.84 182.2 161.44 176.76C165.04 171.24 166.84 163.72 166.84 154.2C166.84 144.68 165.04 137.2 161.44 131.76C157.84 126.24 152.44 123.48 145.24 123.48ZM243.409 195H193.009V183.24H211.009V126.72L195.889 134.88L191.809 123.96L212.809 112.8H225.409V183.24H241.609L243.409 195Z" fill="#FF2B77" fill-opacity="0.16"/>
</svg>
