<svg width="406" height="320" viewBox="0 0 406 320" fill="none" xmlns="http://www.w3.org/2000/svg">
<path d="M145.24 196.2C137.4 196.2 130.76 194.36 125.32 190.68C119.88 187 115.8 182 113.08 175.68C110.36 169.36 109 162.2 109 154.2C109 146.28 110.36 139.16 113.08 132.84C115.8 126.44 119.88 121.4 125.32 117.72C130.76 114.04 137.4 112.2 145.24 112.2C153.08 112.2 159.72 114.04 165.16 117.72C170.68 121.4 174.8 126.44 177.52 132.84C180.24 139.16 181.6 146.28 181.6 154.2C181.6 162.2 180.24 169.36 177.52 175.68C174.8 182 170.68 187 165.16 190.68C159.72 194.36 153.08 196.2 145.24 196.2ZM145.24 123.48C138.04 123.48 132.64 126.24 129.04 131.76C125.44 137.2 123.64 144.68 123.64 154.2C123.64 163.72 125.44 171.24 129.04 176.76C132.64 182.2 138.04 184.92 145.24 184.92C152.44 184.92 157.84 182.2 161.44 176.76C165.04 171.24 166.84 163.72 166.84 154.2C166.84 144.68 165.04 137.2 161.44 131.76C157.84 126.24 152.44 123.48 145.24 123.48ZM195.409 120.12C200.049 117.56 204.529 115.6 208.849 114.24C213.249 112.88 217.769 112.2 222.409 112.2C231.049 112.2 238.209 114.16 243.889 118.08C249.569 122 252.409 127.84 252.409 135.6C252.409 140 251.249 143.96 248.929 147.48C246.609 150.92 243.769 153.88 240.409 156.36C237.049 158.76 232.729 161.52 227.449 164.64C223.289 167.04 220.009 169.08 217.609 170.76C215.209 172.44 213.209 174.32 211.609 176.4C210.009 178.48 209.209 180.72 209.209 183.12H252.049L253.849 195H193.249V187.56C193.249 182.2 194.449 177.6 196.849 173.76C199.329 169.84 202.249 166.64 205.609 164.16C209.049 161.6 213.569 158.72 219.169 155.52C223.489 153.12 226.849 151.12 229.249 149.52C231.649 147.84 233.649 145.92 235.249 143.76C236.849 141.52 237.649 139.04 237.649 136.32C237.649 131.92 236.089 128.68 232.969 126.6C229.849 124.52 225.809 123.48 220.849 123.48C217.089 123.48 213.369 124.2 209.689 125.64C206.009 127 201.969 128.96 197.569 131.52L195.409 120.12Z" fill="#FF2B77" fill-opacity="0.16"/>
</svg>
