<svg width="406" height="248" viewBox="0 0 406 248" fill="none" xmlns="http://www.w3.org/2000/svg">
<path d="M145.24 196.2C137.4 196.2 130.76 194.36 125.32 190.68C119.88 187 115.8 182 113.08 175.68C110.36 169.36 109 162.2 109 154.2C109 146.28 110.36 139.16 113.08 132.84C115.8 126.44 119.88 121.4 125.32 117.72C130.76 114.04 137.4 112.2 145.24 112.2C153.08 112.2 159.72 114.04 165.16 117.72C170.68 121.4 174.8 126.44 177.52 132.84C180.24 139.16 181.6 146.28 181.6 154.2C181.6 162.2 180.24 169.36 177.52 175.68C174.8 182 170.68 187 165.16 190.68C159.72 194.36 153.08 196.2 145.24 196.2ZM145.24 123.48C138.04 123.48 132.64 126.24 129.04 131.76C125.44 137.2 123.64 144.68 123.64 154.2C123.64 163.72 125.44 171.24 129.04 176.76C132.64 182.2 138.04 184.92 145.24 184.92C152.44 184.92 157.84 182.2 161.44 176.76C165.04 171.24 166.84 163.72 166.84 154.2C166.84 144.68 165.04 137.2 161.44 131.76C157.84 126.24 152.44 123.48 145.24 123.48ZM234.169 152.88C239.689 154.24 244.009 156.56 247.129 159.84C250.249 163.12 251.809 167.4 251.809 172.68C251.809 180.12 249.049 185.92 243.529 190.08C238.089 194.16 230.369 196.2 220.369 196.2C215.009 196.2 209.689 195.68 204.409 194.64C199.209 193.52 194.489 191.8 190.249 189.48L194.209 179.28C198.849 181.28 203.049 182.76 206.809 183.72C210.569 184.6 214.329 185.04 218.089 185.04C230.969 185.04 237.409 180.48 237.409 171.36C237.409 166.96 235.689 163.64 232.249 161.4C228.809 159.16 223.889 158.04 217.489 158.04H209.689V147.6H217.489C229.729 147.36 235.849 143.2 235.849 135.12C235.849 127.04 230.449 123 219.649 123C215.969 123 212.529 123.44 209.329 124.32C206.129 125.2 202.089 126.68 197.209 128.76L193.249 118.56C201.889 114.08 211.409 111.84 221.809 111.84C230.369 111.84 237.089 113.76 241.969 117.6C246.929 121.36 249.409 126.8 249.409 133.92C249.409 138.64 248.089 142.6 245.449 145.8C242.809 149 239.049 151.36 234.169 152.88Z" fill="#FF2B77" fill-opacity="0.16"/>
</svg>
