<svg width="1225" height="456" viewBox="0 0 1225 456" fill="none" xmlns="http://www.w3.org/2000/svg">
<path opacity="0.15" d="M61 449.082C61 466.352 48.4615 480.693 31.9912 483.5C48.1741 486.259 60.5609 500.151 60.9883 517.017L61 517.918V554H24.918C5.63332 554 -9.99997 538.367 -10 519.082V413H61V449.082ZM136 519.082C136 538.065 120.851 553.51 101.983 553.988L101.082 554H65V517.918L65.0117 517.017C65.4391 500.151 77.8249 486.259 94.0068 483.5C77.5375 480.692 65 466.352 65 449.082V413H136V519.082ZM211 449.082C211 466.352 198.462 480.693 181.991 483.5C198.174 486.259 210.561 500.151 210.988 517.017L211 517.918V554H174.918C155.633 554 140 538.367 140 519.082V413H211V449.082ZM286 519.082C286 538.065 270.851 553.51 251.983 553.988L251.082 554H215V517.918L215.012 517.017C215.439 500.151 227.825 486.259 244.007 483.5C227.537 480.692 215 466.352 215 449.082V413H286V519.082ZM361 449.082C361 466.352 348.462 480.693 331.991 483.5C348.174 486.259 360.561 500.151 360.988 517.017L361 517.918V554H324.918C305.633 554 290 538.367 290 519.082V413H361V449.082ZM436 519.082C436 538.065 420.851 553.51 401.983 553.988L401.082 554H365V517.918L365.012 517.017C365.439 500.151 377.825 486.259 394.007 483.5C377.537 480.692 365 466.352 365 449.082V413H436V519.082ZM511 449.082C511 466.352 498.462 480.693 481.991 483.5C498.174 486.259 510.561 500.151 510.988 517.017L511 517.918V554H474.918C455.633 554 440 538.367 440 519.082V413H511V449.082ZM586 519.082C586 538.065 570.851 553.51 551.983 553.988L551.082 554H515V517.918L515.012 517.017C515.439 500.151 527.825 486.259 544.007 483.5C527.537 480.692 515 466.352 515 449.082V413H586V519.082ZM661 449.082C661 466.352 648.461 480.693 631.991 483.5C648.174 486.259 660.561 500.151 660.988 517.017L661 517.918V554H624.918C605.633 554 590 538.367 590 519.082V413H661V449.082ZM736 519.082C736 538.065 720.851 553.51 701.983 553.988L701.082 554H665V517.918L665.012 517.017C665.439 500.151 677.825 486.259 694.007 483.5C677.537 480.692 665 466.352 665 449.082V413H736V519.082ZM811 449.082C811 466.352 798.461 480.693 781.991 483.5C798.174 486.259 810.561 500.151 810.988 517.017L811 517.918V554H774.918C755.633 554 740 538.367 740 519.082V413H811V449.082ZM886 519.082C886 538.065 870.851 553.51 851.983 553.988L851.082 554H815V517.918L815.012 517.017C815.439 500.151 827.825 486.259 844.007 483.5C827.537 480.692 815 466.352 815 449.082V413H886V519.082ZM961 449.082C961 466.352 948.461 480.693 931.991 483.5C948.174 486.259 960.561 500.151 960.988 517.017L961 517.918V554H924.918C905.633 554 890 538.367 890 519.082V413H961V449.082ZM1036 519.082C1036 538.065 1020.85 553.51 1001.98 553.988L1001.08 554H965V517.918L965.012 517.017C965.439 500.151 977.825 486.259 994.007 483.5C977.537 480.692 965 466.352 965 449.082V413H1036V519.082ZM1111 449.082C1111 466.352 1098.46 480.693 1081.99 483.5C1098.17 486.259 1110.56 500.151 1110.99 517.017L1111 517.918V554H1074.92C1055.63 554 1040 538.367 1040 519.082V413H1111V449.082ZM1186 519.082C1186 538.065 1170.85 553.51 1151.98 553.988L1151.08 554H1115V517.918L1115.01 517.017C1115.44 500.151 1127.82 486.259 1144.01 483.5C1127.54 480.692 1115 466.352 1115 449.082V413H1186V519.082ZM1261 449.082C1261 466.352 1248.46 480.693 1231.99 483.5C1248.17 486.259 1260.56 500.151 1260.99 517.017L1261 517.918V554H1224.92C1205.63 554 1190 538.367 1190 519.082V413H1261V449.082ZM1336 519.082C1336 538.065 1320.85 553.51 1301.98 553.988L1301.08 554H1265V517.918L1265.01 517.017C1265.44 500.151 1277.82 486.259 1294.01 483.5C1277.54 480.692 1265 466.352 1265 449.082V413H1336V519.082ZM1411 449.082C1411 466.352 1398.46 480.693 1381.99 483.5C1398.17 486.259 1410.56 500.151 1410.99 517.017L1411 517.918V554H1374.92C1355.63 554 1340 538.367 1340 519.082V413H1411V449.082ZM1486 519.082C1486 538.065 1470.85 553.51 1451.98 553.988L1451.08 554H1415V517.918L1415.01 517.017C1415.44 500.151 1427.82 486.259 1444.01 483.5C1427.54 480.692 1415 466.352 1415 449.082V413H1486V519.082ZM-9 519.082L-8.98926 519.957C-8.52512 538.285 6.47815 553 24.918 553H60V517.918C60 499.186 44.8144 484 26.082 484H-9V519.082ZM99.918 484C81.1856 484 66 499.186 66 517.918V553H101.082L101.957 552.989C120.285 552.525 135 537.522 135 519.082V484H99.918ZM141 519.082L141.011 519.957C141.475 538.285 156.478 553 174.918 553H210V517.918C210 499.186 194.814 484 176.082 484H141V519.082ZM249.918 484C231.186 484 216 499.186 216 517.918V553H251.082L251.957 552.989C270.285 552.525 285 537.522 285 519.082V484H249.918ZM291 519.082L291.011 519.957C291.475 538.285 306.478 553 324.918 553H360V517.918C360 499.186 344.814 484 326.082 484H291V519.082ZM399.918 484C381.186 484 366 499.186 366 517.918V553H401.082L401.957 552.989C420.285 552.525 435 537.522 435 519.082V484H399.918ZM441 519.082L441.011 519.957C441.475 538.285 456.478 553 474.918 553H510V517.918C510 499.186 494.814 484 476.082 484H441V519.082ZM549.918 484C531.186 484 516 499.186 516 517.918V553H551.082L551.957 552.989C570.285 552.525 585 537.522 585 519.082V484H549.918ZM591 519.082L591.011 519.957C591.475 538.285 606.478 553 624.918 553H660V517.918C660 499.186 644.814 484 626.082 484H591V519.082ZM699.918 484C681.186 484 666 499.186 666 517.918V553H701.082L701.957 552.989C720.285 552.525 735 537.522 735 519.082V484H699.918ZM741 519.082L741.011 519.957C741.475 538.285 756.478 553 774.918 553H810V517.918C810 499.186 794.814 484 776.082 484H741V519.082ZM849.918 484C831.186 484 816 499.186 816 517.918V553H851.082L851.957 552.989C870.285 552.525 885 537.522 885 519.082V484H849.918ZM891 519.082L891.011 519.957C891.475 538.285 906.478 553 924.918 553H960V517.918C960 499.186 944.814 484 926.082 484H891V519.082ZM999.918 484C981.186 484 966 499.186 966 517.918V553H1001.08L1001.96 552.989C1020.29 552.525 1035 537.522 1035 519.082V484H999.918ZM1041 519.082L1041.01 519.957C1041.47 538.285 1056.48 553 1074.92 553H1110V517.918C1110 499.186 1094.81 484 1076.08 484H1041V519.082ZM1149.92 484C1131.19 484 1116 499.186 1116 517.918V553H1151.08L1151.96 552.989C1170.29 552.525 1185 537.522 1185 519.082V484H1149.92ZM1191 519.082L1191.01 519.957C1191.47 538.285 1206.48 553 1224.92 553H1260V517.918C1260 499.186 1244.81 484 1226.08 484H1191V519.082ZM1299.92 484C1281.19 484 1266 499.186 1266 517.918V553H1301.08L1301.96 552.989C1320.29 552.525 1335 537.522 1335 519.082V484H1299.92ZM1341 519.082L1341.01 519.957C1341.47 538.285 1356.48 553 1374.92 553H1410V517.918C1410 499.186 1394.81 484 1376.08 484H1341V519.082ZM1449.92 484C1431.19 484 1416 499.186 1416 517.918V553H1451.08L1451.96 552.989C1470.29 552.525 1485 537.522 1485 519.082V484H1449.92ZM-9 483H26.082L26.957 482.989C45.285 482.525 60 467.522 60 449.082V414H-9V483ZM66 449.082C66 467.814 81.1856 483 99.918 483H135V414H66V449.082ZM141 483H176.082L176.957 482.989C195.285 482.525 210 467.522 210 449.082V414H141V483ZM216 449.082C216 467.814 231.186 483 249.918 483H285V414H216V449.082ZM291 483H326.082L326.957 482.989C345.285 482.525 360 467.522 360 449.082V414H291V483ZM366 449.082C366 467.814 381.186 483 399.918 483H435V414H366V449.082ZM441 483H476.082L476.957 482.989C495.285 482.525 510 467.522 510 449.082V414H441V483ZM516 449.082C516 467.814 531.186 483 549.918 483H585V414H516V449.082ZM591 483H626.082L626.957 482.989C645.285 482.525 660 467.522 660 449.082V414H591V483ZM666 449.082C666 467.814 681.186 483 699.918 483H735V414H666V449.082ZM741 483H776.082L776.957 482.989C795.285 482.525 810 467.522 810 449.082V414H741V483ZM816 449.082C816 467.814 831.186 483 849.918 483H885V414H816V449.082ZM891 483H926.082L926.957 482.989C945.285 482.525 960 467.522 960 449.082V414H891V483ZM966 449.082C966 467.814 981.186 483 999.918 483H1035V414H966V449.082ZM1041 483H1076.08L1076.96 482.989C1095.29 482.525 1110 467.522 1110 449.082V414H1041V483ZM1116 449.082C1116 467.814 1131.19 483 1149.92 483H1185V414H1116V449.082ZM1191 483H1226.08L1226.96 482.989C1245.29 482.525 1260 467.522 1260 449.082V414H1191V483ZM1266 449.082C1266 467.814 1281.19 483 1299.92 483H1335V414H1266V449.082ZM1341 483H1376.08L1376.96 482.989C1395.29 482.525 1410 467.522 1410 449.082V414H1341V483ZM1416 449.082C1416 467.814 1431.19 483 1449.92 483H1485V414H1416V449.082ZM61 304.082L60.9883 304.983C60.5609 321.849 48.1741 335.741 31.9912 338.5C48.4615 341.307 61 355.648 61 372.918V409H-10V302.918C-9.99997 283.633 5.63332 268 24.918 268H61V304.082ZM101.983 268.012C120.851 268.49 136 283.935 136 302.918V409H65V372.918C65 355.648 77.5375 341.308 94.0068 338.5C77.8249 335.741 65.4391 321.849 65.0117 304.983L65 304.082V268H101.082L101.983 268.012ZM211 304.082L210.988 304.983C210.561 321.849 198.174 335.741 181.991 338.5C198.462 341.307 211 355.648 211 372.918V409H140V302.918C140 283.633 155.633 268 174.918 268H211V304.082ZM251.983 268.012C270.851 268.49 286 283.935 286 302.918V409H215V372.918C215 355.648 227.537 341.308 244.007 338.5C227.825 335.741 215.439 321.849 215.012 304.983L215 304.082V268H251.082L251.983 268.012ZM361 304.082L360.988 304.983C360.561 321.849 348.174 335.741 331.991 338.5C348.462 341.307 361 355.648 361 372.918V409H290V302.918C290 283.633 305.633 268 324.918 268H361V304.082ZM401.983 268.012C420.851 268.49 436 283.935 436 302.918V409H365V372.918C365 355.648 377.537 341.308 394.007 338.5C377.825 335.741 365.439 321.849 365.012 304.983L365 304.082V268H401.082L401.983 268.012ZM511 304.082L510.988 304.983C510.561 321.849 498.174 335.741 481.991 338.5C498.462 341.307 511 355.648 511 372.918V409H440V302.918C440 283.633 455.633 268 474.918 268H511V304.082ZM551.983 268.012C570.851 268.49 586 283.935 586 302.918V409H515V372.918C515 355.648 527.537 341.308 544.007 338.5C527.825 335.741 515.439 321.849 515.012 304.983L515 304.082V268H551.082L551.983 268.012ZM661 304.082L660.988 304.983C660.561 321.849 648.174 335.741 631.991 338.5C648.461 341.307 661 355.648 661 372.918V409H590V302.918C590 283.633 605.633 268 624.918 268H661V304.082ZM701.983 268.012C720.851 268.49 736 283.935 736 302.918V409H665V372.918C665 355.648 677.537 341.308 694.007 338.5C677.825 335.741 665.439 321.849 665.012 304.983L665 304.082V268H701.082L701.983 268.012ZM811 304.082L810.988 304.983C810.561 321.849 798.174 335.741 781.991 338.5C798.461 341.307 811 355.648 811 372.918V409H740V302.918C740 283.633 755.633 268 774.918 268H811V304.082ZM851.983 268.012C870.851 268.49 886 283.935 886 302.918V409H815V372.918C815 355.648 827.537 341.308 844.007 338.5C827.825 335.741 815.439 321.849 815.012 304.983L815 304.082V268H851.082L851.983 268.012ZM961 304.082L960.988 304.983C960.561 321.849 948.174 335.741 931.991 338.5C948.461 341.307 961 355.648 961 372.918V409H890V302.918C890 283.633 905.633 268 924.918 268H961V304.082ZM1001.98 268.012C1020.85 268.49 1036 283.935 1036 302.918V409H965V372.918C965 355.648 977.537 341.308 994.007 338.5C977.825 335.741 965.439 321.849 965.012 304.983L965 304.082V268H1001.08L1001.98 268.012ZM1111 304.082L1110.99 304.983C1110.56 321.849 1098.17 335.741 1081.99 338.5C1098.46 341.307 1111 355.648 1111 372.918V409H1040V302.918C1040 283.633 1055.63 268 1074.92 268H1111V304.082ZM1151.98 268.012C1170.85 268.49 1186 283.935 1186 302.918V409H1115V372.918C1115 355.648 1127.54 341.308 1144.01 338.5C1127.82 335.741 1115.44 321.849 1115.01 304.983L1115 304.082V268H1151.08L1151.98 268.012ZM1261 304.082L1260.99 304.983C1260.56 321.849 1248.17 335.741 1231.99 338.5C1248.46 341.307 1261 355.648 1261 372.918V409H1190V302.918C1190 283.633 1205.63 268 1224.92 268H1261V304.082ZM1301.98 268.012C1320.85 268.49 1336 283.935 1336 302.918V409H1265V372.918C1265 355.648 1277.54 341.308 1294.01 338.5C1277.82 335.741 1265.44 321.849 1265.01 304.983L1265 304.082V268H1301.08L1301.98 268.012ZM1411 304.082L1410.99 304.983C1410.56 321.849 1398.17 335.741 1381.99 338.5C1398.46 341.307 1411 355.648 1411 372.918V409H1340V302.918C1340 283.633 1355.63 268 1374.92 268H1411V304.082ZM1451.98 268.012C1470.85 268.49 1486 283.935 1486 302.918V409H1415V372.918C1415 355.648 1427.54 341.308 1444.01 338.5C1427.82 335.741 1415.44 321.849 1415.01 304.983L1415 304.082V268H1451.08L1451.98 268.012ZM-9 408H60V372.918C60 354.478 45.285 339.475 26.957 339.011L26.082 339H-9V408ZM99.918 339C81.1856 339 66 354.186 66 372.918V408H135V339H99.918ZM141 408H210V372.918C210 354.478 195.285 339.475 176.957 339.011L176.082 339H141V408ZM249.918 339C231.186 339 216 354.186 216 372.918V408H285V339H249.918ZM291 408H360V372.918C360 354.478 345.285 339.475 326.957 339.011L326.082 339H291V408ZM399.918 339C381.186 339 366 354.186 366 372.918V408H435V339H399.918ZM441 408H510V372.918C510 354.478 495.285 339.475 476.957 339.011L476.082 339H441V408ZM549.918 339C531.186 339 516 354.186 516 372.918V408H585V339H549.918ZM591 408H660V372.918C660 354.478 645.285 339.475 626.957 339.011L626.082 339H591V408ZM699.918 339C681.186 339 666 354.186 666 372.918V408H735V339H699.918ZM741 408H810V372.918C810 354.478 795.285 339.475 776.957 339.011L776.082 339H741V408ZM849.918 339C831.186 339 816 354.186 816 372.918V408H885V339H849.918ZM891 408H960V372.918C960 354.478 945.285 339.475 926.957 339.011L926.082 339H891V408ZM999.918 339C981.186 339 966 354.186 966 372.918V408H1035V339H999.918ZM1041 408H1110V372.918C1110 354.478 1095.29 339.475 1076.96 339.011L1076.08 339H1041V408ZM1149.92 339C1131.19 339 1116 354.186 1116 372.918V408H1185V339H1149.92ZM1191 408H1260V372.918C1260 354.478 1245.29 339.475 1226.96 339.011L1226.08 339H1191V408ZM1299.92 339C1281.19 339 1266 354.186 1266 372.918V408H1335V339H1299.92ZM1341 408H1410V372.918C1410 354.478 1395.29 339.475 1376.96 339.011L1376.08 339H1341V408ZM1449.92 339C1431.19 339 1416 354.186 1416 372.918V408H1485V339H1449.92ZM24.918 269C6.47815 269 -8.52512 283.715 -8.98926 302.043L-9 302.918V338H26.082C44.8144 338 60 322.814 60 304.082V269H24.918ZM66 304.082C66 322.814 81.1856 338 99.918 338H135V302.918C135 284.478 120.285 269.475 101.957 269.011L101.082 269H66V304.082ZM174.918 269C156.478 269 141.475 283.715 141.011 302.043L141 302.918V338H176.082C194.814 338 210 322.814 210 304.082V269H174.918ZM216 304.082C216 322.814 231.186 338 249.918 338H285V302.918C285 284.478 270.285 269.475 251.957 269.011L251.082 269H216V304.082ZM324.918 269C306.478 269 291.475 283.715 291.011 302.043L291 302.918V338H326.082C344.814 338 360 322.814 360 304.082V269H324.918ZM366 304.082C366 322.814 381.186 338 399.918 338H435V302.918C435 284.478 420.285 269.475 401.957 269.011L401.082 269H366V304.082ZM474.918 269C456.478 269 441.475 283.715 441.011 302.043L441 302.918V338H476.082C494.814 338 510 322.814 510 304.082V269H474.918ZM516 304.082C516 322.814 531.186 338 549.918 338H585V302.918C585 284.478 570.285 269.475 551.957 269.011L551.082 269H516V304.082ZM624.918 269C606.478 269 591.475 283.715 591.011 302.043L591 302.918V338H626.082C644.814 338 660 322.814 660 304.082V269H624.918ZM666 304.082C666 322.814 681.186 338 699.918 338H735V302.918C735 284.478 720.285 269.475 701.957 269.011L701.082 269H666V304.082ZM774.918 269C756.478 269 741.475 283.715 741.011 302.043L741 302.918V338H776.082C794.814 338 810 322.814 810 304.082V269H774.918ZM816 304.082C816 322.814 831.186 338 849.918 338H885V302.918C885 284.478 870.285 269.475 851.957 269.011L851.082 269H816V304.082ZM924.918 269C906.478 269 891.475 283.715 891.011 302.043L891 302.918V338H926.082C944.814 338 960 322.814 960 304.082V269H924.918ZM966 304.082C966 322.814 981.186 338 999.918 338H1035V302.918C1035 284.478 1020.29 269.475 1001.96 269.011L1001.08 269H966V304.082ZM1074.92 269C1056.48 269 1041.47 283.715 1041.01 302.043L1041 302.918V338H1076.08C1094.81 338 1110 322.814 1110 304.082V269H1074.92ZM1116 304.082C1116 322.814 1131.19 338 1149.92 338H1185V302.918C1185 284.478 1170.29 269.475 1151.96 269.011L1151.08 269H1116V304.082ZM1224.92 269C1206.48 269 1191.47 283.715 1191.01 302.043L1191 302.918V338H1226.08C1244.81 338 1260 322.814 1260 304.082V269H1224.92ZM1266 304.082C1266 322.814 1281.19 338 1299.92 338H1335V302.918C1335 284.478 1320.29 269.475 1301.96 269.011L1301.08 269H1266V304.082ZM1374.92 269C1356.48 269 1341.47 283.715 1341.01 302.043L1341 302.918V338H1376.08C1394.81 338 1410 322.814 1410 304.082V269H1374.92ZM1416 304.082C1416 322.814 1431.19 338 1449.92 338H1485V302.918C1485 284.478 1470.29 269.475 1451.96 269.011L1451.08 269H1416V304.082ZM61 159.082C61 176.352 48.4615 190.692 31.9912 193.5C48.1741 196.259 60.5609 210.151 60.9883 227.017L61 227.918V264H24.918C5.63332 264 -9.99997 248.367 -10 229.082V123H61V159.082ZM136 229.082C136 248.065 120.851 263.51 101.983 263.988L101.082 264H65V227.918L65.0117 227.017C65.4391 210.151 77.8249 196.259 94.0068 193.5C77.5375 190.692 65 176.352 65 159.082V123H136V229.082ZM211 159.082C211 176.352 198.462 190.692 181.991 193.5C198.174 196.259 210.561 210.151 210.988 227.017L211 227.918V264H174.918C155.633 264 140 248.367 140 229.082V123H211V159.082ZM286 229.082C286 248.065 270.851 263.51 251.983 263.988L251.082 264H215V227.918L215.012 227.017C215.439 210.151 227.825 196.259 244.007 193.5C227.537 190.692 215 176.352 215 159.082V123H286V229.082ZM361 159.082C361 176.352 348.462 190.692 331.991 193.5C348.174 196.259 360.561 210.151 360.988 227.017L361 227.918V264H324.918C305.633 264 290 248.367 290 229.082V123H361V159.082ZM436 229.082C436 248.065 420.851 263.51 401.983 263.988L401.082 264H365V227.918L365.012 227.017C365.439 210.151 377.825 196.259 394.007 193.5C377.537 190.692 365 176.352 365 159.082V123H436V229.082ZM511 159.082C511 176.352 498.462 190.692 481.991 193.5C498.174 196.259 510.561 210.151 510.988 227.017L511 227.918V264H474.918C455.633 264 440 248.367 440 229.082V123H511V159.082ZM586 229.082C586 248.065 570.851 263.51 551.983 263.988L551.082 264H515V227.918L515.012 227.017C515.439 210.151 527.825 196.259 544.007 193.5C527.537 190.692 515 176.352 515 159.082V123H586V229.082ZM661 159.082C661 176.352 648.461 190.692 631.991 193.5C648.174 196.259 660.561 210.151 660.988 227.017L661 227.918V264H624.918C605.633 264 590 248.367 590 229.082V123H661V159.082ZM736 229.082C736 248.065 720.851 263.51 701.983 263.988L701.082 264H665V227.918L665.012 227.017C665.439 210.151 677.825 196.259 694.007 193.5C677.537 190.692 665 176.352 665 159.082V123H736V229.082ZM811 159.082C811 176.352 798.461 190.692 781.991 193.5C798.174 196.259 810.561 210.151 810.988 227.017L811 227.918V264H774.918C755.633 264 740 248.367 740 229.082V123H811V159.082ZM886 229.082C886 248.065 870.851 263.51 851.983 263.988L851.082 264H815V227.918L815.012 227.017C815.439 210.151 827.825 196.259 844.007 193.5C827.537 190.692 815 176.352 815 159.082V123H886V229.082ZM961 159.082C961 176.352 948.461 190.692 931.991 193.5C948.174 196.259 960.561 210.151 960.988 227.017L961 227.918V264H924.918C905.633 264 890 248.367 890 229.082V123H961V159.082ZM1036 229.082C1036 248.065 1020.85 263.51 1001.98 263.988L1001.08 264H965V227.918L965.012 227.017C965.439 210.151 977.825 196.259 994.007 193.5C977.537 190.692 965 176.352 965 159.082V123H1036V229.082ZM1111 159.082C1111 176.352 1098.46 190.692 1081.99 193.5C1098.17 196.259 1110.56 210.151 1110.99 227.017L1111 227.918V264H1074.92C1055.63 264 1040 248.367 1040 229.082V123H1111V159.082ZM1186 229.082C1186 248.065 1170.85 263.51 1151.98 263.988L1151.08 264H1115V227.918L1115.01 227.017C1115.44 210.151 1127.82 196.259 1144.01 193.5C1127.54 190.692 1115 176.352 1115 159.082V123H1186V229.082ZM1261 159.082C1261 176.352 1248.46 190.692 1231.99 193.5C1248.17 196.259 1260.56 210.151 1260.99 227.017L1261 227.918V264H1224.92C1205.63 264 1190 248.367 1190 229.082V123H1261V159.082ZM1336 229.082C1336 248.065 1320.85 263.51 1301.98 263.988L1301.08 264H1265V227.918L1265.01 227.017C1265.44 210.151 1277.82 196.259 1294.01 193.5C1277.54 190.692 1265 176.352 1265 159.082V123H1336V229.082ZM1411 159.082C1411 176.352 1398.46 190.692 1381.99 193.5C1398.17 196.259 1410.56 210.151 1410.99 227.017L1411 227.918V264H1374.92C1355.63 264 1340 248.367 1340 229.082V123H1411V159.082ZM1486 229.082C1486 248.065 1470.85 263.51 1451.98 263.988L1451.08 264H1415V227.918L1415.01 227.017C1415.44 210.151 1427.82 196.259 1444.01 193.5C1427.54 190.692 1415 176.352 1415 159.082V123H1486V229.082ZM-9 229.082L-8.98926 229.957C-8.52512 248.285 6.47815 263 24.918 263H60V227.918C60 209.186 44.8144 194 26.082 194H-9V229.082ZM99.918 194C81.1856 194 66 209.186 66 227.918V263H101.082L101.957 262.989C120.285 262.525 135 247.522 135 229.082V194H99.918ZM141 229.082L141.011 229.957C141.475 248.285 156.478 263 174.918 263H210V227.918C210 209.186 194.814 194 176.082 194H141V229.082ZM249.918 194C231.186 194 216 209.186 216 227.918V263H251.082L251.957 262.989C270.285 262.525 285 247.522 285 229.082V194H249.918ZM291 229.082L291.011 229.957C291.475 248.285 306.478 263 324.918 263H360V227.918C360 209.186 344.814 194 326.082 194H291V229.082ZM399.918 194C381.186 194 366 209.186 366 227.918V263H401.082L401.957 262.989C420.285 262.525 435 247.522 435 229.082V194H399.918ZM441 229.082L441.011 229.957C441.475 248.285 456.478 263 474.918 263H510V227.918C510 209.186 494.814 194 476.082 194H441V229.082ZM549.918 194C531.186 194 516 209.186 516 227.918V263H551.082L551.957 262.989C570.285 262.525 585 247.522 585 229.082V194H549.918ZM591 229.082L591.011 229.957C591.475 248.285 606.478 263 624.918 263H660V227.918C660 209.186 644.814 194 626.082 194H591V229.082ZM699.918 194C681.186 194 666 209.186 666 227.918V263H701.082L701.957 262.989C720.285 262.525 735 247.522 735 229.082V194H699.918ZM741 229.082L741.011 229.957C741.475 248.285 756.478 263 774.918 263H810V227.918C810 209.186 794.814 194 776.082 194H741V229.082ZM849.918 194C831.186 194 816 209.186 816 227.918V263H851.082L851.957 262.989C870.285 262.525 885 247.522 885 229.082V194H849.918ZM891 229.082L891.011 229.957C891.475 248.285 906.478 263 924.918 263H960V227.918C960 209.186 944.814 194 926.082 194H891V229.082ZM999.918 194C981.186 194 966 209.186 966 227.918V263H1001.08L1001.96 262.989C1020.29 262.525 1035 247.522 1035 229.082V194H999.918ZM1041 229.082L1041.01 229.957C1041.47 248.285 1056.48 263 1074.92 263H1110V227.918C1110 209.186 1094.81 194 1076.08 194H1041V229.082ZM1149.92 194C1131.19 194 1116 209.186 1116 227.918V263H1151.08L1151.96 262.989C1170.29 262.525 1185 247.522 1185 229.082V194H1149.92ZM1191 229.082L1191.01 229.957C1191.47 248.285 1206.48 263 1224.92 263H1260V227.918C1260 209.186 1244.81 194 1226.08 194H1191V229.082ZM1299.92 194C1281.19 194 1266 209.186 1266 227.918V263H1301.08L1301.96 262.989C1320.29 262.525 1335 247.522 1335 229.082V194H1299.92ZM1341 229.082L1341.01 229.957C1341.47 248.285 1356.48 263 1374.92 263H1410V227.918C1410 209.186 1394.81 194 1376.08 194H1341V229.082ZM1449.92 194C1431.19 194 1416 209.186 1416 227.918V263H1451.08L1451.96 262.989C1470.29 262.525 1485 247.522 1485 229.082V194H1449.92ZM-9 193H26.082L26.957 192.989C45.285 192.525 60 177.522 60 159.082V124H-9V193ZM66 159.082C66 177.814 81.1856 193 99.918 193H135V124H66V159.082ZM141 193H176.082L176.957 192.989C195.285 192.525 210 177.522 210 159.082V124H141V193ZM216 159.082C216 177.814 231.186 193 249.918 193H285V124H216V159.082ZM291 193H326.082L326.957 192.989C345.285 192.525 360 177.522 360 159.082V124H291V193ZM366 159.082C366 177.814 381.186 193 399.918 193H435V124H366V159.082ZM441 193H476.082L476.957 192.989C495.285 192.525 510 177.522 510 159.082V124H441V193ZM516 159.082C516 177.814 531.186 193 549.918 193H585V124H516V159.082ZM591 193H626.082L626.957 192.989C645.285 192.525 660 177.522 660 159.082V124H591V193ZM666 159.082C666 177.814 681.186 193 699.918 193H735V124H666V159.082ZM741 193H776.082L776.957 192.989C795.285 192.525 810 177.522 810 159.082V124H741V193ZM816 159.082C816 177.814 831.186 193 849.918 193H885V124H816V159.082ZM891 193H926.082L926.957 192.989C945.285 192.525 960 177.522 960 159.082V124H891V193ZM966 159.082C966 177.814 981.186 193 999.918 193H1035V124H966V159.082ZM1041 193H1076.08L1076.96 192.989C1095.29 192.525 1110 177.522 1110 159.082V124H1041V193ZM1116 159.082C1116 177.814 1131.19 193 1149.92 193H1185V124H1116V159.082ZM1191 193H1226.08L1226.96 192.989C1245.29 192.525 1260 177.522 1260 159.082V124H1191V193ZM1266 159.082C1266 177.814 1281.19 193 1299.92 193H1335V124H1266V159.082ZM1341 193H1376.08L1376.96 192.989C1395.29 192.525 1410 177.522 1410 159.082V124H1341V193ZM1416 159.082C1416 177.814 1431.19 193 1449.92 193H1485V124H1416V159.082ZM61 14.082L60.9883 14.9834C60.5609 31.8495 48.1741 45.7415 31.9912 48.5C48.4615 51.3075 61 65.6475 61 82.918V119H-10V12.918C-9.99997 -6.36668 5.63332 -22 24.918 -22H61V14.082ZM101.983 -21.9883C120.851 -21.5102 136 -6.06531 136 12.918V119H65V82.918C65 65.6482 77.5375 51.3083 94.0068 48.5C77.8249 45.7407 65.4391 31.8488 65.0117 14.9834L65 14.082V-22H101.082L101.983 -21.9883ZM211 14.082L210.988 14.9834C210.561 31.8495 198.174 45.7415 181.991 48.5C198.462 51.3075 211 65.6475 211 82.918V119H140V12.918C140 -6.36668 155.633 -22 174.918 -22H211V14.082ZM251.983 -21.9883C270.851 -21.5102 286 -6.06531 286 12.918V119H215V82.918C215 65.6482 227.537 51.3083 244.007 48.5C227.825 45.7407 215.439 31.8488 215.012 14.9834L215 14.082V-22H251.082L251.983 -21.9883ZM361 14.082L360.988 14.9834C360.561 31.8495 348.174 45.7415 331.991 48.5C348.462 51.3075 361 65.6475 361 82.918V119H290V12.918C290 -6.36668 305.633 -22 324.918 -22H361V14.082ZM401.983 -21.9883C420.851 -21.5102 436 -6.06531 436 12.918V119H365V82.918C365 65.6482 377.537 51.3083 394.007 48.5C377.825 45.7407 365.439 31.8488 365.012 14.9834L365 14.082V-22H401.082L401.983 -21.9883ZM511 14.082L510.988 14.9834C510.561 31.8495 498.174 45.7415 481.991 48.5C498.462 51.3075 511 65.6475 511 82.918V119H440V12.918C440 -6.36668 455.633 -22 474.918 -22H511V14.082ZM551.983 -21.9883C570.851 -21.5102 586 -6.06531 586 12.918V119H515V82.918C515 65.6482 527.537 51.3083 544.007 48.5C527.825 45.7407 515.439 31.8488 515.012 14.9834L515 14.082V-22H551.082L551.983 -21.9883ZM661 14.082L660.988 14.9834C660.561 31.8495 648.174 45.7415 631.991 48.5C648.461 51.3075 661 65.6475 661 82.918V119H590V12.918C590 -6.36668 605.633 -22 624.918 -22H661V14.082ZM701.983 -21.9883C720.851 -21.5102 736 -6.06531 736 12.918V119H665V82.918C665 65.6482 677.537 51.3083 694.007 48.5C677.825 45.7407 665.439 31.8488 665.012 14.9834L665 14.082V-22H701.082L701.983 -21.9883ZM811 14.082L810.988 14.9834C810.561 31.8495 798.174 45.7415 781.991 48.5C798.461 51.3075 811 65.6475 811 82.918V119H740V12.918C740 -6.36668 755.633 -22 774.918 -22H811V14.082ZM851.983 -21.9883C870.851 -21.5102 886 -6.06531 886 12.918V119H815V82.918C815 65.6482 827.537 51.3083 844.007 48.5C827.825 45.7407 815.439 31.8488 815.012 14.9834L815 14.082V-22H851.082L851.983 -21.9883ZM961 14.082L960.988 14.9834C960.561 31.8495 948.174 45.7415 931.991 48.5C948.461 51.3075 961 65.6475 961 82.918V119H890V12.918C890 -6.36668 905.633 -22 924.918 -22H961V14.082ZM1001.98 -21.9883C1020.85 -21.5102 1036 -6.06531 1036 12.918V119H965V82.918C965 65.6482 977.537 51.3083 994.007 48.5C977.825 45.7407 965.439 31.8488 965.012 14.9834L965 14.082V-22H1001.08L1001.98 -21.9883ZM1111 14.082L1110.99 14.9834C1110.56 31.8495 1098.17 45.7415 1081.99 48.5C1098.46 51.3075 1111 65.6475 1111 82.918V119H1040V12.918C1040 -6.36668 1055.63 -22 1074.92 -22H1111V14.082ZM1151.98 -21.9883C1170.85 -21.5102 1186 -6.06531 1186 12.918V119H1115V82.918C1115 65.6482 1127.54 51.3083 1144.01 48.5C1127.82 45.7407 1115.44 31.8488 1115.01 14.9834L1115 14.082V-22H1151.08L1151.98 -21.9883ZM1261 14.082L1260.99 14.9834C1260.56 31.8495 1248.17 45.7415 1231.99 48.5C1248.46 51.3075 1261 65.6475 1261 82.918V119H1190V12.918C1190 -6.36668 1205.63 -22 1224.92 -22H1261V14.082ZM1301.98 -21.9883C1320.85 -21.5102 1336 -6.06531 1336 12.918V119H1265V82.918C1265 65.6482 1277.54 51.3083 1294.01 48.5C1277.82 45.7407 1265.44 31.8488 1265.01 14.9834L1265 14.082V-22H1301.08L1301.98 -21.9883ZM1411 14.082L1410.99 14.9834C1410.56 31.8495 1398.17 45.7415 1381.99 48.5C1398.46 51.3075 1411 65.6475 1411 82.918V119H1340V12.918C1340 -6.36668 1355.63 -22 1374.92 -22H1411V14.082ZM1451.98 -21.9883C1470.85 -21.5102 1486 -6.06531 1486 12.918V119H1415V82.918C1415 65.6482 1427.54 51.3083 1444.01 48.5C1427.82 45.7407 1415.44 31.8488 1415.01 14.9834L1415 14.082V-22H1451.08L1451.98 -21.9883ZM-9 118H60V82.918C60 64.4781 45.285 49.4749 26.957 49.0107L26.082 49H-9V118ZM99.918 49C81.1856 49 66 64.1856 66 82.918V118H135V49H99.918ZM141 118H210V82.918C210 64.4781 195.285 49.4749 176.957 49.0107L176.082 49H141V118ZM249.918 49C231.186 49 216 64.1856 216 82.918V118H285V49H249.918ZM291 118H360V82.918C360 64.4781 345.285 49.4749 326.957 49.0107L326.082 49H291V118ZM399.918 49C381.186 49 366 64.1856 366 82.918V118H435V49H399.918ZM441 118H510V82.918C510 64.4781 495.285 49.4749 476.957 49.0107L476.082 49H441V118ZM549.918 49C531.186 49 516 64.1856 516 82.918V118H585V49H549.918ZM591 118H660V82.918C660 64.4781 645.285 49.4749 626.957 49.0107L626.082 49H591V118ZM699.918 49C681.186 49 666 64.1856 666 82.918V118H735V49H699.918ZM741 118H810V82.918C810 64.4781 795.285 49.4749 776.957 49.0107L776.082 49H741V118ZM849.918 49C831.186 49 816 64.1856 816 82.918V118H885V49H849.918ZM891 118H960V82.918C960 64.4781 945.285 49.4749 926.957 49.0107L926.082 49H891V118ZM999.918 49C981.186 49 966 64.1856 966 82.918V118H1035V49H999.918ZM1041 118H1110V82.918C1110 64.4781 1095.29 49.4749 1076.96 49.0107L1076.08 49H1041V118ZM1149.92 49C1131.19 49 1116 64.1856 1116 82.918V118H1185V49H1149.92ZM1191 118H1260V82.918C1260 64.4781 1245.29 49.4749 1226.96 49.0107L1226.08 49H1191V118ZM1299.92 49C1281.19 49 1266 64.1856 1266 82.918V118H1335V49H1299.92ZM1341 118H1410V82.918C1410 64.4781 1395.29 49.4749 1376.96 49.0107L1376.08 49H1341V118ZM1449.92 49C1431.19 49 1416 64.1856 1416 82.918V118H1485V49H1449.92ZM24.918 -21C6.47815 -21 -8.52512 -6.285 -8.98926 12.043L-9 12.918V48H26.082C44.8144 48 60 32.8144 60 14.082V-21H24.918ZM66 14.082C66 32.8144 81.1856 48 99.918 48H135V12.918C135 -5.52185 120.285 -20.5251 101.957 -20.9893L101.082 -21H66V14.082ZM174.918 -21C156.478 -21 141.475 -6.285 141.011 12.043L141 12.918V48H176.082C194.814 48 210 32.8144 210 14.082V-21H174.918ZM216 14.082C216 32.8144 231.186 48 249.918 48H285V12.918C285 -5.52185 270.285 -20.5251 251.957 -20.9893L251.082 -21H216V14.082ZM324.918 -21C306.478 -21 291.475 -6.285 291.011 12.043L291 12.918V48H326.082C344.814 48 360 32.8144 360 14.082V-21H324.918ZM366 14.082C366 32.8144 381.186 48 399.918 48H435V12.918C435 -5.52185 420.285 -20.5251 401.957 -20.9893L401.082 -21H366V14.082ZM474.918 -21C456.478 -21 441.475 -6.285 441.011 12.043L441 12.918V48H476.082C494.814 48 510 32.8144 510 14.082V-21H474.918ZM516 14.082C516 32.8144 531.186 48 549.918 48H585V12.918C585 -5.52185 570.285 -20.5251 551.957 -20.9893L551.082 -21H516V14.082ZM624.918 -21C606.478 -21 591.475 -6.285 591.011 12.043L591 12.918V48H626.082C644.814 48 660 32.8144 660 14.082V-21H624.918ZM666 14.082C666 32.8144 681.186 48 699.918 48H735V12.918C735 -5.52185 720.285 -20.5251 701.957 -20.9893L701.082 -21H666V14.082ZM774.918 -21C756.478 -21 741.475 -6.285 741.011 12.043L741 12.918V48H776.082C794.814 48 810 32.8144 810 14.082V-21H774.918ZM816 14.082C816 32.8144 831.186 48 849.918 48H885V12.918C885 -5.52185 870.285 -20.5251 851.957 -20.9893L851.082 -21H816V14.082ZM924.918 -21C906.478 -21 891.475 -6.285 891.011 12.043L891 12.918V48H926.082C944.814 48 960 32.8144 960 14.082V-21H924.918ZM966 14.082C966 32.8144 981.186 48 999.918 48H1035V12.918C1035 -5.52185 1020.29 -20.5251 1001.96 -20.9893L1001.08 -21H966V14.082ZM1074.92 -21C1056.48 -21 1041.47 -6.285 1041.01 12.043L1041 12.918V48H1076.08C1094.81 48 1110 32.8144 1110 14.082V-21H1074.92ZM1116 14.082C1116 32.8144 1131.19 48 1149.92 48H1185V12.918C1185 -5.52185 1170.29 -20.5251 1151.96 -20.9893L1151.08 -21H1116V14.082ZM1224.92 -21C1206.48 -21 1191.47 -6.285 1191.01 12.043L1191 12.918V48H1226.08C1244.81 48 1260 32.8144 1260 14.082V-21H1224.92ZM1266 14.082C1266 32.8144 1281.19 48 1299.92 48H1335V12.918C1335 -5.52185 1320.29 -20.5251 1301.96 -20.9893L1301.08 -21H1266V14.082ZM1374.92 -21C1356.48 -21 1341.47 -6.285 1341.01 12.043L1341 12.918V48H1376.08C1394.81 48 1410 32.8144 1410 14.082V-21H1374.92ZM1416 14.082C1416 32.8144 1431.19 48 1449.92 48H1485V12.918C1485 -5.52185 1470.29 -20.5251 1451.96 -20.9893L1451.08 -21H1416V14.082Z" fill="white"/>
</svg>
