<svg width="1440" height="141" viewBox="0 0 1440 141" fill="none" xmlns="http://www.w3.org/2000/svg">
<g clip-path="url(#clip0_244_1736)">
<rect width="1440" height="141" fill="#FF2B77"/>
<path opacity="0.15" d="M61.5 329.082C61.5 346.352 48.9615 360.693 32.4912 363.5C48.6741 366.259 61.0609 380.151 61.4883 397.017L61.5 397.918V434H25.418C6.13332 434 -9.49997 418.367 -9.5 399.082V293H61.5V329.082ZM136.5 399.082C136.5 418.065 121.351 433.51 102.483 433.988L101.582 434H65.5V397.918L65.5117 397.017C65.9391 380.151 78.3249 366.259 94.5068 363.5C78.0375 360.692 65.5 346.352 65.5 329.082V293H136.5V399.082ZM211.5 329.082C211.5 346.352 198.962 360.693 182.491 363.5C198.674 366.259 211.061 380.151 211.488 397.017L211.5 397.918V434H175.418C156.133 434 140.5 418.367 140.5 399.082V293H211.5V329.082ZM286.5 399.082C286.5 418.065 271.351 433.51 252.483 433.988L251.582 434H215.5V397.918L215.512 397.017C215.939 380.151 228.325 366.259 244.507 363.5C228.037 360.692 215.5 346.352 215.5 329.082V293H286.5V399.082ZM361.5 329.082C361.5 346.352 348.962 360.693 332.491 363.5C348.674 366.259 361.061 380.151 361.488 397.017L361.5 397.918V434H325.418C306.133 434 290.5 418.367 290.5 399.082V293H361.5V329.082ZM436.5 399.082C436.5 418.065 421.351 433.51 402.483 433.988L401.582 434H365.5V397.918L365.512 397.017C365.939 380.151 378.325 366.259 394.507 363.5C378.037 360.692 365.5 346.352 365.5 329.082V293H436.5V399.082ZM511.5 329.082C511.5 346.352 498.962 360.693 482.491 363.5C498.674 366.259 511.061 380.151 511.488 397.017L511.5 397.918V434H475.418C456.133 434 440.5 418.367 440.5 399.082V293H511.5V329.082ZM586.5 399.082C586.5 418.065 571.351 433.51 552.483 433.988L551.582 434H515.5V397.918L515.512 397.017C515.939 380.151 528.325 366.259 544.507 363.5C528.037 360.692 515.5 346.352 515.5 329.082V293H586.5V399.082ZM661.5 329.082C661.5 346.352 648.961 360.693 632.491 363.5C648.674 366.259 661.061 380.151 661.488 397.017L661.5 397.918V434H625.418C606.133 434 590.5 418.367 590.5 399.082V293H661.5V329.082ZM736.5 399.082C736.5 418.065 721.351 433.51 702.483 433.988L701.582 434H665.5V397.918L665.512 397.017C665.939 380.151 678.325 366.259 694.507 363.5C678.037 360.692 665.5 346.352 665.5 329.082V293H736.5V399.082ZM811.5 329.082C811.5 346.352 798.961 360.693 782.491 363.5C798.674 366.259 811.061 380.151 811.488 397.017L811.5 397.918V434H775.418C756.133 434 740.5 418.367 740.5 399.082V293H811.5V329.082ZM886.5 399.082C886.5 418.065 871.351 433.51 852.483 433.988L851.582 434H815.5V397.918L815.512 397.017C815.939 380.151 828.325 366.259 844.507 363.5C828.037 360.692 815.5 346.352 815.5 329.082V293H886.5V399.082ZM961.5 329.082C961.5 346.352 948.961 360.693 932.491 363.5C948.674 366.259 961.061 380.151 961.488 397.017L961.5 397.918V434H925.418C906.133 434 890.5 418.367 890.5 399.082V293H961.5V329.082ZM1036.5 399.082C1036.5 418.065 1021.35 433.51 1002.48 433.988L1001.58 434H965.5V397.918L965.512 397.017C965.939 380.151 978.325 366.259 994.507 363.5C978.037 360.692 965.5 346.352 965.5 329.082V293H1036.5V399.082ZM1111.5 329.082C1111.5 346.352 1098.96 360.693 1082.49 363.5C1098.67 366.259 1111.06 380.151 1111.49 397.017L1111.5 397.918V434H1075.42C1056.13 434 1040.5 418.367 1040.5 399.082V293H1111.5V329.082ZM1186.5 399.082C1186.5 418.065 1171.35 433.51 1152.48 433.988L1151.58 434H1115.5V397.918L1115.51 397.017C1115.94 380.151 1128.32 366.259 1144.51 363.5C1128.04 360.692 1115.5 346.352 1115.5 329.082V293H1186.5V399.082ZM1261.5 329.082C1261.5 346.352 1248.96 360.693 1232.49 363.5C1248.67 366.259 1261.06 380.151 1261.49 397.017L1261.5 397.918V434H1225.42C1206.13 434 1190.5 418.367 1190.5 399.082V293H1261.5V329.082ZM1336.5 399.082C1336.5 418.065 1321.35 433.51 1302.48 433.988L1301.58 434H1265.5V397.918L1265.51 397.017C1265.94 380.151 1278.32 366.259 1294.51 363.5C1278.04 360.692 1265.5 346.352 1265.5 329.082V293H1336.5V399.082ZM1411.5 329.082C1411.5 346.352 1398.96 360.693 1382.49 363.5C1398.67 366.259 1411.06 380.151 1411.49 397.017L1411.5 397.918V434H1375.42C1356.13 434 1340.5 418.367 1340.5 399.082V293H1411.5V329.082ZM1486.5 399.082C1486.5 418.065 1471.35 433.51 1452.48 433.988L1451.58 434H1415.5V397.918L1415.51 397.017C1415.94 380.151 1428.32 366.259 1444.51 363.5C1428.04 360.692 1415.5 346.352 1415.5 329.082V293H1486.5V399.082ZM-8.5 399.082L-8.48926 399.957C-8.02512 418.285 6.97815 433 25.418 433H60.5V397.918C60.5 379.186 45.3144 364 26.582 364H-8.5V399.082ZM100.418 364C81.6856 364 66.5 379.186 66.5 397.918V433H101.582L102.457 432.989C120.785 432.525 135.5 417.522 135.5 399.082V364H100.418ZM141.5 399.082L141.511 399.957C141.975 418.285 156.978 433 175.418 433H210.5V397.918C210.5 379.186 195.314 364 176.582 364H141.5V399.082ZM250.418 364C231.686 364 216.5 379.186 216.5 397.918V433H251.582L252.457 432.989C270.785 432.525 285.5 417.522 285.5 399.082V364H250.418ZM291.5 399.082L291.511 399.957C291.975 418.285 306.978 433 325.418 433H360.5V397.918C360.5 379.186 345.314 364 326.582 364H291.5V399.082ZM400.418 364C381.686 364 366.5 379.186 366.5 397.918V433H401.582L402.457 432.989C420.785 432.525 435.5 417.522 435.5 399.082V364H400.418ZM441.5 399.082L441.511 399.957C441.975 418.285 456.978 433 475.418 433H510.5V397.918C510.5 379.186 495.314 364 476.582 364H441.5V399.082ZM550.418 364C531.686 364 516.5 379.186 516.5 397.918V433H551.582L552.457 432.989C570.785 432.525 585.5 417.522 585.5 399.082V364H550.418ZM591.5 399.082L591.511 399.957C591.975 418.285 606.978 433 625.418 433H660.5V397.918C660.5 379.186 645.314 364 626.582 364H591.5V399.082ZM700.418 364C681.686 364 666.5 379.186 666.5 397.918V433H701.582L702.457 432.989C720.785 432.525 735.5 417.522 735.5 399.082V364H700.418ZM741.5 399.082L741.511 399.957C741.975 418.285 756.978 433 775.418 433H810.5V397.918C810.5 379.186 795.314 364 776.582 364H741.5V399.082ZM850.418 364C831.686 364 816.5 379.186 816.5 397.918V433H851.582L852.457 432.989C870.785 432.525 885.5 417.522 885.5 399.082V364H850.418ZM891.5 399.082L891.511 399.957C891.975 418.285 906.978 433 925.418 433H960.5V397.918C960.5 379.186 945.314 364 926.582 364H891.5V399.082ZM1000.42 364C981.686 364 966.5 379.186 966.5 397.918V433H1001.58L1002.46 432.989C1020.79 432.525 1035.5 417.522 1035.5 399.082V364H1000.42ZM1041.5 399.082L1041.51 399.957C1041.97 418.285 1056.98 433 1075.42 433H1110.5V397.918C1110.5 379.186 1095.31 364 1076.58 364H1041.5V399.082ZM1150.42 364C1131.69 364 1116.5 379.186 1116.5 397.918V433H1151.58L1152.46 432.989C1170.79 432.525 1185.5 417.522 1185.5 399.082V364H1150.42ZM1191.5 399.082L1191.51 399.957C1191.97 418.285 1206.98 433 1225.42 433H1260.5V397.918C1260.5 379.186 1245.31 364 1226.58 364H1191.5V399.082ZM1300.42 364C1281.69 364 1266.5 379.186 1266.5 397.918V433H1301.58L1302.46 432.989C1320.79 432.525 1335.5 417.522 1335.5 399.082V364H1300.42ZM1341.5 399.082L1341.51 399.957C1341.97 418.285 1356.98 433 1375.42 433H1410.5V397.918C1410.5 379.186 1395.31 364 1376.58 364H1341.5V399.082ZM1450.42 364C1431.69 364 1416.5 379.186 1416.5 397.918V433H1451.58L1452.46 432.989C1470.79 432.525 1485.5 417.522 1485.5 399.082V364H1450.42ZM-8.5 363H26.582L27.457 362.989C45.785 362.525 60.5 347.522 60.5 329.082V294H-8.5V363ZM66.5 329.082C66.5 347.814 81.6856 363 100.418 363H135.5V294H66.5V329.082ZM141.5 363H176.582L177.457 362.989C195.785 362.525 210.5 347.522 210.5 329.082V294H141.5V363ZM216.5 329.082C216.5 347.814 231.686 363 250.418 363H285.5V294H216.5V329.082ZM291.5 363H326.582L327.457 362.989C345.785 362.525 360.5 347.522 360.5 329.082V294H291.5V363ZM366.5 329.082C366.5 347.814 381.686 363 400.418 363H435.5V294H366.5V329.082ZM441.5 363H476.582L477.457 362.989C495.785 362.525 510.5 347.522 510.5 329.082V294H441.5V363ZM516.5 329.082C516.5 347.814 531.686 363 550.418 363H585.5V294H516.5V329.082ZM591.5 363H626.582L627.457 362.989C645.785 362.525 660.5 347.522 660.5 329.082V294H591.5V363ZM666.5 329.082C666.5 347.814 681.686 363 700.418 363H735.5V294H666.5V329.082ZM741.5 363H776.582L777.457 362.989C795.785 362.525 810.5 347.522 810.5 329.082V294H741.5V363ZM816.5 329.082C816.5 347.814 831.686 363 850.418 363H885.5V294H816.5V329.082ZM891.5 363H926.582L927.457 362.989C945.785 362.525 960.5 347.522 960.5 329.082V294H891.5V363ZM966.5 329.082C966.5 347.814 981.686 363 1000.42 363H1035.5V294H966.5V329.082ZM1041.5 363H1076.58L1077.46 362.989C1095.79 362.525 1110.5 347.522 1110.5 329.082V294H1041.5V363ZM1116.5 329.082C1116.5 347.814 1131.69 363 1150.42 363H1185.5V294H1116.5V329.082ZM1191.5 363H1226.58L1227.46 362.989C1245.79 362.525 1260.5 347.522 1260.5 329.082V294H1191.5V363ZM1266.5 329.082C1266.5 347.814 1281.69 363 1300.42 363H1335.5V294H1266.5V329.082ZM1341.5 363H1376.58L1377.46 362.989C1395.79 362.525 1410.5 347.522 1410.5 329.082V294H1341.5V363ZM1416.5 329.082C1416.5 347.814 1431.69 363 1450.42 363H1485.5V294H1416.5V329.082ZM61.5 184.082L61.4883 184.983C61.0609 201.849 48.6741 215.741 32.4912 218.5C48.9615 221.307 61.5 235.648 61.5 252.918V289H-9.5V182.918C-9.49997 163.633 6.13332 148 25.418 148H61.5V184.082ZM102.483 148.012C121.351 148.49 136.5 163.935 136.5 182.918V289H65.5V252.918C65.5 235.648 78.0375 221.308 94.5068 218.5C78.3249 215.741 65.9391 201.849 65.5117 184.983L65.5 184.082V148H101.582L102.483 148.012ZM211.5 184.082L211.488 184.983C211.061 201.849 198.674 215.741 182.491 218.5C198.962 221.307 211.5 235.648 211.5 252.918V289H140.5V182.918C140.5 163.633 156.133 148 175.418 148H211.5V184.082ZM252.483 148.012C271.351 148.49 286.5 163.935 286.5 182.918V289H215.5V252.918C215.5 235.648 228.037 221.308 244.507 218.5C228.325 215.741 215.939 201.849 215.512 184.983L215.5 184.082V148H251.582L252.483 148.012ZM361.5 184.082L361.488 184.983C361.061 201.849 348.674 215.741 332.491 218.5C348.962 221.307 361.5 235.648 361.5 252.918V289H290.5V182.918C290.5 163.633 306.133 148 325.418 148H361.5V184.082ZM402.483 148.012C421.351 148.49 436.5 163.935 436.5 182.918V289H365.5V252.918C365.5 235.648 378.037 221.308 394.507 218.5C378.325 215.741 365.939 201.849 365.512 184.983L365.5 184.082V148H401.582L402.483 148.012ZM511.5 184.082L511.488 184.983C511.061 201.849 498.674 215.741 482.491 218.5C498.962 221.307 511.5 235.648 511.5 252.918V289H440.5V182.918C440.5 163.633 456.133 148 475.418 148H511.5V184.082ZM552.483 148.012C571.351 148.49 586.5 163.935 586.5 182.918V289H515.5V252.918C515.5 235.648 528.037 221.308 544.507 218.5C528.325 215.741 515.939 201.849 515.512 184.983L515.5 184.082V148H551.582L552.483 148.012ZM661.5 184.082L661.488 184.983C661.061 201.849 648.674 215.741 632.491 218.5C648.961 221.307 661.5 235.648 661.5 252.918V289H590.5V182.918C590.5 163.633 606.133 148 625.418 148H661.5V184.082ZM702.483 148.012C721.351 148.49 736.5 163.935 736.5 182.918V289H665.5V252.918C665.5 235.648 678.037 221.308 694.507 218.5C678.325 215.741 665.939 201.849 665.512 184.983L665.5 184.082V148H701.582L702.483 148.012ZM811.5 184.082L811.488 184.983C811.061 201.849 798.674 215.741 782.491 218.5C798.961 221.307 811.5 235.648 811.5 252.918V289H740.5V182.918C740.5 163.633 756.133 148 775.418 148H811.5V184.082ZM852.483 148.012C871.351 148.49 886.5 163.935 886.5 182.918V289H815.5V252.918C815.5 235.648 828.037 221.308 844.507 218.5C828.325 215.741 815.939 201.849 815.512 184.983L815.5 184.082V148H851.582L852.483 148.012ZM961.5 184.082L961.488 184.983C961.061 201.849 948.674 215.741 932.491 218.5C948.961 221.307 961.5 235.648 961.5 252.918V289H890.5V182.918C890.5 163.633 906.133 148 925.418 148H961.5V184.082ZM1002.48 148.012C1021.35 148.49 1036.5 163.935 1036.5 182.918V289H965.5V252.918C965.5 235.648 978.037 221.308 994.507 218.5C978.325 215.741 965.939 201.849 965.512 184.983L965.5 184.082V148H1001.58L1002.48 148.012ZM1111.5 184.082L1111.49 184.983C1111.06 201.849 1098.67 215.741 1082.49 218.5C1098.96 221.307 1111.5 235.648 1111.5 252.918V289H1040.5V182.918C1040.5 163.633 1056.13 148 1075.42 148H1111.5V184.082ZM1152.48 148.012C1171.35 148.49 1186.5 163.935 1186.5 182.918V289H1115.5V252.918C1115.5 235.648 1128.04 221.308 1144.51 218.5C1128.32 215.741 1115.94 201.849 1115.51 184.983L1115.5 184.082V148H1151.58L1152.48 148.012ZM1261.5 184.082L1261.49 184.983C1261.06 201.849 1248.67 215.741 1232.49 218.5C1248.96 221.307 1261.5 235.648 1261.5 252.918V289H1190.5V182.918C1190.5 163.633 1206.13 148 1225.42 148H1261.5V184.082ZM1302.48 148.012C1321.35 148.49 1336.5 163.935 1336.5 182.918V289H1265.5V252.918C1265.5 235.648 1278.04 221.308 1294.51 218.5C1278.32 215.741 1265.94 201.849 1265.51 184.983L1265.5 184.082V148H1301.58L1302.48 148.012ZM1411.5 184.082L1411.49 184.983C1411.06 201.849 1398.67 215.741 1382.49 218.5C1398.96 221.307 1411.5 235.648 1411.5 252.918V289H1340.5V182.918C1340.5 163.633 1356.13 148 1375.42 148H1411.5V184.082ZM1452.48 148.012C1471.35 148.49 1486.5 163.935 1486.5 182.918V289H1415.5V252.918C1415.5 235.648 1428.04 221.308 1444.51 218.5C1428.32 215.741 1415.94 201.849 1415.51 184.983L1415.5 184.082V148H1451.58L1452.48 148.012ZM-8.5 288H60.5V252.918C60.5 234.478 45.785 219.475 27.457 219.011L26.582 219H-8.5V288ZM100.418 219C81.6856 219 66.5 234.186 66.5 252.918V288H135.5V219H100.418ZM141.5 288H210.5V252.918C210.5 234.478 195.785 219.475 177.457 219.011L176.582 219H141.5V288ZM250.418 219C231.686 219 216.5 234.186 216.5 252.918V288H285.5V219H250.418ZM291.5 288H360.5V252.918C360.5 234.478 345.785 219.475 327.457 219.011L326.582 219H291.5V288ZM400.418 219C381.686 219 366.5 234.186 366.5 252.918V288H435.5V219H400.418ZM441.5 288H510.5V252.918C510.5 234.478 495.785 219.475 477.457 219.011L476.582 219H441.5V288ZM550.418 219C531.686 219 516.5 234.186 516.5 252.918V288H585.5V219H550.418ZM591.5 288H660.5V252.918C660.5 234.478 645.785 219.475 627.457 219.011L626.582 219H591.5V288ZM700.418 219C681.686 219 666.5 234.186 666.5 252.918V288H735.5V219H700.418ZM741.5 288H810.5V252.918C810.5 234.478 795.785 219.475 777.457 219.011L776.582 219H741.5V288ZM850.418 219C831.686 219 816.5 234.186 816.5 252.918V288H885.5V219H850.418ZM891.5 288H960.5V252.918C960.5 234.478 945.785 219.475 927.457 219.011L926.582 219H891.5V288ZM1000.42 219C981.686 219 966.5 234.186 966.5 252.918V288H1035.5V219H1000.42ZM1041.5 288H1110.5V252.918C1110.5 234.478 1095.79 219.475 1077.46 219.011L1076.58 219H1041.5V288ZM1150.42 219C1131.69 219 1116.5 234.186 1116.5 252.918V288H1185.5V219H1150.42ZM1191.5 288H1260.5V252.918C1260.5 234.478 1245.79 219.475 1227.46 219.011L1226.58 219H1191.5V288ZM1300.42 219C1281.69 219 1266.5 234.186 1266.5 252.918V288H1335.5V219H1300.42ZM1341.5 288H1410.5V252.918C1410.5 234.478 1395.79 219.475 1377.46 219.011L1376.58 219H1341.5V288ZM1450.42 219C1431.69 219 1416.5 234.186 1416.5 252.918V288H1485.5V219H1450.42ZM25.418 149C6.97815 149 -8.02512 163.715 -8.48926 182.043L-8.5 182.918V218H26.582C45.3144 218 60.5 202.814 60.5 184.082V149H25.418ZM66.5 184.082C66.5 202.814 81.6856 218 100.418 218H135.5V182.918C135.5 164.478 120.785 149.475 102.457 149.011L101.582 149H66.5V184.082ZM175.418 149C156.978 149 141.975 163.715 141.511 182.043L141.5 182.918V218H176.582C195.314 218 210.5 202.814 210.5 184.082V149H175.418ZM216.5 184.082C216.5 202.814 231.686 218 250.418 218H285.5V182.918C285.5 164.478 270.785 149.475 252.457 149.011L251.582 149H216.5V184.082ZM325.418 149C306.978 149 291.975 163.715 291.511 182.043L291.5 182.918V218H326.582C345.314 218 360.5 202.814 360.5 184.082V149H325.418ZM366.5 184.082C366.5 202.814 381.686 218 400.418 218H435.5V182.918C435.5 164.478 420.785 149.475 402.457 149.011L401.582 149H366.5V184.082ZM475.418 149C456.978 149 441.975 163.715 441.511 182.043L441.5 182.918V218H476.582C495.314 218 510.5 202.814 510.5 184.082V149H475.418ZM516.5 184.082C516.5 202.814 531.686 218 550.418 218H585.5V182.918C585.5 164.478 570.785 149.475 552.457 149.011L551.582 149H516.5V184.082ZM625.418 149C606.978 149 591.975 163.715 591.511 182.043L591.5 182.918V218H626.582C645.314 218 660.5 202.814 660.5 184.082V149H625.418ZM666.5 184.082C666.5 202.814 681.686 218 700.418 218H735.5V182.918C735.5 164.478 720.785 149.475 702.457 149.011L701.582 149H666.5V184.082ZM775.418 149C756.978 149 741.975 163.715 741.511 182.043L741.5 182.918V218H776.582C795.314 218 810.5 202.814 810.5 184.082V149H775.418ZM816.5 184.082C816.5 202.814 831.686 218 850.418 218H885.5V182.918C885.5 164.478 870.785 149.475 852.457 149.011L851.582 149H816.5V184.082ZM925.418 149C906.978 149 891.975 163.715 891.511 182.043L891.5 182.918V218H926.582C945.314 218 960.5 202.814 960.5 184.082V149H925.418ZM966.5 184.082C966.5 202.814 981.686 218 1000.42 218H1035.5V182.918C1035.5 164.478 1020.79 149.475 1002.46 149.011L1001.58 149H966.5V184.082ZM1075.42 149C1056.98 149 1041.97 163.715 1041.51 182.043L1041.5 182.918V218H1076.58C1095.31 218 1110.5 202.814 1110.5 184.082V149H1075.42ZM1116.5 184.082C1116.5 202.814 1131.69 218 1150.42 218H1185.5V182.918C1185.5 164.478 1170.79 149.475 1152.46 149.011L1151.58 149H1116.5V184.082ZM1225.42 149C1206.98 149 1191.97 163.715 1191.51 182.043L1191.5 182.918V218H1226.58C1245.31 218 1260.5 202.814 1260.5 184.082V149H1225.42ZM1266.5 184.082C1266.5 202.814 1281.69 218 1300.42 218H1335.5V182.918C1335.5 164.478 1320.79 149.475 1302.46 149.011L1301.58 149H1266.5V184.082ZM1375.42 149C1356.98 149 1341.97 163.715 1341.51 182.043L1341.5 182.918V218H1376.58C1395.31 218 1410.5 202.814 1410.5 184.082V149H1375.42ZM1416.5 184.082C1416.5 202.814 1431.69 218 1450.42 218H1485.5V182.918C1485.5 164.478 1470.79 149.475 1452.46 149.011L1451.58 149H1416.5V184.082ZM61.5 39.082C61.5 56.3525 48.9615 70.6925 32.4912 73.5C48.6741 76.2585 61.0609 90.1505 61.4883 107.017L61.5 107.918V144H25.418C6.13332 144 -9.49997 128.367 -9.5 109.082V3H61.5V39.082ZM136.5 109.082C136.5 128.065 121.351 143.51 102.483 143.988L101.582 144H65.5V107.918L65.5117 107.017C65.9391 90.1512 78.3249 76.2594 94.5068 73.5C78.0375 70.6917 65.5 56.3518 65.5 39.082V3H136.5V109.082ZM211.5 39.082C211.5 56.3525 198.962 70.6925 182.491 73.5C198.674 76.2585 211.061 90.1505 211.488 107.017L211.5 107.918V144H175.418C156.133 144 140.5 128.367 140.5 109.082V3H211.5V39.082ZM286.5 109.082C286.5 128.065 271.351 143.51 252.483 143.988L251.582 144H215.5V107.918L215.512 107.017C215.939 90.1512 228.325 76.2594 244.507 73.5C228.037 70.6917 215.5 56.3518 215.5 39.082V3H286.5V109.082ZM361.5 39.082C361.5 56.3525 348.962 70.6925 332.491 73.5C348.674 76.2585 361.061 90.1505 361.488 107.017L361.5 107.918V144H325.418C306.133 144 290.5 128.367 290.5 109.082V3H361.5V39.082ZM436.5 109.082C436.5 128.065 421.351 143.51 402.483 143.988L401.582 144H365.5V107.918L365.512 107.017C365.939 90.1512 378.325 76.2594 394.507 73.5C378.037 70.6917 365.5 56.3518 365.5 39.082V3H436.5V109.082ZM511.5 39.082C511.5 56.3525 498.962 70.6925 482.491 73.5C498.674 76.2585 511.061 90.1505 511.488 107.017L511.5 107.918V144H475.418C456.133 144 440.5 128.367 440.5 109.082V3H511.5V39.082ZM586.5 109.082C586.5 128.065 571.351 143.51 552.483 143.988L551.582 144H515.5V107.918L515.512 107.017C515.939 90.1512 528.325 76.2594 544.507 73.5C528.037 70.6917 515.5 56.3518 515.5 39.082V3H586.5V109.082ZM661.5 39.082C661.5 56.3525 648.961 70.6925 632.491 73.5C648.674 76.2585 661.061 90.1505 661.488 107.017L661.5 107.918V144H625.418C606.133 144 590.5 128.367 590.5 109.082V3H661.5V39.082ZM736.5 109.082C736.5 128.065 721.351 143.51 702.483 143.988L701.582 144H665.5V107.918L665.512 107.017C665.939 90.1512 678.325 76.2594 694.507 73.5C678.037 70.6917 665.5 56.3518 665.5 39.082V3H736.5V109.082ZM811.5 39.082C811.5 56.3525 798.961 70.6925 782.491 73.5C798.674 76.2585 811.061 90.1505 811.488 107.017L811.5 107.918V144H775.418C756.133 144 740.5 128.367 740.5 109.082V3H811.5V39.082ZM886.5 109.082C886.5 128.065 871.351 143.51 852.483 143.988L851.582 144H815.5V107.918L815.512 107.017C815.939 90.1512 828.325 76.2594 844.507 73.5C828.037 70.6917 815.5 56.3518 815.5 39.082V3H886.5V109.082ZM961.5 39.082C961.5 56.3525 948.961 70.6925 932.491 73.5C948.674 76.2585 961.061 90.1505 961.488 107.017L961.5 107.918V144H925.418C906.133 144 890.5 128.367 890.5 109.082V3H961.5V39.082ZM1036.5 109.082C1036.5 128.065 1021.35 143.51 1002.48 143.988L1001.58 144H965.5V107.918L965.512 107.017C965.939 90.1512 978.325 76.2594 994.507 73.5C978.037 70.6917 965.5 56.3518 965.5 39.082V3H1036.5V109.082ZM1111.5 39.082C1111.5 56.3525 1098.96 70.6925 1082.49 73.5C1098.67 76.2585 1111.06 90.1505 1111.49 107.017L1111.5 107.918V144H1075.42C1056.13 144 1040.5 128.367 1040.5 109.082V3H1111.5V39.082ZM1186.5 109.082C1186.5 128.065 1171.35 143.51 1152.48 143.988L1151.58 144H1115.5V107.918L1115.51 107.017C1115.94 90.1512 1128.32 76.2594 1144.51 73.5C1128.04 70.6917 1115.5 56.3518 1115.5 39.082V3H1186.5V109.082ZM1261.5 39.082C1261.5 56.3525 1248.96 70.6925 1232.49 73.5C1248.67 76.2585 1261.06 90.1505 1261.49 107.017L1261.5 107.918V144H1225.42C1206.13 144 1190.5 128.367 1190.5 109.082V3H1261.5V39.082ZM1336.5 109.082C1336.5 128.065 1321.35 143.51 1302.48 143.988L1301.58 144H1265.5V107.918L1265.51 107.017C1265.94 90.1512 1278.32 76.2594 1294.51 73.5C1278.04 70.6917 1265.5 56.3518 1265.5 39.082V3H1336.5V109.082ZM1411.5 39.082C1411.5 56.3525 1398.96 70.6925 1382.49 73.5C1398.67 76.2585 1411.06 90.1505 1411.49 107.017L1411.5 107.918V144H1375.42C1356.13 144 1340.5 128.367 1340.5 109.082V3H1411.5V39.082ZM1486.5 109.082C1486.5 128.065 1471.35 143.51 1452.48 143.988L1451.58 144H1415.5V107.918L1415.51 107.017C1415.94 90.1512 1428.32 76.2594 1444.51 73.5C1428.04 70.6917 1415.5 56.3518 1415.5 39.082V3H1486.5V109.082ZM-8.5 109.082L-8.48926 109.957C-8.02512 128.285 6.97815 143 25.418 143H60.5V107.918C60.5 89.1856 45.3144 74 26.582 74H-8.5V109.082ZM100.418 74C81.6856 74 66.5 89.1856 66.5 107.918V143H101.582L102.457 142.989C120.785 142.525 135.5 127.522 135.5 109.082V74H100.418ZM141.5 109.082L141.511 109.957C141.975 128.285 156.978 143 175.418 143H210.5V107.918C210.5 89.1856 195.314 74 176.582 74H141.5V109.082ZM250.418 74C231.686 74 216.5 89.1856 216.5 107.918V143H251.582L252.457 142.989C270.785 142.525 285.5 127.522 285.5 109.082V74H250.418ZM291.5 109.082L291.511 109.957C291.975 128.285 306.978 143 325.418 143H360.5V107.918C360.5 89.1856 345.314 74 326.582 74H291.5V109.082ZM400.418 74C381.686 74 366.5 89.1856 366.5 107.918V143H401.582L402.457 142.989C420.785 142.525 435.5 127.522 435.5 109.082V74H400.418ZM441.5 109.082L441.511 109.957C441.975 128.285 456.978 143 475.418 143H510.5V107.918C510.5 89.1856 495.314 74 476.582 74H441.5V109.082ZM550.418 74C531.686 74 516.5 89.1856 516.5 107.918V143H551.582L552.457 142.989C570.785 142.525 585.5 127.522 585.5 109.082V74H550.418ZM591.5 109.082L591.511 109.957C591.975 128.285 606.978 143 625.418 143H660.5V107.918C660.5 89.1856 645.314 74 626.582 74H591.5V109.082ZM700.418 74C681.686 74 666.5 89.1856 666.5 107.918V143H701.582L702.457 142.989C720.785 142.525 735.5 127.522 735.5 109.082V74H700.418ZM741.5 109.082L741.511 109.957C741.975 128.285 756.978 143 775.418 143H810.5V107.918C810.5 89.1856 795.314 74 776.582 74H741.5V109.082ZM850.418 74C831.686 74 816.5 89.1856 816.5 107.918V143H851.582L852.457 142.989C870.785 142.525 885.5 127.522 885.5 109.082V74H850.418ZM891.5 109.082L891.511 109.957C891.975 128.285 906.978 143 925.418 143H960.5V107.918C960.5 89.1856 945.314 74 926.582 74H891.5V109.082ZM1000.42 74C981.686 74 966.5 89.1856 966.5 107.918V143H1001.58L1002.46 142.989C1020.79 142.525 1035.5 127.522 1035.5 109.082V74H1000.42ZM1041.5 109.082L1041.51 109.957C1041.97 128.285 1056.98 143 1075.42 143H1110.5V107.918C1110.5 89.1856 1095.31 74 1076.58 74H1041.5V109.082ZM1150.42 74C1131.69 74 1116.5 89.1856 1116.5 107.918V143H1151.58L1152.46 142.989C1170.79 142.525 1185.5 127.522 1185.5 109.082V74H1150.42ZM1191.5 109.082L1191.51 109.957C1191.97 128.285 1206.98 143 1225.42 143H1260.5V107.918C1260.5 89.1856 1245.31 74 1226.58 74H1191.5V109.082ZM1300.42 74C1281.69 74 1266.5 89.1856 1266.5 107.918V143H1301.58L1302.46 142.989C1320.79 142.525 1335.5 127.522 1335.5 109.082V74H1300.42ZM1341.5 109.082L1341.51 109.957C1341.97 128.285 1356.98 143 1375.42 143H1410.5V107.918C1410.5 89.1856 1395.31 74 1376.58 74H1341.5V109.082ZM1450.42 74C1431.69 74 1416.5 89.1856 1416.5 107.918V143H1451.58L1452.46 142.989C1470.79 142.525 1485.5 127.522 1485.5 109.082V74H1450.42ZM-8.5 73H26.582L27.457 72.9893C45.785 72.5251 60.5 57.5219 60.5 39.082V4H-8.5V73ZM66.5 39.082C66.5 57.8144 81.6856 73 100.418 73H135.5V4H66.5V39.082ZM141.5 73H176.582L177.457 72.9893C195.785 72.5251 210.5 57.5219 210.5 39.082V4H141.5V73ZM216.5 39.082C216.5 57.8144 231.686 73 250.418 73H285.5V4H216.5V39.082ZM291.5 73H326.582L327.457 72.9893C345.785 72.5251 360.5 57.5219 360.5 39.082V4H291.5V73ZM366.5 39.082C366.5 57.8144 381.686 73 400.418 73H435.5V4H366.5V39.082ZM441.5 73H476.582L477.457 72.9893C495.785 72.5251 510.5 57.5219 510.5 39.082V4H441.5V73ZM516.5 39.082C516.5 57.8144 531.686 73 550.418 73H585.5V4H516.5V39.082ZM591.5 73H626.582L627.457 72.9893C645.785 72.5251 660.5 57.5219 660.5 39.082V4H591.5V73ZM666.5 39.082C666.5 57.8144 681.686 73 700.418 73H735.5V4H666.5V39.082ZM741.5 73H776.582L777.457 72.9893C795.785 72.5251 810.5 57.5219 810.5 39.082V4H741.5V73ZM816.5 39.082C816.5 57.8144 831.686 73 850.418 73H885.5V4H816.5V39.082ZM891.5 73H926.582L927.457 72.9893C945.785 72.5251 960.5 57.5219 960.5 39.082V4H891.5V73ZM966.5 39.082C966.5 57.8144 981.686 73 1000.42 73H1035.5V4H966.5V39.082ZM1041.5 73H1076.58L1077.46 72.9893C1095.79 72.5251 1110.5 57.5219 1110.5 39.082V4H1041.5V73ZM1116.5 39.082C1116.5 57.8144 1131.69 73 1150.42 73H1185.5V4H1116.5V39.082ZM1191.5 73H1226.58L1227.46 72.9893C1245.79 72.5251 1260.5 57.5219 1260.5 39.082V4H1191.5V73ZM1266.5 39.082C1266.5 57.8144 1281.69 73 1300.42 73H1335.5V4H1266.5V39.082ZM1341.5 73H1376.58L1377.46 72.9893C1395.79 72.5251 1410.5 57.5219 1410.5 39.082V4H1341.5V73ZM1416.5 39.082C1416.5 57.8144 1431.69 73 1450.42 73H1485.5V4H1416.5V39.082ZM61.5 -105.918L61.4883 -105.017C61.0609 -88.1505 48.6741 -74.2585 32.4912 -71.5C48.9615 -68.6925 61.5 -54.3525 61.5 -37.082V-1H-9.5V-107.082C-9.49997 -126.367 6.13332 -142 25.418 -142H61.5V-105.918ZM102.483 -141.988C121.351 -141.51 136.5 -126.065 136.5 -107.082V-1H65.5V-37.082C65.5 -54.3518 78.0375 -68.6917 94.5068 -71.5C78.3249 -74.2593 65.9391 -88.1512 65.5117 -105.017L65.5 -105.918V-142H101.582L102.483 -141.988ZM211.5 -105.918L211.488 -105.017C211.061 -88.1505 198.674 -74.2585 182.491 -71.5C198.962 -68.6925 211.5 -54.3525 211.5 -37.082V-1H140.5V-107.082C140.5 -126.367 156.133 -142 175.418 -142H211.5V-105.918ZM252.483 -141.988C271.351 -141.51 286.5 -126.065 286.5 -107.082V-1H215.5V-37.082C215.5 -54.3518 228.037 -68.6917 244.507 -71.5C228.325 -74.2593 215.939 -88.1512 215.512 -105.017L215.5 -105.918V-142H251.582L252.483 -141.988ZM361.5 -105.918L361.488 -105.017C361.061 -88.1505 348.674 -74.2585 332.491 -71.5C348.962 -68.6925 361.5 -54.3525 361.5 -37.082V-1H290.5V-107.082C290.5 -126.367 306.133 -142 325.418 -142H361.5V-105.918ZM402.483 -141.988C421.351 -141.51 436.5 -126.065 436.5 -107.082V-1H365.5V-37.082C365.5 -54.3518 378.037 -68.6917 394.507 -71.5C378.325 -74.2593 365.939 -88.1512 365.512 -105.017L365.5 -105.918V-142H401.582L402.483 -141.988ZM511.5 -105.918L511.488 -105.017C511.061 -88.1505 498.674 -74.2585 482.491 -71.5C498.962 -68.6925 511.5 -54.3525 511.5 -37.082V-1H440.5V-107.082C440.5 -126.367 456.133 -142 475.418 -142H511.5V-105.918ZM552.483 -141.988C571.351 -141.51 586.5 -126.065 586.5 -107.082V-1H515.5V-37.082C515.5 -54.3518 528.037 -68.6917 544.507 -71.5C528.325 -74.2593 515.939 -88.1512 515.512 -105.017L515.5 -105.918V-142H551.582L552.483 -141.988ZM661.5 -105.918L661.488 -105.017C661.061 -88.1505 648.674 -74.2585 632.491 -71.5C648.961 -68.6925 661.5 -54.3525 661.5 -37.082V-1H590.5V-107.082C590.5 -126.367 606.133 -142 625.418 -142H661.5V-105.918ZM702.483 -141.988C721.351 -141.51 736.5 -126.065 736.5 -107.082V-1H665.5V-37.082C665.5 -54.3518 678.037 -68.6917 694.507 -71.5C678.325 -74.2593 665.939 -88.1512 665.512 -105.017L665.5 -105.918V-142H701.582L702.483 -141.988ZM811.5 -105.918L811.488 -105.017C811.061 -88.1505 798.674 -74.2585 782.491 -71.5C798.961 -68.6925 811.5 -54.3525 811.5 -37.082V-1H740.5V-107.082C740.5 -126.367 756.133 -142 775.418 -142H811.5V-105.918ZM852.483 -141.988C871.351 -141.51 886.5 -126.065 886.5 -107.082V-1H815.5V-37.082C815.5 -54.3518 828.037 -68.6917 844.507 -71.5C828.325 -74.2593 815.939 -88.1512 815.512 -105.017L815.5 -105.918V-142H851.582L852.483 -141.988ZM961.5 -105.918L961.488 -105.017C961.061 -88.1505 948.674 -74.2585 932.491 -71.5C948.961 -68.6925 961.5 -54.3525 961.5 -37.082V-1H890.5V-107.082C890.5 -126.367 906.133 -142 925.418 -142H961.5V-105.918ZM1002.48 -141.988C1021.35 -141.51 1036.5 -126.065 1036.5 -107.082V-1H965.5V-37.082C965.5 -54.3518 978.037 -68.6917 994.507 -71.5C978.325 -74.2593 965.939 -88.1512 965.512 -105.017L965.5 -105.918V-142H1001.58L1002.48 -141.988ZM1111.5 -105.918L1111.49 -105.017C1111.06 -88.1505 1098.67 -74.2585 1082.49 -71.5C1098.96 -68.6925 1111.5 -54.3525 1111.5 -37.082V-1H1040.5V-107.082C1040.5 -126.367 1056.13 -142 1075.42 -142H1111.5V-105.918ZM1152.48 -141.988C1171.35 -141.51 1186.5 -126.065 1186.5 -107.082V-1H1115.5V-37.082C1115.5 -54.3518 1128.04 -68.6917 1144.51 -71.5C1128.32 -74.2593 1115.94 -88.1512 1115.51 -105.017L1115.5 -105.918V-142H1151.58L1152.48 -141.988ZM1261.5 -105.918L1261.49 -105.017C1261.06 -88.1505 1248.67 -74.2585 1232.49 -71.5C1248.96 -68.6925 1261.5 -54.3525 1261.5 -37.082V-1H1190.5V-107.082C1190.5 -126.367 1206.13 -142 1225.42 -142H1261.5V-105.918ZM1302.48 -141.988C1321.35 -141.51 1336.5 -126.065 1336.5 -107.082V-1H1265.5V-37.082C1265.5 -54.3518 1278.04 -68.6917 1294.51 -71.5C1278.32 -74.2593 1265.94 -88.1512 1265.51 -105.017L1265.5 -105.918V-142H1301.58L1302.48 -141.988ZM1411.5 -105.918L1411.49 -105.017C1411.06 -88.1505 1398.67 -74.2585 1382.49 -71.5C1398.96 -68.6925 1411.5 -54.3525 1411.5 -37.082V-1H1340.5V-107.082C1340.5 -126.367 1356.13 -142 1375.42 -142H1411.5V-105.918ZM1452.48 -141.988C1471.35 -141.51 1486.5 -126.065 1486.5 -107.082V-1H1415.5V-37.082C1415.5 -54.3518 1428.04 -68.6917 1444.51 -71.5C1428.32 -74.2593 1415.94 -88.1512 1415.51 -105.017L1415.5 -105.918V-142H1451.58L1452.48 -141.988ZM-8.5 -2H60.5V-37.082C60.5 -55.5219 45.785 -70.5251 27.457 -70.9893L26.582 -71H-8.5V-2ZM100.418 -71C81.6856 -71 66.5 -55.8144 66.5 -37.082V-2H135.5V-71H100.418ZM141.5 -2H210.5V-37.082C210.5 -55.5219 195.785 -70.5251 177.457 -70.9893L176.582 -71H141.5V-2ZM250.418 -71C231.686 -71 216.5 -55.8144 216.5 -37.082V-2H285.5V-71H250.418ZM291.5 -2H360.5V-37.082C360.5 -55.5219 345.785 -70.5251 327.457 -70.9893L326.582 -71H291.5V-2ZM400.418 -71C381.686 -71 366.5 -55.8144 366.5 -37.082V-2H435.5V-71H400.418ZM441.5 -2H510.5V-37.082C510.5 -55.5219 495.785 -70.5251 477.457 -70.9893L476.582 -71H441.5V-2ZM550.418 -71C531.686 -71 516.5 -55.8144 516.5 -37.082V-2H585.5V-71H550.418ZM591.5 -2H660.5V-37.082C660.5 -55.5219 645.785 -70.5251 627.457 -70.9893L626.582 -71H591.5V-2ZM700.418 -71C681.686 -71 666.5 -55.8144 666.5 -37.082V-2H735.5V-71H700.418ZM741.5 -2H810.5V-37.082C810.5 -55.5219 795.785 -70.5251 777.457 -70.9893L776.582 -71H741.5V-2ZM850.418 -71C831.686 -71 816.5 -55.8144 816.5 -37.082V-2H885.5V-71H850.418ZM891.5 -2H960.5V-37.082C960.5 -55.5219 945.785 -70.5251 927.457 -70.9893L926.582 -71H891.5V-2ZM1000.42 -71C981.686 -71 966.5 -55.8144 966.5 -37.082V-2H1035.5V-71H1000.42ZM1041.5 -2H1110.5V-37.082C1110.5 -55.5219 1095.79 -70.5251 1077.46 -70.9893L1076.58 -71H1041.5V-2ZM1150.42 -71C1131.69 -71 1116.5 -55.8144 1116.5 -37.082V-2H1185.5V-71H1150.42ZM1191.5 -2H1260.5V-37.082C1260.5 -55.5219 1245.79 -70.5251 1227.46 -70.9893L1226.58 -71H1191.5V-2ZM1300.42 -71C1281.69 -71 1266.5 -55.8144 1266.5 -37.082V-2H1335.5V-71H1300.42ZM1341.5 -2H1410.5V-37.082C1410.5 -55.5219 1395.79 -70.5251 1377.46 -70.9893L1376.58 -71H1341.5V-2ZM1450.42 -71C1431.69 -71 1416.5 -55.8144 1416.5 -37.082V-2H1485.5V-71H1450.42ZM25.418 -141C6.97815 -141 -8.02512 -126.285 -8.48926 -107.957L-8.5 -107.082V-72H26.582C45.3144 -72 60.5 -87.1856 60.5 -105.918V-141H25.418ZM66.5 -105.918C66.5 -87.1856 81.6856 -72 100.418 -72H135.5V-107.082C135.5 -125.522 120.785 -140.525 102.457 -140.989L101.582 -141H66.5V-105.918ZM175.418 -141C156.978 -141 141.975 -126.285 141.511 -107.957L141.5 -107.082V-72H176.582C195.314 -72 210.5 -87.1856 210.5 -105.918V-141H175.418ZM216.5 -105.918C216.5 -87.1856 231.686 -72 250.418 -72H285.5V-107.082C285.5 -125.522 270.785 -140.525 252.457 -140.989L251.582 -141H216.5V-105.918ZM325.418 -141C306.978 -141 291.975 -126.285 291.511 -107.957L291.5 -107.082V-72H326.582C345.314 -72 360.5 -87.1856 360.5 -105.918V-141H325.418ZM366.5 -105.918C366.5 -87.1856 381.686 -72 400.418 -72H435.5V-107.082C435.5 -125.522 420.785 -140.525 402.457 -140.989L401.582 -141H366.5V-105.918ZM475.418 -141C456.978 -141 441.975 -126.285 441.511 -107.957L441.5 -107.082V-72H476.582C495.314 -72 510.5 -87.1856 510.5 -105.918V-141H475.418ZM516.5 -105.918C516.5 -87.1856 531.686 -72 550.418 -72H585.5V-107.082C585.5 -125.522 570.785 -140.525 552.457 -140.989L551.582 -141H516.5V-105.918ZM625.418 -141C606.978 -141 591.975 -126.285 591.511 -107.957L591.5 -107.082V-72H626.582C645.314 -72 660.5 -87.1856 660.5 -105.918V-141H625.418ZM666.5 -105.918C666.5 -87.1856 681.686 -72 700.418 -72H735.5V-107.082C735.5 -125.522 720.785 -140.525 702.457 -140.989L701.582 -141H666.5V-105.918ZM775.418 -141C756.978 -141 741.975 -126.285 741.511 -107.957L741.5 -107.082V-72H776.582C795.314 -72 810.5 -87.1856 810.5 -105.918V-141H775.418ZM816.5 -105.918C816.5 -87.1856 831.686 -72 850.418 -72H885.5V-107.082C885.5 -125.522 870.785 -140.525 852.457 -140.989L851.582 -141H816.5V-105.918ZM925.418 -141C906.978 -141 891.975 -126.285 891.511 -107.957L891.5 -107.082V-72H926.582C945.314 -72 960.5 -87.1856 960.5 -105.918V-141H925.418ZM966.5 -105.918C966.5 -87.1856 981.686 -72 1000.42 -72H1035.5V-107.082C1035.5 -125.522 1020.79 -140.525 1002.46 -140.989L1001.58 -141H966.5V-105.918ZM1075.42 -141C1056.98 -141 1041.97 -126.285 1041.51 -107.957L1041.5 -107.082V-72H1076.58C1095.31 -72 1110.5 -87.1856 1110.5 -105.918V-141H1075.42ZM1116.5 -105.918C1116.5 -87.1856 1131.69 -72 1150.42 -72H1185.5V-107.082C1185.5 -125.522 1170.79 -140.525 1152.46 -140.989L1151.58 -141H1116.5V-105.918ZM1225.42 -141C1206.98 -141 1191.97 -126.285 1191.51 -107.957L1191.5 -107.082V-72H1226.58C1245.31 -72 1260.5 -87.1856 1260.5 -105.918V-141H1225.42ZM1266.5 -105.918C1266.5 -87.1856 1281.69 -72 1300.42 -72H1335.5V-107.082C1335.5 -125.522 1320.79 -140.525 1302.46 -140.989L1301.58 -141H1266.5V-105.918ZM1375.42 -141C1356.98 -141 1341.97 -126.285 1341.51 -107.957L1341.5 -107.082V-72H1376.58C1395.31 -72 1410.5 -87.1856 1410.5 -105.918V-141H1375.42ZM1416.5 -105.918C1416.5 -87.1856 1431.69 -72 1450.42 -72H1485.5V-107.082C1485.5 -125.522 1470.79 -140.525 1452.46 -140.989L1451.58 -141H1416.5V-105.918Z" fill="white"/>
</g>
<defs>
<clipPath id="clip0_244_1736">
<rect width="1440" height="141" fill="white"/>
</clipPath>
</defs>
</svg>
