<svg width="221" height="139" viewBox="0 0 221 139" fill="none" xmlns="http://www.w3.org/2000/svg">
<g filter="url(#filter0_i_99_10962)">
<path d="M196.898 47.3219C196.898 71.1162 177.609 90.4053 153.815 90.4053L43.0833 90.4053C19.2891 90.4053 0 71.1162 0 47.3219C0 23.5277 19.2891 4.23861 43.0833 4.23861L153.815 4.23861C177.609 4.23861 196.898 23.5277 196.898 47.3219Z" fill="#FFD3E3"/>
</g>
<rect x="201.118" y="94.3706" width="94.3707" height="94.3707" rx="47.1853" transform="rotate(180 201.118 94.3706)" fill="#FBFBFB"/>
<g filter="url(#filter1_d_99_10962)">
<circle cx="153.933" cy="47.1855" r="40.9971" transform="rotate(180 153.933 47.1855)" fill="#ECEFF6"/>
</g>
<path d="M57.8528 52.8197C58.0802 52.8197 58.2318 52.9714 58.2318 53.1988V58.6568C58.2318 58.96 58.1181 59.0737 57.8528 59.0737H48.9835C44.3593 59.0737 40.8722 57.027 39.2803 53.5399C38.2948 53.9189 37.7642 54.8286 37.7642 56.4584V68.6253L31.8513 69.3075V56.2689C31.8513 50.7351 33.9739 47.8545 38.4085 47.2101C39.0908 42.6996 42.7674 39.5537 47.6948 39.5537C52.6221 39.5537 56.5262 43.344 56.5262 48.1577C56.5262 49.6359 56.2608 51.152 55.7302 52.8197H57.8528ZM48.9456 52.8197H50.8407C51.2197 51.2657 51.3714 49.977 51.3714 48.9157C51.3714 46.869 49.7794 45.1633 47.7706 45.1633C45.7238 45.1633 44.2456 46.6795 44.2456 48.7262C44.2456 51.152 45.9891 52.8197 48.9456 52.8197ZM80.3656 52.8197C80.5931 52.8197 80.7447 52.9714 80.7447 53.1988V58.6568C80.7447 58.8842 80.5931 59.0737 80.3656 59.0737C76.1205 59.0737 73.0883 58.3157 70.1697 56.61C66.4173 58.4673 63.4988 59.0737 57.8513 59.0737C57.6239 59.0358 57.4722 58.8842 57.4722 58.6568V53.1988C57.4722 52.9714 57.6239 52.8197 57.8513 52.8197C59.8601 52.8197 61.49 52.7439 63.0061 52.5923C61.5658 50.6972 60.2392 48.6504 58.8368 45.8077L60.7698 41.1456C64.4464 39.3642 67.2891 38.6061 70.0939 38.6061C75.3624 38.6061 79.0011 41.5247 79.0011 45.8835C79.0011 47.8924 78.0915 50.394 75.8173 52.5544C77.106 52.7439 78.5463 52.8197 80.3656 52.8197ZM69.298 44.4053C67.8198 44.3674 66.152 44.7085 64.1811 45.5045C65.7351 48.6883 67.0238 50.6214 68.881 52.5165C71.9891 51.3794 73.6189 49.4843 73.6189 47.8165C73.6189 45.8835 71.9133 44.4053 69.298 44.4053ZM86.5308 37.09L82.551 33.186L86.4929 29.282L90.4348 33.186L86.5308 37.09ZM80.5042 59.0737C80.2768 59.0737 80.1252 58.8842 80.1252 58.6568L80.201 53.1988C80.201 52.9714 80.3526 52.8197 80.58 52.8197C82.7026 52.8197 83.726 51.6447 83.726 48.9536L83.6881 40.5771L89.6009 39.8569V51.1141C89.6009 56.3447 86.6066 59.0737 80.5042 59.0737Z" fill="#FF2B77"/>
<defs>
<filter id="filter0_i_99_10962" x="0" y="4.23877" width="196.898" height="92.486" filterUnits="userSpaceOnUse" color-interpolation-filters="sRGB">
<feFlood flood-opacity="0" result="BackgroundImageFix"/>
<feBlend mode="normal" in="SourceGraphic" in2="BackgroundImageFix" result="shape"/>
<feColorMatrix in="SourceAlpha" type="matrix" values="0 0 0 0 0 0 0 0 0 0 0 0 0 0 0 0 0 0 127 0" result="hardAlpha"/>
<feOffset dy="6.31946"/>
<feGaussianBlur stdDeviation="6.31946"/>
<feComposite in2="hardAlpha" operator="arithmetic" k2="-1" k3="1"/>
<feColorMatrix type="matrix" values="0 0 0 0 0.0291667 0 0 0 0 0.0291667 0 0 0 0 0.0291667 0 0 0 0.25 0"/>
<feBlend mode="normal" in2="shape" result="effect1_innerShadow_99_10962"/>
</filter>
<filter id="filter1_d_99_10962" x="87.6579" y="6.18848" width="132.55" height="132.55" filterUnits="userSpaceOnUse" color-interpolation-filters="sRGB">
<feFlood flood-opacity="0" result="BackgroundImageFix"/>
<feColorMatrix in="SourceAlpha" type="matrix" values="0 0 0 0 0 0 0 0 0 0 0 0 0 0 0 0 0 0 127 0" result="hardAlpha"/>
<feOffset dy="25.2779"/>
<feGaussianBlur stdDeviation="12.6389"/>
<feComposite in2="hardAlpha" operator="out"/>
<feColorMatrix type="matrix" values="0 0 0 0 0 0 0 0 0 0 0 0 0 0 0 0 0 0 0.25 0"/>
<feBlend mode="normal" in2="BackgroundImageFix" result="effect1_dropShadow_99_10962"/>
<feBlend mode="normal" in="SourceGraphic" in2="effect1_dropShadow_99_10962" result="shape"/>
</filter>
</defs>
</svg>
